/* XPM */
static char *result[] = {
/* columns rows colors chars-per-pixel */
"50 50 175 2 ",
"   c #730B0C",
".  c #750911",
"X  c #7D1A1D",
"o  c #562512",
"O  c #562A21",
"+  c #5C3524",
"@  c #3F5C2E",
"#  c #5E4A29",
"$  c #5A5A28",
"%  c #5D5E34",
"&  c #684A26",
"*  c #7B4425",
"=  c #745B3C",
"-  c #4E652F",
";  c #556536",
":  c #636A36",
">  c #7B5549",
",  c #7E5C53",
"<  c #4C6744",
"1  c #556449",
"2  c #6D754E",
"3  c #75775A",
"4  c #82070C",
"5  c #8D0D1A",
"6  c #890E16",
"7  c #900918",
"8  c #8B111C",
"9  c #9D181D",
"0  c #AF0810",
"q  c #A20E1E",
"w  c #B40C12",
"e  c #BB0E1D",
"r  c #BE0912",
"t  c #A3131B",
"y  c #A9121F",
"u  c #B3151D",
"i  c #BA121A",
"p  c #B51A1E",
"a  c #BF1015",
"s  c #891A28",
"d  c #981C27",
"f  c #AB1322",
"g  c #A51727",
"h  c #B41524",
"j  c #B61A23",
"k  c #BE1829",
"l  c #B71A2B",
"z  c #8B2F34",
"x  c #9A2E3B",
"c  c #853738",
"v  c #A5272B",
"b  c #AB333B",
"n  c #CE0D14",
"m  c #CB0D19",
"M  c #C60C17",
"N  c #D00D13",
"B  c #CE1817",
"V  c #C3121B",
"C  c #CC141A",
"Z  c #C41A1B",
"A  c #CD161A",
"S  c #D41216",
"D  c #D3131B",
"F  c #D31B1B",
"G  c #DB1C1A",
"H  c #C21526",
"J  c #CC1322",
"K  c #C21923",
"L  c #CB1B22",
"P  c #CF1928",
"I  c #D11828",
"U  c #D91C24",
"Y  c #D02020",
"T  c #DB282F",
"R  c #D52C34",
"E  c #92512B",
"W  c #96613F",
"Q  c #923B44",
"!  c #A43A45",
"~  c #BA3E49",
"^  c #9E4C4E",
"/  c #805F40",
"(  c #874D5A",
")  c #9D4C55",
"_  c #965B5E",
"`  c #AD484D",
"'  c #807146",
"]  c #A96649",
"[  c #A57C4E",
"{  c #B37954",
"}  c #AC5C67",
"|  c #B75B60",
" . c #976E6D",
".. c #A47367",
"X. c #B3776F",
"o. c #AA7978",
"O. c #B67679",
"+. c #C86568",
"@. c #E3777C",
"#. c #768058",
"$. c #939477",
"%. c #A69768",
"&. c #B28C79",
"*. c #DEA97D",
"=. c #AE7B80",
"-. c #C77981",
";. c #D37983",
":. c #AB8283",
">. c #B28789",
",. c #BA9A85",
"<. c #8DA386",
"1. c #A9B08B",
"2. c #A9B398",
"3. c #BDB89B",
"4. c #C78C8D",
"5. c #D8818A",
"6. c #FE969F",
"7. c #ECBB93",
"8. c #CB98A0",
"9. c #DC9BA3",
"0. c #E69BA0",
"q. c #CFA6A2",
"w. c #D4A0A0",
"e. c #FFAFB3",
"r. c #F8BABF",
"t. c #D1CC94",
"y. c #DCD09E",
"u. c #E9CC9A",
"i. c #E2D29F",
"p. c #E5DBB8",
"a. c #F7E9BF",
"s. c #F3BFC8",
"d. c #DEC2C2",
"f. c #DED4C8",
"g. c #DFDBDB",
"h. c #EFC2C7",
"j. c #FFC3C3",
"k. c #FCCBCB",
"l. c #FFCED3",
"z. c #F8CED8",
"x. c #E7DFDD",
"c. c #E8D7D5",
"v. c #FFD1D3",
"b. c #FFDAD5",
"n. c #FADCDD",
"m. c #FFF0CA",
"M. c #FFFACF",
"N. c #E3E2DE",
"B. c #E6EFDE",
"V. c #F1E2DD",
"C. c #FFF9DF",
"Z. c #EADEE0",
"A. c #E3E5E4",
"S. c #ECE4E4",
"D. c #ECECEC",
"F. c #EBECE7",
"G. c #FEE3E3",
"H. c #FDE5E9",
"J. c #F4EDEB",
"K. c #FFEAEB",
"L. c #F6E7E5",
"P. c #EEF0EB",
"I. c #FEFAE5",
"U. c #F2F4EC",
"Y. c #FFF7EE",
"T. c #F5FFED",
"R. c #FEFDEE",
"E. c #FFE9F4",
"W. c #F2F2F3",
"Q. c #FFF4F5",
"!. c #FDFBF2",
"~. c #FDF6FC",
"^. c #FEFAFA",
"/. c #F5FFF4",
"(. c None",
/* pixels */
"(.(.(.(.(.(.(.(.(.(.(.(.(.(.(.(.(.(.(.(.(.(.(.(.(.(.(.(.(.(.(.(.(.(.(.(.(.(.(.(.(.(.(.(.(.(.(.(.(.(.",
"(.(.(.(.(.(.(.(.(.(.(.(.(.(.(.(.(.(.(.(.(.(.(.(.(.(.(.(.(.(.(.(.(.(.(.(.(.(.(.(.(.(.(.(.(.(.(.(.(.(.",
"(.(.(.(.(.(.(.(.(.(.(.(.(.(.(.(.(.(.(.(.(.(.(.(.(.(.(.(.(.(.(.(.(.(.(.(.(.(.(.(.(.(.(.(.(.(.(.(.(.(.",
"(.(.(.(.(.(.(.(.(.(.(.(.(.(.(.(.(.(.(.(.(.(.(.(.(.(.(.(.(.(.(.(.(.(.(.(.(.(.(.(.(.(.(.(.(.(.(.(.(.(.",
"(.(.(.(.(.(.(.(.(.(.(.(.(.(.(.(.(.(.(.(.(.(.(.(.(.(.(.(.(.(.(.(.(.(.(.(.(.(.(.(.(.(.(.(.(.(.(.(.(.(.",
"(.(.(.(.(.(.(.(.(.(.(.(.(.(.(.(.(.(.(.(.(.(.(.(.(.(.(.(.(.(.(.(.(.(.(.(.(.(.(.(.(.(.(.(.(.(.(.(.(.(.",
"(.(.(.(.(.(.(.(.(.(.(.(.(.(.(.(.(.(.(.(.(.(.(.(.(.(.(.(.(.(.(.(.(.(.(.(.(.(.(.(.(.(.(.(.(.(.(.(.(.(.",
"(.(.(.(.(.(.(.(.(.(.(.(.(.(.(.(.(.(.(.(.~.E.E.~.(.(.(.(.(.(.(.(.(.(.(.(.(.(.(.(.(.(.(.(.(.(.(.(.(.(.",
"(.(.(.(.(.(.(.(.(.(.(.(.(.(.(.(.(.(.(.^.z.( ( j.!.!.(.(.(.(.(.(.(.(.(.(.(.(.(.(.(.(.(.(.(.(.(.(.(.(.",
"(.(.(.(.(.(.(.(.(.(.(.(.(.(.(.(.(.(.(.^.=.O.X.X.I.I.(.(.(.(.(.(.(.(.(.(.(.(.(.(.(.(.(.(.(.(.(.(.(.(.",
"(.(.(.(.(.(.(.(.(.(.(.(.(.(.(.(.(.(.(.^.O.X...&.m.M.a.p.(.(.(.(.(.(.(.(.(.(.(.(.(.(.(.(.(.(.(.(.(.(.",
"(.(.(.(.(.(.(.(.(.(.(.(.(.(.(.(.(.(.(.^.b.> = 2 y.i.u.m.(.(.<.(.(.(.(.>._ h.(.(.(.(.(.(.(.(.(.(.(.(.",
"(.(.(.(.(.(.(.(.(.(.(.(.(.(.(.(.(.(.(.(.R.3.; - t.u.*.7.(.1.< 1 ( q.(. .o.H.n.(.(.(.(.(.(.(.(.(.(.(.",
"(.(.(.(.(.(.(.(.(.(.(.(.(.(.(.(.(.(.(.(.!.2.- - %.[ E { %.3 ; 3 O _ (.(.(. .:.h.(.(.(.(.(.(.(.(.(.(.",
"(.(.(.(.(.(.(.(.(.(.(.(.(.(.(.(.(.(.(.(.(.B.<.2 & * ] W $ ; ; (.&.(.(.(.(.> (.(.(.(.(.(.(.(.(.(.(.(.",
"(.(.(.(.(.(.(.(.(.(.(.(.(.(.(.(.(.(.(.(.(.!.T.I.,.o o / $ $ & ,.(.(.(.(.(.(.(.(.(.(.(.(.(.(.(.(.(.(.",
"(.(.(.(.(.(.(.(.(.(.(.(.(.(.(.(.(.(.(.(.(.D.W.R.K.c.f.$.#.$.+ ..(.(.(.(.(.(.(.(.(.(.(.(.(.(.(.(.(.(.",
"(.(.(.(.(.(.(.(.(.(.(.(.(.(.(.(.(.(.(.(.(.P.F.W.^.^.^././.R.k.(.(.(.(.(.(.(.(.(.(.(.(.(.(.(.(.(.(.(.",
"(.(.(.(.(.(.(.(.(.(.(.(.(.(.(.(.(.(.(.(.g.N.N.A.D.W.D.D.U.U.(.(.(.(.(.(.(.(.(.(.(.(.(.(.(.(.(.(.(.(.",
"(.(.(.(.(.(.(.(.(.(.(.(.(.(.(.(.(.(.(.(.L.V.V.L.A.A.D.D.S.J.(.(.(.(.(.(.(.(.(.(.(.(.(.(.(.(.(.(.(.(.",
"(.(.(.(.(.(.(.(.(.(.(.(.(.(.(.(.(.(.(.^.8.9.l.v.V.N.N.N.Z.Z.(.(.(.(.(.(.(.(.(.(.(.(.(.(.(.(.(.(.(.(.",
"(.(.(.(.(.(.(.(.(.(.(.(.(.(.(.(.(.(.(.Q.} s ! | j.G.G.S.G.c.(.(.(.(.(.(.(.(.(.(.(.(.(.(.(.(.(.(.(.(.",
"(.(.(.(.(.(.(.(.(.(.(.(.(.(.(.(.(.(.(.l.x g l y b @.+.@.b.K.S.(.(.(.(.(.(.(.(.(.(.(.(.(.(.(.(.(.(.(.",
"(.(.(.(.(.(.(.(.(.(.(.(.(.(.(.(.(.(.Q.0.5 k J V Z u y d c q.Q.(.(.(.(.(.(.(.(.(.(.(.(.(.(.(.(.(.(.(.",
"(.(.(.(.(.(.(.(.(.(.(.(.(.(.(.(.(.(.E.! q H m D B L I k 5 O.Q.(.(.(.(.(.(.(.(.(.(.(.(.(.(.(.(.(.(.(.",
"(.(.(.(.(.(.(.(.(.(.(.(.(.(.(.(.(.Q.5.7 h m D D S S U H d l.(.(.(.(.(.(.(.(.(.(.(.(.(.(.(.(.(.(.(.(.",
"(.(.(.(.(.(.(.(.(.(.(.(.(.(.(.(.(.r.s f h M D n S n P q ;.Q.(.(.(.(.(.(.(.(.(.(.(.(.(.(.(.(.(.(.(.(.",
"(.(.(.(.(.(.(.(.(.(.(.(.(.(.(.(.(.Q 7 h e m n S S F H ~ G.(.(.(.(.(.(.(.(.(.(.(.(.(.(.(.(.(.(.(.(.(.",
"(.(.(.(.(.(.(.(.(.(.(.(.(.(.(.(.-.. q h i V M D F Z f 6.(.(.(.(.(.(.(.(.(.(.(.(.(.(.(.(.(.(.(.(.(.(.",
"(.(.(.(.(.(.(.(.(.(.(.(.(.(.(.(.) 6 q u w V C C A Z t e.(.(.(.(.(.(.(.(.(.(.(.(.(.(.(.(.(.(.(.(.(.(.",
"(.(.(.(.(.(.(.(.(.(.(.(.(.(.(.(.4.  t 0 w V n D N A h @.Q.(.(.(.(.(.(.(.(.(.(.(.(.(.(.(.(.(.(.(.(.(.",
"(.(.(.(.(.(.(.(.(.(.(.(.(.(.(.(.(.c 6 j i w V n D A i v j.(.(.(.(.(.(.(.(.(.(.(.(.(.(.(.(.(.(.(.(.(.",
"(.(.(.(.(.(.(.(.(.(.(.(.(.(.(.(.(.(.z . t p r D B F Z p b k.(.(.(.(.(.(.(.(.(.(.(.(.(.(.(.(.(.(.(.(.",
"(.(.(.(.(.(.(.(.(.(.(.(.(.(.(.(.(.(.(.`   9 K V C D B Z i ` k.(.(.(.(.(.(.(.(.(.(.(.(.(.(.(.(.(.(.(.",
"(.(.(.(.(.(.(.(.(.(.(.(.(.(.(.(.(.(.(.(.(.X y P D F G F T k ` (.(.(.(.(.(.(.(.(.(.(.(.(.(.(.(.(.(.(.",
"(.(.(.(.(.(.(.(.(.(.(.(.(.(.(.(.(.(.(.(.(.(.b f A n G G Y R (.(.(.(.(.(.(.(.(.(.(.(.(.(.(.(.(.(.(.(.",
"(.(.(.(.(.(.(.(.(.(.(.(.(.(.(.(.(.(.(.(.(.(.(.(.j C G G D R (.(.(.(.(.(.(.(.(.(.(.(.(.(.(.(.(.(.(.(.",
"(.(.(.(.(.(.(.(.(.(.(.(.(.(.(.(.(.(.(.(.(.(.(.(.(.(.Z Y T (.(.(.(.(.(.(.(.(.(.(.(.(.(.(.(.(.(.(.(.(.",
"(.(.(.(.(.(.(.(.(.(.(.(.(.(.(.(.(.(.(.(.(.(.(.(.(.(.(.(.(.(.(.(.(.(.(.(.(.(.(.(.(.(.(.(.(.(.(.(.(.(.",
"(.(.(.(.(.(.(.(.(.(.(.(.(.(.(.(.(.(.(.(.(.(.(.(.(.(.(.(.(.(.(.(.(.(.(.(.(.(.(.(.(.(.(.(.(.(.(.(.(.(.",
"(.(.(.(.(.(.(.(.(.(.(.(.(.(.(.(.(.(.(.(.(.(.(.(.(.(.(.(.(.(.(.(.(.(.(.(.(.(.(.(.(.(.(.(.(.(.(.(.(.(.",
"(.(.(.(.(.(.(.(.(.(.(.(.(.(.(.(.(.(.(.(.(.(.(.(.(.(.(.(.(.(.(.(.(.(.(.(.(.(.(.(.(.(.(.(.(.(.(.(.(.(.",
"(.(.(.(.(.(.(.(.(.(.(.(.(.(.(.(.(.(.(.(.(.(.(.(.(.(.(.(.(.(.(.(.(.(.(.(.(.(.(.(.(.(.(.(.(.(.(.(.(.(.",
"(.(.(.(.(.(.(.(.(.(.(.(.(.(.(.(.(.(.(.(.(.(.(.(.(.(.(.(.(.(.(.(.(.(.(.(.(.(.(.(.(.(.(.(.(.(.(.(.(.(.",
"(.(.(.(.(.(.(.(.(.(.(.(.(.(.(.(.(.(.(.(.(.(.(.(.(.(.(.(.(.(.(.(.(.(.(.(.(.(.(.(.(.(.(.(.(.(.(.(.(.(.",
"(.(.(.(.(.(.(.(.(.(.(.(.(.(.(.(.(.(.(.(.(.(.(.(.(.(.(.(.(.(.(.(.(.(.(.(.(.(.(.(.(.(.(.(.(.(.(.(.(.(.",
"(.(.(.(.(.(.(.(.(.(.(.(.(.(.(.(.(.(.(.(.(.(.(.(.(.(.(.(.(.(.(.(.(.(.(.(.(.(.(.(.(.(.(.(.(.(.(.(.(.(.",
"(.(.(.(.(.(.(.(.(.(.(.(.(.(.(.(.(.(.(.(.(.(.(.(.(.(.(.(.(.(.(.(.(.(.(.(.(.(.(.(.(.(.(.(.(.(.(.(.(.(.",
"(.(.(.(.(.(.(.(.(.(.(.(.(.(.(.(.(.(.(.(.(.(.(.(.(.(.(.(.(.(.(.(.(.(.(.(.(.(.(.(.(.(.(.(.(.(.(.(.(.(.",
"(.(.(.(.(.(.(.(.(.(.(.(.(.(.(.(.(.(.(.(.(.(.(.(.(.(.(.(.(.(.(.(.(.(.(.(.(.(.(.(.(.(.(.(.(.(.(.(.(.(."
};
