/* XPM */
static char *result[] = {
/* columns rows colors chars-per-pixel */
"51 50 226 2 ",
"   c #680603",
".  c #730C04",
"X  c #7E1400",
"o  c #7B1515",
"O  c #66151E",
"+  c #771E22",
"@  c #76352C",
"#  c #7E5E09",
"$  c #860B00",
"%  c #890803",
"&  c #9C0303",
"*  c #9D010B",
"=  c #970806",
"-  c #841302",
";  c #9C1402",
":  c #971901",
">  c #990913",
",  c #841415",
"<  c #8D1315",
"1  c #951618",
"2  c #860D14",
"3  c #A20005",
"4  c #A4010C",
"5  c #A7080C",
"6  c #BA0C08",
"7  c #AC1205",
"8  c #A71506",
"9  c #B41403",
"0  c #BD1302",
"q  c #B81905",
"w  c #AE0412",
"e  c #AB0B15",
"r  c #A60916",
"t  c #BD0C15",
"y  c #B40E1C",
"u  c #B90D1A",
"i  c #B70A15",
"p  c #A61217",
"a  c #BE1112",
"s  c #B3111C",
"d  c #B61416",
"f  c #8C2A05",
"g  c #813000",
"h  c #9A2A00",
"j  c #A72503",
"k  c #A63300",
"l  c #B83B07",
"z  c #BF2E11",
"x  c #B13114",
"c  c #9C1625",
"v  c #BA1422",
"b  c #AE1622",
"n  c #8D202D",
"m  c #852B33",
"M  c #8E393C",
"N  c #B33C24",
"B  c #A23E26",
"V  c #CD0B0E",
"C  c #C30D0C",
"Z  c #D1090D",
"A  c #C7170C",
"S  c #C40A14",
"D  c #C40E1B",
"F  c #CF0B17",
"G  c #D40514",
"H  c #D40B15",
"J  c #D10C1C",
"K  c #DA0A1C",
"L  c #CC101E",
"P  c #CB1417",
"I  c #D3121C",
"U  c #D41212",
"Y  c #C6230C",
"T  c #C42A10",
"R  c #C40E21",
"E  c #DF0B21",
"W  c #C91724",
"Q  c #D21426",
"!  c #C53928",
"~  c #895702",
"^  c #925C00",
"/  c #9E5E0A",
"(  c #B35217",
")  c #9A6102",
"_  c #9A6806",
"`  c #9E6A0A",
"'  c #99670A",
"]  c #9F6F1A",
"[  c #977512",
"{  c #93700A",
"}  c #A46A0E",
"|  c #A6770B",
" . c #A66A12",
".. c #A66914",
"X. c #A57718",
"o. c #B37C1B",
"O. c #B7740F",
"+. c #BE4824",
"@. c #BA5827",
"#. c #BC4D39",
"$. c #987221",
"%. c #BD6F2F",
"&. c #A77621",
"*. c #B67928",
"=. c #BC6E30",
"-. c #C9412E",
";. c #DF5E3F",
":. c #D14426",
">. c #E14B33",
",. c #CE712E",
"<. c #C86F34",
"1. c #CA7338",
"2. c #D3783C",
"3. c #D16B2D",
"4. c #E56538",
"5. c #A43F45",
"6. c #8C5251",
"7. c #96514E",
"8. c #A8474A",
"9. c #B24752",
"0. c #B9595A",
"q. c #996F5C",
"w. c #A16146",
"e. c #B07267",
"r. c #D87744",
"t. c #E57543",
"y. c #F07A4A",
"u. c #AE871D",
"i. c #B88D1C",
"p. c #9B8229",
"a. c #AE8225",
"s. c #B7892A",
"d. c #A08B3E",
"f. c #B68D32",
"g. c #B89834",
"h. c #A89038",
"j. c #C29419",
"k. c #C48B29",
"l. c #C89723",
"z. c #C58634",
"x. c #C99938",
"c. c #DF9437",
"v. c #E69A3C",
"b. c #D8B32C",
"n. c #C4A439",
"m. c #D5A837",
"M. c #D7B438",
"N. c #D9A82F",
"B. c #E7BD31",
"V. c #E5C137",
"C. c #AC8C4F",
"Z. c #CD9742",
"A. c #DA9B44",
"S. c #D39053",
"D. c #E88745",
"F. c #EE9847",
"G. c #E09252",
"H. c #FA9C56",
"J. c #C8A744",
"K. c #DAA946",
"L. c #CBB347",
"P. c #D9B345",
"I. c #CFB554",
"U. c #DCB853",
"Y. c #C2AB5D",
"T. c #E7A348",
"R. c #F1A54F",
"E. c #E3B748",
"W. c #E7AB52",
"Q. c #E5B552",
"!. c #FBB05E",
"~. c #FFB85F",
"^. c #F9AC5C",
"/. c #CDA668",
"(. c #CAB969",
"). c #D9BA62",
"_. c #CAB674",
"`. c #D9AF73",
"'. c #EEAF60",
"]. c #FDA363",
"[. c #FEA66D",
"{. c #FCB264",
"}. c #FCB968",
"|. c #FFB277",
" X c #EBCF48",
".X c #F3CA43",
"XX c #EAC756",
"oX c #F9CD5E",
"OX c #F8D75C",
"+X c #DDC968",
"@X c #D8C879",
"#X c #EECE64",
"$X c #FDCD6B",
"%X c #F8C667",
"&X c #FDD464",
"*X c #FCD967",
"=X c #FCDC6B",
"-X c #F6D666",
";X c #FFC277",
":X c #E0D079",
">X c #FFDD71",
",X c #FFDF7A",
"<X c #E4C670",
"1X c #FFEC75",
"2X c #CA7E80",
"3X c #BCB581",
"4X c #E19A9E",
"5X c #D1A98F",
"6X c #D5B58F",
"7X c #FFBB82",
"8X c #E8AC84",
"9X c #FCAEB4",
"0X c #EBB7B8",
"qX c #F6BCBD",
"wX c #DCCF8B",
"eX c #DAC899",
"rX c #FFC284",
"tX c #FFDB81",
"yX c #FFDB89",
"uX c #FFCE98",
"iX c #E9DA85",
"pX c #F9E298",
"aX c #F0D1AE",
"sX c #FAE7A7",
"dX c #FAF2BC",
"fX c None",
/* pixels */
"fXfXfXfXfXfXfXfXfXfXfXfXfXfXfXfXfXfXfXfXfXfXfXfXfXfXfXfXfXfXfXfXfXfXfXfXfXfXfXfXfXfXfXfXfXfXfXfXfXfXfX",
"fXfXfXfXfXfXfXfXfXfXfXfXfXfXfXfXfXfXfXfXfXfXfXfXfXfXfXfXfXfXfXfXfXfXfXfXfXfXfXfXfXfXfXfXfXfXfXfXfXfXfX",
"fXfXfXfXfXfXfXfXfXfXfXfXfXfXfXfXfXfXfXfXfXfXfXfXfXfXfXfXfXfXfXfXfXfXfXfXfXfXfXfXfXfXfXfXfXfXfXfXfXfXfX",
"fXfXfXfXfXfXfXfXfXfXfXfXfXfXfXfXfXfXfXfXfXfXfXfXfXfXfXfXfXfXfXfXfXfXfXfXfXfXfXfXfXfXfXfXfXfXfXfXfXfXfX",
"fXfXfXfXfXfXfXfXfXfXfXfXfXfXfXfXfXfXfXfXfXfXfXfXfXfXfXfXfXfXfXfXfXfXfXfXfXfXfXfXfXfXfXfXfXfXfXfXfXfXfX",
"fXfXfXfXfXfXfXfXfXfXfXfXfXfXfXfXfXfXfXfXfXfXfXfXfXfXfXfXfXfXfXfXfXfXfXfXfXfXfXfXfXfXfXfXfXfXfXfXfXfXfX",
"fXfXfXfXfXfXfXfXfXfXfXfXfXfXfXfXfXfXfXfXfXfXfXfXfXfXfXfXfXfXfXfXfXfXfXfXfXfXfXfXfXfXfXfXfXfXfXfXfXfXfX",
"fXfXfXfXfXfXfXfXfXfXfXfXfXfXfXfXfXfXfXfXfXfXfXfXfXfXfXfXfXfXfXfXfXfXfXfXfXfXfXfXfXfXfXfXfXfXfXfXfXfXfX",
"fXfXfXfXfXfXfXfXfXfXfXfXfXfXfXfXfXfXfXfXfXeXfXfXpX:X@X+XfXfXfXfXfXfXfXfXfXfXfXfXfXfXfXfXfXfXfXfXfXfXfX",
"fXfXfXfXfXfXfXfXfXfXfXfXfXfXfXfXfXfXfXfXwXd.C.pXL.XX-XM.h.fXfXfXfXfXfXfXfXfXfXfXfXfXfXfXfXfXfXfXfXfXfX",
"fXfXfXfXfXfXfXfXfXfXfXfXfXfXfXfXfXfXfX_.I.n.# f.L.M.M.n.{ p.C.fXfXfXfXfXfXfXfXfXfXfXfXfXfXfXfXfXfXfXfX",
"fXfXfXfXfXfXfXfXfXfXfXfXfXfXfXfXfXfXfX_.U.#XU.s.M. XOXE.u.[ +XiXfXfXfXfXfXfXfXfXfXfXfXfXfXfXfXfXfXfXfX",
"fXfXfXfXfXfXfXfXfXfXfXfXfXfXfXfXfXfXfX(.f.Q.1XoXV.B.V.N._ a.n.+XwXfXfXfXfXfXfXfXfXfXfXfXfXfXfXfXfXfXfX",
"fXfXfXfXfXfXfXfXfXfXfXfXfXfXfXfXfXfX6XS.&.x.K.P.j.B.V.O.^ ~ a.L.@XdXfXfXfXfXfXfXfXfXfXfXfXfXfXfXfXfXfX",
"fXfXfXfXfXfXfXfXfXfXfXfXfXfXfXfXfX(.[ ~ ^ ` X.~ | i.N.| ~ *.XX#X+XsXfXfXfXfXfXfXfXfXfXfXfXfXfXfXfXfXfX",
"fXfXfXfXfXfXfXfXfXfXfXfXfXfXfXfXsX).g.` *.o._ u._ | k...] K.P.M.g.(.fXfXfXfXfXfXfXfXfXfXfXfXfXfXfXfXfX",
"fXfXfXfXfXfXfXfXfXfXfXfXfXfXfXfXpX<X>XK.k. .o.Q.K.} ' / ....X.X.{ p.3XfXfXfXfXfXfXfXfXfXfXfXfXfXfXfXfX",
"fXfXfXfXfXfXfXfXfXfXfXfXfXfXfXfX/.yXXXl.) ..W.1Xm.^ ..../ / X.f.J.).fXfXfXfXfXfXfXfXfXfXfXfXfXfXfXfXfX",
"fXfXfXfXfXfXfXfXfXfXfXfXfXfXfXfXg z.K.x.X.f.$Xx.~ _ x.x.k.o.Z.U.$XpX8XfXfXfXfXfXfXfXfXfXfXfXfXfXfXfXfX",
"fXfXfXfXfXfXfXfXfXfXfXfXfXfXfX! t.'.yXK.k.x.s._  .z.Z.&X*Xj.K.tX;X[.#.fXfXfXfXfXfXfXfXfXfXfXfXfXfXfXfX",
"fXfXfXfXfXfXfXfXfXfXfXfXfXfXfX>.H.c.!.!.%X%XQ.O.z.A.#X1XM./ v.H.l q P v n fXfXfXfXfXfXfXfXfXfXfXfXfXfX",
"fXfXfXfXfXfXfXfXfXfXfXfXfXfXfX:.[.O.f @.].].].( k 3.$XOXb.l.v.k q U H Q c fXfXfXfXfXfXfXfXfXfXfXfXfXfX",
"fXfXfXfXfXfXfXfXfXfXfXfXfXfXX +.rX1.; d 7 q 0 A C j R.XX XoX{.l 9 P J D c 9XfXfXfXfXfXfXfXfXfXfXfXfXfX",
"fXfXfXfXfXfXfXfXfXfXfXfXfXfX  +.uXr.= y W S I H H q ^.=XOX*X!.k 9 i t y , 9XfXfXfXfXfXfXfXfXfXfXfXfXfX",
"fXfXfXfXfXfXfXfXfXfXfXfXfXqX1 x r.@.% s s v u S C j }.1X1X>X}.h ; & 5 & o fXfXfXfXfXfXfXfXfXfXfXfXfXfX",
"fXfXfXfXfXfXfXfXfXfXfXfXfXqX1 N <.( % > r e w w & j Q.#X#XW.2.: 3 3 4 p 8.fXfXfXfXfXfXfXfXfXfXfXfXfXfX",
"fXfXfXfXfXfXfXfXfXfXfXfXfXqXc -.[.=.$ * & * 4 4 3 ; %.&...*.+.8 S J J s 0.fXfXfXfXfXfXfXfXfXfXfXfXfXfX",
"fXfXfXfXfXfXfXfXfXfXfXfXfXqX< -.].1.: 5 4 4 w u t d 2.z.*.S.;.a J E K u 0.fXfXfXfXfXfXfXfXfXfXfXfXfXfX",
"fXfXfXfXfXfXfXfXfXfXfXfXfXfXo +.[.<.; d W Q J P V A D.A.x.R.4.6 H G K u 0.fXfXfXfXfXfXfXfXfXfXfXfXfXfX",
"fXfXfXfXfXfXfXfXfXfXfXfXfXfXo N |.r.; i S G G H V A D.K.J.T.4.0 U G K u 9.fXfXfXfXfXfXfXfXfXfXfXfXfXfX",
"fXfXfXfXfXfXfXfXfXfXfXfXfXfX  B 7X1.% 5 D I H Z V Y D.Q.XXR.4.q A V H u 9.fXfXfXfXfXfXfXfXfXfXfXfXfXfX",
"fXfXfXfXfXfXfXfXfXfXfXfXfXfX  +.rX2.$ 5 D J H H V T F.$X*X%X2.9 A F I i 9.fXfXfXfXfXfXfXfXfXfXfXfXfXfX",
"fXfXfXfXfXfXfXfXfXfXfXfXfXfX@ @ |.,.$ & y D Q H C T F.1X1X*Xy.9 P S u p 5.fXfXfXfXfXfXfXfXfXfXfXfXfXfX",
"fXfXfXfXfXfXfXfXfXfXfXfXfXfXfXq.`.<.- = e W R R a x R.&XOXoXt.8 e d b < M fXfXfXfXfXfXfXfXfXfXfXfXfXfX",
"fXfXfXfXfXfXfXfXfXfXfXfXfXfXfXfX5Xw.  % e u u v e j v..X XXX=.X , 2 , + 6.fXfXfXfXfXfXfXfXfXfXfXfXfXfX",
"fXfXfXfXfXfXfXfXfXfXfXfXfXfXfXfXfXfX+   1 1 r > % f Z.K.M.L.e.w.e.2X4X0XfXfXfXfXfXfXfXfXfXfXfXfXfXfXfX",
"fXfXfXfXfXfXfXfXfXfXfXfXfXfXfXfXfXfXfX6.O m m 7.q.e.6XeXeXaXfXfXfXfXfXfXfXfXfXfXfXfXfXfXfXfXfXfXfXfXfX",
"fXfXfXfXfXfXfXfXfXfXfXfXfXfXfXfXfXfXfXfXfXfXfXfXfXfXfXfXfXfXfXfXfXfXfXfXfXfXfXfXfXfXfXfXfXfXfXfXfXfXfX",
"fXfXfXfXfXfXfXfXfXfXfXfXfXfXfXfXfXfXfXfXfXfXfXfXfXfXfXfXfXfXfXfXfXfXfXfXfXfXfXfXfXfXfXfXfXfXfXfXfXfXfX",
"fXfXfXfXfXfXfXfXfXfXfXfXfXfXfXfXfXfXfXfXfXfXfXfXfXfXfXfXfXfXfXfXfXfXfXfXfXfXfXfXfXfXfXfXfXfXfXfXfXfXfX",
"fXfXfXfXfXfXfXfXfXfXfXfXfXfXfXfXfXfXfXfXfXfXfXfXfXfXfXfXfXfXfXfXfXfXfXfXfXfXfXfXfXfXfXfXfXfXfXfXfXfXfX",
"fXfXfXfXfXfXfXfXfXfXfXfXfXfXfXfXfXfXfXfXfXfXfXfXfXfXfXfXfXfXfXfXfXfXfXfXfXfXfXfXfXfXfXfXfXfXfXfXfXfXfX",
"fXfXfXfXfXfXfXfXfXfXfXfXfXfXfXfXfXfXfXfXfXfXfXfXfXfXfXfXfXfXfXfXfXfXfXfXfXfXfXfXfXfXfXfXfXfXfXfXfXfXfX",
"fXfXfXfXfXfXfXfXfXfXfXfXfXfXfXfXfXfXfXfXfXfXfXfXfXfXfXfXfXfXfXfXfXfXfXfXfXfXfXfXfXfXfXfXfXfXfXfXfXfXfX",
"fXfXfXfXfXfXfXfXfXfXfXfXfXfXfXfXfXfXfXfXfXfXfXfXfXfXfXfXfXfXfXfXfXfXfXfXfXfXfXfXfXfXfXfXfXfXfXfXfXfXfX",
"fXfXfXfXfXfXfXfXfXfXfXfXfXfXfXfXfXfXfXfXfXfXfXfXfXfXfXfXfXfXfXfXfXfXfXfXfXfXfXfXfXfXfXfXfXfXfXfXfXfXfX",
"fXfXfXfXfXfXfXfXfXfXfXfXfXfXfXfXfXfXfXfXfXfXfXfXfXfXfXfXfXfXfXfXfXfXfXfXfXfXfXfXfXfXfXfXfXfXfXfXfXfXfX",
"fXfXfXfXfXfXfXfXfXfXfXfXfXfXfXfXfXfXfXfXfXfXfXfXfXfXfXfXfXfXfXfXfXfXfXfXfXfXfXfXfXfXfXfXfXfXfXfXfXfXfX",
"fXfXfXfXfXfXfXfXfXfXfXfXfXfXfXfXfXfXfXfXfXfXfXfXfXfXfXfXfXfXfXfXfXfXfXfXfXfXfXfXfXfXfXfXfXfXfXfXfXfXfX",
"fXfXfXfXfXfXfXfXfXfXfXfXfXfXfXfXfXfXfXfXfXfXfXfXfXfXfXfXfXfXfXfXfXfXfXfXfXfXfXfXfXfXfXfXfXfXfXfXfXfXfX"
};
