/* XPM */
static char *result[] = {
/* columns rows colors chars-per-pixel */
"32 31 68 1 ",
"  c black",
". c #333322",
"X c #774411",
"o c #444422",
"O c #444433",
"+ c #554433",
"@ c #664433",
"# c #775533",
"$ c #555544",
"% c #665544",
"& c #775544",
"* c #666644",
"= c #777755",
"- c #885511",
"; c #886611",
": c #885522",
"> c #886622",
", c #996622",
"< c #AA7722",
"1 c #AA7733",
"2 c #886644",
"3 c #887755",
"4 c #997755",
"5 c #AA7755",
"6 c #887766",
"7 c #AA8811",
"8 c #BB9911",
"9 c #BB9922",
"0 c #BB8833",
"q c #BB9933",
"w c #DDBB00",
"e c #DDBB11",
"r c #EEBB00",
"t c #DDBB22",
"y c #EEBB22",
"u c #FFDD00",
"i c #EECC22",
"p c #FFDD22",
"a c #EECC33",
"s c #AA8855",
"d c #998866",
"f c #998877",
"g c #999977",
"h c #AA8866",
"j c #BB8866",
"k c #BB9966",
"l c #AA9977",
"z c #CC9944",
"x c #CC9955",
"c c #CCAA44",
"v c #DDAA55",
"b c #EECC44",
"n c #DDDD77",
"m c #AA9988",
"M c #AAAA88",
"N c #BBAA88",
"B c #BBBB88",
"V c #BBAA99",
"C c #BBBB99",
"Z c #CCBBAA",
"A c #FFFF99",
"S c #CCCCAA",
"D c #CCCCBB",
"F c #DDCCBB",
"G c #FFFFBB",
"H c #EEEEEE",
"J c #FFFFEE",
"K c None",
/* pixels */
"KKKKKKKKKKKKK        KKKKKKKKKKK",
"KKKKKK       gCCCCCCC  KKKKKKKKK",
"KKKKK CCCCCCCC..O$O..CC KKKKKKKK",
"KKKK C........oo=H*..C3 KKKKKKKK",
"KKKKK C.....oo%=BHMDZCCC KKKKKKK",
"KKKKK gCCC..ouyJHHHH6**+C KKKKKK",
"KKKKKK 3g*.eAtAbGJnc=***C KKKKKK",
"KKKKKKK 3C*AJAwubJaCCCCCg KKKKKK",
"KKKKKKKK gC=q9w79SZNNgg3 KKKKKKK",
"KKKKKKKK 3gC*r8iNNgg3g3 KKKKKKKK",
"KKKKKKK  **N*8pNNg33g3 K  KKKKKK",
"KKKKKKK -<-N**NNg<v;z,0 x; KKKKK",
"KKKKKK Ng--NNNNgX1;<;XX ;XX KKKK",
"KKKKK FCNg3*gggX>X:X:*    ; KKKK",
"KKKK FCZNNg3*****3****** X; KKKK",
"KKK FZZCNggNf3333g33333**  KKK  ",
"KK FZZVCNgNN4fggggg33gg33*    X ",
"KK FZVsVgNN44Mgggggg3gggg3* xxX ",
"K FZCV444N4444MM4hNgggggg333   K",
"K FZZCsssssssssssVNggggggg333 KK",
" FZZCCsshjkjjjjhhCCNgggNgg333 KK",
" FZZZVN45hjjjjjjVCNNNgNNNgg33 KK",
" FZZV33444sshhhNVVNNNgNNggg33 KK",
" FZCCN223444444444MNNNNNggg33 KK",
"K ZCCCVVM22222222mNNNNNNggg3 KKK",
"K CCCCCC&#&l&&&mMNNNNggggg33 KKK",
"KK NCCCCVM@l&lMNNgggggggg33 KKKK",
"KKK NNNNNM#dfNNNggggggg333 KKKKK",
"KKKK  ggggd2fgggggg33333  KKKKKK",
"KKKKKK   ggfggg333333   KKKKKKKK",
"KKKKKKKKK            KKKKKKKKKKK"
};
