/* XPM */
static char *result[] = {
/* columns rows colors chars-per-pixel */
"25 24 37 1 ",
"  c black",
". c #775511",
"X c #886611",
"o c #AA7700",
"O c #AA8800",
"+ c #BB8800",
"@ c #BB9900",
"# c #BB9911",
"$ c #CC9900",
"% c #CCAA00",
"& c #DDAA00",
"* c #DDBB00",
"= c #DDAA11",
"- c #DDBB11",
"; c #EEBB00",
": c #EECC00",
"> c #FFCC00",
", c #FFDD00",
"< c #EECC11",
"1 c #FFCC11",
"2 c #FFDD11",
"3 c #EECC22",
"4 c #FFCC22",
"5 c #FFDD22",
"6 c #FFDD33",
"7 c #FFEE33",
"8 c #FFDD44",
"9 c #FFEE44",
"0 c #FFEE55",
"q c #FFDD77",
"w c #FFEE66",
"e c #FFEE77",
"r c #FFEE88",
"t c #FFEE99",
"y c #FFFFBB",
"u c #FFFFEE",
"i c None",
/* pixels */
"iiiiiiiii       iiiiiiiii",
"iiiiiii  >>>>,,,  iiiiiii",
"iiiii  r1XX#####25  iiiii",
"iiii urXX*******%%57 iiii",
"iii ur.**>>>%,,255%70 iii",
"ii ur.*>>>>*%*,2555%00 ii",
"i ur.*>>>>**>+*25557-00 i",
"i rX*%%*>>&t;&O255%+930 i",
"i qX*%4$+>&:*&o2&%*o930 i",
" qX%;*$4*%=***@%6*o>903w ",
" qX%::+&&;@***$;*@o7903w ",
" ,#%::>+;*******$o>69030 ",
" ,#%:::%6;*****&@+>7903w ",
" :#%;:%6********&@+>903w ",
" :#%;%6**&******&&@+>03e ",
"i ;#+oooo+&***&Ooooo+3e i",
"i ;#;:::&Oo@*+oo>55693t i",
"i ;;#;:::>&%*o>,25563ue i",
"ii ;:#;:::>%&o>,2553ue ii",
"iii ::%;;::+oo>,253ey iii",
"iiii ::%-;:,,,,,3300 iiii",
"iiiii  ::----33300  iiiii",
"iiiiiii  :<<3899  iiiiiii",
"iiiiiiiii       iiiiiiiii"
};
