/* XPM */
static char *result[] = {
/* columns rows colors chars-per-pixel */
"60 60 206 2 ",
"   c #120D04",
".  c #18160E",
"X  c #1D1C14",
"o  c #2B1A0A",
"O  c #3A280F",
"+  c #2B251C",
"@  c #2D2D1B",
"#  c #34341B",
"$  c #3B391D",
"%  c #302923",
"&  c #3C3C26",
"*  c #49310E",
"=  c #563906",
"-  c #593D1B",
";  c #653D0F",
":  c #453B2B",
">  c #483E29",
",  c #423E36",
"<  c #6F4D11",
"1  c #794B14",
"2  c #7D561D",
"3  c #7B681D",
"4  c #4B4225",
"5  c #45432B",
"6  c #4E462C",
"7  c #5A4927",
"8  c #595123",
"9  c #4A4636",
"0  c #46433C",
"q  c #585639",
"w  c #5D523C",
"e  c #775A29",
"r  c #655338",
"t  c #7E5E38",
"y  c #71653F",
"u  c #4A4943",
"i  c #504A42",
"p  c #595345",
"a  c #5D5C4C",
"s  c #585753",
"d  c #5F5D52",
"f  c #645B4B",
"g  c #7E5C43",
"h  c #645D56",
"j  c #676645",
"k  c #6A6444",
"l  c #726444",
"z  c #736A43",
"x  c #7E634A",
"c  c #726C4B",
"v  c #796C4B",
"b  c #7B724A",
"n  c #626154",
"m  c #6D6A54",
"M  c #67655B",
"N  c #6E6E5C",
"B  c #726E57",
"V  c #747455",
"C  c #7D7552",
"Z  c #75745A",
"A  c #7C745C",
"S  c #7A7A5E",
"D  c #6C6A65",
"F  c #6D6D64",
"G  c #757267",
"H  c #7B7B60",
"J  c #787774",
"K  c #7D7A75",
"L  c #8F621A",
"P  c #9A6B18",
"I  c #8D7615",
"U  c #8F5F20",
"Y  c #8A6226",
"T  c #96742E",
"R  c #876648",
"E  c #8D6C4A",
"W  c #906E4A",
"Q  c #85744F",
"!  c #867D49",
"~  c #8A6F58",
"^  c #857553",
"/  c #8B7553",
"(  c #847A55",
")  c #897957",
"_  c #8A7E5C",
"`  c #997754",
"'  c #947955",
"]  c #9E7C55",
"[  c #947C5C",
"{  c #A17E57",
"}  c #887D73",
"|  c #817E7B",
" . c #958619",
".. c #A48B1D",
"X. c #AA911B",
"o. c #B18D34",
"O. c #C19D0D",
"+. c #D1AF08",
"@. c #D1B11A",
"#. c #C8A927",
"$. c #D4B629",
"%. c #ECC919",
"&. c #DFC530",
"*. c #E5C62C",
"=. c #EED73A",
"-. c #8D815E",
";. c #92825A",
":. c #9B805D",
">. c #A28155",
",. c #A88659",
"<. c #AC8A5D",
"1. c #B2875C",
"2. c #B18A5C",
"3. c #B6AA43",
"4. c #BCB24D",
"5. c #848361",
"6. c #8B8563",
"7. c #888669",
"8. c #8E8C6B",
"9. c #968664",
"0. c #918865",
"q. c #938D6B",
"w. c #9C8B6D",
"e. c #95916D",
"r. c #9D956A",
"t. c #85827E",
"y. c #9D8D72",
"u. c #93877C",
"i. c #959372",
"p. c #999673",
"a. c #9A9976",
"s. c #9D9C7A",
"d. c #A28561",
"f. c #A88B64",
"g. c #A28D6A",
"h. c #B48965",
"j. c #BB8964",
"k. c #A7956B",
"l. c #AB946B",
"z. c #A68D72",
"x. c #A29473",
"c. c #AB9376",
"v. c #A39975",
"b. c #A29D7B",
"n. c #AC9D7C",
"m. c #B29978",
"M. c #B7A86C",
"N. c #BFB064",
"B. c #A6A07D",
"V. c #A9A17F",
"C. c #B2A179",
"Z. c #BFB577",
"A. c #C6B169",
"S. c #EFDB4F",
"D. c #F6DD44",
"F. c #868584",
"G. c #898782",
"H. c #8B8986",
"J. c #8E8D8D",
"K. c #908E8A",
"L. c #9D9C9C",
"P. c #A99F84",
"I. c #B49D80",
"U. c #A09F9E",
"Y. c #AEA482",
"T. c #A8A784",
"R. c #B3A583",
"E. c #B4A986",
"W. c #B9A987",
"Q. c #B3A089",
"!. c #B4AC8B",
"~. c #BAAB8A",
"^. c #B2B08E",
"/. c #BBB18F",
"(. c #BAAB93",
"). c #BBB695",
"_. c #BEB69B",
"`. c #BDBB9A",
"'. c #A5A5A4",
"]. c #ACABAA",
"[. c #B0AFAE",
"{. c #B6B5B4",
"}. c #B8B7B6",
"|. c #BDBCBB",
" X c #C1B69B",
".X c #C5BBA3",
"XX c #C8BAA6",
"oX c #CCBCAB",
"OX c #C0BFBE",
"+X c #D0C0AE",
"@X c #C1C0BF",
"#X c #C5C4C3",
"$X c #C8C7C6",
"%X c #C9C9C7",
"&X c #CBCAC9",
"*X c #D6D5D5",
"=X c #D8D7D6",
"-X c #DCDCDB",
";X c #E1E0DF",
":X c #E3E2E2",
">X c #EEEDEC",
",X c #F0EFEE",
"<X c #F1F0EF",
"1X c #FFF7F6F5",
"2X c #FFF8F7F6",
"3X c #FFF9F8F7",
/* pixels */
"1X1X1X1X1X1X1X1X1X1X1X1X1X1X1X1X1X1X1X1X1X1X1X1X1X1X1X1X1X1X1X1X1X1X1X1X1X1X1X1X1X1X1X1X1X1X1X1X1X1X1X1X1X1X1X1X1X1X1X1X",
"1X1X1X1X1X1X1X1X1X1X1X1X1X1X1X1X1X1X1X1X1X1X2X1X1X1X1X1X1X1X1X1X1X1X1X1X1X1X1X1X1X1X1X1X2X1X1X1X1X1X1X1X1X1X1X1X1X1X1X1X",
"1X1X1X1X1X1X1X1X1X1X2X1X1X1X1X1X1X1X1X1X1X1X1X1X1X1X1X1X1X1X1X1X1X1X1X1X1X1X1X1X1X1X1X1X1X1X1X1X1X1X1X1X1X1X1X1X1X1X1X1X",
"1X1X1X1X1X1X1X1X1X1X1X1X1X1X1X1X1X1X1X1X1X1X1X1X1X1X1X1X1X1X1X1X1X1X1X1X1X1X1X1X1X1X2X1X1X1X1X1X1X1X1X1X1X1X1X1X1X1X1X1X",
"1X1X1X1X1X1X1X1X1X1X1X1X1X1X1X1X2X1X1X1X1X1X1X1X1X1X1X1X1X1X1X1X1X1X1X1X1X1X1X1X1X1X1X1X1X1X1X1X1X1X1X1X1X1X1X1X1X1X1X2X",
"1X1X1X1X1X1X1X1X1X1X1X1X1X1X1X1X1X1X1X1X1X1X1X1X1X1X1X1X1X1X1X1X1X1X2X1X1X1X1X1X1X1X1X1X1X1X1X1X1X1X1X1X1X1X1X2X1X1X1X1X",
"1X1X1X1X1X1X1X1X1X1X1X1X1X1X1X1X1X1X1X1X1X1X1X1X1X1X1X1X1X1X1X1X1X1X1X1X1X1X1X1X1X1X1X1X1X1X1X1X1X1X1X1X1X1X1X1X1X1X1X1X",
"1X1X1X1X1X1X2X1X1X1X1X1X1X1X1X1X1X1X1X1X1X1X1X1X1X1X1X1X1X1X2X1X1X1X1X1X1X1X1X1X1X1X1X1X1X1X1X1X1X1X1X1X1X1X1X1X1X1X1X1X",
"1X1X1X1X1X1X1X1X1X1X1X1X1X1X1X1X1X1X1X1X1X1X1X1X1X1X1X1X1X1X1X1X1X1X1X1X2X1X1X1X1X1X1X1X1X1X1X1X1X1X1X1X1X1X1X1X1X1X1X1X",
"1X1X1X1X1X1X1X1X1X1X2X1X1X1X1X1X1X1X1X1X1X1X1X1X1X1X1X1X1X1X1X1X1X1X1X1X1X1X1X1X1X1X1X1X1X1X1X1X1X1X1X1X1X1X1X1X1X2X1X1X",
"1X1X1X1X1X1X1X1X1X1X1X1X1X1X1X1X1X1X1X1X1X1X1X1X1X1X1X1X1X1X1X2X1X1X1X1X1X1X1X1X1X1X1X1X1X1X1X1X1X1X1X1X1X1X1X1X1X1X1X1X",
"1X1X1X1X1X1X1X1X1X1X1X1X1X2X1X1X1X1X1X1X1X1X1X1X1X1X1X1X1X1X1X1X1X1X1X1X1X1X1X1X1X1X1X1X1X1X1X1X1X1X1X1X1X1X1X1X1X1X1X1X",
"1X1X1X1X1X1X1X1X1X1X1X1X1X1X1X1X1X1X1X1X1X1X1X1X1X1X1X1X1X1X1X1X1X1X1X1X1X1X1X1X1X1X1X2X1X1X1X1X1X1X1X1X1X1X1X1X1X1X1X1X",
"1X1X1X1X1X1X1X1X1X1X1X1X1X1X1X1X1X1X1X1X1X1X1X1X1X1X1X1X1X1X1X1X1X1X1X1X1X1X1X1X1X1X1X1X1X1X1X1X1X1X1X1X1X1X1X1X1X1X1X1X",
"1X1X1X1X1X1X1X1X1X1X1X1X1X1X1X1X1X1X1X1X1X1X1X1X1X1X1X>X{.L.U.U.L.U.U.{.>X2X2X1X1X1X1X1X1X2X1X1X2X1X1X1X1X1X1X1X1X1X1X1X",
"1X1X2X1X1X1X1X1X1X1X1X1X1X1X1X1X1X1X1X1X1X|.J.J.J.J.J.H.n a n d n n n F H.[.>X1X1X1X1X1X1X1X1X1X1X1X1X1X1X1X1X1X1X1X1X1X",
"1X1X1X1X1X1X1X1X1X1X1X1X1X1X1X1X1X1X1X1X@XG a a a a a n i.7.S S S S S Z d F {.<X3X1X1X1X1X1X1X1X1X1X1X1X1X1X1X1X1X1X1X1X",
"1X1X1X1X2X1X1X1X1X1X1X1X1X1X1X1X1X1X1X|.G N Z Z V Z Z V V 5 # # # @ @ q T.m G >X2X2X1X1X1X1X1X1X1X1X1X1X1X1X1X1X1X1X1X1X",
"1X1X1X1X1X1X1X1X1X2X1X1X1X1X1X1X1X1X1X|.F m 9 @ @ @ @ # $ 5 5 4 $ 5 V i.^.8.F ].>X2X1X1X1X1X1X1X1X1X1X1X1X1X1X1X1X1X1X1X",
"1X1X1X1X1X1X1X1X1X1X1X1X1X1X1X1X1X1X1X>XF.d i.5.H 9 # 5  .X...8 # 5 5.e.8.7.S N ].<X1X1X1X1X1X1X1X1X1X1X1X1X1X1X1X1X1X1X",
"1X1X1X1X1X1X1X1X1X1X1X1X1X1X1X1X1X1X1X1X#XF B b.8.q 3 3.&.=.*.3. .I T j j y 6.B | <X1X1X1X1X1X1X1X1X2X1X1X1X1X1X1X1X1X1X",
"1X1X1X1X1X1X1X1X1X1X1X1X1X1X1X1X1X1X1X1X1X&XM f 8.! 4.D.S.=.%.*.@.#.M.s.a.s.s.n F.<X1X1X1X1X1X1X1X1X1X1X1X1X1X1X1X1X1X1X",
"1X1X1X1X1X1X1X1X1X1X1X1X1X1X1X1X1X1X1X1X1X1X$XM V B.r.X.$.+.+.#.N.Z.~.E.T.a.m F &X2X2X1X1X1X1X1X1X1X1X1X2X1X1X1X1X1X1X1X",
"1X1X1X1X1X1X1X1X1X1X1X1X1X1X1X1X1X1X1X1X1X1X:Xd q a.i.;.O.+.#.N.R.T.p.q.7.j D {.:X3X1X1X1X1X1X1X1X1X1X1X1X1X1X1X1X1X1X1X",
"1X1X1X1X1X1X1X1X1X1X1X1X1X1X1X2X1X1X1X1X1X,XJ.+ 5 b a.-.X.&.A.C.z.;.-.:.l f K a K.;X1X1X1X1X1X1X1X1X1X1X1X1X1X1X1X1X1X1X",
"1X1X1X1X1X1X1X1X1X1X1X1X1X1X1X1X1X1X1X1X1X-XD - L L f.-.b M.C.k.o.o.T o.U e r L - t.;X1X1X1X1X1X1X1X1X1X1X1X1X1X1X2X1X1X",
"1X1X2X1X1X1X1X1X1X1X1X1X1X1X1X1X1X1X3X1X;XJ.~ r.T L 9.V.n.R.r.Y P P P L 1 * O < ; - U.1X1X1X1X1X1X1X1X1X1X1X1X1X1X1X1X1X",
"1X1X1X1X1X1X1X1X1X1X1X1X1X1X1X1X1X1X3X-XH.|  XW.b.-.Q 6.e.0.e 2 2 2 2 e 6 .     = * H.<X3X3X1X1X1X1X1X1X1X1X1X1X1X1X1X1X",
"1X1X2X1X1X1X1X1X1X1X1X1X1X1X1X1X1X1X-XJ.} XXXX XR.v.0.C c c y z Q z y z z q & o = 7 ].,X&X}.;X1X1X1X1X1X1X1X1X1X1X1X1X1X",
"1X1X1X1X1X1X1X1X1X1X1X1X1X1X1X1X1X=XH.} XXXX X XY.b.R.w._ _ -.6.q.-.^ ^ -.( k > . s ].].s % [.1X1X1X1X1X2X1X1X1X1X1X1X1X",
"1X1X1X1X1X1X1X1X1X1X1X1X1X1X1X1X2X'.M oXXX X(.!.b.R.n.d.y.a.i.p.p.e.-.-.i.e.6.C 5 X : r ; * '.3X1X1X1X1X1X1X1X1X1X1X1X1X",
"1X1X1X1X1X1X1X1X1X1X1X1X1X1X1X1X*Xt.u.+X Xm.z.x.n.m.d.` r.s.s.r.p.b.e.q.a.a.a.0.v 9 - e - p $X1X1X1X1X1X1X1X1X1X1X1X1X1X",
"1X1X1X1X1X1X1X1X1X1X1X1X1X1X1X1XU.h oXoX Xm.>.>.<.<.>.>.{ c.k.<.m.Y.s.p.a.a.a.e._ ^ w + p }.1X1X1X1X1X1X1X1X1X1X1X1X1X1X",
"1X1X1X1X1X1X1X1X1X1X1X1X2X1X1X*X| u.oXoX`.m.,.,.2.2.1.1.j.j.<.l.(.!.V.a.a.s.b.a.0./ ^ > L.,X1X1X1X1X1X1X1X1X1X1X1X1X1X1X",
"1X1X1X1X1X1X1X1X1X1X1X1X1X1X1X].h oXoXXX XC.f.,.h.j.j.j.j.j.h.I././.W.b.s.R.C.B.e.-.Q > L.1X1X1X1X1X1X1X1X1X1X1X1X1X1X1X",
"1X1X1X1X1X1X1X1X1X1X1X1X1X1X3X].s +XoXXXQ.w.:.{ { ,.2.2.{ h.m.(.(.~.~.R.B.~.E.b.a.0.Q > L.,X1X1X1X1X1X1X1X1X1X1X1X1X2X1X",
"1X1X1X1X1X1X1X1X1X1X1X1X1X1X3X[.h XXoX`.Q.[ E ' ' ` ] { ] { g.z.c.W.W.W.R.~.R.s.i.9.Q 9 L.,X1X1X1X1X1X1X1X1X1X1X1X1X1X1X",
"1X1X1X1X1X1X1X1X1X1X1X1X1X1X2X=XF.} .X).`.P.c.y.' E W E E E E ' z.W.W.~.W.W.V.a.p.9.w F *X1X1X1X1X1X2X1X1X1X1X1X1X1X1X1X",
"1X1X1X1X2X1X1X1X1X1X1X1X1X1X1X1X'.a ^.`.`.`._.p.R t ' R g ~ [ c.Y.W.W.R.B.B.b.p.q.^ , K.1X1X1X1X1X1X1X1X1X1X1X1X1X1X1X1X",
"1X1X1X1X1X1X1X1X1X1X1X1X1X1X1X1X-XH.Z E.`.`.).Q.w.x [ ~ [ x.P.!.P.s.b.b.a.a.p.q.^ w J *X1X1X1X1X1X1X1X1X1X1X1X1X1X1X1X1X",
"1X1X1X1X1X1X1X1X1X1X1X1X1X1X1X1X1X;XG.B b.R.~.~.Y./ ~ 9.n.E.E.b.a.a.p.p.p.q._ v w K -X1X1X1X1X1X1X1X1X2X1X1X1X1X1X1X1X1X",
"1X1X1X1X2X1X1X1X1X1X1X1X1X1X1X1X1X1X-XH.i m 7.7.p.q.' y.b.b.s.p.p.e.;.) v x p & K *X1X1X1X1X1X1X1X1X1X1X1X1X1X1X1X1X1X1X",
"1X1X1X1X1X1X1X1X1X1X1X1X1X1X1X1X1X1X3X:X%XF.0 u M S ~ A H H c g l l f r 0 , J $X:X1X1X1X1X1X1X1X1X1X1X1X1X1X1X1X1X1X1X1X",
"1X1X1X1X1X1X1X1X1X1X1X1X1X1X1X1X1X1X1X1X2X-X$XOXK u u u u u 0 u 0 0 u F |.%X-X1X1X1X1X1X1X1X1X1X1X1X1X1X1X1X1X1X1X1X1X1X",
"1X1X1X1X1X1X1X1X1X1X1X1X1X1X1X1X1X1X1X1X1X1X3X1X:X*X*X*X*X*X=X*X=X=X*X:X1X2X1X1X1X1X1X1X1X1X1X1X1X1X1X1X1X1X1X1X1X1X1X1X",
"1X1X1X1X1X1X1X1X1X1X1X1X1X1X1X1X1X1X1X1X1X1X1X1X3X3X3X3X2X3X3X3X3X3X2X2X1X1X1X1X1X1X1X1X1X1X1X1X1X1X1X1X1X1X1X1X1X1X1X1X",
"1X1X1X1X1X1X1X1X1X1X1X1X1X2X1X1X1X1X1X1X1X1X1X1X1X1X3X3X1X1X1X1X1X1X1X1X1X1X1X1X1X1X1X1X1X1X1X1X1X1X1X1X1X1X2X1X1X1X1X1X",
"1X1X1X1X1X1X1X1X1X1X1X1X1X1X1X1X1X1X1X1X1X1X1X1X1X1X1X1X1X1X1X1X1X1X1X1X1X1X1X1X1X1X1X1X1X1X1X1X1X1X1X1X1X1X1X1X1X1X1X1X",
"1X1X1X1X1X1X1X1X1X1X1X1X1X1X1X2X1X1X1X1X1X1X1X1X1X1X1X1X1X1X1X1X1X1X1X1X1X1X1X1X1X1X1X1X1X1X1X1X1X1X1X1X1X1X1X1X1X1X1X1X",
"1X1X1X1X1X1X1X1X1X1X1X1X1X1X1X1X1X1X1X1X1X1X1X1X1X1X1X1X1X1X1X1X1X1X1X1X1X1X1X1X1X1X1X1X1X1X1X1X1X1X1X1X1X1X1X1X1X1X1X1X",
"1X1X1X1X1X1X1X1X1X1X1X1X1X1X1X1X1X1X1X1X1X1X1X1X1X1X1X1X1X1X1X1X1X1X1X1X1X1X1X1X1X1X1X1X1X1X1X2X1X1X1X1X1X1X1X1X1X1X1X1X",
"1X1X2X1X1X1X1X1X1X1X1X1X1X1X1X1X1X1X1X1X1X1X1X1X1X1X1X1X1X2X1X1X1X1X1X1X1X1X1X1X1X1X1X1X1X1X1X1X1X1X1X1X1X1X1X1X1X2X1X1X",
"1X1X2X1X1X1X1X1X1X1X1X1X1X1X1X1X1X1X1X1X1X1X1X1X1X1X1X1X1X1X1X1X1X1X1X1X1X1X1X1X1X1X1X1X1X1X1X1X1X1X1X1X1X1X1X1X1X1X1X1X",
"1X1X1X1X1X1X1X1X1X1X1X1X1X1X1X1X1X1X1X1X1X1X1X1X1X1X1X1X1X2X1X1X1X1X1X1X1X1X1X1X1X1X1X1X1X1X1X1X1X1X1X1X1X1X1X1X1X1X1X1X",
"1X1X1X1X1X1X1X1X1X1X2X1X1X1X1X1X1X1X1X1X1X2X1X1X1X1X1X1X1X1X1X1X1X1X2X1X1X1X1X1X1X1X1X1X1X2X1X1X1X1X1X1X1X1X1X2X1X1X1X1X",
"1X1X1X1X1X1X1X1X1X1X1X1X1X1X1X1X1X1X1X1X1X1X1X1X1X1X1X1X1X1X1X1X1X1X1X1X1X1X1X1X1X1X1X1X1X1X1X1X1X1X1X1X1X1X1X1X1X1X1X1X",
"1X1X1X1X1X1X1X1X1X1X2X1X1X1X1X1X1X1X1X1X1X2X1X1X1X1X1X1X1X1X1X1X1X1X1X1X1X1X1X1X2X1X1X1X1X1X1X1X1X1X1X1X1X1X1X1X1X1X1X1X",
"1X1X1X1X1X1X1X1X1X1X1X1X1X1X1X1X1X1X1X1X1X1X1X1X1X1X1X1X1X1X1X1X1X1X1X1X1X1X1X1X1X1X1X1X1X1X1X1X1X1X1X1X1X1X1X1X1X1X1X1X",
"1X1X1X1X1X1X1X1X1X1X1X1X1X1X1X1X1X1X1X1X1X1X1X1X1X1X1X1X1X1X1X1X1X1X1X1X1X1X1X1X1X1X1X1X1X1X1X1X1X1X1X1X2X1X1X1X1X1X1X1X",
"1X1X1X1X1X1X1X1X1X1X1X1X1X1X1X1X1X1X1X1X1X1X1X1X1X1X1X1X1X1X1X1X1X1X1X1X1X1X1X1X1X1X1X1X1X1X1X1X1X1X1X1X1X1X1X1X1X1X1X1X"
};
