/* XPM */
static char *cc0c239470e64ef6be29f75a116016f0Ms0Dn6JSdCHi4Tqf[] = {
/* columns rows colors chars-per-pixel */
"24 21 70 1 ",
"  c None",
". c black",
"X c #005500",
"o c #115500",
"O c #116600",
"+ c #117700",
"@ c #118800",
"# c #119900",
"$ c #229911",
"% c #11AA00",
"& c #11BB00",
"* c #22AA00",
"= c #22BB00",
"- c #22BB11",
"; c #33BB11",
": c #339933",
"> c #33AA33",
", c #22CC00",
"< c #33CC11",
"1 c #33CC22",
"2 c #33CC33",
"3 c #33DD33",
"4 c #44CC22",
"5 c #44CC33",
"6 c #55CC33",
"7 c #55DD33",
"8 c #33AA44",
"9 c #44DD44",
"0 c #55DD55",
"q c #66DD44",
"w c #77DD55",
"e c #77EE55",
"r c #44CC66",
"t c #55DD66",
"y c #55DD77",
"u c #66DD77",
"i c #55EE77",
"p c #66EE77",
"a c #88DD77",
"s c #88EE66",
"d c #99EE77",
"f c #AAEE77",
"g c #66EE88",
"h c #66EE99",
"j c #77FFAA",
"k c #88EE99",
"l c #AAEE88",
"z c #AAFF88",
"x c #BBFF88",
"c c #BBFF99",
"v c #88FFAA",
"b c #88FFBB",
"n c #BBFFAA",
"m c #AAEEBB",
"M c #AAFFBB",
"N c #BBFFBB",
"B c #CCFF99",
"V c #CCFFAA",
"C c #CCFFBB",
"Z c #DDFFBB",
"A c #BBFFCC",
"S c #DDFFCC",
"D c #CCFFDD",
"F c #DDFFDD",
"G c #EEFFCC",
"H c #DDFFEE",
"J c #EEFFEE",
"K c #FFFFEE",
"L c #EEFFFF",
"P c white",
/* pixels */
"           ..           ",
"          .<=.          ",
"         .sd;@.         ",
"        .lcl;%@.        ",
"      ..nGZd*%#+..      ",
"    ..sZPPC5*%%@+O..    ",
"   .<dVKPPa;%%%#@+OO.   ",
"  .=wcVJPSe4=%%%#@@OO.  ",
" .&;dcBVVcs7,&&%%#@+OO. ",
" .#*wdzxfsq4;&%%##@+OO. ",
".@#*;6qww64;%#####@+OOX.",
".@@#*;;;;;*%####@@@+OOO.",
".+@###%**###%%%%%%#@+::.",
".O++@@@@@@#%%%&&&=**$r8.",
".OOOO++++@#%&=,,10gpty>.",
" .XXXO+@##%=,,,2pMFHAu. ",
" .oXXX+@#%=,,,2gMFLJAk. ",
"  .OOX+#*-1119gbADFAM.  ",
"   ..++#*2iiighjvmN..   ",
"     ...#=12331,...     ",
"        ........        "
};
