/* XPM */
static char *result[] = {
/* columns rows colors chars-per-pixel */
"50 50 256 2 ",
"   c #3B2E13",
".  c #7A1802",
"X  c #6B1106",
"o  c #4F3609",
"O  c #722918",
"+  c #6A312C",
"@  c #440000",
"#  c #78650D",
"$  c #5A5B24",
"%  c #6D5528",
"&  c #6A6530",
"*  c #614D15",
"=  c #746D4A",
"-  c #784742",
";  c #9A0D07",
":  c #851B00",
">  c #8A1703",
",  c #931401",
"<  c #9B1403",
"1  c #941A03",
"2  c #9B1A03",
"3  c #9B1A0B",
"4  c #991915",
"5  c #810E00",
"6  c #A20D09",
"7  c #A31B04",
"8  c #A31C0B",
"9  c #A7170B",
"0  c #AC1B14",
"q  c #AD151A",
"w  c #A71814",
"e  c #B2171A",
"r  c #B41A1A",
"t  c #B21814",
"y  c #AC1411",
"u  c #8C2302",
"i  c #8F2800",
"p  c #9B240B",
"a  c #982805",
"s  c #973609",
"d  c #852716",
"f  c #8A351A",
"g  c #9B3414",
"h  c #952E0E",
"j  c #A82509",
"k  c #A42212",
"l  c #AA2412",
"z  c #A92817",
"x  c #B42518",
"c  c #A93818",
"v  c #B2361D",
"b  c #AD290E",
"n  c #B51C23",
"m  c #873626",
"M  c #963C29",
"N  c #843B34",
"B  c #B73827",
"V  c #A73428",
"C  c #C5392B",
"Z  c #C83B31",
"A  c #C12E1E",
"S  c #9C5013",
"D  c #A54719",
"F  c #AF4819",
"G  c #927415",
"H  c #A87817",
"J  c #B97712",
"K  c #B17908",
"L  c #894B3B",
"P  c #944534",
"I  c #8E5234",
"U  c #A84927",
"Y  c #BD442B",
"T  c #B44728",
"R  c #AC542A",
"E  c #B6562A",
"W  c #BA5637",
"Q  c #B14C37",
"!  c #947033",
"~  c #B26E31",
"^  c #C4462D",
"/  c #C64835",
"(  c #C85737",
")  c #D7563B",
"_  c #C95535",
"`  c #C5653A",
"'  c #CE6434",
"]  c #C6750C",
"[  c #894C44",
"{  c #B55B47",
"}  c #B2544B",
"|  c #986A48",
" . c #887A48",
".. c #AB6655",
"X. c #B2725A",
"o. c #A76B4D",
"O. c #9E6466",
"+. c #B07B6B",
"@. c #D75843",
"#. c #D84E44",
"$. c #E65948",
"%. c #F35F51",
"&. c #C46846",
"*. c #D76746",
"=. c #C9744D",
"-. c #C46B56",
";. c #D97956",
":. c #D6764C",
">. c #E6654C",
",. c #E96B54",
"<. c #FA6858",
"1. c #E87457",
"2. c #F4745A",
"3. c #E27549",
"4. c #C67C66",
"5. c #D3756C",
"6. c #EE7D67",
"7. c #7C804D",
"8. c #B48D19",
"9. c #9C8932",
"0. c #B9962C",
"q. c #B89A37",
"w. c #AC8832",
"e. c #BCAA3A",
"r. c #978519",
"t. c #C68A19",
"y. c #D28D18",
"u. c #C6982A",
"i. c #CF902F",
"p. c #C9A73B",
"a. c #D3AC3B",
"s. c #E6AB35",
"d. c #B69D48",
"f. c #B18E50",
"g. c #BAA447",
"h. c #B8A557",
"j. c #BCB05C",
"k. c #8D9166",
"l. c #AC8C6A",
"z. c #BAAA67",
"x. c #B4A972",
"c. c #D7854A",
"v. c #D39150",
"b. c #E99A59",
"n. c #EE8A5D",
"m. c #C7A947",
"M. c #D5A947",
"N. c #C9B44A",
"B. c #C6A955",
"V. c #CBB75B",
"C. c #D6BB57",
"Z. c #D6B84B",
"A. c #E9B04F",
"S. c #D78A68",
"D. c #D6966B",
"F. c #DA9C75",
"G. c #CC9170",
"H. c #E58767",
"J. c #F78767",
"K. c #E79567",
"L. c #F9946B",
"P. c #F98A74",
"I. c #EA9877",
"U. c #FF9878",
"Y. c #C5A668",
"T. c #CAB968",
"R. c #D4BB68",
"E. c #CAB879",
"W. c #D8BB77",
"Q. c #D0A675",
"!. c #E8A779",
"~. c #FAA87A",
"^. c #E9B47B",
"/. c #EFB66F",
"(. c #D9C358",
"). c #E5C75C",
"_. c #DBC868",
"`. c #D9D36E",
"'. c #D8C778",
"]. c #D7CB74",
"[. c #E4CA66",
"{. c #F8D766",
"}. c #E7C878",
"|. c #E5D576",
" X c #F7D974",
".X c #EDD368",
"XX c #FAE679",
"oX c #F0E177",
"OX c #B97C83",
"+X c #B69494",
"@X c #B8A79B",
"#X c #CD9190",
"$X c #F79C87",
"%X c #EC9889",
"&X c #D8BD85",
"*X c #D5AE90",
"=X c #E9A48C",
"-X c #FBA886",
";X c #E8B38A",
":X c #FDB588",
">X c #ECB796",
",X c #FCB793",
"<X c #F2AE93",
"1X c #D0B2AE",
"2X c #F2ACA2",
"3X c #D9C986",
"4X c #DAD589",
"5X c #D8C898",
"6X c #D4CC94",
"7X c #FEC78B",
"8X c #E9D987",
"9X c #FACC97",
"0X c #E7DA96",
"qX c #FBD598",
"wX c #ECD28E",
"eX c #E9E487",
"rX c #F8E88A",
"tX c #EBE798",
"yX c #F8EA96",
"uX c #FEF798",
"iX c #FFF18D",
"pX c #FCCDA6",
"aX c #E8DBA5",
"sX c #FAD8A4",
"dX c #EDCBB4",
"fX c #EBE5A8",
"gX c #F7EAA7",
"hX c #FDF6AB",
"jX c #EAE2B9",
"kX c #FCEBB4",
"lX c #F8E8B8",
"zX c #FEFCBB",
"xX c #FCF6B6",
"cX c #C6CCA8",
"vX c #E8D8CB",
"bX c #F9DBD4",
"nX c #F4DACE",
"mX c #E9E4C4",
"MX c #FBE9C4",
"NX c #FFFDC4",
"BX c #FEF5CB",
"VX c #FEFCCC",
"CX c #FAF5C4",
"ZX c #F7EADA",
"AX c #FDF3D3",
"SX c #FFFDD3",
"DX c #FFFDDC",
"FX c #F9F4DC",
"GX c #FEFCE4",
"HX c #FDF4EB",
"JX c #FDFCEB",
"KX c #F9F6E6",
"LX c #FFFCF3",
"PX c #FFFAF8",
"IX c #FFEBE2",
"UX c None",
/* pixels */
"UXUXUXUXUXUXUXUXUXUXUXUXUXUXUXUXUXUXUXUXUXUXUXUXUXUXUXUXUXUXUXUXUXUXUXUXUXUXUXUXUXUXUXUXUXUXUXUXUXUX",
"UXUXUXUXUXUXUXUXUXUXUXPXnXbX1X+XUXUXUXUXUXUXUXUXUXUXUXUXUXUXUXUXUXUXUXUXUXUXUXUXUXUXUXUXUXUXUXUXUXUX",
"UXUXUXUXUXUXUXUXUXUXUXHX+.[ - + 1XHXUXUXUXUXUXUXUXUXUXUXUXUXUXUXJXFXJXHXUXUXUXUXUXUXUXUXUXUXUXUXUXUX",
"UXUXUXUXUXUXUXUXUXUXPXbX- O L + % dXPXUXUXUXUXUXUXUXUXUXUXUXUXLXDXAXMXKXUXUXUXUXUXUXUXUXUXUXUXUXUXUX",
"UXUXUXUXUXUXUXUXUXUXIX#Xd f M O @ +XJXUXUXUXUXUXUXUXUXUXUXUXUXFX&X&XQ.>XGXUXUXUXUXUXUXUXUXUXUXUXUXUX",
"UXUXUXUXUXUXUXUXKXZXbXL O m d X N +.FXSXKXUXUXUXUXUXUXUXUXUXJXjXf.f.f.! dXGXUXUXUXUXUXUXUXUXUXUXUXUX",
"UXUXUXUXUXUXUXdXdXbXdX..P . g d m O +Xk.cXDXUXUXUXKXHXUXUXJXSX&Xv.v.b.~ z.AXUXUXUXUXUXUXUXUXUXUXUXUX",
"UXUXUXUXUXUX=X<X=X<X<X+.M M O d d | = = k.mXJXLXHXZXHXPXKXDXkXf.H t.i.] Y.lXJXUXUXUXUXUXUXUXUXUXUXUX",
"UXUXUXUXUX4.U g Q $X4.{ P f m P I | k.$ $ @XIXPXvX+X1XZXHXKXaXv.] t.] K ~ '.DXKXUXUXUXUXUXUXUXUXUXUX",
"UXUXUXUXUXM , 8 , h S.S.=X=X$XP I I o & $ l.HXbX+X+X+X1XHXvXh.p.K y.] J w._.jXJXJXUXUXUXUXUXUXUXUXUX",
"UXUXUXUXUXh b 9 x 2 F H.,XbX%XM X.o.% % % +.bX1X+X+X+X1XvXjXd.i.u.8.y.y.e.(.aXFXJXZXIXUXUXUXUXUXUXUX",
"UXUXUXUXUXu 8 t 9 b > ` I.2XF.X o.o.X.X.l.l.#X#XOXO.+X@XvX5XG 0.a.u.s.s.p.9.6XCXjX1XdXUXUXUXUXUXUXUX",
"UXUXUXUXUXW a 2 v <._ j :.I.-.P P P +.X...[ P #X#X#X2XO.dX;XG G 8.8.t.0.r.# Y.sX=XG.4.UXUXUXUXUXUXUX",
"UXUXUXUXUXG.Q p c ^ J.c : H.I.{ { O N P [ } } } 5.P.#X5.L ! w.[.u.r.r.K # G W.:X{ d X } UXUXUXUXUXUX",
"UXUXUXUXUXUXF.;.h : 1.*.b u ;.-X-.M ....} 5.#.V q q V V X g v.p.u.u.u.N.9.! D.X.5 k 4 > UXUXUXUXUXUX",
"UXUXUXUXUXUXUX!.:.u _ J.1.v u ` $X$X-.M d } V 4 6 ; w 4 : E /.A.a.G m.g.G ! !.D j 0 / > UXUXUXUXUXUX",
"UXUXUXUXUXUXUXUXF.c D 2.@./ 1 z Q P.P.H.J.J.2.$.A 6 y 8 . ~ i.i.u.0.0.w.# | K.> 3 / U.: UXUXUXUXUXUX",
"UXUXUXUXUXUXUXUX>X~ i ^ $.Z , T / 4 k @.*.' ,.,.<.%.9 8 > ` S H 8.H 9.T.# G.&.> k U.-XX.UXUXUXUXUXUX",
"UXUXUXUXUXUXUXUXpXv.u ^ #.B 3 b ( k < 2 2 2 3 7 b $.<.6 i b.! M.! G h.6Xf.G.M k 3 H.I.UXUXUXUXUXUXUX",
"UXUXUXUXUXUXUXUXUXS.U 6.B < , *.3., 9 0 9 l 9 8 7 7 $.) D v.~ ! 9.T.3X0Xx.<Xg ; g L.pXUXUXUXUXUXUXUX",
"UXUXUXUXUXUXUXUXUX;X( *.B 4 &.~.:.B $.t y y y n 9 9 C 2.D :XE.*Xx.fX6X= l.4.; r 3 H.pXUXUXUXUXUXUXUX",
"UXUXUXUXUXUXUXUXUXUXW ( ,.T -XL.n.L.) r t t q q x 7 6 >.=.f.*XcXx.aX*Xo #X} ; t j &.>XUXUXUXUXUXUXUX",
"UXUXUXUXUXUXUXUXUXUXW B Y *.W S c.b.v C r e e q 9 x 6 Y -X% & = & &Xl.| $X4 q e ; T I.UXUXUXUXUXUXUX",
"UXUXUXUXUXUXUXUXUXUXW 2 v E s b.~.D ' P.B 6 n q z ^ 3 > H.G.    o Y.D.,XQ 4 q e 0 2 Q Q.UXUXUXUXUXUX",
"UXUXUXUXUXUXUXUXUX*X( 2 ^ E R ' i D n.*., z 4 B P.L.( p a K.#X| | !.:X` 1 w n e y k a 4.UXUXUXUXUXUX",
"UXUXUXUXUXUXUXUXUXUX{ , _ U.` ` D J.K.n.p 3 q B -X,X1., l p ;.=X=XH.R > p k q 6 Z $.p { UXUXUXUXUXUX",
"UXUXUXUXUXUXUXUXUXUX-.> u L.K.D L.R D :X( 3 k B -X,X,.< 9 y k > d 1 1 F 1.B 3 z l >.> U <XUXUXUXUXUX",
"UXUXUXUXUXUXUXUXUXUXS.h : n.L.E u s . ` U.B ; z 3.P.Y x r y w r 0 w , *.,X*.p > _ 6.a U >XUXUXUXUXUX",
"UXUXUXUXUXUXUXUXUXUXS.D a *.J.L.T c T :.J.@.l 3 c B w q 6 r w 0 q w k @.,X1.> B U._ u E ;XUXUXUXUXUX",
"UXUXUXUXUXUXUXUXUXUX;XR E J.1.J.U.Y / 1.*.>.7 j , 8 w e r x 1.#.y y 8 B 1.c u 6.U.c : c.9XxXUXUXUXUX",
"UXUXUXUXUXUXUXUXUXUXdXv.h Y J.*.x , 4 #.*.^ ) <.z x t 6 7 @.-X-X^ 0 0 < z c c H.L.c a c.B.R.fXUXUXUX",
"UXUXUXUXUXUXUXUXUXUXUXF.R : a p 8 x 0 #.) _ >.,.@.7 t t 7 *.9X-Xv 7 r 0 x P.J.' ' s ' b.B.B.h.0XUXUX",
"UXUXUXUXUXUXUXUXUXUXUX>XD.R : p z 9 w x ^ ) 2 k >.x t e 7 >.:X:X/ 6 e r $.#.T :._ D b.a.A.Z.p.T.CXGX",
"UXUXUXUXUXUXUXUXUXUXUXUX;X!.=.g 5 k z < 7 7 2 ^ %.%.y y b b *.( w w q C <.Y > h s b.v.{.XXXXM.d.lXDX",
"UXUXUXUXUXUXUXUXUXUXUXUXMXG.K.!.=.h u a < j 7 j b y e n 6 7 j a 9 j 9 w z h u U D.^./.{.a.{.).q.aXVX",
"UXUXUXUXUXUXUXUXUXUXUXUXUXsXQ.^.^.:Xv.3._ c b j 7 3 y ; l , a a 7 < a g i U D.;X3XsXwX[.(.a.{.m.4XVX",
"UXUXUXUXUXUXUXUXUXUXUXUXUX0X0XkXgXqXqX7X~.K.L.3._ F T Q V R R ` E E K.:X/.^.^.;XMXBXaX].(.(.XXe.3XVX",
"UXUXUXUXUXUXUXUXUXUXUXUXNX4X0XxXgXaXkXsXqX7XA.b.b.b.I.I.pXpXsXsX7X7X/.9X^.W.sXSXFXDXMX6X].eXiXg.3XVX",
"UXUXUXUXUXUXUXUXUXUXUXUXhX4XfXlXMXSXBXSXVXzX8XB.R.qXqX9XgXlXlXkXhX0X}.wXgXhXkXBXGXKXUXAXlXzXyXh.3XVX",
"UXUXUXUXUXUXUXUXUXUXUXSXtXtXkXCXSXSXGXGXSXzXzX}.B.yXhXkXkXSXDXSXVXNXgXR.8X8XfXGXGXPXKXUXUXNX4Xh.5XSX",
"UXUXUXUXUXUXUXUXUXUXKXVXtXtXfXNXBXDXKXGXDXNXzXhXV.|.gXfXNXSXDXDXSXNXxX8XV.8XgXSXGXLXPXJXUXNX'.h.aXSX",
"JXAX5Xz.6XSXGXUXUXLXKXxXeXeXtXzXxXjXDXGXCX0X0XhXV.V.tXhXNXCXDXDXSXxXhXuXV.].yXNXDXLXJXKXUXgXY.h.jXDX",
"SX0Xd.V.z.fXGXJXFXDXBXfXeXeXeXuX].].lXSXaXz.z.yX[.M.}.zX0XtXzXVXxX3X'.hXC.C.eXhXVXDXDXCXUX].g.T.BXJX",
"xXE.[.|.q.fXSXSXSXNX0XeXuXoX`.uXrX`.tXzXeXj.|.uXC.M..XuX8X4XfXNX0XT.].iX(.[..XtXVXVXVXNXeXV.g.}.DXUX",
"zXz._.XX|.hXzXzXyXeX`.rXuXtX`.XXXX(.rXhXoXN.rX.Xm.rXA.iXiX|.yXhXeX|.uX|.N.XX`.`.hXzXzXtXT.g.V.gXGXUX",
"VXE.q.C.|.4XtX3X_._.`.oXeXrX`.(.(.C.rXrX|.p.N.m..X X.XZ.`._.oXtX|.T.(.N.).XX{.(._.8X].j.h.T.0XSXUXUX",
"GXaXY.B.d.d.h.Y.C.M.m.m.h.B.g.N.g.m.h.j.N.N.e.N.g.g.m.m.m.m.B.B.V.m.g.m.N.0.p.Z.C.B.B.T.z.aXAXUXUXUX",
"KXDXaXW.3X'.'.'.}.^.^.W.'.'.T._._.E.'.UXj._.V._.T.].UXUXUXUXUXUXUXUXUXUXUX_.R.W.[.}.W.3XkXUXUXUXUXUX",
"UXKXDXAXSXBXBXBXlXMXMXMXlXlXfXjXaXUXUXUXUXUXUXUXUXUXUXUXUXUXUXUXUXUXUXUXUXUXUXkXkXlXBXUXUXUXUXUXUXUX",
"UXUXUXUXUXFXAXAXZXUXUXMXZXmXmXjXmXmXUXUXUXUXUXUXUXUXUXUXUXUXUXUXUXUXUXUXUXUXUXUXUXUXUXUXUXUXUXUXUXUX"
};
