/* XPM */
static char *e7f210a7b3ca495cdc0b6dd51481b540VoxOICX8j3CpVDvU[] = {
/* columns rows colors chars-per-pixel */
"60 60 240 2 ",
"   c #3E2828",
".  c #48312D",
"X  c #4C3434",
"o  c #573936",
"O  c #643E3B",
"+  c #5B4333",
"@  c #67443C",
"#  c #774C3E",
"$  c #667A38",
"%  c #4C3A45",
"&  c #594344",
"*  c #5B5E48",
"=  c #55495A",
"-  c #5C5856",
";  c #674C46",
":  c #6C534D",
">  c #755548",
",  c #745B56",
"<  c #5C6647",
"1  c #6B7846",
"2  c #686957",
"3  c #7D645A",
"4  c #717050",
"5  c #574E62",
"6  c #5B5266",
"7  c #58536A",
"8  c #5C556B",
"9  c #595B76",
"0  c #61566A",
"q  c #655A6D",
"w  c #685C6E",
"e  c #635D73",
"r  c #6A5E71",
"t  c #5D617D",
"y  c #6B6469",
"u  c #796769",
"i  c #787967",
"p  c #6C6174",
"a  c #646278",
"s  c #6C647A",
"d  c #716576",
"f  c #726B76",
"g  c #716679",
"h  c #746A7C",
"j  c #796D7E",
"k  c #7B757A",
"l  c #82533F",
"z  c #98663F",
"x  c #895841",
"c  c #966444",
"v  c #8D7055",
"b  c #A77847",
"n  c #876C65",
"m  c #8F736C",
"M  c #89787A",
"N  c #937B79",
"B  c #A17A7E",
"V  c #748A3B",
"C  c #799238",
"Z  c #788649",
"A  c #788954",
"S  c #71846A",
"D  c #829B3A",
"F  c #8AA53E",
"G  c #95AF3F",
"H  c #869845",
"J  c #868D56",
"K  c #B28D56",
"L  c #92AA42",
"P  c #92A94B",
"I  c #A3B64E",
"U  c #878A6F",
"Y  c #99837A",
"T  c #97A666",
"R  c #ABA76A",
"E  c #5E6685",
"W  c #676985",
"Q  c #756D82",
"!  c #7A6F81",
"~  c #67798D",
"^  c #7C7284",
"/  c #7D758A",
"(  c #65779A",
")  c #7B7A95",
"_  c #6B7CA3",
"`  c #827585",
"'  c #877A83",
"]  c #82778A",
"[  c #857A8C",
"{  c #8A7D8D",
"}  c #997C84",
"|  c #837C92",
" . c #8A7E91",
".. c #A27D82",
"X. c #788A9A",
"o. c #7A87A8",
"O. c #738CAD",
"+. c #6E93BA",
"@. c #7998B9",
"#. c #779DC3",
"$. c #7CA7CA",
"%. c #7CAAD1",
"&. c #8D8587",
"*. c #988588",
"=. c #8F9A8A",
"-. c #8D8192",
";. c #888398",
":. c #928595",
">. c #988A96",
",. c #968999",
"<. c #9A8C9B",
"1. c #9F919E",
"2. c #A58A89",
"3. c #AD8E8D",
"4. c #A38B96",
"5. c #A59394",
"6. c #A99799",
"7. c #B79597",
"8. c #96A597",
"9. c #AAA698",
"0. c #B8A79B",
"q. c #AFB399",
"w. c #878AA4",
"e. c #968EA3",
"r. c #8795AD",
"t. c #9A95A7",
"y. c #839AB6",
"u. c #A394A2",
"i. c #A599A7",
"p. c #AB9BA5",
"a. c #AD9DAA",
"s. c #B59DA2",
"d. c #87A0BA",
"f. c #8DA2B9",
"g. c #98A6B9",
"h. c #AEA0AC",
"j. c #B7A6A5",
"k. c #B3A3AD",
"l. c #BAA6AB",
"z. c #BBAAAD",
"x. c #B6A6B1",
"c. c #B8A7B2",
"v. c #B0A9B1",
"b. c #B5A9B6",
"n. c #BAAAB2",
"m. c #BDB1B8",
"M. c #C39A9D",
"N. c #C69EA0",
"B. c #C9A2A4",
"V. c #C8AAAB",
"C. c #D2ABAD",
"Z. c #C6B7AB",
"A. c #CEADB1",
"S. c #C3B5B3",
"D. c #CCB5B6",
"F. c #C5B9B3",
"G. c #CABDB4",
"H. c #D9B7B8",
"J. c #E3BCBE",
"K. c #C4D19F",
"L. c #CEC9AC",
"P. c #CDC2B6",
"I. c #CDC2B9",
"U. c #D2C7B6",
"Y. c #D4CBBA",
"T. c #D9D1BB",
"R. c #86A6C6",
"E. c #83ADCC",
"W. c #88ADCE",
"Q. c #8CB2CC",
"!. c #9AB2C7",
"~. c #94B3CA",
"^. c #97B4C9",
"/. c #9AB3C8",
"(. c #8AB8D7",
"). c #98BCD4",
"_. c #B9B9C8",
"`. c #C0BEC8",
"'. c #E4BEC0",
"]. c #99C4D9",
"[. c #A4C5D8",
"{. c #B9C6D5",
"}. c #94C7E6",
"|. c #92CAEC",
" X c #9BD6F9",
".X c #B2CDE3",
"XX c #A6D3E7",
"oX c #B7D5E8",
"OX c #AADDF7",
"+X c #A3DCF9",
"@X c #B7DCF2",
"#X c #B9E0EE",
"$X c #ABE2F8",
"%X c #B6E4F6",
"&X c #BCE4F5",
"*X c #B3E5FA",
"=X c #B5E9FB",
"-X c #BCEBFA",
";X c #CDC4C6",
":X c #D5CDC4",
">X c #CACFD6",
",X c #DDD7D6",
"<X c #E8C2C4",
"1X c #E2DDD9",
"2X c #E5EBCE",
"3X c #CCD3E6",
"4X c #CAD9E4",
"5X c #C5D7F4",
"6X c #CCDBF4",
"7X c #D4D6F5",
"8X c #D3DDF4",
"9X c #DADCF5",
"0X c #E0DCE1",
"qX c #E8DCF5",
"wX c #C7E0EA",
"eX c #D3E4E9",
"rX c #C2E6F4",
"tX c #C5E9F6",
"yX c #CBECF6",
"uX c #C4EDF9",
"iX c #CBEFF9",
"pX c #D9E5F7",
"aX c #DEE4FC",
"sX c #C6F1F9",
"dX c #CCF1F9",
"fX c #D3F1F7",
"gX c #D3F2F9",
"hX c #DDF4F9",
"jX c #EAE7E8",
"kX c #F0F0EC",
"lX c #E1E6FD",
"zX c #EDE4F8",
"xX c #E3E9FD",
"cX c #EBEDFD",
"vX c #E4F5F9",
"bX c #EDF2FC",
"nX c #EBF8FB",
"mX c #F4F5F8",
"MX c #F4F5FE",
"NX c #FEFEFF",
/* pixels */
"NXNXNXNXNXNXNXNXNXNXNXNXNXNXNXMXMXMXMXNXNXNXNXNXNXNXNXNXNXNXNXNXNXNXMXMXMXcXcXxXxXlXlX9X9X7X7X7X7X7X9XqXqXqXqXqXzXMXMXMX",
"NXNXNXNXNXNXNXNXNXNXNXNXNXNXNXNXNXNXNXNXNXNXNXNXNXNXNXNXNXmXkXjXkXNXNXMXMXMXcXcXxXlXaXlX9X9X7X9X9X7X9X9XqXqXqXzXMXMXMXMX",
"NXNXNXNXNXNXNXNXNXNXNXNXNXNXNXNXMXNXNXNXNXNXNXNXNXNXNXNXjX,XY.Y.:X,XmXMXMXMXMXbXcXlXlXlXaXaXaXaX9X9XqXqXqXzXzXMXMXMXMXNX",
"NXNXNXNXNXNXNXNXNXNXNXNXNXNXNXNXNXNXNXNXNXNXNXNXNXNXjX,XY.Y.Y.Y.U.G.;X,XbXMXMXcXcXcXlXlXaXaXxXaXxXlXaXaXqXzXzXMXMXMXMXMX",
"NXNXNXNXNXNXNXNXNXNXNXNXNXNXNXNXNXNXNXNXNXNXNXNXkX,XY.Y.T.T.T.Y.I.I.F.S.;X0XcXbXcXcXxXxXaXxXxXlXxXaXaXaXlX9XxXcXMXMXNXMX",
"NXNXNXNXNXNXNXNXNXNXNXNXNXNXNXNXNXMXNXNXNXNXkX,XY.T.T.T.T.T.T.T.U.U.G.m.n.m.;XjXcXbXcXxXaXaXaXaXaXxXaXxXaXaXaX9XxXmXMXMX",
"NXNXNXNXNXNXNXNXNXNXNXNXNXNXNXNXNXNXNXNXmX1X:XT.T.T.T.T.T.T.T.T.Y.I.P.F.n.n.n.m.;XlXcXxXxXaXaXaXxXaXaXaXaXpX9X9XpXxXbXMX",
"NXNXNXNXNXNXNXNXNXNXNXNXNXMXMXMXMXNXmXjX:XY.T.T.T.T.T.T.T.T.T.T.I.U.I.P.F.n.n.n.n.m.;X9XaXaXaXxXaXxXxXaXaXaXpX9X7X9XzXMX",
"NXNXNXNXNXNXNXNXNXNXNXNXNXNXMXNXNXmX,XY.T.T.T.T.T.T.T.T.T.T.T.Y.P.I.P.U.G.S.n.c.c.c.k._.3X9X9X9XaXhXxXaXhXxX9XpX6X6X9XxX",
"NXNXNXNXNXNXNXNXNXNXNXNXNXMXNXNXjX:XY.Y.T.T.T.T.T.T.T.T.T.T.Y.P.U.I.P.I.I.G.m.n.c.c.x.x.x._.6X8XaXxXaXxXaXaXaX9X8X8X8XaX",
"NXNXNXNXNXNXNXNXNXNXNXNXNXNXmX,XU.I.L.I.T.T.T.T.T.T.T.T.Y.U.P.P.P.P.I.P.I.I.G.n.l.c.c.c.c.x.b.3XaXaXxXaXaXaXaX8X8X6X6X7X",
"MXNXNXNXNXNXNXNXNXNXNXNXNXbX:XI.U.G.Z.m.P.Y.T.T.T.T.Y.Y.I.P.P.I.I.P.P.P.P.P.I.S.c.c.c.a.a.x.x.a.>XaXhXxXaXaXaXpX8X7X6X6X",
"NXMXNXNXNXNXNXNXNXNXNXNXjXI.L.P.j.:.M j ' 6.I.I.U.I.P.P.I.P.P.I.P.P.I.I.I.P.I.G.S.p.` j h ' ,.p.u._.9XaXaXxXpX8X8X6X6X6X",
"nXNXNXNXNXNXNXNXNXNXNX,XI.P.z.5.M d >.&.= q j.P.P.I.G.I.P.I.P.P.I.P.P.P.P.P.I.I.z.d = M } y f ' <.i._.7XxXaXpXpX8X6X5X5X",
"MXMXNXNXNXNXNXNXNXmX,XG.I.z.Y n , N z.N ; % M P.I.P.P.P.I.P.I.P.I.P.P.P.P.I.I.P.4.& O u 0.u , u ! <.u.v.eXaXpXpXpX6X5X6X",
"nXMXMXNXNXNXNXNXNX,XF.P.j.^ 3 > v 0.j.n @ X u G.P.I.I.P.P.P.I.P.P.P.I.I.P.P.G.G.*.% o : 6.Y @ : u g <.i.h.3XpXyX6X6X5X5X",
"K.K.kXNXNXmX2XkX,Xm.P.z.' &.N Y B.j.j.N > @ Y L.G.P.P.P.P.P.P.P.P.P.P.P.P.P.P.G.2.& & u j.j.Y , u j ! p.e.i.3XpX6X5X5X5X",
"I F K.kX2X2XR K.z.m.P.1.>.Z.Z.S.n.k.l.j.6.*.0.L.P.P.P.P.P.P.P.P.P.P.P.P.P.P.P.G.0.M 1.n.z.h.u.6.4.>.` { k.<.t.oX6X5X5X5X",
"C F H R I I T 0.n.m.F.M M 5.p.x.V.3.N N *.0.G.G.P.P.P.P.P.L.Z.G.P.P.P.P.P.P.P.L.F.9.*.*.*.-.1.*.u , - d h.i.:.e.oX5X5X5X",
"F F G I P P 0.c.x.P.z.u : ; , 0.0.m > : Y G.Z.L.P.P.P.G.Z.V.5.3.B.G.P.P.P.P.P.m.G.Z.M > > 3 *.*.: + o w p.k.<.{ t.oX5X.X",
"F G F F H 9.z.c.n.G.j.u > o ; 7.2.> > Y L.H.j.V.G.Z.Z.0.5.N 3 u Y 6.z.Z.G.G.V.p.z.P.Z.v # ; u 2.3 + & u p.k.1.:.| g..Xi.",
"F F I P 9.n.c.c.n.P.Z.N , X , 7.M , Y L.Z.L.6.} 2.*.N U v > . o 4 v N *.5.2.*.4.z.P.L.Z.Y ; ; N M X & &.k.x.u.,. .` U A ",
"C F F T k.v.n.n.n.F.I.z.N - &.j.9.Z.L.G.L.L.7.n 3 , > # + . . . X @ : , , > u 5.S.P.P.P.U.0.Y M { - u p.x.k.p.:.-.! f 1 ",
"G C Z 9.n.k.h.v.n.P.P.U.G.G.G.I.U.P.G.P.H.L.0.n x . .   + + + o . o .   . ; n 3.V.G.G.S.G.G.P.Z.j.h.j.z.x.x.p.:.-.^ f 2 ",
"C F U k.n.x.k.x.c.S.D.G.G.G.G.G.G.P.I.P.L.L.7.m , X X . . o O O O o o X   > n 4.c.V.V.c.b.b.b.V.z.z.l.l.k.c.a. . .` Q p ",
"y i >.u.k.n.n.k.c.c.S.D.D.D.I.H.D.G.P.P.P.L.3.m > X X o o > l l # O O o X O n 2.k.b.b.x.x.V.H.'.H.H.J.H.V.s.u.:. .` d p ",
"9 ` <.u.k.x.x.l.H.J.'.<X<X<X<X<X'.V.Z.U.G.G.5.m @ o o # # x c z z l > O o O v ..k.V.x.x.c.'.'.'.<X'.J.H.B.B.7.4. .] Q p ",
"a &.:.u.x.x.x.H.<X<X'.'.<X<X<X<XJ.B.7.G.U.G.2.n @ O # l c z b b b b c x O O n } a.c.b.x.B.H.C.C.J.H.C.C.N.M.M.7.} ` d d ",
"h  . .u.k.x.l.H.'.'.'.'.'.J.H.C.B.M.7.G.I.P.*.n @ @ x v b b K K K b b v # O u *.a.c.c.k.s.B.C.C.C.C.C.B.B.M.7...` ` r p ",
"!  .:.4.h.x.p.s.C.C.H.'.J.H.C.N.7.3.j.G.P.Z.>.u & @ 3 b b K K K K R K b 3 ; y { k.c.c.k...M.N.B.N.M.M.3.M.7.3...M ` p r ",
"` {  .<.a.x.s.4...4.7.7.M.M.7.3.4.s.S.I.P.m.>.j f S U =.9.9.z.q.q.q.q.=.U f ^ -.k.c.c.c.a. .} } ......B ......M ` ` d p ",
"` { :. .u.x.x.x.a.u.1.4.} 2.4.p.z.G.G.P.P.F.i.g.>XeX4XeXeXeXeXhXeXfXeXeX,X4X>X_.x.c.c.c.A. . .} { } ` ` ` ` ` ` ` ` d p ",
"! ` :.:.<.h.c.c.c.c.x.k.c.m.S.D.P.I.P.P.P.S.v.4XvXnXnXnXnXvXnXnXnXnXnXnXnXnXnXeXm.l.c.c.x.a.a.k.a.1.<. .:.:.:. .{ j d p ",
"h ` :.:.,.u.x.c.c.c.c.c.V.G.I.G.P.G.P.I.I.m.m.pXvXvXvXvXhXhXvXvXvXvXnXnXnXvXvXhX_.x.c.c.c.c.c.c.x.x.u.,.<.<.,. .` h d p ",
"h `  .,.<.<.i.x.c.c.c.c.b.S.F.F.n.z.I.I.P.n.{.fXvXhXhXvXvXgXhXhXhXhXvXvXvXvXvXxX`.c.c.c.c.c.x.x.a.p.<.,.:.,.:. .! h d p ",
"h j { :. .,.,.i.x.c.c.c.c.c.c.b.k.k.S.S.n.n.;XdXgXdXgXhXhXhXhXhXhXvXhXvXgXgXgXpX_.n.c.c.c.x.x.a.<.<.,.,.,.:. .] h d d r ",
"g j `  .,.,.,.<.a.x.c.c.c.c.c.c.n.n.n.x.x.n.{.fXsX-XdXdXsXhXhXhXhXgXsXgXiXuXsXyX_.x.x.x.x.x.x.p.<.,.,.,.<. .{ j g d p w ",
"g j ! [ ,.,.,.,.u.x.c.x.c.c.c.c.n.x.x.x.x.m.{.gXsXdXgX-X=XsXgXgXdX-X=XuXgXsXiXfX{.x.x.x.c.x.p.<.,.,.,.,.,.{ ` h h d q 6 ",
"p Q ! `  .,.,.,.,.1.a.x.c.c.c.c.x.n.n.n.x.n.oXfXgXgXgX-X=X=X-X-X=X=X=XuXgXgXgXpX{.b.x.x.k.t.<.,.,.,.1.u.,.` h h d d w 6 ",
"r g h ` ' <.1.4.,.,.<.u.a.x.c.c.x.x.x.v.n.b.4XgXgXgXgX-X=X=X=X-X=X=X=XsXgXgXgXyX{.v.x.x.4.,.,.-.:.u.a.4.,.{ ` g d r w 0 ",
"e r h j ` ,.1.4.<.:.,.>.,.1.a.k.c.c.c.c.c.b.oXdXdXdXfX-X=X*X-X-X-X*X=XuXgXgXiX-X[.b.b.u. .<. . .u.u.>. .{ { j d p r 8 6 ",
"W r d j !  .-.:.:.:.:.:.,.:.,.<.u.a.a.h.h.h.[.%XsXfXiX=X*X*XuXuX-X*X=XuXfXiX=X*X[.t.e.e. . .`  .,. .{ { ` ! d r w y 6 6 ",
"E e r h h ` {  . . .{ :.,.,.:.,.,.:.,.,.e.t.).}.$X-XyX-X*X*XuXyX-X*X=XuXiX%X+X$X).w. . .[ ` ` [ { { [ ` ! d r r q 0 6 7 ",
"~ 9 q r d d j ]  . .` {  . .:. . .:. .:.;.r.Q.(.].+X-XtX*X$XyXfXuX$X-XsX-X*X$XOX).w. . .[ ` ! ] ] ` ` j p r r q 0 6 7 7 ",
"o.t 8 w r d d h ! ` j h ` { { {  .{  . .;.r.~.(.].|.%XiX%X-XyXyXyX-XuXiX=X+X+XOX).w.| ] ` g g ` ^ j d r q q 0 6 6 6 6 5 ",
"y.W 8 8 q r r d d d d d d j j ` ` ` ` ] [ r.~.Q.].|.%XiXrXtXfXyXiXiXfXiX$X+X XOX.Xo./ Q d r r r r q 2 Z Z 2 1 1 - = 5 7 ",
"d.o.9 0 0 0 w r r r r i J 4 4 u d h h ! / r.^.Q.%.}.@XyXyXyXyXyXyXfXfXtX+X X+X%XXXo.W p r r 0 , 2 k k Z H V V $ - 5 7 9 ",
"f.@.E 8 6 6 0 q q 2 1 P L D Z 2 q q r r W @.^.Q.%.}.XX&XyXyXtXyXyXiXiX&X+X X XrXoX_ W p q < < 1 U p.a.k Z F C < 5 5 9 E ",
"f.f.o.9 7 8 6 6 - $ $ C P I H u r 8 0 e W r./.~.E.(.}.#XyXyXyXyXyXyXyX$X X X$XtXoX_ W W - $ $ 1 &.<.u.u.i D H < 5 7 E ( ",
"f.f.d.X.9 8 6 6 - * $ V V J J &.-.w 6 9 a @./.~.Q.%.}.}.&XyXtXtXrXyX-X$X X X$XtX@Xo.W e p j M { ,.,.,.,.{ 4 Z - 7 9 ~ +.",
"f.f.g.f.X.9 9 6 5 w A C 1 &.:.,.,. .q 8 W y./.!.E.%.(.}.XX#XtX&XOX$X$X XOX X%XtX5X+.E W u.h.<. .-.:.<.,.-.f y a 7 E O.$.",
"f.f.f.d.+.X.< < - { -.i M >.,.:. . ./ e E y././.Q.$.Q.].|. X+X X X X+X$X$X+X-XtX5X_ E | e.<.| ] / :.i.t.,./ s w 6 O.#.#.",
"f.g.f.@.+.S $ $ $ U { -.{  .-.-.| / ] W E d././.~.$.~.].}.|.|.|.|. XOX$XOXOXtXtX5XO.( t. .] ` d ] e.1.<.-./ s q 5 ~ $.+.",
"@.@.@.@.+.O.S V V 1 ^ [ / / ;.:. .] Q Q ( R././.^.R.~.^.%.%.|.|.|. X*X&X$XOXtXtX5X+.|  .| ` Q Q  .,.:.:.-.^ g 6 = a @.$.",
"@.+.+.@.+.+.A V 2 y / / / [ | [ ] / W W _ d././.!.Q.^./.%.%.(.}.|.|.&XtX&X%XtXtX@Xy.| | | Q Q Q [ ] ] / ] Q g 6 = 7 @.#.",
"+.+.+.@.@.+.X.t h h / / / / / / Q Q e W _ R.!./.^.^./.^.Q.%.%.W.(.|.#XrXrXrXyXtX@XW.| _ | Q r Q / / / / ! Q g 6 = 6 O.#.",
"+.+.@.$.@.@.r./ Q ^ / / / ^ / / Q Q e E ( R.W././.!.!.!./.E.%.%.(.[.{.&XtXtXyXrX@X@.o.| / W r Q / / / ] ^ Q s 6 = 5 O.$.",
"+.+.@.f.y.w.;.^ h ^ / / ^ / / ^ Q W 8 8 ( #.R.W././.!.!././.W.E.).).[..X#XyXtXOXOX#.r._ ] W q Q / / / / ^ Q s 0 = = X.d.",
"@.X.@.8.t.1.,.&.h Q / / ` ^ / Q Q e 5 7 ( R.R.R././.!./.).).).).].[.[.[.oXwX-XXXOXR.o._ ) W 0 W / / / / / g g 6 = - J 8.",
"P I X.=.=.:.:.X.s f k k J S k k Q e 5 8 _ W.W.R././././.).).}.}.XXXX[.).[.oXrX+XOXR.#.w.] Q 0 r / / / / ^ Q p 6 = 1 I T "
};
