/* XPM */
static char *_28b6e66bbf94494880cb8c2dcebb565w5b8nKeyBD98jXyH[] = {
/* columns rows colors chars-per-pixel */
"50 50 225 2 ",
"   c None",
".  c #7C0000",
"X  c #7A0807",
"o  c #7D170D",
"O  c #791C13",
"+  c #5E3315",
"@  c #5E3A1C",
"#  c #5D371B",
"$  c #5C2A10",
"%  c #7C220E",
"&  c #772714",
"*  c #673618",
"=  c #733215",
"-  c #6A2B15",
";  c #743C25",
":  c #52431D",
">  c #74590D",
",  c #73691F",
"<  c #584A26",
"1  c #66482A",
"2  c #63522C",
"3  c #6D4C37",
"4  c #695735",
"5  c #73593B",
"6  c #705538",
"7  c #784532",
"8  c #77643D",
"9  c #766B48",
"0  c #79664E",
"q  c #830000",
"w  c #8B0101",
"e  c #8D0E09",
"r  c #940000",
"t  c #9C0101",
"y  c #970D08",
"u  c #86160A",
"i  c #961409",
"p  c #881913",
"a  c #9C1C1D",
"s  c #A50000",
"d  c #AB0101",
"f  c #AA0B09",
"g  c #B30101",
"h  c #BC0000",
"j  c #BA0A0B",
"k  c #A71616",
"l  c #B71919",
"z  c #A6120B",
"x  c #8A2418",
"c  c #98231C",
"v  c #9E2A09",
"b  c #A5330E",
"n  c #882828",
"m  c #982524",
"M  c #8E3530",
"N  c #A82825",
"B  c #BB2727",
"V  c #A73535",
"C  c #B83535",
"Z  c #C30101",
"A  c #CC0000",
"S  c #C20B0B",
"D  c #D50000",
"F  c #DC0101",
"G  c #DC0A0B",
"H  c #C71515",
"J  c #DD1718",
"K  c #DC1A1A",
"L  c #DA1717",
"P  c #E20000",
"I  c #E21D1D",
"U  c #DC3B31",
"Y  c #DA3431",
"T  c #CB302F",
"R  c #B64505",
"E  c #BC4D18",
"W  c #93760D",
"Q  c #8C4938",
"!  c #95513E",
"~  c #914737",
"^  c #E0413C",
"/  c #C35732",
"(  c #AF3F40",
")  c #8C4544",
"_  c #995354",
"`  c #934D45",
"'  c #A84848",
"]  c #B64849",
"[  c #A75A5A",
"{  c #B85959",
"}  c #937D56",
"|  c #887351",
" . c #987371",
".. c #AA6668",
"X. c #B76768",
"o. c #A87676",
"O. c #B67475",
"+. c #C25E5D",
"@. c #CF5657",
"#. c #C75548",
"$. c #D37172",
"%. c #DE7C7D",
"&. c #CA6C6D",
"*. c #E17F7F",
"=. c #CB6251",
"-. c #A1841D",
";. c #918627",
":. c #A98F39",
">. c #9C885C",
",. c #AA9A4C",
"<. c #968D6B",
"1. c #A78D62",
"2. c #B1976E",
"3. c #B3A575",
"4. c #ADA65D",
"5. c #C7A87F",
"6. c #C07E80",
"7. c #948582",
"8. c #A88A8C",
"9. c #B88485",
"0. c #A98E90",
"q. c #AC9A9C",
"w. c #A99597",
"e. c #B89799",
"r. c #AC938C",
"t. c #A8A498",
"y. c #BBB18E",
"u. c #B69FA1",
"i. c #AE9EA0",
"p. c #AAAAAD",
"a. c #A6A6A9",
"s. c #BAA8A8",
"d. c #BBB3AB",
"f. c #AEAEB0",
"g. c #AFB0B3",
"h. c #B3B3B5",
"j. c #B7B7B9",
"k. c #BBBBBD",
"l. c #BCB6B5",
"z. c #C58686",
"x. c #D88C8C",
"c. c #C69899",
"v. c #D39696",
"b. c #E18C8D",
"n. c #D4A289",
"m. c #CFA999",
"M. c #DAB69F",
"N. c #CAB490",
"B. c #E2BD95",
"V. c #C7A9AB",
"C. c #D6A8A9",
"Z. c #C9B9A7",
"A. c #D6BCA5",
"S. c #C9B8B6",
"D. c #D3B9B8",
"F. c #C0AEB0",
"G. c #EDA1A1",
"H. c #F4A4A5",
"J. c #DAC397",
"K. c #EACA9A",
"L. c #D8C1A5",
"P. c #CCC1BC",
"I. c #C8C7BD",
"U. c #D9C8B8",
"Y. c #C5C1A4",
"T. c #E3CAAA",
"R. c #FBDEAD",
"E. c #F4D9AD",
"W. c #EFD8B4",
"Q. c #E4D5BC",
"!. c #E8D6B9",
"~. c #EAD6B7",
"^. c #F4DBB2",
"/. c #F9DFB2",
"(. c #E1CFB6",
"). c #FEE0AD",
"_. c #FCE1B3",
"`. c #BEBEC1",
"'. c #C4BFC1",
"]. c #BEC1C3",
"[. c #C4C3C5",
"{. c #CBC3C3",
"}. c #C7C7C9",
"|. c #CBCBCC",
" X c #C8C8C8",
".X c #DACCCD",
"XX c #D7C8C5",
"oX c #DBD3C6",
"OX c #D5D2CE",
"+X c #D8D3CA",
"@X c #CECED0",
"#X c #D4D3D4",
"$X c #DAD5D3",
"%X c #DBDBDB",
"&X c #D9D8D5",
"*X c #D9CED0",
"=X c #E2CBCB",
"-X c #E6D9C4",
";X c #E2DDDC",
":X c #E2DBD1",
">X c #DEE0DF",
",X c #E6E1D9",
"<X c #F8ECD5",
"1X c #EEE0CA",
"2X c #DFDFE0",
"3X c #E5DFE0",
"4X c #DFE0E1",
"5X c #E3E3E3",
"6X c #E6E7E8",
"7X c #E7E8E9",
"8X c #ECECEC",
"9X c #EBE6E5",
"0X c #F4EBEB",
"qX c #F3E7E8",
"wX c #F2F1EE",
"eX c #EFEFF0",
"rX c #EEF1F1",
"tX c #F2F2F2",
"yX c #F0F4F4",
"uX c #F4F3F3",
"iX c #F8F8F8",
"pX c #FAFBFB",
"aX c gray99",
"sX c #FBFBFB",
"dX c #F9F9F5",
/* pixels */
"                                    . . . q . q q . q q . . . .                                     ",
"                                  q w t s d d s d s d d s t r q .                                   ",
"                            q q q r d h D D D D D D D D D Z d t q q q .                             ",
"                        . w r t t g Z D P P P P P P P P P F A g s t r w q                           ",
"                      q w r s d h A D P P P P P P P P P P P F D Z g s t w q                         ",
"                    q w t s g Z D F F P P P P P P P P P P P P F D A g d s r q                       ",
"                  q r t s g Z D F P P P P P P P P P P P F P P P P D A h d t r w .                   ",
"              q q r t d h A D F P P P P P P P P P P P P P P P P P P D A h g s r w q                 ",
"            . q r s d h A D D G L J L L J J J J J J J J J J J J J P F D A Z g s t w .               ",
"            . q t g Z Z Z j S T @.$.$.$.$.$.$.$.$.$.$.$.$.$.$.$.&.T H S Z Z Z g s w .               ",
"            q r s g Z S B C ( &.C..X*X.X.X.X*X*X.X.X.X.X*X.X*X*XD.6.] C C H S h s r w .             ",
"        . q r t s d j ] &.c.V.'.3XeXyXyXyXyXyXuXyXyXyXyXyXyXyXyX8X.XV.c.z.] B g d s t w .           ",
"        . q t s f l ] z.XX5X6X8XuXpXpXaXpXpXpXpXaXaXpXpXpXaXaXaXiXeX6X6X*Xc.X.B f d t w .           ",
"        . q r f N { c.*X8XpXpXiXiXiXiXiXiXiXpXiXiXiXiXiXiXiXiXiXiXiXsXiXuX;XV.X.C z s w .           ",
"        . q y C X.V..X9XiXpXpXiXrX9X8X8X7X8X8X8X8X8X7X8X8X8X8X8X8XuXsXsXsXeX%XS.6.] k q .           ",
"        . p M X.V.%X8XeXtXuXtX8X2X%X%X%X%X&X%X%X%X%X%X%X&X&X%X%X2X6XeXuXuXuXeX2XS.9.' p X           ",
"        n ) o.l.#X7XyXrX7X5X4X%X|.[.}.[.|.{.{.{.D.P.{.{. X[.[.[. X#X2X5X9XrXyX8X%XS.8._ n           ",
"         .8.l.#X5X9X8X6X%X#X#X}.`.h.j.`.'.S.m.n.n.n.n.A.{.'.k.j.k.[.@X#X&X4X8X8X5X2X'.w.o.          ",
"      p.f.'.#X6X6X6X%X#X[.[.|.@X@X}.|.#X#XU.M.n.n.n.m.D.#X#X@X}.|.@X@X X[.@X%X4X6X6X2X[.h.p.        ",
"    a.f.`.|.%X5X,X%X@X[.`.[.&X6X8XrX8X8X8X;XU.A.B.M.U.:X9XrX8XrX8X8X2X|.`.`.}.&X2X5X2X@X].j.p.      ",
"    f.g.`.|.#X#X#X|.`.`. X&X8XiXpXiXyX8X5X:X!.W.E.E.Q.-X;X9XwXdXiXiXeX2X|.`.k.}.@X#X#X@X`.j.f.      ",
"    p.g.`.}.}.}.].`.`.}.%X8XrXyX8X6X,X$XoXQ.^.R.E.R./.~.oX$X%X5X8XyXuX8X5X@X].`.'. X|.}.'.h.f.      ",
"    p.g.k.[.}.`.j.`.|.#X>X4X6X>X%XOX+XoXW.^.R.).R.R.R./.W.Q.+X#X#X;X6X6X2X%X@X`.j.`.`.}.`.j.f.      ",
"      f.j.j.j.j.j.`.}.[. X|.@X$XoXQ.Q.W.R.R.).R.R.R.).)./.^.~.Q.-XoXOX@X[.[.[.`.`.j.j.j.j.g.        ",
"        p.p.f.h.[.}.k.h.d.S.U.Q.^.R.).^.^.W.W.W.E.^.W.W.W.^.R.R.^.!.U.P.F.d.k.[.[.k.f.p.p.          ",
"            p.k.@X#X XS.A.L.T.E.^._.^.!.oX+XoXoXoXoXoXoXoX~.^.R.^.^.W.L.A.Y.[.#X#X].f.a.            ",
"            p.k.#X4X%X.XU.U.(.Q.Q.!.1X1X;X,X5X5X2X5X2X2X,X,X1X-X!.Q.(.U.U.XX$X4X%X[.g.              ",
"            8.i.{.%X5X%X#X+X+X$X&X,X6X0XtXiXyXtXyXeXuXiXiXwX8X,X$X#X$X*X$X%X5X,X|.s.0.              ",
"            M _ w.[.%X3X2X5X6X8X8XrXyXpXiXiXwXrX8XrXeXuXiXiXiXeXeX8X7X5X2X3X%X}.s...)               ",
"          . e m ] z.S.#X4X9XyXiXpXaXaXiXiXyXeX0XyX0XyXyXuXiXaXaXpXiXyX8X6X%X'.c.{ m e q             ",
"        q w t g H T &.s.@X5X8XeXiXaXpXiXyX0XiXsXiXsXiXyX0XiXiXaXiXyX8X5X&XS.9.@.K j s r q           ",
"      . r s h D F H C X.e. X%X6X8XuXiXiXiXiXsXaXaXaXaXiXiXiXiXiXeX8X2X#Xs.O.( H G D Z d t q .       ",
"    . q r g A G F A f N [ e.'.*X9X8XyXdXpXpXaXaXaXaXaXaXaXiXdXrX7X%X|.e...V k Z F P D h t w .       ",
"    n m N H K I L H t e a ' 9.F.#X5X7XwXdXpXpXaXaXaXaXaXiXyX7X5X%X[.e.{ N y w k J I I K N a n       ",
"  u.e.c.x.x.*.b.$.{ a q r k ( O.s. X#X>X8XrXyXiXiXiXyXyX8X5X%X|.l.9.' N s w p ' &.6.6.b.x.v.c.e.    ",
"p.k.#XqX0XqX9X,XXXr.Q O e y f V ..r.k.@X%X5X9X8XyX8X8X9X4X#X].e.o.] k y e o ;  .D.;XqXqXqX0X;X[.f.  ",
"p.k.$X8XdXdXdXyX%Xp.0 @ + % e z N [ 8.g.I.oX>X7X8X9X,X&X Xl.w...V z y u - + 5 w.$XtXdXdXiXwX>X[.f.  ",
"  t.t.d.(.<X<X<XoXt.9 < : # & u i m ` >.4.Y.I.,X5X5X+XY.3.<.| ~ y y % * : : 4 7.I.,X<X<X-XZ.t.t.    ",
"    4 | N.).).T.t. .3 # * + # & i u 1 2 ;.,.y.I.#XI.Y.4.;., > x i % * @ + + 1 0 r.Y.R.).J.>.8       ",
"    < 9 3.K.K.3.} 4 - O p & * & e u = > W W :.5.Z.y.,.-.-.> : u i o * = x % & ; | 3.J.K.N.>.<       ",
"      8 >.2.1.} 8 3 7 [ [ ' n i f f i v R R R / =.#.E R R b v z g i x ( { [ ) 3 4 | 1.2.1.|         ",
"        4 4 4 2     w.s.D.v.+.C Y Y U U U U U ^ ^ ^ U U U U Y Y Y T ] z.V.F.q.7.  1 4 4 2           ",
"                    g.].#XoXC.G.G.H.H.H.H.H.H.H.H.H.H.H.G.H.H.H.H.v.C.'.&X}.h.                      ",
"                      k.}.|.@X&X9XuXuXuXwXwXwXuXdXwXuXuXwXwXuXuXwX,X#X@X@X`.h.                      ",
"                        i.q.u.V.U.=X=X=X=X.X.X*XoX.X.X=X=X=X=X=XXXS.s.q.q.q.                        ",
"                        ) ) ' ] { +.+.+.{ { [ [ [ [ [ { +.+.+.+.+.] ' ' )                           ",
"                        X u p c N N N N N x O O O O % x c c N N N c p u o                           ",
"                            + 7 Q ! ` ~ Q ; * $     + ; Q ! ` ` Q Q - $                             ",
"                              2 5 5 5 6 4 2 <         1 4 6 5 5 6 2                                 ",
"                                < < < < @ *           + # # @ @ @ *                                 "
};
