/* XPM */
static char *f0ac3a3885504288aac40464cbd6ee66h4WqIWatBvgE2p7a[] = {
/* columns rows colors chars-per-pixel */
"50 50 231 2 ",
"   c None",
".  c #760301",
"X  c #7C0201",
"o  c #790B08",
"O  c #691C0B",
"+  c #7D1717",
"@  c #5F391F",
"#  c #682811",
"$  c #772E15",
"%  c #693B1B",
"&  c #663719",
"*  c #73321A",
"=  c #64220F",
"-  c #782F24",
";  c #4F441E",
":  c #53411E",
">  c #5C4223",
",  c #584825",
"<  c #614827",
"1  c #67542D",
"2  c #6A4D33",
"3  c #6A5535",
"4  c #755639",
"5  c #764431",
"6  c #70603C",
"7  c #7D5C42",
"8  c #7D745A",
"9  c #830100",
"0  c #8C0101",
"q  c #8E0C0D",
"w  c #940000",
"e  c #9C0000",
"r  c #99140A",
"t  c #871817",
"y  c #971B17",
"u  c #8D1208",
"i  c #A40000",
"p  c #AB0000",
"a  c #AD0B0B",
"s  c #B40000",
"d  c #BC0000",
"f  c #B90A07",
"g  c #AC180A",
"h  c #A81817",
"j  c #B51914",
"k  c #852618",
"l  c #9C241E",
"z  c #A43113",
"x  c #842626",
"c  c #962825",
"v  c #853A27",
"b  c #983A2B",
"n  c #893536",
"m  c #8D3637",
"M  c #AB2A26",
"N  c #A92927",
"B  c #B72624",
"V  c #A53839",
"C  c #B43939",
"Z  c #B02F30",
"A  c #C30000",
"S  c #CB0101",
"D  c #D40000",
"F  c #DC0000",
"G  c #DC0E0E",
"H  c #DB1515",
"J  c #C51A1A",
"K  c #E20000",
"L  c #E00909",
"P  c #E41E1E",
"I  c #E81E1E",
"U  c #DE1F20",
"Y  c #C12727",
"T  c #D43535",
"R  c #D42121",
"E  c #E73838",
"W  c #E02222",
"Q  c #874E3D",
"!  c #994435",
"~  c #88502C",
"^  c #936824",
"/  c #8E4344",
"(  c #955449",
")  c #8F4F50",
"_  c #995556",
"`  c #964546",
"'  c #AB4645",
"]  c #AA5657",
"[  c #BA5A5A",
"{  c #BC4B4B",
"}  c #856642",
"|  c #98764F",
" . c #876858",
".. c #867759",
"X. c #986E50",
"o. c #A47052",
"O. c #965F61",
"+. c #B85E60",
"@. c #93776A",
"#. c #9C7978",
"$. c #966769",
"%. c #A56B6B",
"&. c #BA6566",
"*. c #A76F71",
"=. c #AA7676",
"-. c #BA7576",
";. c #BC6F70",
":. c #D94849",
">. c #D24B4C",
",. c #DA6B6C",
"<. c #CB7979",
"1. c #C67879",
"2. c #D87576",
"3. c #E17B7B",
"4. c #9A855C",
"5. c #A2825A",
"6. c #B1855F",
"7. c #988966",
"8. c #968676",
"9. c #908973",
"0. c #AA926E",
"q. c #A7A47A",
"w. c #CB8D6B",
"e. c #D79C79",
"r. c #C59C74",
"t. c #D4A67C",
"y. c #E1A27C",
"u. c #989185",
"i. c #A78889",
"p. c #BC8485",
"a. c #B58687",
"s. c #AD9884",
"d. c #B38F91",
"f. c #A89896",
"g. c #B59295",
"h. c #B8A599",
"j. c #B9B193",
"k. c #AB9EA0",
"l. c #ABABAE",
"z. c #AEA6A7",
"x. c #B8A8A6",
"c. c #B9B4AD",
"v. c #AEAEB1",
"b. c #B1AEB1",
"n. c #B2B2B5",
"m. c #BAB4B5",
"M. c #B6B6B9",
"N. c #BCBBBD",
"B. c #BCB7B7",
"V. c #C48788",
"C. c #DB8888",
"Z. c #C59A9B",
"A. c #C79797",
"S. c #DB9896",
"D. c #C79D89",
"F. c #ED8888",
"G. c #F18B8B",
"H. c #D9A989",
"J. c #DBB48D",
"K. c #CDAB9A",
"L. c #CFB792",
"P. c #E4BA97",
"I. c #E7B28B",
"U. c #C89FA0",
"Y. c #C7A8A9",
"T. c #D9A7A8",
"R. c #C2B2AC",
"E. c #D4BBA9",
"W. c #CBBABB",
"Q. c #C4BAB7",
"!. c #D9B4B6",
"~. c #CCAFB1",
"^. c #E6A6A6",
"/. c #F4B0B0",
"(. c #DCC899",
"). c #E8C49A",
"_. c #F0C599",
"`. c #CAC5B9",
"'. c #D9C7B5",
"]. c #D8C6B0",
"[. c #E4C7AB",
"{. c #F7D7A9",
"}. c #EBCDB5",
"|. c #EDD8B5",
" X c #E8D6B9",
".X c #F3DAB2",
"XX c #EED2AE",
"oX c #FAE4B3",
"OX c #BEBFC1",
"+X c #C4BFC1",
"@X c #C3C3C4",
"#X c #CCC4C4",
"$X c #C6C6C9",
"%X c #CACACC",
"&X c #C8C9C8",
"*X c #D3CCCC",
"=X c #D6C8C5",
"-X c #DBD2C4",
";X c #DAD4CB",
":X c #CECED0",
">X c #D3D3D5",
",X c #DAD4D4",
"<X c #DBD9D4",
"1X c #D7D7D8",
"2X c #DCDCDD",
"3X c #D9D8D8",
"4X c #D0CFD0",
"5X c #E1D4C3",
"6X c #E7DBC8",
"7X c #F5DEC7",
"8X c #E3DCDC",
"9X c #E9DEDE",
"0X c #E4D7D4",
"qX c #E5C6C6",
"wX c #FCEBCB",
"eX c #E7E2DB",
"rX c #F2E6D8",
"tX c #DFDFE0",
"yX c #DEE1E1",
"uX c #E3E4E4",
"iX c #E7E8E9",
"pX c #ECECEC",
"aX c #EAE6E6",
"sX c #F5ECEC",
"dX c #F2E7E7",
"fX c #F5F2EC",
"gX c #EEF1F1",
"hX c #F4F4F4",
"jX c #FBFBFB",
"kX c #FAF7F5",
"lX c #EFEFF0",
/* pixels */
"                              o X X 9 0 0 0 0 9 9 9 X X 9 X                                         ",
"                          X X 0 w e e p s d s d f s i e w w 9 X X                                   ",
"                      9 9 0 0 i s d A S F F F K F D S d s p w 0 9 9                                 ",
"                    X 0 e i p d D D F K K K K K K K F F D A s i i w 9 X X                           ",
"                  9 0 i d A S D F K K K K K K K K K K K K F S S A p e w 0 9                         ",
"                9 w i A D F K F K K K K K K K K K K K K K K F F F S s p i w 9                       ",
"              9 w i d D K K K K K K K K K K K K K K K K K K K K K F S d p e w 0                     ",
"            9 w i p A D F K K K K K K K K K K K K K K K K K K K K K F D d s i w 0 9                 ",
"          x l N N B B J R G L K K K K K K K K K K K K K F F F K K K K F D A s i w 9                 ",
"          *.=.p.p.p.p.V.C.>.U L L L L K K K K K K K K D S A D K K K K K K D A p e 9 X               ",
"        v.n.@X4X3X3X3X3X=XS.,.:.:.:.T P K K F K K K K F S A S S S D K K K K D d e 0 9               ",
"      l.M.@X>XuXlXhXhXlXpX9XqX!.!.~.C.:.W H G F F K K K F S A s d A D F F F D d p i w 9             ",
"      l.M.$X3XiXhXjXjXjXkXhXhXgXpXiX0X^.C.,.>.J D F K K K F S d p s d A S D F S d p w 9             ",
"      l.M.$X>XuXlXhXjXjXjXjXjXjXjXjXhXaX8X=XV.{ J S D D F K F S s i e i s A D F S p w X             ",
"      l.n.N.@X*X8XpXhXkXjXjXjXjXjXjXjXjXhXiX*XA.[ B f d D F F S s e 0 w i s A S S s w 9 X           ",
"        u.u.s.K.T.'.0XuXiXpXpXhXhXjXjXjXkXhXiX,XU.+.M a d S F F A p e w w e s d A A p e 9           ",
"          4 | w.e.K.E.#X&X%X1XyXaXpXlXkXjXjXhXpX1XY.&.Z a d S F D A i 0 9 w i p d A d p 0 X         ",
"          3 ^ w.y.I.P.E.Q.M.OX$X4X1XtXiXgXkXjXhXpX2X~.;.C a s S D S p 0 9 9 0 e p s s i w X         ",
"          1 | e.I.P.XX X*X&X$X%X:X$X+X:XyXgXkXjXhXlXtXW.-.C h d A d p e 0 X 9 0 e i p i 0 X         ",
"          3 5.J.P.}.rXfXhXiXuXiXtX%XOXOX4XtXpXhXjXhXpXuX=XV.C h p p i i w 0 o t q e i e q t         ",
"          3 5.J.[.qXeXhXjXkXkXhXpXtX%XOXOX:X2XpXpXlXhXlXuX+Xp.' h i i p e 0 + / ` y q y m O.        ",
"          1 5.J.}.5X<XaXgXjXjXjXjXlXtX$XOX+X%X4X3XtXpXlXpX1XQ.a.' h a i e 0 n #.i.O.` _ i.x.M.      ",
"          6 5.J.{.|.5X<XyXpXhXkXjXjXpX>X$XOXOX`.@X%X2XiXiXiXtX+Xd.] h a e 9 n #.b.Q.~.R.+X4X@Xb.    ",
"          8.s.I.{..X X5X,X2XuXiXpXlXpXtX:XOXQ.Q.Q.Q.$X1XtXiXuX1XOXg.] c q 9 n i.$XuXiXiXaXtX%XOX    ",
"        v.c.E.[.XX|.|. X-X=X;X<X2X2X3X>X:X#X'.E.L.x.R.$X1X2XtX1X$Xn.i./ + . / g.$XtXpXgXiX2X%XOX    ",
"      v.@X>X8X0X;X-X-X5X X|.|.5X*X#XN.N.%X2X}.I.H.D.x.M.$X:X4X:X$XOXf.) +     z.M.:X2XtX3X%XOXM.    ",
"      v.@XyXpXpXiXtX1X;X X|.|.|. X].].@X1XaX7X[.J.K.R.M.N.OX$X&X$XOXk.$.        n.M.+X$X@XM.n.      ",
"      n.@X2XpXhXhXhXpXuX,X X|.|.|.|. X9XpXhXrX|.[.#X@Xm.k.k.m.@XOXM.l.            v.v.v.v.v.        ",
"    n.OX&X,XyXgXhXjXkXlXeX<X-X-X-X6XrXfXlXlX9X;X=X+Xm.f.$.O.i.n.n.n.                                ",
"  v.M.%X1XyXiXgXhXhXjXhXlXiXyX2XyXiXgXhXpXuX1X$XY.p.*.) x x ) #.f.                                  ",
"  l.`.1XiXhXhXkXhXhXjXjXjXhXhXhXhXhXhXpXuX>X+XY.&.Z y t o o + x                                     ",
"  l.N.2XgXjXjXjXjXhXjXjXjXjXjXhXhXgXiX2X4X+XZ.+.Y f p w 9 . . .                                     ",
"  l.OX2XhXjXjXjXjXjXjXjXjXhXhXpXuXyX*XY.g.p.[ B S D S p 0 . . .                                     ",
"  l.OX3XpXkXjXjXjXjXjXhXlXpXuX,X#XW.Z.[ V c h S F L F A e . . .                                     ",
"    @X>XuXpXkXjXjXhXgXiXyX3X*XZ.;.+.>.Y p w i S K L F S e o = =                                     ",
"      $X>XiXlXhXpXuX2X=XY.h.d.%.c y r g h c Z T E E E T c * @ @                                     ",
"      M.&X2XaXiX1X&XQ.s.] ( Q 1 % # # * Q =.D.T.^././.^.a. .3 ,                                     ",
"        $X>X>X#Xj.q.7.( c k & ; ; ; ; , 8 c.2XpXkXkXkXaXQ.u.5 =                                     ",
"        @X+Xx.s.5.^ ~ k r r $ % % % & %  .j.;XfXkXkXfX9Xm.$.x o .                                   ",
"          z.=.' z z g g A A g g g g g g b X.j. XwXwX.X].8.Q t 0 9 o                                 ",
"          f.%.' C C H D F F F F F F K D g v 4.(.oX{._.r.Q * u y c /                                 ",
"            i.d.g.<.:.I P P I I I I I P B ~ 4.L.).(.t.6.} 5 c V %.                                  ",
"                c.x.V.2.3.F.F.G.G.G.G.G.S.K.q.0.5.4.| ..7.8.%.*.                                    ",
"                  b.R.+X=X0XaXdXsXsXsXsXfXaXB.8.8 4.8 9.f.l.z.                                      ",
"                    M.OX%X:X4X,X8X9X9X9XeX0X=Xc.j.z.f.f.l.v.                                        ",
"                        m.g.=.;.1.<.<.<.<.<.<.1.-.=.*.=.i.                                          ",
"                            t y l M M Z M M M N c k $ x                                             ",
"                              = $ v ! ! ! b n - * = O                                               ",
"                                , 4 7 7 4 4 2 2 , >                                                 ",
"                                  < < < < < > > >                                                   "
};
