/* XPM */
static char *_9edafca7ca84f1fa1200c61aa84aacfqF4xuwqzkr5EZLRk[] = {
/* columns rows colors chars-per-pixel */
"50 50 224 2 ",
"   c None",
".  c #760101",
"X  c #7B0101",
"o  c #7B0B0B",
"O  c #710D06",
"+  c #671B0B",
"@  c #76150E",
"#  c #5E3C1B",
"$  c #553D1C",
"%  c #6F2916",
"&  c #792816",
"*  c #683116",
"=  c #6B3F2C",
"-  c #4E431C",
";  c #51441E",
":  c #594828",
">  c #5D5332",
",  c #634A2A",
"<  c #724E35",
"1  c #6B5733",
"2  c #765639",
"3  c #694D2F",
"4  c #795B4B",
"5  c #7B6E4D",
"6  c #830100",
"7  c #8B0101",
"8  c #8C0B0C",
"9  c #950100",
"0  c #9C0000",
"q  c #920D0B",
"w  c #9B1B0C",
"e  c #851616",
"r  c #971918",
"t  c #8A120F",
"y  c #A40001",
"u  c #AB0000",
"i  c #AE0C0C",
"p  c #B30000",
"a  c #BB0101",
"s  c #B40B09",
"d  c #A51A0A",
"f  c #B5130B",
"g  c #A81A19",
"h  c #B71313",
"j  c #87281B",
"k  c #9A221C",
"l  c #98331F",
"z  c #963211",
"x  c #A13212",
"c  c #892B2A",
"v  c #992725",
"b  c #893527",
"n  c #993429",
"m  c #8B3536",
"M  c #983333",
"N  c #8D2F30",
"B  c #A92827",
"V  c #B82928",
"C  c #A13A2E",
"Z  c #A93837",
"A  c #B23434",
"S  c #BB3D3D",
"D  c #C40000",
"F  c #CC0000",
"G  c #C70C0C",
"H  c #D40100",
"J  c #DC0000",
"K  c #DE0D0D",
"L  c #C61514",
"P  c #DB1A1B",
"I  c #E10000",
"U  c #E20C0C",
"Y  c #E31111",
"T  c #E61010",
"R  c #DC1F20",
"E  c #DE292A",
"W  c #C23535",
"Q  c #D43334",
"!  c #C22929",
"~  c #E52E2E",
"^  c #E03738",
"/  c #815034",
"(  c #93742E",
")  c #8F3F40",
"_  c #8C4748",
"`  c #865B42",
"'  c #995A58",
"]  c #974B4B",
"[  c #B84647",
"{  c #B85657",
"}  c #A74F4D",
"|  c #9B684C",
" . c #8A6257",
".. c #906E53",
"X. c #A27954",
"o. c #945F60",
"O. c #A95F61",
"+. c #9D6A6B",
"@. c #877667",
"#. c #9C7678",
"$. c #96776F",
"%. c #B9696A",
"&. c #A97776",
"*. c #B67979",
"=. c #A5696B",
"-. c #D65757",
";. c #DA6566",
":. c #C57677",
">. c #DF7B79",
",. c #CB6A6C",
"<. c #E76868",
"1. c #EE7070",
"2. c #A78857",
"3. c #938976",
"4. c #AB8B62",
"5. c #AF986C",
"6. c #B09175",
"7. c #B7A577",
"8. c #D29371",
"9. c #D5A178",
"0. c #E3A57E",
"q. c #AD7F81",
"w. c #9E8285",
"e. c #9E9788",
"r. c #A78485",
"t. c #B68788",
"y. c #A59A88",
"u. c #B19986",
"i. c #A78F91",
"p. c #A99A99",
"a. c #BC9597",
"s. c #B48F90",
"d. c #BFA883",
"f. c #ABA695",
"g. c #A69DA0",
"h. c #ACACAE",
"j. c #ADA5A5",
"k. c #B4A4A5",
"l. c #BCABAA",
"z. c #B4ACAD",
"x. c #AEAEB1",
"c. c #B6ADB0",
"v. c #B3B2B4",
"b. c #B5B6B9",
"n. c #BCBBBD",
"m. c #BBB5B6",
"M. c #B5B3B1",
"N. c #C3898A",
"B. c #C49A9B",
"V. c #CC9293",
"C. c #D29494",
"Z. c #CF918B",
"A. c #E89C9C",
"S. c #F09E9E",
"D. c #DBAA88",
"F. c #C7A796",
"G. c #D5B496",
"H. c #E6B68D",
"J. c #E6BB97",
"K. c #C19EA0",
"L. c #C9ABAA",
"P. c #D6BAA8",
"I. c #C2BCBB",
"U. c #C8B7B5",
"Y. c #D5BCBD",
"T. c #D0B0A7",
"R. c #EDB1A4",
"E. c #EBC79A",
"W. c #CCC4BB",
"Q. c #D8C8B5",
"!. c #D7C7B2",
"~. c #F5D7A9",
"^. c #E9CDB2",
"/. c #ECD8B6",
"(. c #E5D5BB",
"). c #ECD7B7",
"_. c #F2D8B3",
"`. c #E7CAAC",
"'. c #FEE5B6",
"]. c #BEBEC0",
"[. c #CDBFC1",
"{. c #E7BFC0",
"}. c #BEC0C2",
"|. c #C3C3C5",
" X c #CBC5C4",
".X c #C6C7C9",
"XX c #CBCBCC",
"oX c #C9CAC8",
"OX c #D6CBC9",
"+X c #DCD2C4",
"@X c #DCD4CB",
"#X c #D6D0C9",
"$X c #CFCFD1",
"%X c #D3D3D4",
"&X c #DBD5D3",
"*X c #D6D7D8",
"=X c #DBDBDC",
"-X c #DBD8D6",
";X c #E4D7C6",
":X c #F1DCC4",
">X c #E6D9D5",
",X c #F6DBDB",
"<X c #E4C9CA",
"1X c #FAE9CF",
"2X c #EBE4DA",
"3X c #F6E8D7",
"4X c #DFDFE0",
"5X c #E0DFE0",
"6X c #DEE0E1",
"7X c #E4E4E4",
"8X c #E9E4E3",
"9X c #E6E8E8",
"0X c #ECECEC",
"qX c #E9E7E7",
"wX c #F5EDEA",
"eX c #F5F1EE",
"rX c #EEEFF0",
"tX c #EEF0F0",
"yX c #F6F6F6",
"uX c #F3F3F3",
"iX c #F7F8F9",
"pX c #FAFAFA",
"aX c #FBFBFB",
"sX c #FBF7F3",
/* pixels */
"                                    6 6 6 7 9 0 9 9 0 9 9 7 6 6 6 6                                 ",
"                              X X 6 9 0 y u p D D D F D D p y y 0 7 6 X X                           ",
"                          X 6 7 7 0 u D D F J J I I I I J H F D p y 9 7 7 6                         ",
"                      6 6 6 0 u u a D H J J J I I I I I I J J J H D p u y 7 6                       ",
"                    7 7 0 0 p D H H J J I I I I I I I I I I I I J J F F a u 9 6                     ",
"                X 7 9 y u a F J I J I I I I I I I I I I I I I I I I I I J F u 9 6                   ",
"              6 7 0 y u D H J I I I I I I I I I I I I I I I I I I I I I J H D u 0 7 X               ",
"            6 7 0 y p D H J I I I I I I I I I I I I I I I I I I I I I I J G a p y q 7 6             ",
"          X 6 9 u p D J I I I I I J J J J I I I I I I I I I I I I J U R Q W A A A A M m             ",
"          X 7 0 p D J J I I I J J H F D H I I I I I I I I J K Y K Y ~ ,.V.B.B.B.a.a.s.r.w.          ",
"        6 6 9 0 a H J I I I J F D D D D H I I I I I I J U E -.-.-.;.>.T.&X4X5X5X=X%XoXn.v.          ",
"        6 9 y p D H J J H H D p p D F J I I I I J K P ~ ^ ;.T.Y.{.<X>X8XqXuXiXiXuX9X*XoXn.x.        ",
"      X 6 9 p D H H H D a a p u a D J I I I J H G W ,.Z.A.{.5XrXtXuXiXiXpXaXaXpXyX9X=XXXn.h.        ",
"      X 6 9 p F J H D u y 0 y u D J I J H F F L S :.T.=XqXuXpXaXaXaXaXaXaXaXaXyX0X6X*XXXn.x.        ",
"      X 7 0 a F D a p y 9 7 0 u D J I H D p h S N.[.>XrXpXaXaXaXaXaXpXiXpXiXeX8X>XOX[.b.b.h.        ",
"    X 7 0 p D D a p y 9 9 9 u D H J H a s h { N.[.5XrXiXaXaXaXyXrXtXrX9X7X>X;XY.G.F.u.3.3.          ",
"    6 9 u D D p u 0 9 6 7 y D H J F a s V { V.OX7XrXiXpXiXuXrXqX4X*X%XXX|.W.P.D.9.8.X.2 >           ",
"  . 6 9 y p p u 0 7 6 X 7 y D H F a s B %.K.OX7XuXpXpXyX0X4X%X%X$X|.].b.I.P.R.H.D.8.| , -           ",
"  . 6 9 y u y 0 7 X 6 7 0 y a a p i A %.L.-X0XuXpXiXuXqX*XXX[..X$XXX.XXX#X;X^.J.H.9.X.1 ;           ",
"  & e 8 0 y 0 e e o 6 0 y u u u i A *.Y.=X9XuXiXiXuX7X=XXX].].$X2X9XqX0XuXeX3X^.E.D.2.2 ;           ",
"  #.' m 8 8 v _ _ & 8 0 u u y i Z *.U.=X0XuXuX0X0X7X*X.X].].$X7XuXyXyXaXyXuX7X+X`.D.4.1 -           ",
"  ].k.&.' ] =.q.+.N 8 0 y i g } q.U.*X9XrX0X7X*X%X$X.X].].$X9XuXaXaXaXiXtX7X-X+X`.H.4.1 ;           ",
"]..X$X[.U.U.I.c.#.N 7 0 y g } q.U.4X4X9XqX4X%X.XI.n.|.|.XX4XtXpXpXyXuXrX7X&X+X).~.H.4.2 >           ",
"].%X5X9X9X0X6X.Xr.m X 8 v } t.].$X5X9X5X4XXX[.m.P.W.I.|.%X7XtXrXtX9X6X*X&X(./.~.~.J.d.3.@.          ",
"[.$X4X0XtX9X4X|.s.) o o ) q.v.}.%X4X6X*XXXn.z.F.G.!.W..X%X%X*X=X6X&X+X+X(.(././.^.`.!.M.v.          ",
"b.].$X4X4X*X.Xn.j.  o @ _ i.]..X$X$X$XXXn.l.a.9.D.E.;X*X|.n.I..X#X(././.(.+X+X#X;X;X>X&X|.v.        ",
"x.b.].|..X].n.x.        o.p.].}..X.X|.].n.m.L.G.H.^.8X7XXXW.!.Q.(._.~./.(.@X*X6X9X0X0X7X.Xv.        ",
"    x.x.x.x.x.            h.x.].|.n.j.p.c.I.[.Q.^.:XwXuXqX>X)./._././.;X%X6X0XuXyXuXtX6X.Xb.h.      ",
"                            v.b.v.p.+.o.q.x.].XX+X>XqXtXeXwX3X;X@X+X+X-X8X0XyXpXiXuX7X*XXX].v.x.    ",
"                              g.w.+.m & _ +.q.a.I.$X=X9XtXuX0X7X>X*X6X9X0XpXpXyXuX0X9X=X-XXXn.x.    ",
"                                m e o . o v B { s.U.XX-X7XtXuXuXuXuXyXpXpXaXiXuXuXyXiXuX0X=X|.x.    ",
"                                . . . X 7 y p h [ 8.U.XX*X7XtXtXuXpXaXaXaXaXiXyXyXaXaXpXuX6X.Xv.    ",
"                                . . . 6 0 a H G L S *.s.a.Y.*X7X9XtXuXiXpXpXaXaXaXaXaXaXuX6X|.x.    ",
"                                . . . 7 p H I I H h B M [ :.U. XOX=XqX0XtXyXaXaXaXaXaXpXuX2X.Xx.    ",
"                                + + O 6 a H I I J a 9 9 h W { %.N.L.&X=X6X0XtXuXpXpXpXuX9X*X.X      ",
"                                $ # % v ! ~ ~ ~ E V B r f f x k Z &.k.L.W.#X6X9X0XyXuXqX*XXX|.      ",
"                                : : 4 &.C.S.S.S.A.C.*.' b & & % * 2  .| O.a.}.$X-X9X0X7XXXn.        ",
"                                + = @.z.>XwXsXsXwX5XXXe.1 ; ; ; ; : * j n ' 3.7.T.oX*X*XXXb.        ",
"                              . . &  .j.-XeXsXsXsX0X#Xy.2 ; # ; ; # & w w b / ( 2.y.m.[..X          ",
"                              X 7 8 / 3.F.:X1X1X1XQ.y.| n d d d d w d s a d d x x } &.k.b.          ",
"                              c r q % 2 5.J.~.'._.d...j f J J J J J J J J K L V C [ O.i.            ",
"                              =.Z k & 2 X.9.E.~.E.7.` b L Y Y Y Y T U U U T Q ,.t.6.r.              ",
"                              i.=.O.o.@.X.X.2.5.5.7.6.8.8.1.1.1.1.1.1.<.<.-.:.K.v.x.                ",
"                                  p.j.f.3.5 5 5 @.e.W.,X,X,X,X,X3X,X,X<XY.U.l.c.x.                  ",
"                                    v.x.g.y.f.f.f.W.&XqXtX0X0XwX9X5X=X*X$X}.b.                      ",
"                                      p.r.r.t.t.F.Z.C.C.C.C.C.C.V.t.s.l.n.b.                        ",
"                                        m m c M Z A A A A A A A C v N                               ",
"                                          O + % j b l n C n n c e @                                 ",
"                                            $ : 3 < 2 2 ` ` ` < #                                   ",
"                                              : : , 3 3 3 < 3 ,                                     "
};
