/* XPM */
static char *_a8be1bd36dd48eec4c114f1d41fd05e7OXNefZl6RxIDIqf[] = {
/* columns rows colors chars-per-pixel */
"50 50 215 2 ",
"   c None",
".  c #770000",
"X  c #7D0100",
"o  c #790C04",
"O  c #790E08",
"+  c #7D1110",
"@  c #7A1B13",
"#  c #7B1408",
"$  c #5D2E13",
"%  c #5C3D1B",
"&  c #5E3315",
"*  c #692F14",
"=  c #7A2411",
"-  c #752A15",
";  c #633719",
":  c #6A3419",
">  c #673618",
",  c #793F28",
"<  c #6B3F2D",
"1  c #53421D",
"2  c #59411D",
"3  c #564924",
"4  c #584925",
"5  c #66482D",
"6  c #65532D",
"7  c #724836",
"8  c #6D5435",
"9  c #695A32",
"0  c #675838",
"q  c #71593A",
"w  c #74452C",
"e  c #786953",
"r  c #830000",
"t  c #8D0000",
"y  c #820D0D",
"u  c #880D0D",
"i  c #930000",
"p  c #9C0000",
"a  c #930D0D",
"s  c #990B0B",
"d  c #8B150A",
"f  c #921207",
"g  c #941409",
"h  c #9C1709",
"j  c #891813",
"k  c #921314",
"l  c #A40000",
"z  c #AA0000",
"x  c #AC0B04",
"c  c #AC0B0B",
"v  c #A30E06",
"b  c #B30000",
"n  c #BB0000",
"m  c #B30A04",
"M  c #BB0A0A",
"N  c #B10808",
"B  c #A51709",
"V  c #A91819",
"C  c #BB1B1B",
"Z  c #A60F10",
"A  c #8E240E",
"S  c #82220F",
"D  c #99210F",
"F  c #91220E",
"G  c #872417",
"H  c #94231A",
"J  c #872A29",
"K  c #972D2A",
"L  c #9F3334",
"P  c #992F30",
"I  c #A52923",
"U  c #A82C26",
"Y  c #A92927",
"T  c #B42A2B",
"R  c #B42525",
"E  c #A73537",
"W  c #B13536",
"Q  c #B63D3C",
"!  c #BF322F",
"~  c #C30000",
"^  c #CC0100",
"/  c #C4090A",
"(  c #C90909",
")  c #D40100",
"_  c #DB0000",
"`  c #C81616",
"'  c #DB1415",
"]  c #E20000",
"[  c #D32D2C",
"{  c #DB322F",
"}  c #D63530",
"|  c #D93330",
" . c #C33636",
".. c #8A4935",
"X. c #934E3C",
"o. c #95523F",
"O. c #A1493F",
"+. c #AA3F40",
"@. c #8D4646",
"#. c #965240",
"$. c #955759",
"%. c #964344",
"&. c #AD4344",
"*. c #AD4748",
"=. c #A64949",
"-. c #B14445",
";. c #B34C4D",
":. c #BA4A49",
">. c #A45C5D",
",. c #AD5D5D",
"<. c #AA5556",
"1. c #B55C5C",
"2. c #BB5C5C",
"3. c #B75656",
"4. c #887B58",
"5. c #89734E",
"6. c #9A5F61",
"7. c #A05F60",
"8. c #9C6769",
"9. c #9D776A",
"0. c #AC6A6B",
"q. c #AB6465",
"w. c #BA6869",
"e. c #AD7A7B",
"r. c #B67576",
"t. c #C15E5D",
"y. c #D54848",
"u. c #E84949",
"i. c #E75C5C",
"p. c #C96A6A",
"a. c #A3875E",
"s. c #AB9267",
"d. c #AB987B",
"f. c #8F8B7A",
"g. c #BF7F80",
"h. c #C07F80",
"j. c #9B8987",
"k. c #999690",
"l. c #9D968C",
"z. c #A68688",
"x. c #BF8B8C",
"c. c #B0878A",
"v. c #AC9A9C",
"b. c #A69797",
"n. c #B29A9C",
"m. c #B19597",
"M. c #A08E91",
"N. c #AAA393",
"B. c #A89DA0",
"V. c #B59FA2",
"C. c #AAAAAD",
"Z. c #A7A7AA",
"A. c #B2A2A4",
"S. c #BAA5A7",
"D. c #AEAEB1",
"F. c #BBAFB0",
"G. c #AFB1B4",
"H. c #B2B3B6",
"J. c #B5B6B9",
"K. c #BBBBBD",
"L. c #BFB7B9",
"P. c #C78988",
"I. c #C3989A",
"U. c #DB9B9B",
"Y. c #DD8788",
"T. c #D3B29C",
"R. c #C39EA0",
"E. c #C7A7A8",
"W. c #D7A6A6",
"Q. c #CAAFB1",
"!. c #CEB3B4",
"~. c #C3B7B8",
"^. c #C1BCBD",
"/. c #C6BBB8",
"(. c #D1BBBC",
"). c #ECA0A0",
"_. c #F5A4A4",
"`. c #EABBBB",
"'. c #D0C4AF",
"]. c #E9CFAD",
"[. c #BEBEC1",
"{. c #D6BFC1",
"}. c #C0BEC0",
"|. c #F2BFC0",
" X c #BFC1C2",
".X c #C2C2C4",
"XX c #C5C7C9",
"oX c #CCCCCD",
"OX c #C7C6C7",
"+X c #DBCCCC",
"@X c #D5C5C6",
"#X c #CECFD0",
"$X c #CED0D2",
"%X c #D2D3D4",
"&X c #D9D4D5",
"*X c #D7D8D9",
"=X c #DBDBDC",
"-X c #D9D7D8",
";X c #E2CBCB",
":X c #EAC7C7",
">X c #F4C3C3",
",X c #E6DAD6",
"<X c #EACFD0",
"1X c #F0E8DE",
"2X c #DCDFE0",
"3X c #DEE0E1",
"4X c #E3E4E4",
"5X c #EDE4E4",
"6X c #EBEBEC",
"7X c #E7EAEB",
"8X c #F5EEEE",
"9X c #EFF0F0",
"0X c #F2F3F3",
"qX c #FAF9F9",
"wX c #EEEFF0",
/* pixels */
"                                    X X o o o o o o o o X X X X                                     ",
"                                  r t i l z z z l l z z z l p t r X                                 ",
"                            r r r i z n ) ) ) _ _ ) _ _ ) ^ n z i r X r                             ",
"                        X t i p p z ~ ) _ ] ] ] ] ] ] ] ] ] ) ~ b p p i t X                         ",
"                      r t i z z n ^ _ ] ] ] ] ] ] ] ] ] ] ] ] _ ^ n b z i t r                       ",
"                    r i p z b ~ ) _ _ ] _ ] ] ] ] ] ] ] ] ] ] _ _ ) ~ b z p i t                     ",
"                X t i l z b ~ ) _ ] ] ] ] ] ] ] ] ] ] ] ] ] ] ] ] _ ) ~ n z p i t r                 ",
"              r t i l z n ^ _ _ ] ] ] ] ] ] ] ] ] ] ] ] ] ] ] ] ] ] ] _ ^ n z z i t r               ",
"            X t p z b n ) _ _ ] ] ] ] ] ] ] ] ] ] ] ] ] ] ] ] ] ] ] ] _ _ ) ~ b z p t X             ",
"            X t l b ~ ) _ ] ] ] ] ] ] ] ] ] ] ] ] ] ] ] ] ] ] ] ] ] ] ] ] _ ) ~ b z i X .           ",
"          r t i z ~ _ _ ] ] ] ] ] ] ] ] ] ] ] ] ] ] ] ] ] ] ] ] ] ] ] ] ] ] _ _ ~ z i t r           ",
"        X t p p z ~ ) ] ] ] ] ] ] ] ] ] ] ] ] ] ] ] ] ] ] ] ] ] ] ] ] ] ] ] ] ) ~ z l p t X         ",
"        r t l z z b ~ ^ _ ] ] ] ] ] ] ] ] ] ] ] ] ] ] ] ] ] ] ] ] ] ] ] ] _ ) ~ b z z z i X .       ",
"        X i p z z z b ~ ) ] ] ] ] ] ] ] ] ] ] ] ] ] ] ] ] ] ] ] ] ] ] ] ] _ ^ b z z z p i X .       ",
"        X t l z z z z ~ ) _ ] ] ] ] ] ] ] ] ] ] ] ] ] ] ] ] ] ] ] _ ] ] _ ) n z z z z l t r .       ",
"        r t l z z z z b ~ ) _ ] ] ] ] ] ] ] ] ] ] ] ] ] ] ] ] ] ] ] ] _ ) ^ b z z z z l i r .       ",
"        X t l z z z z z b ~ ^ _ ] ] ] ] ] ] ] ] ] ] ] ] ] ] ] ] ] _ _ ) ~ b z z z z z p i X .       ",
"      O r i p z z z z z z z n ^ ] ] ] ] ] ] ] ] ] ] ] ] ] ] ] ] ] _ ^ n z z z z z z z l i r o       ",
"      J y t p z z l p p z z z ~ ] ] ] ] ] _ ] ] ] ] ] ] ] ] ] ] ] ) ~ b z l p p p z z l t O J       ",
"    M.$.J a l z z i t t p l z n ) ] ] ] ] ] ] ] ] ] ] ] ] ] ] ] _ ^ n z z p i t p l z l a J $.j.    ",
"  Z.B.j.7.L Z l z p i i t i l b n ^ ) ] ] ] ] ] ] ] ] ] ] ] ] _ ^ n b l i i t p p z z Z E $.z.v.C.  ",
"  D.Z.D.B.r.;.R c z l p i i p p z n ^ ) _ ] ] ] ] ] ] ] ] ] _ ^ n z l i i t p l z z R -.r.v.C.C.Z.  ",
"  Z.D.J.}.~.I.t.Y c z l p i t i p z z n ) _ ] ] ] _ ] ] _ ) ~ z z p i t i p z z Z T 1.m.~.K.J.D.Z.  ",
"    D.J.XX%X%XE.r.Q V z l l i t i t i l b ^ _ _ ] ] _ _ ^ n l i t t t p p z z Z W w.E.+X%XXXK.D.C.  ",
"    D.J..X#X*X&X/.P.;.W T I s t X X X r p z ~ ^ ) ) ) ~ z p r X X X t s V Y W ;.h./.&X*X$X.XJ.G.    ",
"      D.J.[.#X*X-X{.E.I.x.q.P k y + + + u s Z M m n M c s u y + + + j K q.x.I.E.(.&X*XoX.XJ.G.      ",
"        D.H.[.XX%X-X=X=X&X!.P.r.0.0.q.7.$.>.1.:.R R :.1.>.$.7.0.0.0.r.x.!.&X2X*X*X&XoXK.H.C.        ",
"          M.M.A.}.$X2X7XwX8X5X3X,X+X@X~.F.~.{.U.p.p.U.(.~.F.L.@X+X,X,X4X8XwX7X2X$X.XS.M.M.          ",
"            @.8.v.L.OX=X7X6XwX0X9X4X$XXX#X2X6X5X:X>X5X6X2X#XXXoX3X9X0X9X8X7X,XoX^.B.0.@.J           ",
"          r a L 3.p.h.I.(.#X%X=X3X$X[.[.#X4X0XqXqXqXqX0X4X#XK.[.$X2X2X%XoX}.R.h.w.2.E k r           ",
"        t i z / ` ` R <.e.m.n.V.E.V.v.A.~.-X6X0XqXqXqX7X-X^.A.n.R.E.V.B.m.g.<.T ` ` M z i t r       ",
"    X t p z ^ ) ) ^ b V E E +.&.-.-.*.q.m.^.#X2X7X7X3X%X}.m.0.*.-.-.-.+.E L V N ^ _ ) ^ b p t X     ",
"    r i n ^ _ _ ^ b l p c N M M M / M T ,.c.F..XoX$XXXF.c.1.T M M M M M c l l l b ^ _ _ ^ n p r .   ",
"  J k c ( _ _ ^ n p t i l n ^ ) _ _ ) ( C -.e.m.A.A.v.e.;.C ( ) _ ) ) ) n z i t p b ^ _ _ ^ c k J   ",
"v.z.0. .' ] _ ( N p r t l n ) ] ] ] ] _ ^ ` W =.=.=.=.W C ( _ ] ] ] ] _ ~ l t r i x ~ _ ] '  .q.z.b.",
"G.K.!.Y.i.u.u.y.+.P @ # d x ~ _ ] ] ] ] ] ) / M M M M / ) ] ] ] ] ] _ ~ x f # @ K -.y.u.u.i.Y.!.K.H.",
"H.XX%X<X>X].].|.E.9.7 & * = v ~ ) ) ) ) ) ) ^ ^ ^ ^ ) ^ ) ) ) _ _ ) ~ v S * & 5 9.R.`.].|.|.<X&XXXH.",
"G.[.oX=XwXqX9X4X Xl.0 1 1 & = g m m B D D D D B m M B D D D D B m m h = & % 1 0 f.[.3X6XqX8X3XoXK.G.",
"  k.B.'.,X1X,X'.l.e 5 $ ; ; ; = g g : 2 2 2 % - g g = % 2 2 2 : d g = ; % & & 5 e l./.,X1X,X/.B.k.  ",
"    e N.'.].T.d.e w * j S - > - g d - 2 2 1 % - d f - 2 1 1 2 > d g = > - G @ - < e s.T.].].N.4.e   ",
"    9 4.s.s.a.5.q 7 @.>.3.=.J g x x h F A A F h m m B D A A F h x x g K X.3.>.@.7 8 5.a.s.s.5.q     ",
"        9 9 6       b.F.!.P.3.! [ { { } } } | | { { } } } } } | { [ ! :.P.!.F.v.j.    6 9 9         ",
"                    H.XX&X+XT.U.)._._._._._._._._._._._._._._._._.).U.W.:X&XXXJ.                    ",
"                    G. XoX#X%X,X8X8X8X8X8X8X8X8X8X0X8X8X8X8X8X8X8X5X=X%XoXoX XH.                    ",
"                      v.v.v.n.Q.(.:X;X;X;X;X+X+X+X+X+X+X;X;X;X;X;X'.!.S.n.v.v.                      ",
"                        @.%.=.;.3.t.t.t.t.2.,.7.>.>.>.,.2.t.t.t.t.3.<.=.%.@.                        ",
"                        # y j H I Y Y Y I J = @ @ @ @ = H H Y Y U I k j j #                         ",
"                            * w ..o.o.X..., : $     $ : , ..X.#.o.X.w :                             ",
"                              6 q q q q 8 6 4         4 6 8 8 q q q 6                               ",
"                                3 4 4 3 3 3             3 3 3 4 4 4                                 "
};
