/* XPM */
static char *c88b8069839e4a77ef86fec458626fe3dbOPICUk1XRtCWSO_0[] = {
/* columns rows colors chars-per-pixel */
"60 60 256 2 ",
"   c None",
".  c #020202",
"X  c #0B0000",
"o  c #010A0D",
"O  c #0C0C0C",
"+  c #080807",
"@  c #120000",
"#  c #1B0000",
"$  c #120D0D",
"%  c #010C12",
"&  c #0E0F11",
"*  c #081618",
"=  c gray7",
"-  c #161B1C",
";  c #1C1B1B",
":  c #181617",
">  c #270000",
",  c #330000",
"<  c #331F1F",
"1  c #23201F",
"2  c #1D1E22",
"3  c #151F25",
"4  c #0C1F2F",
"5  c #261D24",
"6  c #1D2323",
"7  c #13232A",
"8  c #002638",
"9  c #232424",
"0  c #2C2C2C",
"q  c #26282B",
"w  c #292C33",
"e  c #2D3233",
"r  c gray20",
"t  c #3B3B3C",
"y  c #343538",
"u  c #4B0000",
"i  c #530000",
"p  c #6D0000",
"a  c #750000",
"s  c #7B0000",
"d  c #443E3E",
"f  c #433636",
"g  c #02364A",
"h  c #033849",
"j  c #013A53",
"k  c #3D3D44",
"l  c #393945",
"z  c #003A63",
"x  c #044355",
"c  c #3B4141",
"v  c #3C4446",
"b  c #03496A",
"n  c #054D72",
"m  c #05526C",
"M  c #444343",
"N  c #4C4C4C",
"B  c #444649",
"V  c #524A4A",
"C  c #4B4B52",
"Z  c #474D56",
"A  c #4C5152",
"S  c #485359",
"D  c gray33",
"F  c #52515C",
"G  c #5A5A5A",
"H  c #535959",
"J  c #544F52",
"K  c #4D5762",
"L  c #545662",
"P  c #5B5C64",
"I  c #545D6B",
"U  c #5C5D6A",
"Y  c #5D5360",
"T  c #5C5D72",
"R  c #635E74",
"E  c #5D646C",
"W  c #5D6367",
"Q  c #5D6572",
"!  c #5E6778",
"~  c #626363",
"^  c #63636C",
"/  c gray42",
"(  c #69606C",
")  c #636573",
"_  c #646A74",
"`  c #696A75",
"'  c #646C7C",
"]  c #6B6D7C",
"[  c #68667A",
"{  c #716B7A",
"}  c #6D737C",
"|  c #747474",
" . c #71717E",
".. c #7C7C7C",
"X. c #797677",
"o. c #7A6F6F",
"O. c #8C0000",
"+. c #990000",
"@. c #930000",
"#. c #A40000",
"$. c #B60000",
"%. c #DA0000",
"&. c #C80000",
"*. c #E80000",
"=. c #FE0000",
"-. c #F30000",
";. c #8D7777",
":. c #007E8E",
">. c #696C83",
",. c #746E82",
"<. c #6D7382",
"1. c #6E7989",
"2. c #747483",
"3. c #787585",
"4. c #757985",
"5. c #797A85",
"6. c #757589",
"7. c #7A758A",
"8. c #757B8A",
"9. c #7B7D8A",
"0. c #7D7D91",
"q. c #827D8C",
"w. c #807F84",
"e. c #867D96",
"r. c #038395",
"t. c #77818C",
"y. c #7C828D",
"u. c #7C868A",
"i. c #7D8392",
"p. c #848484",
"a. c #82828E",
"s. c #898A8B",
"d. c #838592",
"f. c #848A95",
"g. c #8A8B95",
"h. c #89869A",
"j. c #868C9A",
"k. c #8C8D9A",
"l. c #858696",
"z. c #908F9A",
"x. c #8D929C",
"c. c #929393",
"v. c #91939D",
"b. c #9A9A9A",
"n. c #959A9F",
"m. c #8D94A1",
"M. c #9495A2",
"N. c #969BA5",
"B. c #9A9BA5",
"V. c #959BA9",
"C. c #9C9DAA",
"Z. c #9993A4",
"A. c #878BA0",
"S. c #9DA1AD",
"D. c #9AA2A6",
"F. c #9FA5B2",
"G. c #A1A2AD",
"H. c #A0AAAD",
"J. c #AAAAAC",
"K. c #A1A1A3",
"L. c #A4A4B2",
"P. c #A4ABB4",
"I. c #AAABB5",
"U. c #ACACBA",
"Y. c #A5AEB9",
"T. c #B1ADBA",
"R. c #ADB5BA",
"E. c #AAB4B7",
"W. c #B4B4B5",
"Q. c #B2B2BC",
"!. c #BBBBBC",
"~. c #B4B8BB",
"^. c #B5B6C2",
"/. c #BBBBC4",
"(. c #BEBDCA",
"). c #B7B9C4",
"_. c #C7BCCB",
"`. c #BBC4C8",
"'. c #C3C3CC",
"]. c #CACBCC",
"[. c #C3C6C8",
"{. c #C5C5D2",
"}. c #C6CCD3",
"|. c #CCCCD4",
" X c #CFCFDA",
".X c #CED2D3",
"XX c #D3D3D5",
"oX c #D4D5DC",
"OX c #DADBDC",
"+X c #D7D7DD",
"@X c #D8CFD2",
"#X c #DCDDE4",
"$X c #D7D8E2",
"%X c #DCE2E4",
"&X c #DFE6EE",
"*X c #E3E3E5",
"=X c #E4E4EB",
"-X c #EBEBED",
";X c #E8E8E9",
":X c #F0F1EF",
">X c #EDECF1",
",X c #E8EBF3",
"<X c #EAF3F3",
"1X c #F2F2F3",
"2X c #F4F2FA",
"3X c #FEFEFE",
"4X c #F7FAF9",
"5X c #F1E8F0",
"6X c black",
"7X c black",
"8X c black",
"9X c black",
"0X c black",
"qX c black",
"wX c black",
"eX c black",
"rX c black",
"tX c black",
"yX c black",
"uX c black",
"iX c black",
"pX c black",
"aX c black",
"sX c black",
"dX c black",
"fX c black",
"gX c black",
"hX c black",
"jX c black",
"kX c black",
"lX c black",
"zX c black",
"xX c black",
"cX c black",
"vX c black",
"bX c black",
"nX c black",
"mX c black",
"MX c black",
"NX c black",
"BX c black",
"VX c black",
"CX c black",
"ZX c black",
"AX c black",
"SX c black",
"DX c black",
"FX c black",
"GX c black",
"HX c black",
"JX c black",
"KX c black",
"LX c black",
"PX c black",
"IX c black",
"UX c black",
/* pixels */
"                                                                                                                        ",
"                                                    . . . . . . .                                                       ",
"                                                . . c.].~.c.p.p.D .                                                     ",
"                                              . b.!.b...X./ ~ ..b.G .                                                   ",
"                                        . . . p.c.c.~ B d M M B ..X..                                                   ",
"                                      @ +.p , X.W B B B B d t q D c.q                                                   ",
"                                      X &.#.i V N d c t t 0 ; : D b.t .                                                 ",
"                                      X u i ;.M c d t q 9 ; = M ..| t .                                                 ",
"                                      . d < / s.M q 0 ; ; ; $ G c.N y .                                                 ",
"                                      t | V - X.p...r + ; ; y / / N q .                                                 ",
"                                    O c.G A v . J.;Xc.G 0 O W c.N B 9 .                                                 ",
"                                    y p.G B d O D W.OX~.y 9 / | N r ; .                                                 ",
"                                  = ..D J M 0 ; . / b.~ r | p.D B 9 .                                                   ",
"                                  = X.D M t - ; O r B y X.X.N M 0 ; .                                                   ",
"                                  = ..V c r 6 : - e 0 c.p.N t 0 r 9 =                                                   ",
"                                  = ;.H M 0 : c d W.oX..M y ; D K./ t .                                                 ",
"                                  $ o.`.D f c [.*X/ t y r r ; M G 0 t .     . o % * O .                                 ",
"                                    = s.`.*X*X~ y r r r e 9 : q D N y .     o g b r.S O                                 ",
"                                      . * y r r r r r 9 O . . $ 6 - .     o h n h A O                                   ",
"                                      o :.g o . = = : +         : 9 . . o g r.n m J O                                   ",
"                                      o b n g v = . ; = . . . . = t G E 8 b j h Z O                                     ",
"                                    o z g g C :   . ; ..K.p.~ 0 q t & 4 8 x r.h J +                                     ",
"                                    o m r.h A O   . / ~ r r q N ~ 9 . % j m x B =                                       ",
"                                    . % * o O     . 9 ..s.X.~ D B O . . % % o O .                                       ",
"                                                    . 0 t c r 1 B w.F .                                                 ",
"                                                  . l F L U ) U ' D.L.` +                                               ",
"                                                  . Z >.>.4.y.q.4.j././...+                                             ",
"                                                  l ) [ ` 4.4.9.i.h.I.|.[.9.. .                                         ",
"                                                k ` ] ) } 4.7.8.d.h.M.U.|.}.u...= . .                                   ",
"                                            + k  .' E ) ] } 5.9.y.g.h.M.U.'.oXoXp.....: .                               ",
"                                        . B C 2.] E E T ) ] 7.0.a.f.j.k.M.H.T.`.@X#X&Xp./ 9 .                           ",
"                                    . k k i.i.<.) U U U )  .8.i.g.h.m.x.k.x.Z.L.U.(.}.#X;Xp.~ r                         ",
"                              = l y k d.0.1.` Q U U U U )  .9.f.k.k.M.x.x.v.j.M.V.C.Q.(.|.%X<Xc.P k                     ",
"                        : w r B h.y.8.] ` ) U U U U I U _ } 9.g.z.x.M.Z.m.x.m.v.v.C.P.I.(.$X*X-X3XK.D M                 ",
"                      : C h.d.8.` ! R Q U U I I U U E ) } 2.9.j.x.M.B.C.B.V.M.N.J.R.R.(.XX;X5X,X:X3X3XW.r               ",
"                  - 9 C j.7._ ' E E R U U U U U U ^ _ _  .5.a.g.M.V.B.B.B.C.S.L.^.^.'.+X=X1X1X2X4X4X4X4XJ.q             ",
"                = S h.q.<.' _ ) I U W P U E E U Q _ / ` 2.d.x.m.B.B.B.C.C.G.E.^.).'.+X=X>X3X3X3X3X3X3X2X,XJ.9           ",
"              & F i.4.' ] { ) I I Y E T U ) ` _ / _ ` } 9.f.M.B.C.S.V.G.G.U.I./.}.OX*X-X2X3X3X3X3X3X3X4X-X=XJ.6         ",
"            O F 8.<.E K T ) U L Q U U ` _ I ^ _ ` ` 3.5.9.v.V.C.G.C.G.C.P.I.R.{. X$X*X-X3X3X3X3X3X3X3X3X1X#X%XH..       ",
"          + K 3.2.L 5 @ - Z ) Q ( _ Q / ! ` ] 2.2.5.y.f.x.B.G.C.G.C.G.C.L.I./.'.OX$X*X-X3X3X3X3X3X3X3X3X2X%X*XW.9       ",
"        . L 9.4.I 7 s +.. & l ^ _ E U ` ] 2.a.5.t.g.k.k.V.S.S.G.C.G.C.L.P.Q.).XX$X=X*X2X3X3X3X3X3X3X3X3X4X;XoX+XW..     ",
"        . ` u.4.y . O.#.X X 2 ` ` ` ` 2.q.5.a.a.g.x.k.C.N.n.v.x.M.M.B.G.J.^.(.].#X%X*X-X1X3X3X3X3X3X3X4X<X$XXX%XR.O     ",
"      . } j.4.>.w a =.-.*.+.- } ,.<.9.5.a.a.a.x.x.V.C.B.3.w O $ O q 5.S.E.W./.'.OX$X=X=X>X4X3X3X3X3X4X1X=X|./.oXOXW..   ",
"      . g.m.4.4.e . O.#.@ @ 5 ,.} 9.5.a.g.j.j.x.M.B.L.4.q . p -.@.. 9 9.I.Q.^.`.OX#X#X*X>X1X1X4X4X4X4X;XOX!.U.(.#XQ..   ",
"    . M.I.u.2.3.U 3 s +.. = C q.^ 9 9.y.k.d.g.k.C.C.F.v . . s =.#.. . w L./.^.(.'.OX%X%X#X=X>X<X>X-X*X$X{.Q.P.R.$X!..   ",
"    . W.Q.e.7.4.} S < @ = C 5.9.} = ` 9 9.t.q a.C.G.L.y a %.*.=.-.%.+.6 L.U.~.^.{.oXOX#X*X#XOX#X#X+X.X'.).P.N.C.|.OXJ.+ ",
"    . W.U.u.5.6.6.] P L ^  .9.f.a.^ : .  .y.& 9.G.C.L.t # , +.=.$., > 9 G.Y.I./.!.{.XXOX#XOX#X$XXX].'.(.I.x.x.N.!.oX].+ ",
"    . ^.T.0.7.8.6.2.]  .5.9.d.d.l.g.^ E 6 2 ^ B.C.S.S._ - . s =.#.. = ^ C.L.J.Q.Q.).^.'.(.'.`.^.^.(.(.(.).B.k.Z.I.}.}.+ ",
"    . [.Q.u.4.8.4.4.2.]  .5.f.g.l.k.l.d.^ ^ N.C.G.C.G.N._ 2 # u > = P M.H.C.G.P.T.I.P.W.Y.I.I.I.I.E.).+X;X+XY.M.L.{._.+ ",
"    . ].|.d.9.9.8.4.2.]  .4.y.l.g.j.g.f.v.v.C.B.G.C.C.G.N.5._ _ _  .M.C.H.C.L.S.H.L.L.H.I.P.L.H.S.C.Q.*X3X2X}.B.L.).'.+ ",
"    . OX=Xj.4.5.9.9.<.<.2.5.y.a.g.j.f.j.k.f.v.C.C.S.C.G.G.L.L.L.L.C.S.G.C.C.G.C.H.C.G.H.H.S.C.C.V.M.L.|.,X*X).V.S.K.A   ",
"      ~ |.R.y.8.9.a.9.<. .5.y.a.d.j.a.k.j.k.g.B.V.G.B.S.C.C.S.G.G.C.V.G.C.C.C.C.C.C.B.C.C.C.N.B.N.m.M.C.P.G.M.M.S.v..   ",
"      . [.#Xv.8.8.9.9.2.<.4.9.a.a.d.a.j.f.h.f.v.M.C.N.B.G.C.C.C.B.D.C.V.B.V.B.V.B.V.B.V.N.M.M.v.x.j.i.y.9.4.d.n.L.k..   ",
"        | oX/.d.8.5.2.4.4.1.2.4.9.a.a.j.a.f.f.j.g.M.M.B.B.B.B.V.B.B.C.V.N.N.B.V.V.v.M.v.v.x.x.x.l.9.8.2.,.8.f.N.N.C     ",
"        . !.<XU.d.4.4.8.4.2.<.} 4.9.9.l.f.l.s.j.f.v.v.M.M.V.B.V.B.B.N.N.V.M.B.M.v.v.k.v.x.k.j.d.q.4.<.]  .9.M.L.f..     ",
"          ..*X;XI.d.5.3.4.2.2.2.<.4.4.5.i.4.a.d.i.d.j.j.k.M.Z.m.x.v.m.k.M.A.Z.x.k.k.A.k.j.d.i.9.2.<.` 2.8.q.F.B.G .     ",
"            ..*X*XQ.d.8.8.2.]  .] 2.2.<.4.4.t.4.0.9.y.d.a.f.f.f.f.h.k.h.g.j.d.h.l.a.f.q.i.t.4.2.' ' <.1.l.B.N.P .       ",
"              ..*X>X'.V.i.4.2.4.] ] } ' 2.2.2.2.7.9.5.4.9.9.9.y.0.a.y.d.a.u.5.5.t.0.7.2.4.2.,.<.' ] 8.j.B.N.G .         ",
"                X.[.oX#X).V.i.3.8.>.4.] ] ] ] } } 6.5.2.2.6.<.} 6.4.2.2.4.4.4.4.2.2.2.2.] <.] ' } 5.M.I.n.H .           ",
"                  . / ].].+X).B.k.9.5.2.2.1.1.,.1. .<.] } 2. .} ,.}  .' ] >.[ >.<.' ] ] ! ] <.<.g.G.x.u.F .             "
};
