/* XPM */
static char *c88b8069839e4a77ef86fec458626fe3dbOPICUk1XRtCWSO_4[] = {
/* columns rows colors chars-per-pixel */
"60 60 256 2 ",
"   c #010101",
".  c #0A0202",
"X  c #01090C",
"o  c #0A0A0B",
"O  c #040609",
"+  c #190606",
"@  c #020E14",
"#  c #071317",
"$  c #131314",
"%  c #1B1B1B",
"&  c #171718",
"*  c #10100F",
"=  c #001821",
"-  c #002937",
";  c #122830",
":  c #232324",
">  c #23252A",
",  c #2A2B2C",
"<  c #272729",
"1  c #372C2C",
"2  c #2C2D32",
"3  c #2D2632",
"4  c #343434",
"5  c #3A3B3B",
"6  c #373538",
"7  c #322E33",
"8  c #6A0404",
"9  c #7C0203",
"0  c #750505",
"q  c #761619",
"w  c #6E1113",
"e  c #582B2E",
"r  c #433B3C",
"t  c #523838",
"y  c #542E35",
"u  c #7B292C",
"i  c #653737",
"p  c #722C2C",
"a  c #37403B",
"s  c #043748",
"d  c #013B55",
"f  c #3C3C46",
"g  c #004659",
"h  c #384141",
"j  c #3F4C56",
"k  c #014A6C",
"l  c #06526E",
"z  c #454445",
"x  c #44444A",
"c  c #4C4C4C",
"v  c #4A4648",
"b  c #574C4C",
"n  c #4C4C53",
"m  c #454855",
"M  c #495256",
"N  c #535353",
"B  c #59585A",
"V  c #764747",
"C  c #71545A",
"Z  c #5C5D6B",
"A  c #585B65",
"S  c #5E5F71",
"D  c #675D66",
"F  c #765D68",
"G  c #645D70",
"H  c #5E626D",
"J  c #5E6573",
"K  c #656465",
"L  c #62626C",
"P  c #6B6B6C",
"I  c #68656B",
"U  c #73696C",
"Y  c #646474",
"T  c #646974",
"R  c #696A76",
"E  c #64647B",
"W  c #646A7B",
"Q  c #6C6D7B",
"!  c #6C6675",
"~  c #726D7C",
"^  c #786975",
"/  c #6A7276",
"(  c #6C737C",
")  c #677578",
"_  c #727274",
"`  c #72727D",
"'  c #7B7A7C",
"]  c #7A757B",
"[  c #8C0000",
"{  c #820000",
"}  c #940000",
"|  c #871716",
" . c #A40000",
".. c #AC0000",
"X. c #BC0000",
"o. c #B20101",
"O. c #84282C",
"+. c #88373B",
"@. c #913739",
"#. c #852F35",
"$. c #861921",
"%. c #C50000",
"&. c #CA0000",
"*. c #DA0505",
"=. c #E40000",
"-. c #EF0000",
";. c #FD0000",
":. c #F20000",
">. c #8B3B4C",
",. c #884A59",
"<. c #8A575C",
"1. c #97565A",
"2. c #92484C",
"3. c #875A68",
"4. c #955B65",
"5. c #9A666C",
"6. c #866675",
"7. c #82777B",
"8. c #936B77",
"9. c #AC7579",
"0. c #B16E72",
"q. c #AA5C62",
"w. c #7B807D",
"e. c #007788",
"r. c #6B6C82",
"t. c #666380",
"y. c #736C82",
"u. c #706681",
"i. c #6C7383",
"p. c #6B7385",
"a. c #747483",
"s. c #797584",
"d. c #737A84",
"f. c #7B7B85",
"g. c #747C8B",
"h. c #7B7C8A",
"j. c #76768A",
"k. c #797890",
"l. c #827685",
"z. c #827C8B",
"x. c #887984",
"c. c #927D8A",
"v. c #A87883",
"b. c #BA7D83",
"n. c #048294",
"m. c #7C828B",
"M. c #798287",
"N. c #7C8492",
"B. c #798391",
"V. c #82828D",
"C. c #88878A",
"Z. c #97848C",
"A. c #838491",
"S. c #8A8493",
"D. c #838B94",
"F. c #8A8B95",
"G. c #8C8D9A",
"H. c #86899A",
"J. c #968C98",
"K. c #8C939C",
"L. c #8C9196",
"P. c #949394",
"I. c #93949D",
"U. c #9B929D",
"Y. c #979A9D",
"T. c #B9858B",
"R. c #A78B96",
"E. c #B78C95",
"W. c #A5939E",
"Q. c #AA989C",
"!. c #AD8E96",
"~. c #8B8CA1",
"^. c #8D94A2",
"/. c #8F9AA3",
"(. c #9394A2",
"). c #9599A4",
"_. c #9B9BA5",
"`. c #9C9CAA",
"'. c #9798A7",
"]. c #938DA1",
"[. c #A39CAA",
"{. c #A398A2",
"}. c #B69CA7",
"|. c #9DA2AC",
" X c #99A2A6",
".X c #A1A2AD",
"XX c #A4A3A5",
"oX c #A5A5B2",
"OX c #ABABB5",
"+X c #ACAEBB",
"@X c #A6AAB3",
"#X c #B4ABB6",
"$X c #B2B3BD",
"%X c #BABABD",
"&X c #B3B4B8",
"*X c #B3ABAC",
"=X c #C78C95",
"-X c #C3A5AA",
";X c #C1B3B6",
":X c #BCBDC4",
">X c #B7B9C5",
",X c #AEB3C1",
"<X c #C5BBC8",
"1X c #BDC3C9",
"2X c #C5C5CC",
"3X c #C6C7CA",
"4X c #CCCCD3",
"5X c #C9C9D6",
"6X c #CDD4D7",
"7X c #D2D3DB",
"8X c #D9D9DB",
"9X c #D4CAD5",
"0X c #DCDCE3",
"qX c #E2DDE5",
"wX c #E4E3E4",
"eX c #EBECED",
"rX c #E7E6EA",
"tX c #E7E8F2",
"yX c #ECF5F6",
"uX c #FEFEFE",
"iX c #F5F4F8",
"pX c #F3F5EE",
"aX c #DBE4E5",
"sX c None",
"dX c black",
"fX c black",
"gX c black",
"hX c black",
"jX c black",
"kX c black",
"lX c black",
"zX c black",
"xX c black",
"cX c black",
"vX c black",
"bX c black",
"nX c black",
"mX c black",
"MX c black",
"NX c black",
"BX c black",
"VX c black",
"CX c black",
"ZX c black",
"AX c black",
"SX c black",
"DX c black",
"FX c black",
"GX c black",
"HX c black",
"JX c black",
"KX c black",
"LX c black",
"PX c black",
"IX c black",
"UX c black",
/* pixels */
"sXsXsXsXsXsXsXsXsXsXsXsXsXsXsXsXsXsXX e.s o O $ $ $ O sXsXsX  & :     O - n.l k N O sXsXsXsXsXsXsXsXsXsXsXsXsXsXsXsXsXsX",
"sXsXsXsXsXsXsXsXsXsXsXsXsXsXsXsXsXsXX l k - h o   & O         $ 5 N B - k g d j $ sXsXsXsXsXsXsXsXsXsXsXsXsXsXsXsXsXsXsX",
"sXsXsXsXsXsXsXsXsXsXsXsXsXsXsXsXsXX g s d M % sX  % U F._ b < < 5 % ; - g e.s n O sXsXsXsXsXsXsXsXsXsXsXsXsXsXsXsXsXsXsX",
"sXsXsXsXsXsXsXsXsXsXsXsXsXsXsXsXsXX l e.s N o sX  R D v x 4 v B <   @ d k l c & sXsXsXsXsXsXsXsXsXsXsXsXsXsXsXsXsXsXsXsX",
"sXsXsXsXsXsXsXsXsXsXsXsXsXsXsXsXsX  = - @ & sXsX  a w.] P N N v $ sXO # = @ %   sXsXsXsXsXsXsXsXsXsXsXsXsXsXsXsXsXsXsXsX",
"sXsXsXsXsXsXsXsXsXsXsXsXsXsXsXsXsXsXsXsXsXsXsXsXsXsXN c v 5 , z m   sXsXsXsXsXsXsXsXsXsXsXsXsXsXsXsXsXsXsXsXsXsXsXsXsXsX",
"sXsXsXsXsXsXsXsXsXsXsXsXsXsXsXsXsXsXsXsXsXsXsXsXsXsX4 x v n M R m.x sXsXsXsXsXsXsXsXsXsXsXsXsXsXsXsXsXsXsXsXsXsXsXsXsXsX",
"sXsXsXsXsXsXsXsXsXsXsXsXsXsXsXsXsXsXsXsXsXsXsXsXsX  f W Q a.N.N.Y.Y.n sXsXsXsXsXsXsXsXsXsXsXsXsXsXsXsXsXsXsXsXsXsXsXsXsX",
"sXsXsXsXsXsXsXsXsXsXsXsXsXsXsXsXsXsXsXsXsXsXsXsXsX2 A W ( h.m.h.H.OX.Xn sXsXsXsXsXsXsXsXsXsXsXsXsXsXsXsXsXsXsXsXsXsXsXsX",
"sXsXsXsXsXsXsXsXsXsXsXsXsXsXsXsXsXsXsXsXsXsXsXsX  A r.Y Q g.h.h.A.`.2X@Xc sXsXsXsXsXsXsXsXsXsXsXsXsXsXsXsXsXsXsXsXsXsXsX",
"sXsXsXsXsXsXsXsXsXsXsXsXsXsXsXsXsXsXsXsXsXsXsXsX2 Y W Y Q a.h.h.V.(.+X2X%XN sXsXsXsXsXsXsXsXsXsXsXsXsXsXsXsXsXsXsXsXsXsX",
"sXsXsXsXsXsXsXsXsXsXsXsXsXsXsXsXsXsXsXsXsXsXsX2 a.a.H Y R a.h.h.N.D.).+X3X%Xn sXsXsXsXsXsXsXsXsXsXsXsXsXsXsXsXsXsXsXsXsX",
"sXsXsXsXsXsXsXsXsXsXsXsXsXsXsXsXsXsXsXsXsX, 6 V.A.W Z A Y Q g.A.N.N.G.`.>X3X:Xn 5 sXsXsXsXsXsXsXsXsXsXsXsXsXsXsXsXsXsXsX",
"sXsXsXsXsXsXsXsXsXsXsXsXsXsXsXsXsXsXsXsX, F.(.D.a.L Z A Y ~ h.A.A.F.^.(..X:X2X7X3Xn sXsXsXsXsXsXsXsXsXsXsXsXsXsXsXsXsXsX",
"sXsXsXsXsXsXsXsXsXsXsXsXsXsXsXsXsXsX< 6 Y.G.A.a.Q Z Z Z E i.M.D.S.G.^.^.I..X$X5X4X5Xz 6 sXsXsXsXsXsXsXsXsXsXsXsXsXsXsXsX",
"sXsXsXsXsXsXsXsXsXsXsXsXsXsXsXsXsX2 `.G.K.a.d.r.T S L L R d.m.A.G.G.I.^.(._..X$X2X2X7X7Xc : sXsXsXsXsXsXsXsXsXsXsXsXsXsX",
"sXsXsXsXsXsXsXsXsXsXsXsXsXsXsX& 5 `.K.l.h.h.p._ R L Z Y T ~ z.D.G.G.(.Y.'.I.(..X@X2X4X4X6X6XN sXsXsXsXsXsXsXsXsXsXsXsXsX",
"sXsXsXsXsXsXsXsXsXsXsXsXsX* 6 `.F.M.l.h.h.a.r.R H Y R R ( i.M.D.G.G.I.'./.^.(.(.|.oX$X3X4X5X4XN sXsXsXsXsXsXsXsXsXsXsXsX",
"sXsXsXsXsXsXsXsXsXsXsXsXr W.S.z.l.h.h.p.a.p.P Z Y i.Q R Q m.D.F.(.G.~.'.'./.'.(. X.X@X,X4X4X4X4XK $ sXsXsXsXsXsXsXsXsXsX",
"sXsXsXsXsXsXsXsXsXsXsXy 6.8.7.l.h.h.g.R R J R R / R R / ( z.S.H.I.).)..X'.'.`.@X,X%X:X4XwXeXeXaX4XA   sXsXsXsXsXsXsXsXsX",
"sXsXsXsXsXsXsXsXsXsXe 4.4.3.6.6.7.y.R R ` R / r.R R R a.a.f.F.I.G.I.{.'.'.`.@X&X3X5XtXyXuXuXuXuXtX4XA   sXsXsXsXsXsXsXsX",
"sXsXsXsXsXsXsXsX+ e 2.u 8 q ,.4.U P R ~ ) r.~ / R f.( ( z.S.S.Z.Z.J.U.{..XOX%X1X5X0XeXuXuXuXuXuXuXqXK   sXsXsXsXsXsXsXsX",
"sXsXsXsXsXsXsX+ i >.$.o.%.0 q 2.3.U ` R R _ r.a.) ` a.z.S.Z.Z.Z.R.R.R.W.[.#X&X3X8XtXpXuXuXuXuXuXuXeX1XK   sXsXsXsXsXsXsX",
"sXsXsXsXsXsX. y 3.#.{ %.=.} 9 q 1.3.I _ r.d.) s.( y.z.C.c.c.v.0.0.b.T.E.Q.}.:X3X8XyXiXuXuXuXuXuXuXeX0X`   sXsXsXsXsXsXsX",
"sXsXsXsXsXsX. t 5.O...;.;.-.%.w <.F ^ y.d.y.) h.a.A.S.Z.v.4.#.q | $.u 1.=X}.<X2X8XtXpXuXuXuXuXuXuXqX3X:XR   sXsXsXsXsXsX",
"sXsXsXsXsX  r ^ 5.u [ *.=.o.} w 1.6.^ ^ p.h.a.z.z.S.Z.R.5.O.9 ..=.%.9 q q.-X;X9X8XrXpXiXuXuXuXuXiX7X:X4Xf.  sXsXsXsXsXsX",
"sXsXsXsXsX  n x.5.>.q X.*.9 8 u 3.F 1 f.d.D.h.K.G.U.R.v.+.0 [ &.;.=.} 0 O.=X-X<X7X0XrXyXyXiXiXiXrX:X$X4X'   sXsXsXsXsXsX",
"sXsXsXsX  v z.x.6.4.@.| [ 8 u ,.6.U . , > m.].x s.U.R.v.u  .=.:.;.:.=.X.q =X-X<X4X0X0XtXrXtXrXrX7XoX.X2X$XL sXsXsXsXsXsX",
"sXsXsXsX  ] OXS.6.3.<.+.p V ,.6.7._ x O ' 6 7   ] U.R.T.#.[ %.=.;.:.&. .q =X-X<X9X7X0XqXqXwX8X0X>XI.'.$X7XL.  sXsXsXsXsX",
"sXsXsXsX  h.OXS.^ ^ F C C 3.6.7.s.h.h.& 0XY.P.& ` I.R.!.2.0 { &.;.=.} 0 @.E.-X#X<X1X4X7X7X7X4X:X|.S.F.+X7XF.  sXsXsXsXsX",
"sXsXsXsX  f..XA.~ ! D D F ^ ] l.f.F.h.o I C.C.$ ` (.J.R.9.@.0 } X. .9 @.9.E.*X#X$X:X>X1X:X:X:XOX^.h.V..X5XC.  sXsXsXsXsX",
"sXsXsXsX  C.|.A.` Y L I ! ~ a.z.C.G.d.O     O   s.[.Y.W.!.9.2.@.@.@.2.v.E.}.OXOX&X$X$X$X+X$XOXoX.X|.I.|.2XC.  sXsXsXsXsX",
"sXsXsXsX  F.@XN.a.Y S ! R ` a.A.S.F.M.O   $ x o d.[._.W.R.!.E.T.b.T.E.W.}.#X#X+X$XOX$X$X+X+X.X,X0XrX3X$X4XC.  sXsXsXsXsX",
"sXsXsXsX  S.&XF.r.L Z Y R ( f.A.F.F.z.O $ m S $ d.|.`._.{.W.W.R.R.!.R.W.[.OXOXOX$XOX+X&X@XoX X7XuXuXyX6X2XV.  sXsXsXsXsX",
"sXsXsXsX  P.>XF.( S Z H R a.m.V.A.K.f.O m Y Y * d._.'.'.`.|.{.W.{._.[._.`.XX@XoXOXoXoXOX`.'.'.4XuXuXpX8X2Xh.  sXsXsXsXsX",
"sXsXsXsX  L.:X^.j.Y Z J J ` V.V.A.H.M., m S Y $ f.(.`.'.'.`.'.`..X_.|.`..X`.[.`..X X|.'.'.'.G.@X6X0X4X:X3XC.  sXsXsXsXsX",
"sXsXsXsX  / %X.Xh.R Y L L Q h.D.A.A.F.m.o A Y $ i.'.'.|.'.'.`.`.`._.`..X'..X`..X'._.'./.Y.K.A.f.A.F.'.,X#X_ O sXsXsXsXsX",
"sXsXsXsXsX  C.:XF.( Y Z H R s.A.A.D.A.A.> m M o f. X(.'.|.'.(.'.'.`.`.|.'.'..X'./._.~.I.~.A.a.W W f.Y.:X'   sXsXsXsXsXsX",
"sXsXsXsXsX  / :X|.g.Q J Z J ~ V.V.A.V.V.N.:   $ ` `.(.(.Y.'./.)._.(._.)._.^.Y.~.Y.~.K.A.F.B.Y Y Q H.+X$XR   sXsXsXsXsXsX",
"sXsXsXsXsXsX  a.$XS.( ! Z A r.d.d.D.V.A.F.S.$ f.I.G.Y.(.G.K.K.G.G.K.^.J.^.G.^.G.G.K.A.A.V.Y Z Y d.(.$XP O sXsXsXsXsXsXsX",
"sXsXsXsXsXsX  ] >X'.h.` Y Z J p.a.V.V.D.A.f.% a.G.G.G.K.Y.^.(.(.~.G.G.G.G.G.G.G.~.A.V.k.Q L Y ( N.oX$XK   sXsXsXsXsXsXsX",
"sXsXsXsXsXsXsX  _ %X/.g.~ Y H Q a.a.a.a.N.x f.A.D.G.H.G.G.G.G.G.K.K.~.K.G.~.A.D.A.V.h.Q T R E a.Y.@XL $ sXsXsXsXsXsXsXsX",
"sXsXsXsXsXsXsXsXO I #XF.i.i.W J Q Q a.a.a.f.B.S.D.S.G.H.A.F.F.S.F.A.A.A.A.A.V.V.h.p.Q Q r.a.d.I.|.M O sXsXsXsXsXsXsXsXsX",
"sXsXsXsXsXsXsXsXsXO D ,XK.s.i.R Q Q Q g.Q a.a.M.g.g.z.h.m.N.N.N.B.A.A.A.V.h.p.( f.Q i.~ ` g.F.[.n O sXsXsXsXsXsXsXsXsXsX",
"sXsXsXsXsXsXsXsXsXsX& L $XF.~ Q Y i.Q Q a.Q r.a.' j.g.a.a.k.a.d.j.( i.( i.( r.) Y y.) j.h.S.|.c sXsXsXsXsXsXsXsXsXsXsXsX",
"sXsXsXsXsXsXsXsXsXsXsX$ B :X(.g.` i.Y Y Q ) Q i.( Q Q ` a.i.( r.i.( u.R ( y.E y.p.a.h.` Y.5 & sXsXsXsXsXsXsXsXsXsXsXsXsX",
"sXsXsXsXsXsXsXsXsXsXsXsX% < c +XH.) Q Q E ) E Q Y W W r.i.W Q ` E W Q E / t.( f.f.a.A.H.6 sXsXsXsXsXsXsXsXsXsXsXsXsXsXsX",
"sXsXsXsXsXsXsXsXsXsXsXsXsXsXsX6 5 .XF.B.s.` r._ E ! / R Q R R ` Q i.( y.` i.f.p.h.B.2 : sXsXsXsXsXsXsXsXsXsXsXsXsXsXsXsX",
"sXsXsXsXsXsXsXsXsXsXsXsXsXsXsXsXsX4 , 2 a.A.g.h.( d.h.( i.` ` a.( y.f.i.a.Q a.2 : > sX  sXsXsXsXsXsXsXsXsXsXsXsXsXsXsXsX",
"sXsXsXsXsXsXsXsXsXsXsXsXsXsXsXsXsXsXsXsX4 2 > 3 Q N.g.h.k.h.h.a.i.h.a.` W 2 < sXsXsXsXsXsXsXsXsXsXsXsXsXsXsXsXsXsXsXsXsX",
"sXsXsXsXsXsXsXsXsXsXsXsXsXsXsXsXsXsXsXsXsXsXsXsX2 2 , 2 2 2 2 3 < x d.G > sXsXsXsXsXsXsXsXsXsXsXsXsXsXsXsXsXsXsXsXsXsXsX",
"sXsXsXsXsXsXsXsXsXsXsXsXsXsXsXsXsXsXsXsXsXsXsXsXsXsXsXsXsXsXsXsXsX$ 7 3 sXsXsXsXsXsXsXsXsXsXsXsXsXsXsXsXsXsXsXsXsXsXsXsX",
"sXsXsXsXsXsXsXsXsXsXsXsXsXsXsXsXsXsXsXsXsXsXsXsXsXsXsXsXsXsXsXsXsXsX    sXsXsXsXsXsXsXsXsXsXsXsXsXsXsXsXsXsXsXsXsXsXsXsX",
"sXsXsXsXsXsXsXsXsXsXsXsXsXsXsXsXsXsXsXsXsXsXsXsXsXsXsXsXsXsXsXsXsXsXsXsXsXsXsXsXsXsXsXsXsXsXsXsXsXsXsXsXsXsXsXsXsXsXsXsX",
"sXsXsXsXsXsXsXsXsXsXsXsXsXsXsXsXsXsXsXsXsXsXsXsXsXsXsXsXsXsXsXsXsXsXsXsXsXsXsXsXsXsXsXsXsXsXsXsXsXsXsXsXsXsXsXsXsXsXsXsX",
"sXsXsXsXsXsXsXsXsXsXsXsXsXsXsXsXsXsXsXsXsXsXsXsXsXsXsXsXsXsXsXsXsXsXsXsXsXsXsXsXsXsXsXsXsXsXsXsXsXsXsXsXsXsXsXsXsXsXsXsX",
"sXsXsXsXsXsXsXsXsXsXsXsXsXsXsXsXsXsXsXsXsXsXsXsXsXsXsXsXsXsXsXsXsXsXsXsXsXsXsXsXsXsXsXsXsXsXsXsXsXsXsXsXsXsXsXsXsXsXsXsX",
"sXsXsXsXsXsXsXsXsXsXsXsXsXsXsXsXsXsXsXsXsXsXsXsXsXsXsXsXsXsXsXsXsXsXsXsXsXsXsXsXsXsXsXsXsXsXsXsXsXsXsXsXsXsXsXsXsXsXsXsX",
"sXsXsXsXsXsXsXsXsXsXsXsXsXsXsXsXsXsXsXsXsXsXsXsXsXsXsXsXsXsXsXsXsXsXsXsXsXsXsXsXsXsXsXsXsXsXsXsXsXsXsXsXsXsXsXsXsXsXsXsX",
"sXsXsXsXsXsXsXsXsXsXsXsXsXsXsXsXsXsXsXsXsXsXsXsXsXsXsXsXsXsXsXsXsXsXsXsXsXsXsXsXsXsXsXsXsXsXsXsXsXsXsXsXsXsXsXsXsXsXsXsX"
};
