/* XPM */
static char *c88b8069839e4a77ef86fec458626fe3dbOPICUk1XRtCWSO_5[] = {
/* columns rows colors chars-per-pixel */
"60 60 256 2 ",
"   c #020202",
".  c #020709",
"X  c #030A0C",
"o  c #0B0B0C",
"O  c #080807",
"+  c #010C11",
"@  c #061416",
"#  c #131313",
"$  c #151519",
"%  c #17191B",
"&  c #1B1B1C",
"*  c #191315",
"=  c #290000",
"-  c #211D1D",
";  c #041625",
":  c #1D1E22",
">  c #1F1F2B",
",  c #2A1E2A",
"<  c #1A2526",
"1  c #002637",
"2  c #00313D",
"3  c #232323",
"4  c #242828",
"5  c #2C2C2C",
"6  c #232625",
"7  c #322827",
"8  c #2B2C32",
"9  c #2B2532",
"0  c #2E3234",
"q  c gray20",
"w  c #333339",
"e  c #3C3C3C",
"r  c #3A3636",
"t  c #4A0000",
"y  c #4C1E1E",
"u  c #740000",
"i  c #790000",
"p  c #433C3C",
"a  c #503838",
"s  c #344134",
"d  c #002C44",
"f  c #003648",
"g  c #3B3A41",
"h  c #363E45",
"j  c #253E46",
"k  c #003C60",
"l  c #01435C",
"z  c #00535C",
"x  c #3C4447",
"c  c #314A52",
"v  c #2D444D",
"b  c #064B6A",
"n  c #00596B",
"m  c #005675",
"M  c #084B73",
"N  c #375462",
"B  c #2B7279",
"V  c gray26",
"C  c #44444B",
"Z  c #4B4B4C",
"A  c #494646",
"S  c #454A51",
"D  c #4A4A51",
"F  c #494A56",
"G  c #534C55",
"H  c #535353",
"J  c #5A5A5A",
"K  c #55575D",
"L  c #504B4B",
"P  c #645F5F",
"I  c #7D4444",
"U  c #60605F",
"Y  c #535563",
"T  c #595A63",
"R  c #5C5D6B",
"E  c #575A67",
"W  c #4D5262",
"Q  c #5E616D",
"!  c #5D6665",
"~  c #5D6271",
"^  c #5E6876",
"/  c gray39",
"(  c #62636D",
")  c #6C6C6C",
"_  c #62696E",
"`  c #646572",
"'  c #696672",
"]  c #656A75",
"[  c #6A6A75",
"{  c #656579",
"}  c #656B7A",
"|  c #6B6C7B",
" . c #6B6678",
".. c #746D7B",
"X. c #6C737C",
"o. c #6D777A",
"O. c #747474",
"+. c #72727D",
"@. c gray48",
"#. c #7B767D",
"$. c #7C6969",
"%. c #950000",
"&. c #C10000",
"*. c #807676",
"=. c #056A86",
"-. c #007789",
";. c #6D6D82",
":. c #736D83",
">. c #6C7483",
",. c #6E7488",
"<. c #747583",
"1. c #797485",
"2. c #757A85",
"3. c #797A86",
"4. c #747589",
"5. c #747A8A",
"6. c #7C7D8B",
"7. c #797688",
"8. c #7C7D92",
"9. c #757B90",
"0. c #817F8D",
"q. c #7A8186",
"w. c #7C838C",
"e. c #768187",
"r. c #7C8392",
"t. c #778493",
"y. c gray52",
"u. c #82828E",
"i. c #838A8E",
"p. c #89898B",
"a. c #89828E",
"s. c #838492",
"d. c #858A95",
"f. c #898A95",
"g. c #86869B",
"h. c #858B9A",
"j. c #8C8C9A",
"k. c #8C8699",
"l. c #928C9C",
"z. c #8C929C",
"x. c #899197",
"c. c #929396",
"v. c #91929D",
"b. c #9C9C9D",
"n. c #93999B",
"m. c #978C8C",
"M. c #8C8DA1",
"N. c #8D93A1",
"B. c #8D98A0",
"V. c #9394A3",
"C. c #9499A3",
"Z. c #9A9CA5",
"A. c #9B96AA",
"S. c #969CAA",
"D. c #9C9DAB",
"F. c #9995A3",
"G. c #9695AB",
"H. c #A09FAD",
"J. c #A29AA6",
"K. c #9AA2A5",
"L. c #9CA1AD",
"P. c #9EA4B1",
"I. c #A4A4A4",
"U. c #A1A1AE",
"Y. c #ACACAD",
"T. c #A0A9AD",
"R. c #A4A4B2",
"E. c #A5ABB3",
"W. c #ABABB4",
"Q. c #ADADB9",
"!. c #A5ABB9",
"~. c #B2ADBA",
"^. c #A5B1B3",
"/. c #AAB2B4",
"(. c #ACB3BA",
"). c #AFB9BA",
"_. c #B3B3B6",
"`. c #B2B4BC",
"'. c #BBBCBD",
"]. c #B1B9BE",
"[. c #AEAFC1",
"{. c #B4B5C2",
"}. c #BABBC4",
"|. c #BBBBC6",
" X c #B1AFC0",
".X c #C0BAC6",
"XX c #BDC4CA",
"oX c #B9C2C6",
"OX c #C2C3C5",
"+X c #C4C5CC",
"@X c #CACACB",
"#X c #C6C9CD",
"$X c #CCCCD4",
"%X c #CDCDD9",
"&X c #C3C8D0",
"*X c #CCD6D9",
"=X c #D2D2D4",
"-X c #D3D3DB",
";X c #DADBDD",
":X c #D6D9DF",
">X c #DBDBE4",
",X c #D8DDE4",
"<X c #E3DCE5",
"1X c #E6DFE9",
"2X c #DBE4E5",
"3X c #E3E4E5",
"4X c #E5E5EA",
"5X c #E9E9EA",
"6X c #E5E6E9",
"7X c #E9F3EA",
"8X c #F8F8EF",
"9X c #ECECF3",
"0X c #E6E6F2",
"qX c #ECF4F4",
"wX c #F2F2F3",
"eX c #FEFEFE",
"rX c #F9F9F9",
"tX c None",
"yX c black",
"uX c black",
"iX c black",
"pX c black",
"aX c black",
"sX c black",
"dX c black",
"fX c black",
"gX c black",
"hX c black",
"jX c black",
"kX c black",
"lX c black",
"zX c black",
"xX c black",
"cX c black",
"vX c black",
"bX c black",
"nX c black",
"mX c black",
"MX c black",
"NX c black",
"BX c black",
"VX c black",
"CX c black",
"ZX c black",
"AX c black",
"SX c black",
"DX c black",
"FX c black",
"GX c black",
"HX c black",
"JX c black",
"KX c black",
"LX c black",
"PX c black",
"IX c black",
"UX c black",
/* pixels */
"tXtXtXtXtXtXtXtXtXtXtXtXtXtXtXtXtXtXtXtXtXtXtXtXtXtXtXtXtXtXtXtXtXtXtX            tXtXtXtXtXtXtXtXtXtXtXtXtXtXtXtXtXtXtX",
"tXtXtXtXtXtXtXtXtXtXtXtXtXtXtXtXtXtXtXtXtXtXtXtXtXtXtXtXtXtXtXtXtX  e =X@XY.p.p.y.o tXtXtXtXtXtXtXtXtXtXtXtXtXtXtXtXtXtX",
"tXtXtXtXtXtXtXtXtXtXtXtXtXtXtXtXtXtXtXtXtXtXtXtXtXtXtXtXtXtXtXtXZ @X_.@.O./ J / b.y.$ tXtXtXtXtXtXtXtXtXtXtXtXtXtXtXtXtX",
"tXtXtXtXtXtXtXtXtXtXtXtXtXtXtXtXtXtXtXtXtXtXtXtXtXtXtXtXtX    H b.p.@.Z e V V V H b.$ tXtXtXtXtXtXtXtXtXtXtXtXtXtXtXtXtX",
"tXtXtXtXtXtXtXtXtXtXtXtXtXtXtXtXtXtXtXtXtXtXtXtXtXtXtXtXu %.t a O.Z A A V V e r 3 I.Z o tXtXtXtXtXtXtXtXtXtXtXtXtXtXtXtX",
"tXtXtXtXtXtXtXtXtXtXtXtXtXtXtXtXtXtXtXtXtXtXtXtXtXtXtX  i &.u y H V p x e r & & & I./ o tXtXtXtXtXtXtXtXtXtXtXtXtXtXtXtX",
"tXtXtXtXtXtXtXtXtXtXtXtXtXtXtXtXtXtXtXtXtXtXtXtXtXtXtX  = t I $.q V p 0 3 6 # 3 O.O.J o tXtXtXtXtXtXtXtXtXtXtXtXtXtXtXtX",
"tXtXtXtXtXtXtXtXtXtXtXtXtXtXtXtXtXtXtXtXtXtXtXtXtXtXtX  5 r p y.O.6 5 6 # - * & I.J Z o tXtXtXtXtXtXtXtXtXtXtXtXtXtXtXtX",
"tXtXtXtXtXtXtXtXtXtXtXtXtXtXtXtXtXtXtXtXtXtXtXtXtXtXtXq / P 5 x y.y./ o # 3 3 / O.J e O tXtXtXtXtXtXtXtXtXtXtXtXtXtXtXtX",
"tXtXtXtXtXtXtXtXtXtXtXtXtXtXtXtXtXtXtXtXtXtXtXtXtXtX  / @.Z Z & A 5X@X) A # < I.J Z r O tXtXtXtXtXtXtXtXtXtXtXtXtXtXtXtX",
"tXtXtXtXtXtXtXtXtXtXtXtXtXtXtXtXtXtXtXtXtXtXtXtXtXtX5 ) ) A V 3 6 y.=X=X@.O J @.J e 3 O tXtXtXtXtXtXtXtXtXtXtXtXtXtXtXtX",
"tXtXtXtXtXtXtXtXtXtXtXtXtXtXtXtXtXtXtXtXtXtXtXtXtX  J ) H A q 3 O 5 n.@.e L c.J Z r O tXtXtXtXtXtXtXtXtXtXtXtXtXtXtXtXtX",
"tXtXtXtXtXtXtXtXtXtXtXtXtXtXtXtXtXtXtXtXtXtXtXtXtX  H / A e 3 % $ % V V H m.H A q 6 O tXtXtXtXtXtXtXtXtXtXtXtXtXtXtXtXtX",
"tXtXtXtXtXtXtXtXtXtXtXtXtXtXtXtXtXtXtXtXtXtXtXtXtX  J P x e 4 $ # 4 e J Y.Z A 5 e q & tXtXtXtXtXtXtXtXtXtXtXtXtXtXtXtXtX",
"tXtXtXtXtXtXtXtXtXtXtXtXtXtXtXtXtXtXtXtXtXtXtXtXtX  J o.S q - 5 Z *.;XI.A e 5 & I.O.J o tXtXtXtXtXtXtXtXtXtXtXtXtXtXtXtX",
"tXtXtXtXtXtXtXtXtXtXtXtXtXtXtXtXtXtXtXtXtXtXtXtXtX  A Y.i.A e i.5XY.e e q q 5 & O.4 Z o tXtX    + @ @ O   tXtXtXtXtXtXtX",
"tXtXtXtXtXtXtXtXtXtXtXtXtXtXtXtXtXtXtXtXtXtXtXtXtXtX  J I.=X5Xb.r q q q q 5 & # A Z A o tXtX  1 k =.B 5   tXtXtXtXtXtXtX",
"tXtXtXtXtXtXtXtXtXtXtXtXtXtXtXtXtXtXtXtXtXtXtXtXtXtXtX  X < q 5 5 5 0 5 &       & < O tXtX  1 b l c 5   tXtXtXtXtXtXtXtX",
"tXtXtXtXtXtXtXtXtXtXtXtXtXtXtXtXtXtXtXtXtXtXtXtXtXtXtX  z m ; O o # # #   tXtXtXO 5 o O   ; =.=.M N 7   tXtXtXtXtXtXtXtX",
"tXtXtXtXtXtXtXtXtXtXtXtXtXtXtXtXtXtXtXtXtXtXtXtXtXtXtX  2 m l j q   O & O O O O O q A O.8 l l f c 5   tXtXtXtXtXtXtXtXtX",
"tXtXtXtXtXtXtXtXtXtXtXtXtXtXtXtXtXtXtXtXtXtXtXtXtXtX  d k f v r   tXo H I.c.O.A & A # ; 1 d -.n x 7   tXtXtXtXtXtXtXtXtX",
"tXtXtXtXtXtXtXtXtXtXtXtXtXtXtXtXtXtXtXtXtXtXtXtXtXtX  2 -.n v q   tX5 y.r q 5 5 O.e O   1 b l c 6 O tXtXtXtXtXtXtXtXtXtX",
"tXtXtXtXtXtXtXtXtXtXtXtXtXtXtXtXtXtXtXtXtXtXtXtXtXtX  . @ + X O tXtXo Z b.@.O.H J &     . + X O O tXtXtXtXtXtXtXtXtXtXtX",
"tXtXtXtXtXtXtXtXtXtXtXtXtXtXtXtXtXtXtXtXtXtXtXtXtXtXtXtXtXtXtXtXtXtX$ W e s q , 6 3.# tXtXtXtXtXtXtXtXtXtXtXtXtXtXtXtXtX",
"tXtXtXtXtXtXtXtXtXtXtXtXtXtXtXtXtXtXtXtXtXtXtXtXtXtXtXtXtXtXtXtXtX: Q ] Q ( ( } #.).Y.6 tXtXtXtXtXtXtXtXtXtXtXtXtXtXtXtX",
"tXtXtXtXtXtXtXtXtXtXtXtXtXtXtXtXtXtXtXtXtXtXtXtXtXtXtXtXtXtXtXtX6 ~ X.{ ..<.<.t.f.`.%X5 tXtXtXtXtXtXtXtXtXtXtXtXtXtXtXtX",
"tXtXtXtXtXtXtXtXtXtXtXtXtXtXtXtXtXtXtXtXtXtXtXtXtXtXtXtXtXtX  w ` +.] | >.7.7.6.f.R.=X_.5 tXtXtXtXtXtXtXtXtXtXtXtXtXtXtX",
"tXtXtXtXtXtXtXtXtXtXtXtXtXtXtXtXtXtXtXtXtXtXtXtXtXtXtXtX  w Y ] <.` Q } >.6.6.6.0.K.@XwXr tXtXtXtXtXtXtXtXtXtXtXtXtXtXtX",
"tXtXtXtXtXtXtXtXtXtXtXtXtXtXtXtXtXtXtXtXtXtXtXtXtX    h D ` r.<.} R R } <.0.s.r.6.z.{.5XY.5 tXtXtXtXtXtXtXtXtXtXtXtXtXtX",
"tXtXtXtXtXtXtXtXtXtXtXtXtXtXtXtXtXtXtXtXtXtX  O h C S | s.w.7. .E Y ( +.<.r.s.s.h.j.U.=XwXI.r tXtXtXtXtXtXtXtXtXtXtXtXtX",
"tXtXtXtXtXtXtXtXtXtXtXtXtXtXtXtXtXtXtX  o h g C <.s.6.6.5.5.] E Y Y ' 2.6.r.f.f.f.N.v.Q.2XrXI.w tXtXtXtXtXtXtXtXtXtXtXtX",
"tXtXtXtXtXtXtXtXtXtXtXtXtXtXtXtXtX$ e g C w.u.r.6.6.7.<.>.| R K E R ' 2.w.u.j.f.g.z.z.V.|.3XrXZ.q tXtXtXtXtXtXtXtXtXtXtX",
"tXtXtXtXtXtXtXtXtXtXtXtXtXtX# w g S f.d.u.6.5.4.5.<.<.>.| ( R E E ` | X.q.u.j.x.M.c.v.z.A..X6XrXI.e tXtXtXtXtXtXtXtXtXtX",
"tXtXtXtXtXtXtXtXtXtXtXtX& w S h.f.u.6.5.X.<.;.+.>.| | | ` R R R ` [ >.<.u.h.j.j.V.M.l.N.j.D.XX2XeXY.J A tXtXtXtXtXtXtXtX",
"tXtXtXtXtXtXtXtXtXtX3 0 K V.h.6.>.+.<.| X.| | | | ' ` Q R ~ ` ( ~ | 7.7.h.N.j.V.b.V.V.v.M.V.E.#X1XeXeX'.V tXtXtXtXtXtXtX",
"tXtXtXtXtXtXtXtXtX& ( R.z.6.<.<.>.| X.| ..| ] [ Q R Q ~ _ ` ( ` } <.6.w.v.j.v.A.Z.Z.Z.Z.Z.U.~.+X:XwXeXeX'.q tXtXtXtXtXtX",
"tXtXtXtXtXtXtXtX& ` D.s.6.<.>.| | | | [ | [ ^ ] _ ` [ _ ` ' [ | <.w.6.f.F.j.Z.D.Z.D.L.`.OX*X4X5X9XrXeXeXeXOX5 tXtXtXtXtX",
"tXtXtXtXtXtXtX# ' Z.w.2.<.| | >.| | [ | >.O.[ | | | | | X.X.<.2.2.w.f.j.F.V.D.^.H./.{.#X>X0XrXeXeXeXeXeXeXeX@X5 tXtXtXtX",
"tXtXtXtXtXtX# ' V.6.[ { >.X.;.| | >.| <.<.;.O.>.<.>.6.3.6.6.6.6.6.f.j.C.C.U.L.E.~.}.#X>X3X8XeXeXeXeXeXeXrXqXeXOX  tXtXtX",
"tXtXtXtXtX  ' L.h.5.g 8 <.| [ | +.O.>.<.<.<.<.<.u.7.<.r.u.s.d.f.j.v.F.C.A.D.E.E.}.{.*X<X7XrXeXeXeXeXeXeXwX<X7X@X& tXtXtX",
"tXtXtXtXtXO 6.Z.q.q.g 5 | [ | >.<.<.<.<.u.<.d.7.f.w.d.s.f.h.z.F.v.C.V.J.D.R.R.{._.$X;X>X5XrXeXeXeXeXeXeXwX-X-XwX@X  tXtX",
"tXtXtXtX  y.).j.1.<.g $ F } | | X.<.4.q.u.u.j.s.N.f.v.v.V.v.V.D.Z.F.L.D.R.D.(./.}.#X2X,X3XqXrXeXeXeXeXrX2X}.|.5X=X# tXtX",
"tXtXtXtX  f.R.w.2.<.Y : : S w 3 3.f.| % 6.8.V.j.v.N.C.V.D.D.Z.C.A.U.D.U.D.R.^.(.{.&X<X>X3X5XrXeXeXeXrX8X-XZ.F.-XOXo tXtX",
"tXtXtXtX  u.V.3.<.>.] E 8 O $ G d.s.6.O o $ 3.S.8 O.U.D.L.D.D.D.D.L.Z.Z.L.L.W.R.{.#X>X>X>X3X0X9XwXwX9X0X+Xf.k.|.>X{.O tX",
"tXtXtX  p.R.d.2.| | | ' ` ( ` 2.j.u.u.+.# ^.5 $   O.P.D.U.R.T q q.D.U.D.C.T 5 E.{.}.#X;X>X2X3X3X3X3X6X,X_.h.r.U.%X|.O tX",
"tXtXtX  D.{.u.<.>.X.| ] } <.<.s.f.u.j.r.o 4 '.;X5 +.U.L.Z.L.4.9 w f.U.C.W & R Q.].{..X$X;X;X>X>X>X4XwXrX6XQ.e.v.$X}.O tX",
"tXtXtX  b.Q.w.<.,.;.[ | >.>.<.u.s.f.h.a.O   0 J # O.R.D.H.D.Z.<.w $ : & & T L.{. X}.OX$X%X;X>X>X>X9XeXeXeX-Xs.z.XXW.O tX",
"tXtXtX  Z.].h.<.X.X.| [ | <.<.s.f.d.z.f.' O > G # <.R.L.D.H.U.Z.f.+.<.+.6.V.(._.{.{.oX$X-X$X-X%X%X3XrXeXeX:Xr.j.}.Y.O tX",
"tXtXtX  D.XXh.<.:.| | [ ] } 2.w.f.g.d.F.j.+.& $   +.R.D.L.D.D.L.U.R.R.R.U.R.U._.{.}.{.}.XX|.XX|.`.+X4XeXwXQ.<.j.}.W.O tX",
"tXtXtX  Y.=Xj.5.5.+.] { ] | <.7.u.d.f.z.F.D.+.( ' h.P.D.D.Z.Z.D.U.D.U.D.U.D.L.L./.Q.{.{.'.[.`.[.!.W.{.}.R.6.2.V.D.x tXtX",
"tXtXtXtXA W.D.w.3.>.} ' [ | <.<.u.d.h.V.v.C.P.L.R.D.L.D.D.D.D.H.D.L.D.D.S.L.L.D.L.D.E.E._.{.{.(.E.D.V.s.;.{ 2.A.j.O tXtX",
"tXtXtXtX  n.`.f.6.5.:.| | X.| <.q.s.u.j.v.z.S.Z.D.U.D.U.D.D.D.D.D.D.D.D.S.R.D.D.H.Z.L.D.R.R.R.L.Z.N.s.X.` { w.R.f.O tXtX",
"tXtXtXtX  b.$XL.8.<.<.:.| X.| X.2.u.i.s.z.j.V.Z.F.U.S.Z.H.H.L.D.Z.Z.R.Z.U.D.Z.D.D.Z.D.Z.C.C.C.j.h.h.<.` Q ;.z.c.C tXtXtX",
"tXtXtXtXtXJ ~.XXV.6.6.<.| | >.| <.5.i.s.f.j.j.C.V.C.Z.C.D.Z.S.L.D.Z.D.D.Z.Z.C.D.C.C.Z.C.V.C.x.h.s.3.| Q ] 8.Z.#.  tXtXtX",
"tXtXtXtXtX  f.-X`.V.6.<.>.<.+.+.<.>.6.u.f.f.j.z.V.z.F.V.V.C.C.D.D.S.V.F.C.V.n.V.C.V.v.B.f.j.d.s.6.} ~ ` 5.v.p.D tXtXtXtX",
"tXtXtXtXtXtX! `.$X{.F.6.3.7.| | <.<.<.w.w.8.h.j.z.j.v.V.v.Z.G.V.C.V.C.N.F.M.v.M.z.l.j.x.s.0.0.3.>.} } 7.h.V.`   tXtXtXtX",
"tXtXtXtXtXtXtXT {.-X`.F.h.w.3.| >.>.<.5.<.<.q.d.f.h.x.l.z.z.z.z.V.N.v.z.c.h.h.f.f.g.d.w.6.6.<.X.>.4.6.f.V.r.x   tXtXtXtX",
"tXtXtXtXtXtXtXtXU }.-X+XE.V.s.7.X.>.X.>.+.9.<.4.6.6.d.s.f.s.h.h.d.x.g.s.f.d.g.s.w.6.<.7.,.<.+.,.<.6.s.j.u.D O tXtXtXtXtX",
"tXtXtXtXtXtXtXtXtXH K.`.$X{.Z.V.8.6.3.>...4.X.>.<.1.5.5.6.6.6.6.0.6.w.w.g.6.7.6.4.>.X.>.:.X.2.6.s.f.q.[ D   tXtXtXtXtXtX",
"tXtXtXtXtXtXtXtXtXtX  G W.).#X{.T.V.f.s.6.,...>.,.X.<.X.X.+.>.<.<.>.<.o.7.X.:.X.;.O.3.<.<.r.d.x.q.+.C     tXtXtXtXtXtXtX"
};
