/* XPM */
static char *c88b8069839e4a77ef86fec458626fe3dbOPICUk1XRtCWSO_2[] = {
/* columns rows colors chars-per-pixel */
"60 60 256 2 ",
"   c #010101",
".  c #040609",
"X  c #0B0B0B",
"o  c #080606",
"O  c #1C0000",
"+  c #0E0E10",
"@  c #131414",
"#  c #1B1B1B",
"$  c #181819",
"%  c #270E0E",
"&  c #1E1E24",
"*  c #232324",
"=  c #2B2B2C",
"-  c #2A2425",
";  c #2C2C34",
":  c #232930",
">  c gray20",
",  c #3A3A3A",
"<  c #35363A",
"1  c #332D2A",
"2  c #421517",
"3  c #7D0000",
"4  c #730A0A",
"5  c #6E1416",
"6  c #791717",
"7  c #680101",
"8  c #7A1E22",
"9  c #463838",
"0  c #782528",
"q  c #7A373C",
"w  c #6D3232",
"e  c #363646",
"r  c #6F3743",
"t  c #3A4242",
"y  c #4B4B4B",
"u  c #484549",
"i  c #584C56",
"p  c #535353",
"a  c #53535A",
"s  c #5B5B5B",
"d  c #575959",
"f  c #4D5156",
"g  c #744F54",
"h  c #5D5C6C",
"j  c #555864",
"k  c #5F5F70",
"l  c #685C69",
"z  c #765B68",
"x  c #7D5D71",
"c  c #5C626C",
"v  c #5B6172",
"b  c #646363",
"n  c #63646E",
"m  c #6B6B6C",
"M  c #68656A",
"N  c #77666B",
"B  c #636373",
"V  c #696975",
"C  c #656B7A",
"Z  c #6C6D7B",
"A  c #656875",
"S  c #756C7A",
"D  c #776875",
"F  c #6D727E",
"G  c #6A7375",
"H  c #757475",
"J  c #72737E",
"K  c #73797B",
"L  c #7B7B7C",
"P  c #7D747E",
"I  c #850101",
"U  c #8D0000",
"Y  c #841616",
"T  c #A60101",
"R  c #B70000",
"E  c #872326",
"W  c #853537",
"Q  c #811920",
"!  c #C70000",
"~  c #DA0000",
"^  c #D60000",
"/  c #E40000",
"(  c #FD0000",
")  c #F50000",
"_  c #9C464A",
"`  c #884854",
"'  c #954C53",
"]  c #83535D",
"[  c #97545A",
"{  c #85444D",
"}  c #A35559",
"|  c #8A5864",
" . c #9A5F69",
".. c #A75A63",
"X. c #856B6C",
"o. c #906A76",
"O. c #A96469",
"+. c #A76973",
"@. c #6D6D83",
"#. c #716D82",
"$. c #6D7383",
"%. c #6F7988",
"&. c #737583",
"*. c #797683",
"=. c #747A84",
"-. c #7A7A85",
";. c #74758B",
":. c #747A8A",
">. c #7B7C8B",
",. c #7E7688",
"<. c #7C7D93",
"1. c #817A89",
"2. c #847785",
"3. c #957885",
"4. c #A77985",
"5. c #7C818B",
"6. c #7C8283",
"7. c #7C8291",
"8. c #7A8493",
"9. c #838384",
"0. c #82828E",
"q. c #8B8B8C",
"w. c #89858B",
"e. c #96868D",
"r. c #838493",
"t. c #8B8593",
"y. c #838994",
"u. c #8A8B96",
"i. c #858A99",
"p. c #8C8D9B",
"a. c #84849C",
"s. c #928E9B",
"d. c #998C97",
"f. c #8C919D",
"g. c #8C9296",
"h. c #939394",
"j. c #92929D",
"k. c #9B949D",
"l. c #9B9C9D",
"z. c #859085",
"x. c #A8858C",
"c. c #B3858B",
"v. c #A88A96",
"b. c #BA8994",
"n. c #A7949C",
"m. c #B7969D",
"M. c #A0A09D",
"N. c #908FA1",
"B. c #8D93A2",
"V. c #9394A3",
"C. c #9599A4",
"Z. c #9A9BA5",
"A. c #959CAA",
"S. c #9C9DAA",
"D. c #9796A8",
"F. c #8C8DA0",
"G. c #A399A6",
"H. c #BB9CA6",
"J. c #9CA2AA",
"K. c #9AA3A9",
"L. c #A2A2AE",
"P. c #A6A6AA",
"I. c #A4A5B3",
"U. c #ACADBA",
"Y. c #ABACB6",
"T. c #B5A9B6",
"R. c #BBA7B2",
"E. c #ADB2BD",
"W. c #B4B3B5",
"Q. c #B3B3BD",
"!. c #BAB8BA",
"~. c #BAACAB",
"^. c #C68992",
"/. c #C0C0BF",
"(. c #B4B4C1",
"). c #BCBCC4",
"_. c #B7BBC4",
"`. c #B4ABC1",
"'. c #BCC2CA",
"]. c #C4C3CC",
"[. c #CCCCCD",
"{. c #C6C4C8",
"}. c #CBCCD3",
"|. c #C6C9D2",
" X c #CDD2D5",
".X c #CFD6DB",
"XX c #D3D3DC",
"oX c #DBDADC",
"OX c #D3D5D5",
"+X c #D9CEDB",
"@X c #DBDBE3",
"#X c #E3E3E4",
"$X c #ECECEE",
"%X c #E6E7EB",
"&X c #EBEBF3",
"*X c #F4EDF6",
"=X c #ECF5F6",
"-X c #FEFEFE",
";X c #F6F5F6",
":X c #FBF4EF",
">X c #DDE7E9",
",X c None",
"<X c black",
"1X c black",
"2X c black",
"3X c black",
"4X c black",
"5X c black",
"6X c black",
"7X c black",
"8X c black",
"9X c black",
"0X c black",
"qX c black",
"wX c black",
"eX c black",
"rX c black",
"tX c black",
"yX c black",
"uX c black",
"iX c black",
"pX c black",
"aX c black",
"sX c black",
"dX c black",
"fX c black",
"gX c black",
"hX c black",
"jX c black",
"kX c black",
"lX c black",
"zX c black",
"xX c black",
"cX c black",
"vX c black",
"bX c black",
"nX c black",
"mX c black",
"MX c black",
"NX c black",
"BX c black",
"VX c black",
"CX c black",
"ZX c black",
"AX c black",
"SX c black",
"DX c black",
"FX c black",
"GX c black",
"HX c black",
"JX c black",
"KX c black",
"LX c black",
"PX c black",
"IX c black",
"UX c black",
/* pixels */
",X,X,X,X,X,X,X,X,X,X,X,X,X,X,X,X,X,X,X,X,X,X,X  f A B Z &.&.>.C.|. Xw.  ,X,X,X,X,X,X,X,X,X,X,X,X,X,X,X,X,X,X,X,X,X,X,X,X",
",X,X,X,X,X,X,X,X,X,X,X,X,X,X,X,X,X,X,X,X,X,X,X  j V B $.:.-.;.r.Y.}.}.z.  ,X,X,X,X,X,X,X,X,X,X,X,X,X,X,X,X,X,X,X,X,X,X,X",
",X,X,X,X,X,X,X,X,X,X,X,X,X,X,X,X,X,X,X,X,X,X  a C Z V Z *.:.:.7.f.Y. X}.w.  ,X,X,X,X,X,X,X,X,X,X,X,X,X,X,X,X,X,X,X,X,X,X",
",X,X,X,X,X,X,X,X,X,X,X,X,X,X,X,X,X,X,X,X  X h >.$.B A C J >.>.>.5.p.I.[.[.0.    ,X,X,X,X,X,X,X,X,X,X,X,X,X,X,X,X,X,X,X,X",
",X,X,X,X,X,X,X,X,X,X,X,X,X,X,X,X,X,X,X  h A r.:.A h B V Z &.:.>.0.r.p.A.(.].q.0.o ,X,X,X,X,X,X,X,X,X,X,X,X,X,X,X,X,X,X,X",
",X,X,X,X,X,X,X,X,X,X,X,X,X,X,X,X,X  $ n i.r.>.G h h A V Z &.>.y.r.r.y.y.C.I.].].q.$   ,X,X,X,X,X,X,X,X,X,X,X,X,X,X,X,X,X",
",X,X,X,X,X,X,X,X,X,X,X,X,X,X,X,X@ s j u.>.%.&.V h j n Z F *.r.i.0.7.y.u.r.u.A.Q.}.p.w.$ ,X,X,X,X,X,X,X,X,X,X,X,X,X,X,X,X",
",X,X,X,X,X,X,X,X,X,X,X,X,X,X  & j g.>.%.&.$.V B h c n Z $.:.7.r.u.r.r.F.8.w.p.D.E.XX&Xl.* ,X,X,X,X,X,X,X,X,X,X,X,X,X,X,X",
",X,X,X,X,X,X,X,X,X,X,X,X,X* f a r.*.F $.Z C B B c n M V Z =.5.r.p.u.i.f.u.r.i.p.A.!.XX-Xl.> ,X,X,X,X,X,X,X,X,X,X,X,X,X,X",
",X,X,X,X,X,X,X,X,X,X,X,X- n C.>.-.%.Z C V v B B c n A V J >.0.u.p.p.p.B.p.a.i.r.f.Z.).@X-Xl.= ,X,X,X,X,X,X,X,X,X,X,X,X,X",
",X,X,X,X,X,X,X,X,X,X1 9 z G.1.,.&.F V A n n V k n c V V -.5.0.u.p.p.f.C.p.j.p.a.u.r.S.'.>X-Xh.= ,X,X,X,X,X,X,X,X,X,X,X,X",
",X,X,X,X,X,X,X,X,X2 ] m.4.o.P H A V A n B V n B V n V K >.1.w.p.p.j.j.Z.V.V.h.C.C.C.D.(. X$X-Xh.> ,X,X,X,X,X,X,X,X,X,X,X",
",X,X,X,X,X,X,X,X2 { ..{ ` | D N M B h A V n v m C Z Z &.,.1.t.d.s.k.k.D.D.J.L.I.E.E.].}.oX$X-X-XM ,X,X,X,X,X,X,X,X,X,X,X",
",X,X,X,X,X,X,XO q _ Y 3 4 W | z V l n A m B V V V K &.S 2.t.e.e.e.d.k.Z.G.Y.(.U.).}.%X;X-X-X-X-Xh.= ,X,X,X,X,X,X,X,X,X,X",
",X,X,X,X,X,X,X2 0 Y R ~ 3 4 q g z n V V V C F Z &.H -.2.2.3.x.x.x.x.v.n.P.E.(.(.}.#X=X-X-X-X-X-X-XH   ,X,X,X,X,X,X,X,X,X",
",X,X,X,X,X,XO w E U ~ / R U 5 ] z N V m Z J G >.-.*.2.3.+. .[ } ..O.c.H.T.T.Q.'.@X$X-X-X-X-X-X-X-Xh.= ,X,X,X,X,X,X,X,X,X",
",X,X,X,X,X,X% r E R ( ( ) ! 5 ` z V V Z *.K &.0.0.t.3.+.' 6 3 U I 4 _ b.H.!.T.].&X:X-X-X-X-X-X-X-X-X9.  ,X,X,X,X,X,X,X,X",
",X,X,X,X,Xo r +.W 3 ! ~ U 3 5 | N l S >.*.y.r.u.t.w.4.' 6 3 ! ( ~ I 4 _ H.R.W.].=X*X-X-X-X-X-X-X-X-X9.  ,X,X,X,X,X,X,X,X",
",X,X,X,X,X  i o.` Q R ! 3 5 q | l @ A %.u.0.0.w.t.v.4.0 3 T ^ ( / T I 8 ^.H.T.].#X$X-X-X-X-X-X-X-X-X9.o ,X,X,X,X,X,X,X,X",
",X,X,X,X,X  i o. ._ Y 7 5 q ] X.M o X # >.-.$ -.j.v.4.0 R ( ( ( ( ) ! 8 ^.~.T.{.#X$X=X-X-X-X-X-X;X%X*Xw.  ,X,X,X,X,X,X,X",
",X,X,X,X  y P 2.X.| [ ` ` ] z D &.l $ {.* @   &.e.x.c.W 3 T / ( / T I 6 ^.H.T.).+X&X$X:X*X-X:X*X@X[.#Xw.  ,X,X,X,X,X,X,X",
",X,X,X,X  a 1.-.S D x z z l D ,.-.*.$ XXoXoX# -.d.e.x.' 6 3 ! ( ~ I 6 } m.R.W.(.{..X#X=X$X$X%XoX_.(.@Xw.  ,X,X,X,X,X,X,X",
",X,X,X,X  j *.S S D S P N D H -.u.J o & * * o &.G.d.v.c.' 6 3 U 3 6 } b.m.T.!.`.)._.]. X X[.).U.D.P.XX9.  ,X,X,X,X,X,X,X",
",X,X,X,X  j >.*.&.F Z Z V Z &.*.r.-.      : . 6.V.s.d.v.x.+.O.O.O.O.c.n.G.T.).W.(.(.(.Q.!.]..X].S.K.}.P   ,X,X,X,X,X,X,X",
",X,X,X,X  L f.=.S S Z Z Z $.;.5.r.-.    ; j X &.Z.s.l.k.v.x.c.c.x.c.v.n.L.P.Q.E.).(.(.U._.oX;X;XOXQ.].H   ,X,X,X,X,X,X,X",
",X,X,X,X  Z.C.J Z $.;.Z V Z &.1.r.=.. ; j k + 5.D.Z.Z.Z.G.G.n.n.n.d.k.S.L.S.I.Y.U.Y.Y.J.E.$X-X-X*X].'.G   ,X,X,X,X,X,X,X",
",X,X,X,X  Q.U.;.$.F Z Z J J *.5.u.J X e B B + =.Z.V.D.S.D.G.G.k.Z.G.S.S.L.D.S.I.S.K.S.C.L.oX;X-X#X_.).V   ,X,X,X,X,X,X,X",
",X,X,X,X  /.XXi.&.&.J Z F C J r.r.Z . j B v + 5.C.D.S.S.S.Z.S.S.S.S.S.G.S.S.D.L.A.A.D.V.j.Y.}.XXQ.J.Q.m   ,X,X,X,X,X,X,X",
",X,X,X,X,Xp Q.I.=.*.&.Z Z Z J 5.0.>.d ; h v + 6.D.C.S.S.S.S.S.G.S.S.S.L.S.L.A.S.C.D.B.B.p.u.p.p.7.p.Q.n   ,X,X,X,X,X,X,X",
",X,X,X,X,X  M.[.t.&.;.F Z &.Z ;.0.r.5.o h A + -.A.Z.A.Z.A.S.S.J.J.S.S.S.K.S.A.Z.C.Z.s.N.y.>.Z C F f.-.< ,X,X,X,X,X,X,X,X",
",X,X,X,X,X  ~.$XL.>.&.%.$.Z Z @.5.0.-.u ; ;   &.C.Z.V.Z.C.A.L.S.S.S.I.D.Z.D.S.Z.C.B.s.f.>.*.A C ;.Z.p   ,X,X,X,X,X,X,X,X",
",X,X,X,X,X,XM }. Xf.#.*.;.Z &.F =.0.r.r.t o < r.V.C.f.S.C.V.A.D.Z.C.D.Z.D.D.Z.Z.F.p.u.r.=.C C V 7.J , ,X,X,X,X,X,X,X,X,X",
",X,X,X,X,X,X  l.;XU.>.&.*.J F F Z >.>.0.y.X :.V.p.j.p.C.C.f.V.V.V.V.B.j.C.C.j.p.i.t.>.*.V v F Z f.y   ,X,X,X,X,X,X,X,X,X",
",X,X,X,X,X,X,Xm oX#XL.>.;.=.F F J $.&.-.a < :.u.p.p.p.p.j.j.j.s.j.C.B.p.g.p.a.7.0.:.=.@.V C =.r.&., ,X,X,X,X,X,X,X,X,X,X",
",X,X,X,X,X,X,X,Xm  X XD.:.=.>.$.Z J =.Z = -.r.7.i.p.p.p.p.p.p.p.p.y.i.u.7.t.5.:.-.@.&.$.&.=.>.Z < ,X,X,X,X,X,X,X,X,X,X,X",
",X,X,X,X,X,X,X,X  6.;X).p.;.-.$.Z F =.;.;.&.>.=.>.7.r.r.y.i.y.i.r.>.8.r.:.>.=.#.F F %.&.*.>.r.; ,X,X,X,X,X,X,X,X,X,X,X,X",
",X,X,X,X,X,X,X,X,Xm #X$X(.u.5.=.>.;.F F ;.=.;.;.&.&.&.&.=.>.-.:.:.-.;.-.$.=.@.F $.J ;.&.5.:.F < ,X,X,X,X,X,X,X,X,X,X,X,X",
",X,X,X,X,X,X,X,X,X,XM [.{.).u.<.-.;.=.@.L J &.:.;.J =.=.&.&.&.&.=.;.F $.K Z V @.K ;.:.>.n M * ,X,X,X,X,X,X,X,X,X,X,X,X,X",
",X,X,X,X,X,X,X,X,X,X,X  p }.).Z.5.:.=.&.-.-.%.S %.F S =.;.$.;.&.J #.F F @.&.G *.;.9.Z Z #   ,X,X,X,X,X,X,X,X,X,X,X,X,X,X",
",X,X,X,X,X,X,X,X,X,X,X,X,Xy [.W.U.h.r.8.*.&.&.-.&.-.:.:.>.>.=.=.;.$.>.&.*.=.8.r.>.:.u.# ,X,X,X,X,X,X,X,X,X,X,X,X,X,X,X,X",
",X,X,X,X,X,X,X,X,X,X,X,X,X,Xo < {.Y.D.V.r.8.r.-.=.=.*.*.*.*.*.*.>.r.r.r.V.p.h.<.w.@ L $ ,X,X,X,X,X,X,X,X,X,X,X,X,X,X,X,X",
",X,X,X,X,X,X,X,X,X,X,X,X,X,X,X,XX X # I.I.h.r.p.V.p.p.p.p.p.f.V.S.L.K.A.K.>.X @ X ,XX   ,X,X,X,X,X,X,X,X,X,X,X,X,X,X,X,X",
",X,X,X,X,X,X,X,X,X,X,X,X,X,X,X,X,X,X,XX X X X y.I.C.Z.A.V.V.C.J.Y.)._.p.X X ,X,X,X,X,X  ,X,X,X,X,X,X,X,X,X,X,X,X,X,X,X,X",
",X,X,X,X,X,X,X,X,X,X,X,X,X,X,X,X,X,X,X,X,X,X,X* @ @ X -.b @ + X p  Xl.# ,X,X,X,X,X,X,X,X,X,X,X,X,X,X,X,X,X,X,X,X,X,X,X,X",
",X,X,X,X,X,X,X,X,X,X,X,X,X,X,X,X,X,X,X,X,X,X,X,X,X,X,X$ $ ,X,X,X,Xa Z.  ,X,X,X,X,X,X,X,X,X,X,X,X,X,X,X,X,X,X,X,X,X,X,X,X",
",X,X,X,X,X,X,X,X,X,X,X,X,X,X,X,X,X,X,X,X,X,X,X,X,X,X,X,X,X,X,X,X,X,X$   ,X,X,X,X,X  ,X,X,X,X,X,X,X,X,X,X,X,X,X,X,X,X,X,X",
",X,X,X,X,X,X,X,X,X,X,X,X,X,X,X,X,X,X,X,X,X,X,X,X,X,X,X,X,X,X,X,X,X,X,X  ,X,X,X,XX -.$ ,X,X,X,X,X,X,X,X,X,X,X,X,X,X,X,X,X",
",X,X,X,X,X,X,X,X,X,X,X,X,X,X,X,X,X,X,X,X,X,X,X,X,X,X,X,X,X,X,X,X,X,X,X,X,X,X,X,X,X= ,X,X,X,X,X,X,X,X,X,X,X,X,X,X,X,X,X,X",
",X,X,X,X,X,X,X,X,X,X,X,X,X,X,X,X,X,X,X,X,X,X,X,X,X,X,X,X,X,X,X,X,X,X,X,X,X,X,X,X,X,X,X,X,X,X,X,X,X,X,X,X,X,X,X,X,X,X,X,X",
",X,X,X,X,X,X,X,X,X,X,X,X,X,X,X,X,X,X,X,X,X,X,X,X,X,X,X,X,X,X,X,X,X,X,X,X    ,X,X,X,X,X,X,X,X,X,X,X,X,X,X,X,X,X,X,X,X,X,X",
",X,X,X,X,X,X,X,X,X,X,X,X,X,X,X,X,X,X,X,X,X,X,X,X,X,X,X,X,X,X,X,X,X,X,X* H h o ,X,X,X,X,X,X,X,X,X,X,X,X,X,X,X,X,X,X,X,X,X",
",X,X,X,X,X,X,X,X,X,X,X,X,X,X,X,X,X,X,X,X,X,X,X,X,X,X,X,X,X,X,X,X,X,X,X- '.I.o ,X,X,X,X,X,X,X,X,X,X,X,X,X,X,X,X,X,X,X,X,X",
",X,X,X,X,X,X,X,X,X,X,X,X,X,X,X,X,X,X,X,X,X,X,X,X,X,X,X,X,X,X,X,X,X,X,X# f a ,X,X,X,X,X,X,X,X,X,X,X,X,X,X,X,X,X,X,X,X,X,X",
",X,X,X,X,X,X,X,X,X,X,X,X,X,X,X,X,X,X,X,X,X,X,X,X,X,X,X,X,X,X,X,X,X,X,X,X  ,X,X,X,X,X,X,X,X,X,X,X,X,X,X,X,X,X,X,X,X,X,X,X",
",X,X,X,X,X,X,X,X,X,X,X,X,X,X,X,X,X,X,X,X,X,X,X,X,X,X,X,X,X,X,X,X,X,X,X,X,X,X,X,X,X,X,X,X,X,X,X,X,X,X,X,X,X,X,X,X,X,X,X,X",
",X,X,X,X,X,X,X,X,X,X,X,X,X,X,X,X,X,X,X,X,X,X,X,X,X,X,X,X,X,X,X,X,X,X,X,X,X,X,X,X,X,X,X,X,X,X,X,X,X,X,X,X,X,X,X,X,X,X,X,X",
",X,X,X,X,X,X,X,X,X,X,X,X,X,X,X,X,X,X,X,X,X,X,X,X,X,X,X,X,X,X,X,X,X,X,X,X,X,X,X,X,X,X,X,X,X,X,X,X,X,X,X,X,X,X,X,X,X,X,X,X",
",X,X,X,X,X,X,X,X,X,X,X,X,X,X,X,X,X,X,X,X,X,X,X,X,X,X,X,X,X,X,X,X,X,X,X,X,X,X,X,X,X,X,X,X,X,X,X,X,X,X,X,X,X,X,X,X,X,X,X,X",
",X,X,X,X,X,X,X,X,X,X,X,X,X,X,X,X,X,X,X,X,X,X,X,X,X,X,X,X,X,X,X,X,X,X,X,X,X,X,X,X,X,X,X,X,X,X,X,X,X,X,X,X,X,X,X,X,X,X,X,X",
",X,X,X,X,X,X,X,X,X,X,X,X,X,X,X,X,X,X,X,X,X,X,X,X,X,X,X,X,X,X,X,X,X,X,X,X,X,X,X,X,X,X,X,X,X,X,X,X,X,X,X,X,X,X,X,X,X,X,X,X"
};
