/* XPM */
static char *c88b8069839e4a77ef86fec458626fe3dbOPICUk1XRtCWSO_3[] = {
/* columns rows colors chars-per-pixel */
"60 60 256 2 ",
"   c #010102",
".  c #0B0B0B",
"X  c #060607",
"o  c #1B0000",
"O  c #0E0E10",
"+  c #131313",
"@  c #1B1B1C",
"#  c #181819",
"$  c #241414",
"%  c #2A0909",
"&  c #1E211F",
"*  c #232324",
"=  c #2B2B2C",
"-  c #2D2D33",
";  c #252A32",
":  c gray20",
">  c #363539",
",  c #342D2A",
"<  c #4C0E0E",
"1  c #7D0000",
"2  c #72090A",
"3  c #771617",
"4  c #6C090C",
"5  c #7C1F22",
"6  c #7C262C",
"7  c #79393B",
"8  c #451C20",
"9  c #383845",
"0  c #7D3841",
"q  c #4B4B4B",
"w  c #494547",
"e  c #4D4D56",
"r  c gray32",
"t  c #5C5B5C",
"y  c #57585A",
"u  c #68494C",
"i  c #5E5E6C",
"p  c #565966",
"a  c #685A68",
"s  c #7B5A6B",
"d  c #5D626C",
"f  c #596167",
"g  c #5C6372",
"h  c #62636D",
"j  c #6C6B6C",
"k  c #68656A",
"l  c #78656B",
"z  c #636472",
"x  c #646974",
"c  c #6A6A75",
"v  c #656C7A",
"b  c #6C6C7B",
"n  c #676579",
"m  c #736976",
"M  c #66727D",
"N  c #6D727D",
"B  c #6B7477",
"V  c #747474",
"C  c #72737D",
"Z  c #7B7B7B",
"A  c #73787B",
"S  c #850000",
"D  c #8D0000",
"F  c #851618",
"G  c #A20101",
"H  c #AF0000",
"J  c #B50000",
"K  c #BF0000",
"L  c #882628",
"P  c #8A3638",
"I  c #811A22",
"U  c #CB0000",
"Y  c #C20000",
"T  c #D90000",
"R  c #D60000",
"E  c #E40000",
"W  c #FD0000",
"Q  c #F50000",
"!  c #813844",
"~  c #97474B",
"^  c #954B52",
"/  c #88555B",
"(  c #9A5357",
")  c #884951",
"_  c #A34F52",
"`  c #885865",
"'  c #9D5E68",
"]  c #AA5961",
"[  c #86686C",
"{  c #856A76",
"}  c #82737F",
"|  c #926975",
" . c #AB646A",
".. c #A1707A",
"X. c #AC6771",
"o. c #6E6E83",
"O. c #6F6F88",
"+. c #706D82",
"@. c #6D7483",
"#. c #6E7588",
"$. c #737483",
"%. c #797684",
"&. c #747A84",
"*. c #7A7A86",
"=. c #74748A",
"-. c #757B8A",
";. c #7B7C8B",
":. c #7B768C",
">. c #7A7A90",
",. c #847584",
"<. c #827D8A",
"1. c #867986",
"2. c #947883",
"3. c #83788C",
"4. c #AA7A87",
"5. c #B27C87",
"6. c #7C838D",
"7. c #7C8286",
"8. c #7D8491",
"9. c #7B8896",
"0. c #838383",
"q. c #82828D",
"w. c #8B8C8E",
"e. c #898689",
"r. c #96888E",
"t. c #838593",
"y. c #8B8694",
"u. c #858A94",
"i. c #8A8A95",
"p. c #858C9A",
"a. c #8C8D9A",
"s. c #8D879B",
"d. c #918E9B",
"f. c #988B98",
"g. c #8D929C",
"h. c #899095",
"j. c #949495",
"k. c #93939D",
"l. c #9B989D",
"z. c #939387",
"x. c #A7858C",
"c. c #B7878D",
"v. c #A78B97",
"b. c #A5959B",
"n. c #B8959D",
"m. c #8D93A2",
"M. c #9494A3",
"N. c #949AA5",
"B. c #9A9BA5",
"V. c #969CA9",
"C. c #9C9DAA",
"Z. c #9B95A4",
"A. c #908CA0",
"S. c #A19CAB",
"D. c #A49CA6",
"F. c #BB9CA8",
"G. c #9CA3A9",
"H. c #A2A2AD",
"J. c #A5A6A9",
"K. c #ABACB5",
"L. c #ADADBB",
"P. c #A5A9B3",
"I. c #B4A9B4",
"U. c #B6A7B4",
"Y. c #B3B3B5",
"T. c #B2B3BB",
"R. c #BBBABB",
"E. c #B7B9BA",
"W. c #B3B1B9",
"Q. c #C58C98",
"!. c #C29CA3",
"~. c #B4B4C2",
"^. c #B9BBC6",
"/. c #B0B0C1",
"(. c #C1BCC1",
"). c #BCC4C9",
"_. c #C3C3C5",
"`. c #C3C3CD",
"'. c #CCCCCD",
"]. c #CCCCD2",
"[. c #CBC9D5",
"{. c #CBD2D6",
"}. c LightGray",
"|. c #D7D7DB",
" X c #D5CDDA",
".X c #DADAE5",
"XX c #DCE2E4",
"oX c gray89",
"OX c #ECECEE",
"+X c #E5E5EA",
"@X c #EBEAF3",
"#X c #EBF4F4",
"$X c #FEFEFE",
"%X c #F4F5F6",
"&X c #EDF2ED",
"*X c #E7DBE7",
"=X c None",
"-X c black",
";X c black",
":X c black",
">X c black",
",X c black",
"<X c black",
"1X c black",
"2X c black",
"3X c black",
"4X c black",
"5X c black",
"6X c black",
"7X c black",
"8X c black",
"9X c black",
"0X c black",
"qX c black",
"wX c black",
"eX c black",
"rX c black",
"tX c black",
"yX c black",
"uX c black",
"iX c black",
"pX c black",
"aX c black",
"sX c black",
"dX c black",
"fX c black",
"gX c black",
"hX c black",
"jX c black",
"kX c black",
"lX c black",
"zX c black",
"xX c black",
"cX c black",
"vX c black",
"bX c black",
"nX c black",
"mX c black",
"MX c black",
"NX c black",
"BX c black",
"VX c black",
"CX c black",
"ZX c black",
"AX c black",
"SX c black",
"DX c black",
"FX c black",
"GX c black",
"HX c black",
"JX c black",
"KX c black",
"LX c black",
"PX c black",
"IX c black",
"UX c black",
/* pixels */
"=X=X=X=X=X=X=X=X=X=X=X=X=X=X=X=X=X=X=X=X=X=X=X  e z z b $.$.-.N.[.{.t.. =X=X=X=X=X=X=X=X=X=X=X=X=X=X=X=X=X=X=X=X=X=X=X=X",
"=X=X=X=X=X=X=X=X=X=X=X=X=X=X=X=X=X=X=X=X=X=X=X  p b z @.-.$.=.a.K.[.].z.  =X=X=X=X=X=X=X=X=X=X=X=X=X=X=X=X=X=X=X=X=X=X=X",
"=X=X=X=X=X=X=X=X=X=X=X=X=X=X=X=X=X=X=X=X=X=X  y v x n b $.:.:.8.m.L.{.[.t.. =X=X=X=X=X=X=X=X=X=X=X=X=X=X=X=X=X=X=X=X=X=X",
"=X=X=X=X=X=X=X=X=X=X=X=X=X=X=X=X=X=X=X=X  . i $.N z g v C -.6.t.t.j.K.'.'.i.    =X=X=X=X=X=X=X=X=X=X=X=X=X=X=X=X=X=X=X=X",
"=X=X=X=X=X=X=X=X=X=X=X=X=X=X=X=X=X=X=X  i x a.-.x i x c b $.;.t.t.a.a.V.).`.w.q.X =X=X=X=X=X=X=X=X=X=X=X=X=X=X=X=X=X=X=X",
"=X=X=X=X=X=X=X=X=X=X=X=X=X=X=X=X=X  # k a.t.q.M z d x c b %.;.8.i.u.u.p.B.K._.`.w..   =X=X=X=X=X=X=X=X=X=X=X=X=X=X=X=X=X",
"=X=X=X=X=X=X=X=X=X=X=X=X=X=X=X=X& t p a.t.&.$.h a p x x b ;.6.8.t.p.a.i.p.k.C.E.'.e.7.* =X=X=X=X=X=X=X=X=X=X=X=X=X=X=X=X",
"=X=X=X=X=X=X=X=X=X=X=X=X=X=X  * i g.t.&.$.$.b i h p h x b ;.t.u.i.a.i.d.p.u.a.G.L. X#XZ.* =X=X=X=X=X=X=X=X=X=X=X=X=X=X=X",
"=X=X=X=X=X=X=X=X=X=X=X=X=X= e y a.;.$.$.N v z z f i h c N %.;.i.a.a.a.m.d.u.y.g.V.T.|.%Xj.* =X=X=X=X=X=X=X=X=X=X=X=X=X=X",
"=X=X=X=X=X=X=X=X=X=X=X=X: c N.u.<.$.b N b g z c p d b b A &.;.i.a.a.g.m.k.m.t.a.h.C.E..X$Xj.= =X=X=X=X=X=X=X=X=X=X=X=X=X",
"=X=X=X=X=X=X=X=X=X=X, w l Z.<.*.$.o.b x n h x z h d b N %.q.u.g.a.k.g.N.M.m.g.a.w.g.H.).+X$Xj.= =X=X=X=X=X=X=X=X=X=X=X=X",
"=X=X=X=X=X=X=X=X=X8 [ !.x.{ } %.b b c h c x h d c z b N $.<.i.a.k.k.k.B.k.M.N.V.N.M.C.T.{.&X$Xj.: =X=X=X=X=X=X=X=X=X=X=X",
"=X=X=X=X=X=X=X=X8 ) X.^ ^ ` [ } m x z c z h c x o.b N C C q.y.y.d.d.M.C.C.C.C.L.L.T.^.[..XOX$X$Xk =X=X=X=X=X=X=X=X=X=X=X",
"=X=X=X=X=X=X=Xo 7 _ F 1 2 0 ` { l m h c z c b b N A A %.,.1.y.r.v.l.D.B.C.K.~.~.T.]..X&X%X$X$X$Xj.= =X=X=X=X=X=X=X=X=X=X",
"=X=X=X=X=X=X=X< 5 F K T 1 2 P ` a c j b N b x $.m *.A } 1.2.x.4.x.v.v.b.D.Y.~.~.).XX&X$X$X$X$X$X$XV   =X=X=X=X=X=X=X=X=X",
"=X=X=X=X=X=Xo 7 L S T E H S 3 ) s m c C x $.A ;.&.,.,.2...' ( ] ]  .5.n.U.I.~.^. X&X$X$X$X$X$X$X$Xw.# =X=X=X=X=X=X=X=X=X",
"=X=X=X=X=X=X% ! L J W W Q Y 3 / l k c b *.o.;.1.i.e.2...^ 3 1 D 1 2 ~ c.F.I.E.`.}.OX$X$X$X$X$X$X$X$X0.  =X=X=X=X=X=X=X=X",
"=X=X=X=X=XX u ..P S U T D 1 3 / s k *.o.q.7.q.a.y.y.4.^ 3 S U W T S 2 ^ !.U.Y.`..XOX$X$X$X$X$X$X$X$XZ   =X=X=X=X=X=X=X=X",
"=X=X=X=X=X. a ..( I J U 1 4 0 [ a + c ;.q.a.:.i.y.x.4.6 1 G R W E G S 5 Q.F.I._.*XOX$X$X$X$X$X$X$X$X0.X =X=X=X=X=X=X=X=X",
"=X=X=X=X=X$ a | ' ~ F 2 3 ) / [ a . . @ C u.# V f.x.5.6 J W W W W Q U 3 Q.!.R.~.|.oXOX$X$X$X$X$X#XXX+Xq.  =X=X=X=X=X=X=X",
"=X=X=X=X. t ,.,.[ '  .( / / [ ,.0.z # _.* +   *.f.r.4.6 1 G R W E G S 5 Q.F.I.^.{..X@XOX#X%X%X@X X`.+Xq.  =X=X=X=X=X=X=X",
"=X=X=X=X. h 3.,.,.| | { { m m %.q.C # }.|.|.@ A f.r.x.( 3 1 Y W T S 3 _ Q.U.Y.~._.{..XoXoX@X.X'.T.T.oXe.  =X=X=X=X=X=X=X",
"=X=X=X=X. d q.<.:.,.1.,.m m A q.t.%.X @ * * X *.f.b.v.x.^ 3 1 D 1 3 ( 5.n.I.E.~.~.).`.`.).`.^.J.M.J.|.*.  =X=X=X=X=X=X=X",
"=X=X=X=X. h a.q.-.&.;.;.b b &.q.t.%.      ; X C B.l.f.v.x.X. . .]  .5.v.D.I.E./.^.~.^.~.L._. X).C.S.{.A   =X=X=X=X=X=X=X",
"=X=X=X=X  %.C.q.*.*.:.;.C A 6.8.i.C     ; p . :.C.Z.j.b.v.v.c.c.v.v.v.b.H.H.~.Y./.Y.~.~.T.}.&X%X].T.`.V   =X=X=X=X=X=X=X",
"=X=X=X=XX B.J.;.;.&.$.$.A @.%.<.a.A X - p z O &.B.B.D.Z.D.b.b.b.v.v.l.S.C.H.H.W.K.W.L.P.K..X$X$X+X^.^.V   =X=X=X=X=X=X=X",
"=X=X=X=X  Y.T.;.:.-.&.%.=.o.%.y.u.&.. 9 z z O ;.B.C.C.C.B.S.D.D.D.B.C.C.C.H.C.H.H.H.G.N.C.[.%X$XXXT.~.c   =X=X=X=X=X=X=X",
"=X=X=X=X  R. Xm.;.;.:.:.;.+.&.8.t.%.. p z g O &.V.Z.C.H.C.C.C.C.H.C.H.C.H.C.H.C.V.B.B.M.M.J.`.[.P.B.T.j   =X=X=X=X=X=X=X",
"=X=X=X=X=Xt E.P.;.%.&.&.&.&.$.7.t.;.e - d g O <.N.V.C.C.G.C.C.C.B.S.C.S.B.C.V.B.N.C.N.M.p.t.a.t.6.a.T.j   =X=X=X=X=X=X=X",
"=X=X=X=X=X  J.].a.&.:.%.$.&.$.*.8.i.;.X i x O ;.V.N.B.B.G.C.C.C.N.C.C.V.B.C.N.N.C.k.M.h.t.;.@.v %.M.*.> =X=X=X=X=X=X=X=X",
"=X=X=X=X=X  I.@XP.q.;.:.&.$.@.$.8.i.6.q - -   &.N.A.B.N.C.C.B.C.C.C.C.V.C.N.B.N.N.k.M.u.;.$.x c *.N.e   =X=X=X=X=X=X=X=X",
"=X=X=X=X=X=Xj ].{.g.-.7.-.$.@.$.;.6.q.t.9 X > t.k.a.M.N.N.B.N.N.C.C.M.N.Z.N.N.Z.g.g.p.q.$.v c v 8.B > =X=X=X=X=X=X=X=X=X",
"=X=X=X=X=X=X  l.%XT.t.*.%.$.$.$.@.-.q.q.u.. &.a.k.k.a.M.g.M.N.a.k.N.g.k.M.M.p.s.u.;.=.$.b n B o.m.q   =X=X=X=X=X=X=X=X=X",
"=X=X=X=X=X=X=Xj |.+XH.t.;.%.$.@.@.$.;.6.y > $.i.a.k.d.a.a.a.g.g.d.d.g.i.h.u.t.q.;.%.O.b c +.&.8.C > =X=X=X=X=X=X=X=X=X=X",
"=X=X=X=X=X=X=X=Xj }.{.G.8.;.;.#.C $.$.$.- *.t.6.u.i.a.a.a.a.a.a.u.i.t.>.8.q.;.;.@.b @.C M $.=.b - =X=X=X=X=X=X=X=X=X=X=X",
"=X=X=X=X=X=X=X=X  0.$X(.k.6.<.#.C $.$.$.=.&.;.&.;.6.t.t.u.8.8.t.;.6.;.>.-.;.b @.v M c $.$.-.t.- =X=X=X=X=X=X=X=X=X=X=X=X",
"=X=X=X=X=X=X=X=X=Xj oXOX^.a.<.6.;.:.&.$.$.$.=.&.$.$.$.=.&.:.:.:.:.-.:.&.m @.b B n C C -.-.-.$.- =X=X=X=X=X=X=X=X=X=X=X=X",
"=X=X=X=X=X=X=X=X=X=Xk '.`.^.m.8.*.:.&.#.:.N &.N =.$.&.$.$.$.C @.&.N @.N N n x M m =.M :.f a * =X=X=X=X=X=X=X=X=X=X=X=X=X",
"=X=X=X=X=X=X=X=X=X=X=X  r }._.G.9.6.$.$.%.:.O.A $.@.+.O.@.&.$.b +.B b @.m M C $.$.-.8.b #   =X=X=X=X=X=X=X=X=X=X=X=X=X=X",
"=X=X=X=X=X=X=X=X=X=X=X=X=Xr '.Y.T.l.u.6.$.$.$.%.$.%.@.$.$.#.$.@.@.$.@.$.$.&.>.;.:.B %.# =X=X=X=X=X=X=X=X=X=X=X=X=X=X=X=X",
"=X=X=X=X=X=X=X=X=X=X=X=X=X=XX > _.K.C.i.t.8.t.%.&.&.$.$.$.$.$.&.*.<.t.t.g.g.w.m.t.+ X   =X=X=X=X=X=X=X=X=X=X=X=X=X=X=X=X",
"=X=X=X=X=X=X=X=X=X=X=X=X=X=X=X=X. . # K.G.N.t.a.M.k.a.g.d.p.p.M.C.G.G.P.N.;.. . . =X=X=X=X=X=X=X=X=X=X=X=X=X=X=X=X=X=X=X",
"=X=X=X=X=X=X=X=X=X=X=X=X=X=X=X=X=X=X=X. . . # h.H.Z.M.M.k.k.V.B.K.R.^.a.. . =X=X=X=X=X=X=X=X=X=X=X=X=X=X=X=X=X=X=X=X=X=X",
"=X=X=X=X=X=X=X=X=X=X=X=X=X=X=X=X=X=X=X=X=X=X=X+ + @ + + + + + + t `.a.O =X=X=X=X=X=X=X=X=X=X=X=X=X=X=X=X=X=X=X=X=X=X=X=X",
"=X=X=X=X=X=X=X=X=X=X=X=X=X=X=X=X=X=X=X=X=X=X=X=X=X=X=X=X=X=X=X=X=Xe h.  =X=X=X=X=X=X=X=X=X=X=X=X=X=X=X=X=X=X=X=X=X=X=X=X",
"=X=X=X=X=X=X=X=X=X=X=X=X=X=X=X=X=X=X=X=X=X=X=X=X=X=X=X=X=X=X=X=X=X=X@ =X=X=X=X=X=X=X=X=X=X=X=X=X=X=X=X=X=X=X=X=X=X=X=X=X",
"=X=X=X=X=X=X=X=X=X=X=X=X=X=X=X=X=X=X=X=X=X=X=X=X=X=X=X=X=X=X=X=X=X=X=X=X=X=X=X=X=X=X=X=X=X=X=X=X=X=X=X=X=X=X=X=X=X=X=X=X",
"=X=X=X=X=X=X=X=X=X=X=X=X=X=X=X=X=X=X=X=X=X=X=X=X=X=X=X=X=X=X=X=X=X=X=X=X=X=X=X=X=X=X=X=X=X=X=X=X=X=X=X=X=X=X=X=X=X=X=X=X",
"=X=X=X=X=X=X=X=X=X=X=X=X=X=X=X=X=X=X=X=X=X=X=X=X=X=X=X=X=X=X=X=X=X=X=X=X=X=X=X=X=X=X=X=X=X=X=X=X=X=X=X=X=X=X=X=X=X=X=X=X",
"=X=X=X=X=X=X=X=X=X=X=X=X=X=X=X=X=X=X=X=X=X=X=X=X=X=X=X=X=X=X=X=X=X=X=X=X=X=X=X=X=X=X=X=X=X=X=X=X=X=X=X=X=X=X=X=X=X=X=X=X",
"=X=X=X=X=X=X=X=X=X=X=X=X=X=X=X=X=X=X=X=X=X=X=X=X=X=X=X=X=X=X=X=X=X=X=X=X=X=X=X=X=X=X=X=X=X=X=X=X=X=X=X=X=X=X=X=X=X=X=X=X",
"=X=X=X=X=X=X=X=X=X=X=X=X=X=X=X=X=X=X=X=X=X=X=X=X=X=X=X=X=X=X=X=X=X=X=X=X=X=X=X=X=X=X=X  =X=X=X=X=X=X=X=X=X=X=X=X=X=X=X=X",
"=X=X=X=X=X=X=X=X=X=X=X=X=X=X=X=X=X=X=X=X=X=X=X=X=X=X=X=X=X=X=X=X=X=X=X=X=X=X=X=X=X=X=X=X=X=X=X=X=X=X=X=X=X=X=X=X=X=X=X=X",
"=X=X=X=X=X=X=X=X=X=X=X=X=X=X=X=X=X=X=X=X=X=X=X=X=X=X=X=X=X=X=X=X=X=X=X=X=X=X=X=X=X=X=X=X=X=X=X=X=X=X=X=X=X=X=X=X=X=X=X=X",
"=X=X=X=X=X=X=X=X=X=X=X=X=X=X=X=X=X=X=X=X=X=X=X=X=X=X=X=X=X=X=X=X=X=X=X=X=X=X=X=X=X=X=X=X=X=X=X=X=X=X=X=X=X=X=X=X=X=X=X=X",
"=X=X=X=X=X=X=X=X=X=X=X=X=X=X=X=X=X=X=X=X=X=X=X=X=X=X=X=X=X=X=X=X=X=X=X=X=X=X=X=X=X=X=X=X=X=X=X=X=X=X=X=X=X=X=X=X=X=X=X=X",
"=X=X=X=X=X=X=X=X=X=X=X=X=X=X=X=X=X=X=X=X=X=X=X=X=X=X=X=X=X=X=X=X=X=X=X=X=X=X=X=X=X=X=X=X=X=X=X=X=X=X=X=X=X=X=X=X=X=X=X=X",
"=X=X=X=X=X=X=X=X=X=X=X=X=X=X=X=X=X=X=X=X=X=X=X=X=X=X=X=X=X=X=X=X=X=X=X=X=X> =X=X=X=X=X=X=X=X=X=X=X=X=X=X=X=X=X=X=X=X=X=X",
"=X=X=X=X=X=X=X=X=X=X=X=X=X=X=X=X=X=X=X=X=X=X=X=X=X=X=X=X=X=X=X=X=X=X=X=X* q.X =X=X=X=X=X=X=X=X=X=X=X=X=X=X=X=X=X=X=X=X=X",
"=X=X=X=X=X=X=X=X=X=X=X=X=X=X=X=X=X=X=X=X=X=X=X=X=X=X=X=X=X=X=X=X=X=X=X=X=X  =X=X=X=X=X=X=X=X=X=X=X=X=X=X=X=X=X=X=X=X=X=X"
};
