/* XPM */
static char *c88b8069839e4a77ef86fec458626fe3dbOPICUk1XRtCWSO_1[] = {
/* columns rows colors chars-per-pixel */
"60 60 256 2 ",
"   c #020202",
".  c #050708",
"X  c #030A0D",
"o  c #0A0A0B",
"O  c #0B0303",
"+  c #140000",
"@  c #130B0B",
"#  c #000F14",
"$  c #0A0E13",
"%  c #021115",
"&  c #071517",
"*  c #131314",
"=  c #1B1B1C",
"-  c #161819",
";  c #2B0000",
":  c #270000",
">  c #320000",
",  c #300A0A",
"<  c #201A1A",
"1  c #381115",
"2  c #001921",
"3  c #1D1E28",
"4  c #1C2327",
"5  c #062536",
"6  c #232323",
"7  c #25252A",
"8  c #2B2C2C",
"9  c #222A2F",
"0  c #362A2A",
"q  c #2A2D32",
"w  c #322F33",
"e  c #2D3134",
"r  c gray20",
"t  c #3C3C3C",
"y  c #37383A",
"u  c #4D0000",
"i  c #5A0303",
"p  c #690000",
"a  c #7A0000",
"s  c #770000",
"d  c #443D3D",
"f  c #3C463C",
"g  c #022840",
"h  c #06384A",
"j  c #033D57",
"k  c #123947",
"l  c #3D3D44",
"z  c #003A62",
"x  c #084454",
"c  c #3A4344",
"v  c #004D6C",
"b  c #0A4E69",
"n  c #065070",
"m  c #434343",
"M  c #4D4C4D",
"N  c #45464B",
"B  c #534C4C",
"V  c #494A54",
"C  c #495456",
"Z  c #535353",
"A  c #55555C",
"S  c #5A5B5B",
"D  c #545B5C",
"F  c #59605F",
"G  c #4C5762",
"H  c #555562",
"J  c #5C5E6D",
"K  c #585A65",
"L  c #615B6B",
"P  c #645E75",
"I  c #5D616E",
"U  c #57626D",
"Y  c #5C6372",
"T  c #5F6876",
"R  c #656565",
"E  c #63626C",
"W  c #6C6C6C",
"Q  c #67656E",
"!  c #636474",
"~  c #646A75",
"^  c #686975",
"/  c #646B7A",
"(  c #6C6C7B",
")  c #68647A",
"_  c #726C7B",
"`  c #71677F",
"'  c #6C727C",
"]  c #687478",
"[  c #747474",
"{  c #74747B",
"}  c gray49",
"|  c #77777C",
" . c #716C6C",
".. c #850000",
"X. c #8B0000",
"o. c #950000",
"O. c #9B0000",
"+. c #A60000",
"@. c #B30000",
"#. c #C90000",
"$. c #D60000",
"%. c #E30000",
"&. c #ED0000",
"*. c #FE0000",
"=. c #966B6B",
"-. c #007B8C",
";. c #037F97",
":. c #6B6C82",
">. c #656781",
",. c #736D81",
"<. c #6C7482",
"1. c #747583",
"2. c #757A85",
"3. c #7B7B85",
"4. c #767B89",
"5. c #7B7C8B",
"6. c #767689",
"7. c #7A7C92",
"8. c #817C8D",
"9. c #827E93",
"0. c #0E8694",
"q. c #7C828C",
"w. c #7A8287",
"e. c #7E8393",
"r. c #748090",
"t. c gray52",
"y. c #81828E",
"u. c #818A8E",
"i. c #8B8C8C",
"p. c #8B8484",
"a. c #838493",
"s. c #848B94",
"d. c #898B95",
"f. c #828399",
"g. c #848C99",
"h. c #8B8D9A",
"j. c #8C8596",
"k. c #918E9E",
"l. c #8D929B",
"z. c #8B949A",
"x. c #939394",
"c. c #92939E",
"v. c #929A9F",
"b. c gray60",
"n. c #99949F",
"m. c #8C8EA0",
"M. c #918EA2",
"N. c #8E94A1",
"B. c #9494A3",
"V. c #9997A4",
"C. c #959AA4",
"Z. c #999AA6",
"A. c #959CA9",
"S. c #9C9CAA",
"D. c #A09DAE",
"F. c #9DA2AD",
"G. c #9AA3A7",
"H. c #9EA4B1",
"J. c #A3A3A4",
"K. c #A2A2AE",
"L. c #ACACAD",
"P. c #A4ACAD",
"I. c #A3A4B1",
"U. c #A4AAB3",
"Y. c #ABABB4",
"T. c #ACADBA",
"R. c #A6A9B5",
"E. c #ACB2BC",
"W. c #ADB4B6",
"Q. c #B3B3BC",
"!. c #B3BABD",
"~. c #BDBDBE",
"^. c #B1B2B3",
"/. c #B7B4B3",
"(. c #B4B5C1",
"). c #BBB7C3",
"_. c #B5BAC2",
"`. c #BABBC5",
"'. c #BCBDCB",
"]. c #B0B1C1",
"[. c #BDC2CA",
"{. c #BBC4C8",
"}. c #C3C4C5",
"|. c #C2C2CC",
" X c #CAC4CB",
".X c #C7CDCE",
"XX c #CBCBCC",
"oX c #C4C5D2",
"OX c #CBCCD4",
"+X c #C9CAD6",
"@X c #D3CFDA",
"#X c #CED2D7",
"$X c #D3D3D5",
"%X c #D3D3DB",
"&X c #D5D9DC",
"*X c #DADBDD",
"=X c #DADBE3",
"-X c #D6D6E2",
";X c #E1DDE5",
":X c #DBE2E5",
">X c #E3E3E4",
",X c #E5E6EC",
"<X c gray92",
"1X c #E6E8E9",
"2X c #EBEAF1",
"3X c #F4EDF4",
"4X c #ECF3F3",
"5X c #F3F3F3",
"6X c #F5F4FA",
"7X c #FEFEFE",
"8X c #F6F9FB",
"9X c #F0EFEF",
"0X c None",
"qX c black",
"wX c black",
"eX c black",
"rX c black",
"tX c black",
"yX c black",
"uX c black",
"iX c black",
"pX c black",
"aX c black",
"sX c black",
"dX c black",
"fX c black",
"gX c black",
"hX c black",
"jX c black",
"kX c black",
"lX c black",
"zX c black",
"xX c black",
"cX c black",
"vX c black",
"bX c black",
"nX c black",
"mX c black",
"MX c black",
"NX c black",
"BX c black",
"VX c black",
"CX c black",
"ZX c black",
"AX c black",
"SX c black",
"DX c black",
"FX c black",
"GX c black",
"HX c black",
"JX c black",
"KX c black",
"LX c black",
"PX c black",
"IX c black",
"UX c black",
/* pixels */
"0X0X0X0X0X0X0X0X0X0X0X0X0X0X0X0X0X0X0X0X0X0X0X0X0X0X0X0X0X0X0X0X0X0X0X0X0X0X0X0X0X0X0X0X0X0X0X0X0X0X0X0X0X0X0X0X0X0X0X0X",
"0X0X0X0X0X0X0X0X0X0X0X0X0X0X0X0X0X0X0X0X0X0X0X0X0X0X0X0X0X0X0X0X0X0X0X0X0X0X0X0X0X0X0X0X0X0X0X0X0X0X0X0X0X0X0X0X0X0X0X0X",
"0X0X0X0X0X0X0X0X0X0X0X0X0X0X0X0X0X0X0X0X0X0X0X            0X0X0X0X0X0X0X0X0X0X0X0X0X0X0X0X0X0X0X0X0X0X0X0X0X0X0X0X0X0X0X",
"0X0X0X0X0X0X0X0X0X0X0X0X0X0X0X0X0X0X0X0X0X    J.~.L.t.} } t 0X0X0X0X0X0X0X0X0X0X0X0X0X0X0X0X0X0X0X0X0X0X0X0X0X0X0X0X0X0X",
"0X0X0X0X0X0X0X0X0X0X0X0X0X0X0X0X0X0X0X0X  J.^.x.t.} W R i.i.m 0X0X0X0X0X0X0X0X0X0X0X0X0X0X0X0X0X0X0X0X0X0X0X0X0X0X0X0X0X",
"0X0X0X0X0X0X0X0X0X0X0X0X0X0X0X0X0X    o i.b.b.S m t m m M i.S   0X0X0X0X0X0X0X0X0X0X0X0X0X0X0X0X0X0X0X0X0X0X0X0X0X0X0X0X",
"0X0X0X0X0X0X0X0X0X0X0X0X0X0X0X0X: X.i , p.S N M N N t t 6  .} = 0X0X0X0X0X0X0X0X0X0X0X0X0X0X0X0X0X0X0X0X0X0X0X0X0X0X0X0X",
"0X0X0X0X0X0X0X0X0X0X0X0X0X0X0X0X: $.O.u B M d c t t 8 = * W x.8   0X0X0X0X0X0X0X0X0X0X0X0X0X0X0X0X0X0X0X0X0X0X0X0X0X0X0X",
"0X0X0X0X0X0X0X0X0X0X0X0X0X0X0X0X+ i i =.t m d y 6 8 = * M } W 8   0X0X0X0X0X0X0X0X0X0X0X0X0X0X0X0X0X0X0X0X0X0X0X0X0X0X0X",
"0X0X0X0X0X0X0X0X0X0X0X0X0X0X0X0X. t 0 } } y 8 8 * = - @ [ t.M 8   0X0X0X0X0X0X0X0X0X0X0X0X0X0X0X0X0X0X0X0X0X0X0X0X0X0X0X",
"0X0X0X0X0X0X0X0X0X0X0X0X0X0X0X* m [ d = i.} W 6 o = = t W W M 6   0X0X0X0X0X0X0X0X0X0X0X0X0X0X0X0X0X0X0X0X0X0X0X0X0X0X0X",
"0X0X0X0X0X0X0X0X0X0X0X0X0X0X0X= i.Z M c   XX>X[ M 6 $ w.t.M N =   0X0X0X0X0X0X0X0X0X0X0X0X0X0X0X0X0X0X0X0X0X0X0X0X0X0X0X",
"0X0X0X0X0X0X0X0X0X0X0X0X0X0X0Xm t.Z m t o W }.*XL.6 8 [ W M r * 0X0X0X0X0X0X0X0X0X0X0X0X0X0X0X0X0X0X0X0X0X0X0X0X0X0X0X0X",
"0X0X0X0X0X0X0X0X0X0X0X0X0X0X6 } Z M d 8 *   t.b.S w t.[ Z m =   0X0X0X0X0X0X0X0X0X0X0X0X0X0X0X0X0X0X0X0X0X0X0X0X0X0X0X0X",
"0X0X0X0X0X0X0X0X0X0X0X0X0X0X6 [ B m 0 * < o m M y p. .M m r *   0X0X0X0X0X0X0X0X0X0X0X0X0X0X0X0X0X0X0X0X0X0X0X0X0X0X0X0X",
"0X0X0X0X0X0X0X0X0X0X0X0X0X0X6 } m c r = * = 8 7 J.[ M y 8 8 = o 0X0X0X0X0X0X0X0X0X0X0X0X0X0X0X0X0X0X0X0X0X0X0X0X0X0X0X0X",
"0X0X0X0X0X0X0X0X0X0X0X0X0X0X6 w.C t 8 < y d XXXXW N y * [ b.R 8   0X0X0X0X0X0X0X0X0X0X0X0X0X0X0X0X0X0X0X0X0X0X0X0X0X0X0X",
"0X0X0X0X0X0X0X0X0X0X0X0X0X0X< p.!.N 0 c *X>XS N y r r = S M y r   0X0X  . X % o   0X0X0X0X0X0X0X0X0X0X0X0X0X0X0X0X0X0X0X",
"0X0X0X0X0X0X0X0X0X0X0X0X0X0X0X6 b.XX>X*XZ y y r r r 6 * y Z Z 8   0X0X# h n 0.N   0X0X0X0X0X0X0X0X0X0X0X0X0X0X0X0X0X0X0X",
"0X0X0X0X0X0X0X0X0X0X0X0X0X0X0X0Xo - t y r r r r 6 o     * 4 &   0X0X# j v h V o 0X0X0X0X0X0X0X0X0X0X0X0X0X0X0X0X0X0X0X0X",
"0X0X0X0X0X0X0X0X0X0X0X0X0X0X0X0X& -.g . . * * *   0X0X0X  = =     X x ;.n b B   0X0X0X0X0X0X0X0X0X0X0X0X0X0X0X0X0X0X0X0X",
"0X0X0X0X0X0X0X0X0X0X0X0X0X0X0X0X# v v 5 m o   = o         = t R C g v j k N o 0X0X0X0X0X0X0X0X0X0X0X0X0X0X0X0X0X0X0X0X0X",
"0X0X0X0X0X0X0X0X0X0X0X0X0X0X0X# z h h M * 0X  6 i.x.} S 6 r r * 5 5 v -.k B   0X0X0X0X0X0X0X0X0X0X0X0X0X0X0X0X0X0X0X0X0X",
"0X0X0X0X0X0X0X0X0X0X0X0X0X0X0X% n -.h M   0X  } Z y y 8 S S =   2 j b x c @ 0X0X0X0X0X0X0X0X0X0X0X0X0X0X0X0X0X0X0X0X0X0X",
"0X0X0X0X0X0X0X0X0X0X0X0X0X0X0X  % 2 # * 0X0X  r i.} [ S S t       # % X @   0X0X0X0X0X0X0X0X0X0X0X0X0X0X0X0X0X0X0X0X0X0X",
"0X0X0X0X0X0X0X0X0X0X0X0X0X0X0X0X0X0X0X0X0X0X  N M t f w 6 F Z.^.W   0X0X0X0X0X0X0X0X0X0X0X0X0X0X0X0X0X0X0X0X0X0X0X0X0X0X",
"0X0X0X0X0X0X0X0X0X0X0X0X0X0X0X0X0X0X0X0X0X0X  G H H U L Q h.|.,X=X[ 0X0X0X0X0X0X0X0X0X0X0X0X0X0X0X0X0X0X0X0X0X0X0X0X0X0X",
"0X0X0X0X0X0X0X0X0X0X0X0X0X0X0X0X0X0X0X0X0X  l J / 1.6.4.a.h.P..X5X>X| 0X0X0X0X0X0X0X0X0X0X0X0X0X0X0X0X0X0X0X0X0X0X0X0X0X",
"0X0X0X0X0X0X0X0X0X0X0X0X0X0X0X0X0X0X0X0X0X  U J ! / :.6.5.a.m.R.%X8X1X| 0X0X0X0X0X0X0X0X0X0X0X0X0X0X0X0X0X0X0X0X0X0X0X0X",
"0X0X0X0X0X0X0X0X0X0X0X0X0X0X0X0X0X0X0X0X0X  K J P ' 1.6.6.q.a.B.T.$X6X<X}   0X0X0X0X0X0X0X0X0X0X0X0X0X0X0X0X0X0X0X0X0X0X",
"0X0X0X0X0X0X0X0X0X0X0X0X0X0X0X0X0X0X0X0X0Xy L Y ) 1.2.4.5.y.y.d.B.T.%X4X<Xt.[     0X0X0X0X0X0X0X0X0X0X0X0X0X0X0X0X0X0X0X",
"0X0X0X0X0X0X0X0X0X0X0X0X0X0X0X0X0X0X0X0Xl ( Y J ~ ( 1.5.a.f.f.h.h.V.E..X>X6X<X[ [ [ * 0X0X0X0X0X0X0X0X0X0X0X0X0X0X0X0X0X",
"0X0X0X0X0X0X0X0X0X0X0X0X0X0X0X0X0X0X0XN 4.( T J I / 1.8.h.g.g.l.h.h.V.K.Q.'..X,X8X8X[ S = 0X0X0X0X0X0X0X0X0X0X0X0X0X0X0X",
"0X0X0X0X0X0X0X0X0X0X0X0X0X0X0X0X0X0XM V.<.! ! J L / <.5.h.h.h.l.l.h.M.m.C.F.F.(.'.OX1X5X[ Z 7 0X0X0X0X0X0X0X0X0X0X0X0X0X",
"0X0X0X0X0X0X0X0X0X0X0X0X0X0X0X0Xt N R.2.( ( J I ^ ( <.7.h.z.B.B.B.M.B.B.z.B.Z.C.S.T.|.-X,X5X3.M r 0X0X0X0X0X0X0X0X0X0X0X",
"0X0X0X0X0X0X0X0X0X0X0X0X6 y r Z |.H.7.~ ( T ! ! ^ { 5.y.d.h.h.c.C.C.c.V.B.B.S.G.Z.U.Q.'.[.#X,X7Xx.t r 0X0X0X0X0X0X0X0X0X",
"0X0X0X0X0X0X0X0X0X0X6 7 R OX[.T.l.' ` ^ ^ I ^ ) ( { 2.q.s.h.c.l.c.Z.c.N.Z.C.B.D.K.I.Y.(.`.[. X*X8X7XJ.r r 0X0X0X0X0X0X0X",
"0X0X0X0X0X0X0X0X- - R `.].D.j.' ( ( ^ ~ ^ T Q ' 1.1.6.q.d.B.B.N.B.B.A.S.S.Z.B.F.K.K.T.(.(._.[.#X2X8X7X7X^.6 0X0X0X0X0X0X",
"0X0X0X0X0X0X* $ H h.g.e.6.' ' ' ^ ^ I ^ ^ ) ~ _ <.1.3.s.h.N.c.B.Z.B.F.S.S.S.S.H.R.K.W.~.'.`.oX=X<X5X8X7X7X~.8 0X0X0X0X0X",
"0X0X0X0X0X* H 5.e.e.e.6.' ' ( ^ >.^ T ^ ~ { 1.<.1.1.5.q.k.c.c.B.B.F.A.S.S.S.S.L.Q.^.Q.'.[.$X<X5X8X7X7X7X7X7X}.= 0X0X0X0X",
"0X0X0X0Xo 5.z.5.1.<.<.1.^ ( ' I ~ ^ W <._ <.,.{ 1.7.a.d.h.c.C.C.Z.Z.G.S.K.S.R.(.].(._. X%X<X8X7X7X7X7X7X7X7X7X}.* 0X0X0X",
"0X0X0Xo 5.C.a.Y 7 O 4 H ( ^ ~ ^ Q <.,.1.<.1.1.<.5.y.d.h.B.v.v.C.B.V.K.S.I.R.`.(.`.(.'.-X>X3X7X7X7X7X7X7X7X7X7X7XXX  0X0X",
"0X0X  y.x.5.! 4 o.s   7 K ^ ^ :.1.1.' 1.1.1.y.y.y.z.l.c.B.B.n.Z.F.S.F.S.I.Y.{.(._.}.OX&X<X8X7X7X7X7X7X7X8X4X8X7X$X= 0X0X",
"0X0X  1.a.w.8   +...    q ] { 1.2.2.6.2.u.4.y.d.g.M.h.v.c.l.C.C.V.G.S.P.H.!._.|.(.[.&X=X,X8X7X7X7X7X7X7X7X2X:X3X7XXX  0X",
"0X  1.q.' 1.4 ..*.&.%.a 9 2.1.1.6.2.i.4.y.d.s.c.l.B.{ e * * * l y.S.K.F.T.].{.|.}.|.*X*X>X<X8X7X7X7X7X7X8X>X.X.X8X*X  0X",
"0X  2.7.:.>.3 + @.O.: + 8 2.2.w.a.8.g.y.h.g.k.k.N.( 7   a %.p   r q.S.I.U.`._.}.[.OX%X=X:X<X6X7X7X7X7X8X2X=X X).%XXX  0X",
"0X  1.' / ! N % O...  * V q.~ e a.h.s.h.c.h.k.B.B.r     o.*...    l K.K.L.(.`.).oX X%X*X*X=X<X5X5X5X5X4X1X2X4X*X[.=X/.o ",
"o u.h.1.) ~ ~ N 1 + * V 1.5.S = 3.r a.j.w y.C.c.B.7 ..#.%.*.%.#.a e I.F.E.(.`._. X|.*X-X*X=X*X;X:X>X;X:X<X7X7X5XOX@X*Xo ",
"o Q.B.( ( ! Y J V N K ' 5.8.2.H = o g.h.o 5.Z.l.Z.7 > u @.*.+.u ; e I.K.I.!.).'.{.oX%X-X&X*X=X*X*X&X-X=X9X7X7X8X+X|.OXo ",
"o _.S.] ) ! I J ! / / 1.8.u.d.9.D A 8 e K h.c.V.C.A $   o.*.X.  * E S.I.I.Q.).`._.|.+X$X%X-X-X&X=X*X%X@X*X3X8X>X`.Q.'.o ",
"o .XT.4.>.! I J J T ^ 1.y.a.a.h.h.d.Z K h.C.z.C.c.s.A $ > p ; * K B.K.S.I.R.Q._.`.'.'.{.+X#X@X&X&X%XOX`.). X+X!.K.K.Q.o ",
"o >X+Xd.( ~ ! J J J ! { 5.a.s.a.a.z.h.C.h.c.C.B.B.B.h.^ H G H ( B.K.S.S.U.U.Y.!._._.).(.`.|.[..XXX|.`.E.R.F.C.V.S.Y.Y.o ",
"o | %XU._ ( ! J J J ! ( 1.q.s.u.a.h.h.h.h.h.c.B.C.c.C.A.K.F.H.I.K.K.S.S.F.U.R.Q.(.(.).).(._._.`.).(.T.I.Z.h.g.B.S.W.I.o ",
"0X  XX+Xa.( ~ Y J J J ! ( 4.e.u.a.u.h.u.h.z.h.c.z.B.B.N.V.Z.C.S.S.S.S.S.F.F.K.R.(.E.!._.(._.Q.Q.T.R.S.l.d.a.e.B.K.G.A o ",
"0X  *X=XT.q./ / Y Y J J ^ <.2.5.e.h.d.d.a.h.h.h.h.m.B.c.l.C.V.B.C.Z.A.S.D.S.S.K.T.Y.T.Q.Q.E.T.Y.K.C.h.a.e.8.e.C.I.k.  0X",
"0X  i.>X%XP.5.<.( ! ! L J ^ ' 1.2.a.e.j.a.a.e.h.h.h.h.h.h.l.c.c.B.B.C.V.B.A.V.A.V.S.D.I.K.F.F.Z.h.a.a.y.6.q.h.Z.A.L   0X",
"0X0X  x.>X$XI.e.2.( / ! J Y ! ! ' 1.6.q.y.5.5.q.a.s.a.d.h.d.h.h.h.h.z.h.d.N.h.N.h.l.h.l.h.h.d.a.a.5.5.q.2.g.V.P.z.  0X0X",
"0X0X0X  x.>X@XF.a.5.<./ ~ ~ J I J ( 1.{ 1.2.r.2.1.2.5.9.a.a.s.g.a.a.s.s.a.a.a.h.a.s.f.s.r.s.e.5.5.4.1.5.s.V.F.J.R   0X0X",
"0X0X0X0X  x.Q.Q.Y.h.5.2.1.( ! ~ ! J / ~ 1.1.1.1.1.1.2.4.4.q.5.q.y.a.a.a.f.y.w.f.6.6.a.6.w.7.2.2.1.6.6.q.V.F.G.!   0X0X0X",
"0X0X0X0X0X    t.Y.V.C.z.a.6.1.1.<.! ~ ` T ^ ^ ( ( :.<._ 1.<._ 1.<.2.4.1.2.6.2.6.2.6.<.<._ 1.1.5.r.5.e.l.x.y.R   0X0X0X0X"
};
