/* XPM */
static char *b311f698322d40feca3782ddbdb5d033f14jfS7cl0b4Sd98_5[] = {
/* columns rows colors chars-per-pixel */
"60 60 256 2 ",
"   c None",
".  c #010101",
"X  c #080906",
"o  c #0B1905",
"O  c #11170A",
"+  c #151514",
"@  c #130A00",
"#  c #092500",
"$  c #182805",
"%  c #093604",
"&  c #163100",
"*  c #1A3104",
"=  c #1C3D01",
"-  c #172215",
";  c #183614",
":  c #21370B",
">  c #26381A",
",  c #2C2C06",
"<  c #2B2D2A",
"1  c #2D3523",
"2  c #323928",
"3  c #1C4800",
"4  c #135603",
"5  c #0E480B",
"6  c #274D05",
"7  c #2D4313",
"8  c #334C14",
"9  c #2D5618",
"0  c #365716",
"q  c #2D5508",
"w  c #017200",
"e  c #196E1A",
"r  c #397306",
"t  c #376219",
"y  c #2C6800",
"u  c #3E4533",
"i  c #327C32",
"p  c #2E7629",
"a  c #5B4000",
"s  c #7B5C04",
"d  c #467F17",
"f  c #4A5A31",
"g  c #466628",
"h  c #353B42",
"j  c gray29",
"k  c #5A5A57",
"l  c #687856",
"z  c #636E52",
"x  c #62706E",
"c  c #0B8400",
"v  c #12990E",
"b  c #0CBA00",
"n  c #19A919",
"m  c #1BB716",
"M  c #19AC01",
"N  c #28B206",
"B  c #2A872A",
"V  c #368836",
"C  c #389738",
"Z  c #2A9328",
"A  c #2EA22E",
"S  c #28A928",
"D  c #2AB42A",
"F  c #2CBA2C",
"G  c #23B923",
"H  c #33A233",
"J  c #33AA33",
"K  c #3DA73D",
"L  c #38B838",
"P  c #479C07",
"I  c #559419",
"U  c #59AE08",
"Y  c #479932",
"T  c #4B942C",
"R  c #5BA731",
"E  c #68A239",
"W  c #66AA22",
"Q  c #1CC41D",
"!  c #1DC91A",
"~  c #1DC914",
"^  c #18C811",
"/  c #27C508",
"(  c #24CB1B",
")  c #29C918",
"_  c #35C715",
"`  c #2DD312",
"'  c #23D21D",
"]  c #24D213",
"[  c #32D511",
"{  c #39D612",
"}  c #32D21C",
"|  c #3AD917",
" . c #23C323",
".. c #2AC42B",
"X. c #2DD421",
"o. c #3ADD24",
"O. c #32D424",
"+. c #32CA32",
"@. c #39C839",
"#. c #39D733",
"$. c #30CB24",
"%. c #46D507",
"&. c #42D911",
"*. c #4CDA11",
"=. c #49D815",
"-. c #53DD17",
";. c #4CD00A",
":. c #69C716",
">. c #73D61C",
",. c #6ED616",
"<. c #5AE608",
"1. c #4BE316",
"2. c #58E612",
"3. c #65E70A",
"4. c #66F30B",
"5. c #66E912",
"6. c #72EB14",
"7. c #74EC1C",
"8. c #78EA19",
"9. c #78F619",
"0. c #6CF41E",
"q. c #4BCF34",
"w. c #77DD3A",
"e. c #67D034",
"r. c #47E12A",
"t. c #58E524",
"y. c #4AE232",
"u. c #5BE532",
"i. c #55E535",
"p. c #6AE626",
"a. c #76EB26",
"s. c #77F226",
"d. c #66EA37",
"f. c #6BF139",
"g. c #76F339",
"h. c #438E43",
"j. c #449944",
"k. c #43A543",
"l. c #44AA44",
"z. c #44B444",
"x. c #44BB44",
"c. c #7B8F5F",
"v. c #44C444",
"b. c #44CC44",
"n. c #48CA44",
"m. c #46D244",
"M. c #49DC44",
"N. c #46DA43",
"B. c #50DD44",
"V. c #61DA40",
"C. c #54E344",
"Z. c #5BE643",
"A. c #59E944",
"S. c #63EB44",
"D. c #68EA44",
"F. c #79ED43",
"G. c #6CF244",
"H. c #74F244",
"J. c #7DF243",
"K. c #84F419",
"L. c #87D831",
"P. c #86EB2B",
"I. c #8CFE2C",
"U. c #86F828",
"Y. c #92FE29",
"T. c #89F737",
"R. c #96FA3A",
"E. c #8EA56C",
"W. c #9DBA75",
"Q. c #8DA373",
"!. c #83976E",
"~. c #91CF51",
"^. c #82F243",
"/. c #83FA44",
"(. c #8BFD44",
"). c #94FE45",
"_. c #9CFC43",
"`. c #9EF949",
"'. c #81EF42",
"]. c #A2FD4C",
"[. c #A4FD46",
"{. c #A4FE51",
"}. c #AAFF54",
"|. c #AAFC5A",
" X c #B2FF5A",
".X c #A6ED54",
"XX c #A9C97B",
"oX c #A6D16D",
"OX c #98EC6F",
"+X c #B5FF65",
"@X c #B4FE6A",
"#X c #BBFF6D",
"$X c #BDFF73",
"%X c #ADF962",
"&X c #C1FF73",
"*X c #C2FF7B",
"=X c #C0FF6C",
"-X c #97978B",
";X c #B2CE8C",
":X c #B8F68B",
">X c #CAFF84",
",X c #CDFF8B",
"<X c #C4FC84",
"1X c #CCFD91",
"2X c #C7F79B",
"3X c #D2FF94",
"4X c #D4FE9B",
"5X c #D9FF97",
"6X c #CBCEB6",
"7X c #D8FDA7",
"8X c #D6F5A9",
"9X c #E4FFB2",
"0X c #EBFEBD",
"qX c #E8FFB6",
"wX c #E5FFAD",
"eX c gray85",
"rX c #EFFFC3",
"tX c #E9FAC7",
"yX c #F2FFC4",
"uX c #F3FFCB",
"iX c #E7E8D7",
"pX c #EEFFD3",
"aX c #F4FFD3",
"sX c #F7FFDC",
"dX c #E9EACB",
"fX c #FBFFE3",
"gX c #F7FFE9",
"hX c #FDFFF2",
"jX c #FFFFFE",
"kX c #EAEAE6",
"lX c black",
"zX c black",
"xX c black",
"cX c black",
"vX c black",
"bX c black",
"nX c black",
"mX c black",
"MX c black",
"NX c black",
"BX c black",
"VX c black",
"CX c black",
"ZX c black",
"AX c black",
"SX c black",
"DX c black",
"FX c black",
"GX c black",
"HX c black",
"JX c black",
"KX c black",
"LX c black",
"PX c black",
"IX c black",
"UX c black",
/* pixels */
"                                                                                                                        ",
"                                                                                          6 f 1                         ",
"                                                                                        4 w.rXW.:                       ",
"                                                                                      . c t.2X|.6                       ",
"                                                                                      . w M *.*.3                       ",
"                                                                                        o w c 4                         ",
"                                                                                          . .                           ",
"                                                                                                                        ",
"                                                                                                    .                   ",
"                                                                                                      .                 ",
"                                                                                                      .                 ",
"                                                                                                        .               ",
"                                                                                                        .               ",
"                                                                                                        .               ",
"                                                                                                        .               ",
"                                                                                                        .               ",
"                                                                                                        .               ",
"                                                                                                        .               ",
"                                                                                                        .               ",
"                                                                  . . . .                               .               ",
"                                                                          .                             .               ",
"                                                              .                                         .               ",
"                                                                                                      .                 ",
"                                                            .                   .                   .                   ",
"                                                              .                   .               .                     ",
"                                                            # # o                   .         . .                       ",
"                                                        % 5 N ;.P $                     . .                             ",
"                                                      % v b / 3.R.0                                                     ",
"                                                    % M b / &.3.[.XX<                                                   ",
"                                                  = N ^ ^ [ *.3._.7Xu                                                   ",
"                                              $ = ;./ n ~ | 1.2.R.3X6X+                                                 ",
"                                          # 6 U 3._ n n G O.r.2.U.*XdXk                                                 ",
"                                  . . y r P 4.2.` n Z S ..#.y.u.s.{.9XdXz                                               ",
"                            . . 3 P P <.4.2.&.) n B B H L +.#.i.d.I.#XuXiXk                                             ",
"                        o o U :.:.4.2.1.{ } ( S B B V C L b.N.i.d.s.U.<XsXiXk                                           ",
"                    * r 8.>.6.2.| ` '  . .G A V V V C l.x.b.B.Z.f.g.s.R.,XaXkXk <                                       ",
"                7 t P.7.2.| ` ! G G F S H C V V V h.j.z.v.N.C.S.g.g.U.U.{.1XfXjXeXj                                     ",
"              8 L.Y.-._ ( Q G D S A C C V V h.h.h.h.k.z.b.M.Z.F.).).]. X$X4XpXjXjXeXj                                   ",
"            8 L.U.-.~ Q G S A H H C C C h.j.j.j.j.k.z.v.M.Z.J._.}.@X,XwXaXhXjXjXjXjXeXj                                 ",
"          7 L.9.;.) Q F J H H k.k.k.j.k.k.k.l.z.z.z.v.M.C.H.).}.#X>XqXaXhXjXjXjXjXjXjXeX<                               ",
"        o ~.U.1.4 n D J H K l.l.l.l.l.l.z.z.z.v.v.m.M.C.D.(.}.#X*X7XuXgXjXjXjXjXjXhXsXhXk                               ",
"        f .X6.| 5 e J H K l.z.x.x.x.v.v.v.n.m.M.C.A.Z.S.J._.+X$X>X9XuXfXjXjXjXjXjXgX9XuXkX+                             ",
"      X oX_.2.' e ; i p i x.z.p v.b.N.B.B.C.A.D.G.H.G.H.(.[.+X=X>XqXyXaXjXjXjXjXjXpX@X1XiX+                             ",
"      X ~.K.{ ! S 5 - - i v.L o 5 Z A.p V.G.H.J.F.J.J.^.(.].+X#X>X9XyXuXfXhXhXhXfX4XU.|.0X-X                            ",
"      c.|.4.[ Q D C V C z.v.b.B h x > O w.^.^.'.t Y ^.^.^.E g @X&X4X0XyXyXuXaXaXuX<Xs.T.5X6XX                           ",
"    . E.}.<.` m J H l.z.v.b.m.J . x 6X2 w.^.^.^.Y ; T e.T ; E #X&X>X7X0X0XrXyXfXjXfXOX7.*X;XX                           ",
"      E.|.<.` m D H K x.b.b.m.@.; @ s , w.^.^.^.F.Y 9 9 9 R %X&X$X,X7X9X9XqX0XhXjXjX:X8.@XXXX                           ",
"      E.#X3.[ Q G H H z.v.b.b.M.q.8 a $ w.^.^.^.^.^.^./.(.).].#X*X*X>X3X5X3X,XtXjXhXOX7.+XXXX                           ",
"      Q.1X6.*.( G A H K v.b.b.M.D.e.T R F.^.^.^.^.^.^.^.(.(.).{.+X$X$X&X&X#X@X#X:XOXq.p..Xf                             ",
"      1 ;XI.<.[ Q S H K x.v.b.m.C.G././.^.^.^.^.^.^.^.^.^.(.(.).[. X@X#X#X#X}.T.u.G m a..Xo                             ",
"      . ;X+X9.2.)  .F J L v.b.m.M.S.H.H.J.^.^.^.^.^.J.^.^.^././.(.)._.{.`.T.f.y. .n _ T.~.O                             ",
"        !.4X`.6.*.(  .F J L @.b.N.C.S.H.H.H.J.J.J.^.J.J.J.^.J.J.J.^.J.g.f.d.y.$.n m p.R.:                               ",
"        O 8X,XR.6.&.(  ...F +.@.@.M.Z.S.G.G.G.H.H.J.J.J.H.J.J.H.f.d.d.d.i.r.O.m m -.I.W $                               ",
"          l 8X>X_.7.=.(  . .+.+.+.@.#.i.S.D.G.H.H.H.H.g.f.f.d.d.u.u.i.r.o.X.( ) 2.U.Y.6                                 ",
"            l 8X1X|.P.2.` !  ...+.+.+.#.#.y.i.u.u.d.d.u.u.u.u.y.y.r.O.O.( ~ { 5.9.I.I                                   ",
"              l ;X7X*X_.P.-.} )  . . ...+.+.#.#.#.y.y.r.o.o.o.X.' ' ~ ] [ *.6.K.>.I                                     ",
"                X c.W.5X&X{.T.p.-.| ( ( Q Q  . . .' ' ' ' ' ' ] ] [ =.2.9.U.:.I o                                       ",
"                    - l l oX>X#X].T.p.t.{ [ } } } ` { { { &.2.5.0.U.I.P.I d :                                           ",
"                          u f z 1X<X@X`.T.a.8.5.<.<.<.<.3.3.,.q q 0 0 8                                                 ",
"                                1 1 > > : * * * & & & & * * *                                                           "
};
