/* XPM */
static char *b311f698322d40feca3782ddbdb5d033f14jfS7cl0b4Sd98_1[] = {
/* columns rows colors chars-per-pixel */
"60 60 256 2 ",
"   c None",
".  c #000100",
"X  c #0A0B07",
"o  c #061804",
"O  c #191918",
"+  c #101D0C",
"@  c #082706",
"#  c #1A2705",
"$  c #1C3103",
"%  c #1A3207",
"&  c #1A3610",
"*  c #252A02",
"=  c #22390C",
"-  c #253513",
";  c #293519",
":  c #3F3B00",
">  c #1F1F20",
",  c #292A27",
"<  c #2D3727",
"1  c #323232",
"2  c #32352A",
"3  c #034D00",
"4  c #184203",
"5  c #1D531D",
"6  c #174A15",
"7  c #2E5209",
"8  c #2A4113",
"9  c #334A1A",
"0  c #355817",
"q  c #344E07",
"w  c #156700",
"e  c #037803",
"r  c #106A0B",
"t  c #3C6518",
"y  c #3B5527",
"u  c #256724",
"i  c #2D712D",
"p  c #565400",
"a  c #444B02",
"s  c #457311",
"d  c #676500",
"f  c #7C7C00",
"g  c #716F00",
"h  c #454F37",
"j  c #5C7D32",
"k  c #585956",
"l  c #4E5145",
"z  c #657B45",
"x  c #777777",
"c  c #168F10",
"v  c #0CBB09",
"b  c #16BE08",
"n  c #18A818",
"m  c #19B617",
"M  c #14A807",
"N  c #23BD1A",
"B  c #33BB08",
"V  c #239B23",
"C  c #299B29",
"Z  c #339B34",
"A  c #2B832B",
"S  c #1FAB20",
"D  c #22A422",
"F  c #25A925",
"G  c #2DA32D",
"H  c #27B827",
"J  c #34A134",
"K  c #3BA43B",
"L  c #38AA38",
"P  c #36AD34",
"I  c #3ABB3A",
"U  c #4E8F11",
"Y  c #588829",
"T  c #458E2F",
"R  c #5BA826",
"E  c #0EC702",
"W  c #15C30A",
"Q  c #17C711",
"!  c #1CC21C",
"~  c #1DC817",
"^  c #27C90A",
"/  c #37D407",
"(  c #26CA14",
")  c #36D316",
"_  c #33CD10",
"`  c #27C427",
"'  c #33CA33",
"]  c #39CD39",
"[  c #35C435",
"{  c #3BD636",
"}  c #39D628",
"|  c #3EE024",
" . c #44D804",
".. c #42C417",
"X. c #49DA13",
"o. c #59DE1C",
"O. c #55D309",
"+. c #63DD1C",
"@. c #71CB10",
"#. c #4AE005",
"$. c #58E20A",
"%. c #5BE115",
"&. c #67E70B",
"*. c #75EB0B",
"=. c #68E713",
"-. c #77ED16",
";. c #78F514",
":. c #70F10B",
">. c #4CDF23",
",. c #46D83A",
"<. c #52D334",
"1. c #75D52D",
"2. c #44E029",
"3. c #5DE632",
"4. c #54E534",
"5. c #50E22F",
"6. c #74EE25",
"7. c #79F223",
"8. c #66E734",
"9. c #78E539",
"0. c #78F237",
"q. c #67E72C",
"w. c #43A943",
"e. c #42A742",
"r. c #44B344",
"t. c #44BD44",
"y. c #7DA356",
"u. c #44C444",
"i. c #44CC44",
"p. c #48CA41",
"a. c #45D344",
"s. c #49DB44",
"d. c #52DD44",
"f. c #4EE244",
"g. c #54E444",
"h. c #5CE644",
"j. c #58E945",
"k. c #61E544",
"l. c #63EA44",
"z. c #6BEB44",
"x. c #7CEC43",
"c. c #73F344",
"v. c #7BF344",
"b. c #989800",
"n. c #8A8B00",
"m. c #B2B200",
"M. c #81EB0D",
"N. c #87F717",
"B. c #84EE10",
"V. c #87D934",
"C. c #88F727",
"Z. c #90FF24",
"A. c #91FE2E",
"S. c #87F637",
"D. c #94FD34",
"F. c #95F63C",
"G. c #98FC38",
"H. c #8AE426",
"J. c #D8D800",
"K. c #C2C200",
"L. c yellow",
"P. c #EEEC00",
"I. c #87AB54",
"U. c #8DA46A",
"Y. c #94DA4B",
"T. c #88D142",
"R. c #83F444",
"E. c #8AFA44",
"W. c #95FE44",
"Q. c #9CFE43",
"!. c #9BF645",
"~. c #8EE84B",
"^. c #A3FF4A",
"/. c #A4FF44",
"(. c #A5FF53",
"). c #ABFF53",
"_. c #ADFF5B",
"`. c #A2F151",
"'. c #B2FF5C",
"]. c #9DCB62",
"[. c #AEFD66",
"{. c #B5FF62",
"}. c #B9FF67",
"|. c #B5FE6B",
" X c #BBFF6D",
".X c #BDFF74",
"XX c #B8FD77",
"oX c #C1FF75",
"OX c #C3FF7C",
"+X c #C9FF7F",
"@X c #939393",
"#X c #9AA287",
"$X c #A6A79E",
"%X c #ABABA7",
"&X c #B8B8B6",
"*X c #B0CC96",
"=X c #BAFB93",
"-X c #BFD6A4",
";X c #C4FF82",
":X c #CAFF85",
">X c #CCFF8C",
",X c #C5FE89",
"<X c #CAFF91",
"1X c #D2FF94",
"2X c #D9FF9A",
"3X c #D2FF8D",
"4X c #C8CCB9",
"5X c #DBFFA2",
"6X c #D8FFA7",
"7X c #DAFFB8",
"8X c #E2FFAD",
"9X c #E5FFB4",
"0X c #E4FFBC",
"qX c #ECFFBD",
"wX c #D1D4C7",
"eX c #EBFFC5",
"rX c #ECFFCC",
"tX c #E4FBC3",
"yX c #F2FFC6",
"uX c #EDFCD3",
"iX c #F7FFD9",
"pX c #FCFFE4",
"aX c #FBFFED",
"sX c #F6FFE7",
"dX c #FEFEF4",
"fX c #FFFFFE",
"gX c gray96",
"hX c gray92",
"jX c black",
"kX c black",
"lX c black",
"zX c black",
"xX c black",
"cX c black",
"vX c black",
"bX c black",
"nX c black",
"mX c black",
"MX c black",
"NX c black",
"BX c black",
"VX c black",
"CX c black",
"ZX c black",
"AX c black",
"SX c black",
"DX c black",
"FX c black",
"GX c black",
"HX c black",
"JX c black",
"KX c black",
"LX c black",
"PX c black",
"IX c black",
"UX c black",
/* pixels */
"                                                                                                                        ",
"                                                                                                                        ",
"                                                                                                                        ",
"                                                                                                                        ",
"                                                                                                                        ",
"                                                                                                                        ",
"                                                                                                                        ",
"                                                                                                                        ",
"                                                                                                                        ",
"                                                                                                                        ",
"                                                                                                                        ",
"                                                                                                                        ",
"                                                                                                                        ",
"                                                                                                                        ",
"                                                                                                                        ",
"                                                                                                                        ",
"                                                                                          4 0 <                         ",
"                                                                                        3 ..=X*X<                       ",
"                                                                                      . e _ =X7Xy                       ",
"                                                                                      . e M ..<.4                       ",
"                                  . . . . .                                             o e e 3 . .                     ",
"                                            . .                                           . .       .                   ",
"                              .                   .                                                   .                 ",
"                                                                                                      .                 ",
"                                                                                                      .                 ",
"                                                        .                                           .                   ",
"                                      .                   .                                         .                   ",
"                                      t s y                   .                                                         ",
"                                    w +.S.~.y.U., .             . . .                         .                         ",
"                                  . c #.-.G.'.oX*X$XO                 . . .           . . . .                           ",
"                                  o c ^ #.*.C.^.<XpX%XO                     . . . . .                                   ",
"                                  w E E / %.-.C.(.8XdX%X,                                                               ",
"                                  w E v ( ) %.-.C._.9XfX%XO                                                             ",
"                                4 M v m ( ) >.q.-.A.'.7XaX&X@XX X                                                       ",
"                              = O.^ n n H } 5.3.6.7.A._.>XtXuX4XwXk O                                                   ",
"                            9 1. .m n D H ' ,.3.8.0.C.D.^.(.|.<X0XtXwXh ,                                               ",
"                        2 h Y.%.( n V C P I ,.k.8.8.0.S.G.G./.^.{.>X9XrX4Xk ,                                           ",
"                  X z z ]._.o.( m D C J P [ a.g.k.z.0.0.D.G.G.^.).|.,X2X0XpX%Xx X                                       ",
"              . z I.oX_.9.) ( m F C Z J I u.i.f.h.z.c.v.S.G.G.^.).'.oX>X1X9XdXfX%Xx                                     ",
"          X 0 @.C.G.6.) ~ m F C J J K e.r.t.a.f.h.z.c.v.R.W.Q.)._.|.;X:X1X8XiXfXfXgXx                                   ",
"        8 @.M.N.;.X.~ N F F G Z J K w.w.r.u.a.g.h.l.c.v.R.W.^.}. X.X:X2XeXsXfXfXfXfXfXx                                 ",
"      9 V.N.@.U B ! H F C J J J K w.w.w.t.i.s.g.h.l.c.v.R.(. XoXoX:X5XeXdXfXfXfXfXfXfXfXx                               ",
"    y T.C...s : @ i G J J K K w.w.w.r.t.i.a.g.h.h.z.c.v.W.{.oXOX+X2XqXpXfXfXfXfXfXfXfXfXhXO                             ",
"    Y Z.O.@ d n.. @ Z J w.r.r.r.r.r.u.a.a.d.k.h.k.c.v.R.Q.}.+X>X:X5XyXpXfXfXfXfXfXfXpXiXgX@X                            ",
"  9 H.&.^ * J.J.m.* Z r.r.r.r.t.u.i.a.s.p.u & = & T x.E.).oX:X>X3X8XyXiXdXfXfXfXfXfXuX5XuXwX.                           ",
"  7 ;. .b o g b.X + e.K K u.u.i.a.a.s.a.u . g P.* X R W.)..X;X:X1X8XqXyXpXdXfXfXfXaXeX2X1X4X1                           ",
"  Y :./ W e a p X i r.i u L t.t.J f.g.,.# p m.L.f a 0 Q.)..X;X:X1X8X9XqXyXiXpXpXiXiXaXsX6XrX$X                          ",
"< .X-.^ W n r 6 i w.u.L u + L J 6 j.g.,.# f K.L.b.d 0 W.^. X;X;X1X8X9X9XqXqXeXeXeXsXfXfXtX5X#X                          ",
"< ,X-./ W m D G P t.i.a.L A 5 5 L j.g.s.5 . f L.* . T W.^.{.OX;X>X2X6X9X9X9X0X0X8X0XaXsX<XOXU.                          ",
"1 tXF. .v M n V G I i.i.a.a.L L f.g.g.j.<.5 * q # T x.W./.'. X;X;X;X,X1X6X9X9X5X:XXX;X.X(.}.U.                          ",
"1 wX|.$.E v n V G P ] i.i.i.i.a.s.g.j.h.h.h.3.9.x.x.R.E.^.'.|. X+X;X;XOX;X>X>X:X}.).G.A.Q.{.I..                         ",
"  k 7XS. .b M n V G [ ] i.i.a.i.a.d.g.h.h.l.z.c.v.R.R.E.W.^.'. XoXOXOXOXOX.X.X'.Q.C.-.C.Q.`.j                           ",
"  k pXXX=./ W n D V H ' ] ] { a.i.a.s.g.g.j.k.l.z.v.v.R.E.W./.). X X.X.X X{.^.S.C.-.-.C.).T..                           ",
"  , %XrX[.=./ ^ m n V F H ' ' ] ] ] ] { { g.h.h.h.3.8.0.0.0.S.S.F.!.Q.!.!.S.C.7.-.:.;.W.`.0                             ",
"    > %X0X).-.$._ m n D D H H ' ' ' ' ' ' { { ,.4.5.4.3.3.3.8.8.8.6.6.6.7.-.=.&.&.:.F.).Y.X                             ",
"      O %X4X XC.:.$._ m n n m H H ` ` ` ' ' ' { { 2.| >.>.>.>.>.>.o.+.o.%.%.$.&.:.D.).Y.8                               ",
"        . 1 #X]./.N.*.&.X._ N N m m m ! ! ! ! ! ~ ~ ( ( ) ) ) ) ( _ ) ) $.=.*.B.Z.~.R 9                                 ",
"              l z U F.Z.N.-.=.o.X.X.) _ _ ^ ( Q Q Q Q Q ( ) ) /  .$.&.*.B.B.B.U s t                                     ",
"                    y 0 7 7 V.D.F.!.!.!.~.R.9.q.%.$.#.#.$.*.*.*.M.M.B.@.7 7 7                                           ",
"                            & = - - - ; ; - - = % $ $ $ $ $ $ $ $ $ $ $                                                 "
};
