/* XPM */
static char *b311f698322d40feca3782ddbdb5d033f14jfS7cl0b4Sd98_3[] = {
/* columns rows colors chars-per-pixel */
"60 60 256 2 ",
"   c None",
".  c #010201",
"X  c #020C03",
"o  c #0B0B04",
"O  c #0C1304",
"+  c #041A04",
"@  c #161A07",
"#  c #191919",
"$  c #1A0E00",
"%  c #241A00",
"&  c #072507",
"*  c #172909",
"=  c #1C3905",
"-  c #193617",
";  c #1C2115",
":  c #2C2B01",
">  c #202E0F",
",  c #2B370D",
"<  c #1C3220",
"1  c #2D2D2D",
"2  c gray23",
"3  c #4D3E01",
"4  c #104909",
"5  c #2E4B12",
"6  c #3B561C",
"7  c #395917",
"8  c #284D0A",
"9  c #0C7200",
"0  c #2F6813",
"q  c #2E4D2B",
"w  c #1E6623",
"e  c #267527",
"r  c #3A7723",
"t  c #266B24",
"y  c #595600",
"u  c #484600",
"i  c #654900",
"p  c #6E5100",
"a  c #7A5A00",
"s  c #467214",
"d  c #676400",
"f  c #42433E",
"g  c #415826",
"h  c #4A7224",
"j  c #587636",
"k  c #4F6D2D",
"l  c #464847",
"z  c #545356",
"x  c #596245",
"c  c #5F6652",
"v  c #637847",
"b  c #697952",
"n  c #727272",
"m  c #957101",
"M  c #069800",
"N  c #199300",
"B  c #2F9514",
"V  c #04B600",
"C  c #18B514",
"Z  c #24B30C",
"A  c #299427",
"S  c #38952D",
"D  c #378937",
"F  c #339B34",
"G  c #389438",
"H  c #2D8B2D",
"J  c #28A728",
"K  c #28B927",
"L  c #38A937",
"P  c #38B839",
"I  c #469211",
"U  c #53B712",
"Y  c #64BB0E",
"T  c #558E2C",
"R  c #40A031",
"E  c #68B22C",
"W  c #15C608",
"Q  c #14C213",
"!  c #1AC415",
"~  c #3BD50B",
"^  c #38D403",
"/  c #26CC1B",
"(  c #2AD112",
")  c #34D31E",
"_  c #38D516",
"`  c #30C90F",
"'  c #23C521",
"]  c #29C629",
"[  c #2DCC2B",
"{  c #26C925",
"}  c #2CD221",
"|  c #37D627",
" . c #33C233",
".. c #33CA33",
"X. c #3FCB3F",
"o. c #3ACF33",
"O. c #3AD535",
"+. c #35CB25",
"@. c #44DB18",
"#. c #56DB19",
"$. c #4ACD0B",
"%. c #69C619",
"&. c #6CD70D",
"*. c #4AE10B",
"=. c #5AE603",
"-. c #4DE314",
";. c #59E617",
":. c #68EB04",
">. c #62EB12",
",. c #66E91A",
"<. c #74EE1B",
"1. c #67F018",
"2. c #7CF819",
"3. c #72F508",
"4. c #45DC25",
"5. c #45D939",
"6. c #58E628",
"7. c #58E435",
"8. c #4FE335",
"9. c #68EB23",
"0. c #76F226",
"q. c #67EA35",
"w. c #74F132",
"e. c #79F135",
"r. c #7BF23C",
"t. c #3CBE40",
"y. c #448D44",
"u. c #448344",
"i. c #449444",
"p. c #449D44",
"a. c #738A51",
"s. c #44A344",
"d. c #44AC44",
"f. c #43B443",
"g. c #44BB44",
"h. c #77A848",
"j. c #44C544",
"k. c #43CB44",
"l. c #46DB44",
"z. c #46D743",
"x. c #56D541",
"c. c #6CDD4E",
"v. c #4DE345",
"b. c #52E644",
"n. c #5BE544",
"m. c #5DEB45",
"M. c #64EA45",
"N. c #6AEC45",
"B. c #63E441",
"V. c #6BF244",
"C. c #7BF344",
"Z. c #75F344",
"A. c #7FEA4C",
"S. c #858200",
"D. c #959400",
"F. c #A09E00",
"G. c #A0A000",
"H. c #D8A500",
"J. c #E3AF00",
"K. c #E5B000",
"L. c #83F91E",
"P. c #85D731",
"I. c #87F628",
"U. c #91E939",
"Y. c #88F736",
"T. c #9DFF3C",
"R. c #98FB39",
"E. c #8FEB32",
"W. c #C4C400",
"Q. c #DADA00",
"!. c #F3F300",
"~. c #88B256",
"^. c #8DA76E",
"/. c #8FC953",
"(. c #82F344",
"). c #85FB45",
"_. c #8DFA44",
"`. c #99FA44",
"'. c #97ED4B",
"]. c #A3FE4D",
"[. c #A6FF47",
"{. c #AAFF55",
"}. c #A5FC54",
"|. c #B1FF5A",
" X c #A2EC5B",
".X c #98E760",
"XX c #B3FF62",
"oX c #BCFF6D",
"OX c #B4FB69",
"+X c #BBFF72",
"@X c #B8E77C",
"#X c #9FCA6E",
"$X c #C1FF75",
"%X c #C3FF79",
"&X c #C0FF6E",
"*X c #8C9496",
"=X c #ABACAA",
"-X c #98AFBB",
";X c #B0C991",
":X c #B9C6A8",
">X c #C5FF82",
",X c #CCFF8B",
"<X c #C7FD87",
"1X c #D2FF89",
"2X c #CBFC93",
"3X c #D4FE9A",
"4X c #C7E791",
"5X c #C6CBB1",
"6X c #D9FCA6",
"7X c #DCFCB7",
"8X c #CEE4B0",
"9X c #E6FFBC",
"0X c #E6FFB5",
"qX c #E3FFA8",
"wX c #DADAD8",
"eX c #CBCDC4",
"rX c #EBFFC7",
"tX c #F1FFCB",
"yX c #F4FFD6",
"uX c #E4F3D6",
"iX c #ECECE9",
"pX c #FBFFEC",
"aX c #F8FFE4",
"sX c #FFFFFE",
"dX c #FEFFF6",
"fX c #EDFBEA",
"gX c black",
"hX c black",
"jX c black",
"kX c black",
"lX c black",
"zX c black",
"xX c black",
"cX c black",
"vX c black",
"bX c black",
"nX c black",
"mX c black",
"MX c black",
"NX c black",
"BX c black",
"VX c black",
"CX c black",
"ZX c black",
"AX c black",
"SX c black",
"DX c black",
"FX c black",
"GX c black",
"HX c black",
"JX c black",
"KX c black",
"LX c black",
"PX c black",
"IX c black",
"UX c black",
/* pixels */
"                                                                                                                        ",
"                                                      . . . . .                                                         ",
"                                                  .             . .                                                     ",
"                                                                    .                                                   ",
"                                                                      .                                                 ",
"                                            & *                       .                                                 ",
"                                          9 ^ =.s                       .                                               ",
"                                        9 W *.:.`.v                       .                                             ",
"                                      + V W ^ =.I.2Xb                       . .                                         ",
"                                    . N V W ~ *.<.>X6Xb                         . . . .                                 ",
"                                    * Z Q Q ( _ -.`.3X6Xb                               . .                             ",
"                                  > U ( C C { +.| 9.].2X6Xb                                 . .                         ",
"                              * h E ;.C J J K [ | 4.9.R.%X3Xa.x                                 .                       ",
"                            O E Y.,.) J A J L  .O.5.6.0.I.{.1X4Xx .                               .                     ",
"                          T %.;._ +.J H H F L g.z.5.8.w.0.0.`.oX4X:Xf                               .                   ",
"                      > I <.-.) K J F D D i.s.g.k.l.8.q.w.0.0.R.+X9XwXl                             .                   ",
"                    k U.1.@.+.K J F D y.y.i.s.g.k.l.b.q.w.w.0.0.R.%XtXwXl                             .                 ",
"                g T E.,._ ] K L F D y.u.u.i.s.g.k.l.b.N.r.e.e.0.L.[.2XpXwXl                           .                 ",
"              k '.Y.;.) ] L F G y.y.u.u.y.p.d.g.k.l.n.N.)._.`.].{.XX>XrXsXwXl                           .               ",
"            5 E s = A K L F G i.y.y.y.y.p.s.d.j.l.l.M.C._.|.oXoX>X6XtXpXsXsXc                           .               ",
"            8 4 D.: X e F G y.y.y.i.p.p.d.f.g.k.v.m.)._.].oX%X>X6XyXsXsXsXsXiX1                         * <             ",
"          = I : W.S.u - i.y.y.i.i.p.s.f.g.k.j.F H S E '.XX$X$X2XrXdXsXsXsXsXsXn                       0  X7Xj           ",
"          I B : Q.G.d - i.i.i.s.s.f.g.j.k.k.e o d d O T OX$X%X3XyXdXsXsXsXsXsXiX#                   & Z .X7XU.O         ",
"        * ;.$.& F.: . q i.q G g.j.j.k.z.v.L o . Q.Q.. O ~.%X%X3XyXdXsXsXsXsXsXiX#                   + M ` 9.$.O         ",
"        - #.6.A 8 @ q y.s.- + q P t F v.m.S y W.!.!.W.y h.%X$X3XtXpXsXsXsXsXpXtX=Xo                   4 M N 4           ",
"      X U 1.6...P L i.p.d.L < -Xl # A m.M.R O @ Q.Q.@ O ~.%X$X,X0XtXaXpXdXaX6X6X5Xo                     X X             ",
"      X U 1.4...X.d.p.s.f.j.- *X=Xz S m.n.x.t X S.S.X h  X$X$X$X1XqX0X9X0X,X|.<X5Xo                                     ",
"      X Y >.4...X.d.p.d.g.k.& . o $ S m.n.M.B.T r r T (.|.oX$X$X%X%X>X>X,X%XT.$X;Xo                                     ",
"      . /.<.4.[ ..d.p.d.j.k.& o a i S M.M.V.C.).).).)._.[.|.&X$X$X$XoX>XrXaX<X+X;Xo                                     ",
"      o ;XI.| [ ..f.d.f.j.k.* p H.p S N.N.C.(.(.(.(.(.)._.`.{.XXOXOX{.>XpXsXuX%X#Xo                                     ",
"      o 5X].@.+...P d.f.j.k.* m J.p S N.V.C.(.(.(.(.(.(.(.(._.`.].].R.].7XfX2XXX#X.                                     ",
"        *X<X,.} [ P P g.j.k.t m J.p S N.V.C.(.(.(.(.(.(.(.(.(.(.(.e.w.w.A.c.q.]./.X                                     ",
"        # 8X_.@.[ ..P P g.k.P : K.p S M.N.Z.(.(.(.(.(.(.(.(.(.(.(.e.0.9.@./ ;.`.j                                       ",
"        # uX,X9.) ]  .P P j.j.r 3 % S m.M.V.V.C.C.C.(.(.(.(.(.(.e.w.9.#.Z ` :.U.O                                       ",
"          z yX}.-.} ]  .P P k.k.w 4 z.b.b.m.M.N.V.V.V.C.Z.C.e.w.q.6.4.! C ^ L.7                                         ",
"          1 wX0XY.;.) ]  .P ..X.e e l.v.b.b.v.n.n.n.n.B.7.7.7.8.| } ! ! ~ :.P.*                                         ",
"            l eX,X0.-.) [ ] ..J e X.X.X.5.5.5.5.5.5.5.5.5.O.| } / Q W ~ :.&.5                                           ",
"              n pXOX<.;.@.{ ] ] [ ........o.o.O.O.O.O.| | } ! Q Q W ^ =.3.s                                             ",
"              2 eXtXOX2.>.@.( { ' ] ] ] ] ] ] { { ] { ' ! Q Q W ( *.=.:.Y =                                             ",
"                1 f 8X+XI.>.*.@.( / { ' ' ' ' ' ' / Q Q Q Q W ^ =.:.&.= *                                               ",
"                    q ;X@X].2.>.*.*.@._ _ ( ( ( ( ~ ~ ~ ~ *.3.2.&.%.=                                                   ",
"                      . c ^.h.`.I.2.1.>.>.;.;.;.>.,.2.I.R.T.E E 7 . .                                                   ",
"                          . o v j h P.[.T.T.T.T.T.|.+X$Xh.h o .                                                         ",
"                                    q g 6 6 7 6 6 j ,X~.;                                                               ",
"                                                    v v                                                                 ",
"                                                                                                                        ",
"                                                                                                                        ",
"                                                                                                                        ",
"                                                                                                                        ",
"                                                                                                                        ",
"                                                                    .                                                   ",
"                                                                                                                        ",
"                                                                                                                        ",
"                                                                                                                        ",
"                                                          @                                                             ",
"                                                          a.@                                                           ",
"                                                                                                                        ",
"                                                                                                                        ",
"                                                                                                                        ",
"                                                                                                                        "
};
