/* XPM */
static char *b311f698322d40feca3782ddbdb5d033f14jfS7cl0b4Sd98_6[] = {
/* columns rows colors chars-per-pixel */
"60 60 256 2 ",
"   c None",
".  c #010101",
"X  c #070B04",
"o  c #071702",
"O  c #151809",
"+  c #161713",
"@  c #072704",
"#  c #1D2D0E",
"$  c #192306",
"%  c #16370C",
"&  c #21350D",
"*  c #22380D",
"=  c #233511",
"-  c #293914",
";  c #262500",
":  c #1F1F20",
">  c #292927",
",  c #363533",
"<  c #174C0E",
"1  c #2D4316",
"2  c #334C1B",
"3  c #3A591B",
"4  c #335008",
"5  c #086800",
"6  c #157601",
"7  c #2A7800",
"8  c #2A6000",
"9  c #325529",
"0  c #1D6522",
"q  c #256726",
"w  c #287728",
"e  c #337C33",
"r  c #4C4B00",
"t  c #504F00",
"y  c #5C5A00",
"u  c #43790E",
"i  c #437115",
"p  c #767500",
"a  c #485535",
"s  c #4C5C33",
"d  c #426320",
"f  c #537D2C",
"g  c #4C7527",
"h  c #3F3F40",
"j  c #494945",
"k  c #5E654A",
"l  c gray44",
"z  c #6E7F50",
"x  c #048800",
"c  c #338B07",
"v  c #19BA1A",
"b  c #13AB0B",
"n  c #27BB03",
"m  c #3A893A",
"M  c #349835",
"N  c #2B8F2B",
"B  c #28A828",
"V  c #23BC23",
"C  c #2ABB29",
"Z  c #31B92F",
"A  c #34A234",
"S  c #36A937",
"D  c #37B837",
"F  c #5E932C",
"G  c #43852C",
"H  c #618E38",
"J  c #6DA436",
"K  c #7DBC3E",
"L  c #55AD10",
"P  c #18C611",
"I  c #18C516",
"U  c #1DCC0D",
"Y  c #26CB0B",
"T  c #29D20A",
"R  c #35D509",
"E  c #24C819",
"W  c #2BD315",
"Q  c #36D517",
"!  c #38C51A",
"~  c #23C523",
"^  c #29C629",
"/  c #2BC927",
"(  c #31C825",
")  c #27D323",
"_  c #37D524",
"`  c #34CA34",
"'  c #3BCA3B",
"]  c #39D635",
"[  c #4ADA05",
"{  c #46DA1B",
"}  c #53DB1B",
"|  c #54DE0F",
" . c #52E306",
".. c #5BE708",
"X. c #4AE317",
"o. c #58E419",
"O. c #4DE507",
"+. c #66E80C",
"@. c #69EB1B",
"#. c #76ED18",
"$. c #7CF41D",
"%. c #74F01A",
"&. c #6CF116",
"*. c #45DC24",
"=. c #43DA32",
"-. c #47DC37",
";. c #5AD03C",
":. c #6DDD39",
">. c #7ACF32",
",. c #45E225",
"<. c #4DE235",
"1. c #55E435",
"2. c #5CE42A",
"3. c #7BF325",
"4. c #67EB3C",
"5. c #77F033",
"6. c #79F237",
"7. c #6CED24",
"8. c #6ACA12",
"9. c #448D44",
"0. c #448444",
"q. c #449744",
"w. c #43A443",
"e. c #44AB44",
"r. c #44BC44",
"t. c #44B444",
"y. c #6E884B",
"u. c #3FC140",
"i. c #44CC44",
"p. c #46CA42",
"a. c #44D344",
"s. c #46D944",
"d. c #4DDC44",
"f. c #52DA43",
"g. c #56E344",
"h. c #5AE544",
"j. c #4CE144",
"k. c #63EC44",
"l. c #6CED44",
"z. c #75ED43",
"x. c #75F344",
"c. c #7CF344",
"v. c #6BF144",
"b. c #969500",
"n. c #AEAE00",
"m. c #82F51B",
"M. c #86F521",
"N. c #8DF52B",
"B. c #8FFE2C",
"V. c #88F626",
"C. c #91FB2B",
"Z. c #88F834",
"A. c #9BFE3B",
"S. c #97FB35",
"D. c #8CE632",
"F. c #A2FD3E",
"G. c #C3C300",
"H. c yellow",
"J. c #F3F200",
"K. c #EFEF00",
"L. c #8B9F6C",
"P. c #83C341",
"I. c #87CB44",
"U. c #92DC48",
"Y. c #96CA57",
"T. c #82F243",
"R. c #84FB44",
"E. c #8CFD44",
"W. c #8CF74A",
"Q. c #92FE44",
"!. c #9CFF42",
"~. c #9AF847",
"^. c #96ED50",
"/. c #A2FF45",
"(. c #A4FE4C",
"). c #A9FF4C",
"_. c #ABFF47",
"`. c #A5FD52",
"'. c #ABFF54",
"]. c #AEFF5B",
"[. c #B0FF52",
"{. c #B2FF5E",
"}. c #A5E85B",
"|. c #A7CA77",
" X c #8FEE74",
".X c #ADFC60",
"XX c #B4FF62",
"oX c #BBFF6C",
"OX c #B6FB69",
"+X c #BDFE73",
"@X c #BDFD7C",
"#X c #ADE96E",
"$X c #C0FF75",
"%X c #C3FE7A",
"&X c #C9FF7D",
"*X c #9CA282",
"=X c #ABABA9",
"-X c #AECD85",
";X c #BDEB82",
":X c #C3EA8E",
">X c #CBFF86",
",X c #CDFF8B",
"<X c #C5FF82",
"1X c #CAED96",
"2X c #D7FF99",
"3X c #D9FF9E",
"4X c #D1FF93",
"5X c #D0F895",
"6X c #C7CFB1",
"7X c #DCFFA7",
"8X c #D8F2AE",
"9X c #E1FDAE",
"0X c #E6FFB4",
"qX c #ECFFBB",
"wX c #E8FFB8",
"eX c #F0FFBF",
"rX c #CECFCB",
"tX c #EBFFC3",
"yX c #F3FFC6",
"uX c #EAFED0",
"iX c #F4FFD4",
"pX c #F7FFD9",
"aX c #E6EECE",
"sX c #FEFFEC",
"dX c #F8FFE5",
"fX c #FFFFF6",
"gX c #FFFFFE",
"hX c #EFEFE7",
"jX c black",
"kX c black",
"lX c black",
"zX c black",
"xX c black",
"cX c black",
"vX c black",
"bX c black",
"nX c black",
"mX c black",
"MX c black",
"NX c black",
"BX c black",
"VX c black",
"CX c black",
"ZX c black",
"AX c black",
"SX c black",
"DX c black",
"FX c black",
"GX c black",
"HX c black",
"JX c black",
"KX c black",
"LX c black",
"PX c black",
"IX c black",
"UX c black",
/* pixels */
"                                                                                                                        ",
"                                                                                                                        ",
"                                                                                                                        ",
"                                                                                                                        ",
"                                                                                                                        ",
"                                                                                                                        ",
"                                                                                                                        ",
"                                                                                                                        ",
"                                                                                                                        ",
"                                                                                                                        ",
"                                                                                                                        ",
"                                                                                                                        ",
"                                                                                                                        ",
"                                                                                                                        ",
"                                                                                                                        ",
"                                                                                                                        ",
"                                                                                                                        ",
"                                                                                                                        ",
"                                                                                                                        ",
"                                                                                                                        ",
"                                                                                                                        ",
"                                                                                                                        ",
"                                                              . . . . . . . . . . . . .                                 ",
"                                                            .                           . .                             ",
"                                                        o o                                 .                           ",
"                                                      7 [ >.1                                                           ",
"                                                    6 [ %.(.U.2                                                         ",
"                                                  6 Y [ M.!.'.J                                                         ",
"                                                6 Y R X.#.m.!.^.d                                 .                     ",
"                                              6 T W Q { o.%.M.'.}.d                                 .                   ",
"                                          # c | Q W ) _ *.7.3.A.oX;Xa                               .                   ",
"                                      2 g N.#.o.) C ^ ] -.2.3.B.'.%X1Xs                               .                 ",
"                                - f f D.B.$.o.( C S Z ] -.1.5.V.S.{.4X1Xk                             .                 ",
"                        . X F J P._.B.%.@.*.( B M A D ' <.4.5.5.3.S.{.3X8X*Xj                                           ",
"                    X 3 I.I.`.(.B.@.o._ ( Z M m m q.r.s.g.l.6.5.5.3.B.oX7XiXrXh +                       .               ",
"                # 1 U.~.).A.$.} *.( ^ Z M M m m 9.w.r.d.h.x.T.Z.6.Z.B.'.>XwXpXhXrX,                     .               ",
"              = P.`./.B.$.} ! V C S A M m 9.0.0.q.e.i.g.l.T.E.!.!._.{.$X3XyXiXsXgXrX,                   .               ",
"            = P./.>.u c ! V B B A M M 9.9.9.9.q.w.r.f.k.c.Q.`.XXoX%X4X9XpXfXfXfXgXgXl                   .               ",
"          # P.F.8.8 p . < N A A S w.q.q.q.q.w.w.t.i.h.l.E.'.oX$X%X2XqXpXgXgXgXgXgXgXrXj                 .               ",
"          1 (.m.8 ; G.O X w A w.e.w.w.w.w.w.e.r.i.f.;.:.^.OX$X%X4XwXyXsXgXgXgXgXgXsXfXl               .                 ",
"        X U.S.+.< b.K.G.y q e.e.e.e.e.e.e.r.i.s.p.q $ 4 $ g #X%X3XqXyXsXgXgXgXgXgXpXtXaX,             .                 ",
"        3 ~.Z.X.5 O G.X X e e.t.r.r.r.r.i.s.j.g.q . r H.r . f %X3X0XeXiXfXgXgXgXdX7X4X9X>                               ",
"      . I.).3.W b < y X 9 e.t.w i.i.a.s.j.h.k.l.& p n.H.n.p - %X2X0XeXyXiXdXdXiX7X+X+X2XL.          .                   ",
"      . Y.).&.Y v N 0 w e.p.D % M N s.w ;.l.c.c.& t b.H.b.t - +X>X7XqXyXqXwX0X2XOX'.XX,X8X+       .                     ",
"      . Y.].@.P v A S p.i.i.i.M @ q ' < :.T.T.T.G . r J.r . H +X%X,X7X0XwX7X4XoX/./.{.%X1X+       .                     ",
"      X |.XX7.P v A Z ' i.i.i.i.u.w % ;.T.T.T.T.z.G * 1 - H OX$X$X$X<X>X,X>X<X+XQ.Z..XoX:X+     .                       ",
"      X |.+X5.Y v B Z ' i.i.i.i.a.d.k.x.T.T.T.T.T.R.E.Q.(.oX$X$X$X$X$X$X$X,XtXuX@X~.].XX;X+     .                       ",
"      X -X%XZ.R v B C ` i.i.i.i.i.d.l.c.T.T.T.T.T.T.R.E.Q.(.XXoX+X$X$X+X+X7XfXgXuX`._.].#XO   .                         ",
"      X -X>XQ.{ P v V ` ` i.i.i.i.s.k.x.c.T.T.T.T.T.T.R.E.Q.~.`.'.{.{.`.`.@XiXgX8X~./.`.}.O   .                         ",
"        9 1X].@.T v B C ` ` i.i.i.a.g.x.x.c.c.T.T.T.T.T.R.E.E.Q.Q.Q.Q.Q.E.W. X XW.N.(.'.3     .                         ",
"        + 6X,X3.R Y v V ^ ` ` i.i.i.s.g.v.x.x.x.c.c.c.c.T.T.R.R.E.E.W.T.6.4.<.*.@.N.'.U.#                               ",
"          , pX.X..R P v v ^ ^ ` ` ' a.s.g.k.v.x.x.x.x.x.x.c.c.c.c.z.4.4.<.] _ o.m.!.'.3     .                           ",
"          > =XiX`. .T P I I ~ ^ ` ` ' ' ] d.h.k.k.l.l.l.l.4.4.4.4.1.1.-._ _ X.&.A.'.>.-     .                           ",
"            > =XuX`...R U I I ~ ^ ~ ^ ` ` ] -.-.-.<.1.1.1.1.1.1.<.<.,._ *.o.$.S.'.P.=       .                           ",
"              : =XiXOX#. .T U I I ~ ~ ~ ^ ` ] ] ] ] =.=.=.<.,.,.,.,.,.o.@.N.(.'.I.#         .     o O O                 ",
"                + =X6X,XF.#. .R Y P I E E ~ ) ) ) ) _ _ _ _ { X.o.o.&.3.A.'.U.K #             . @ L :XL.$               ",
"                  . > *X-X&X(.$...[ R Q W W W Q Q Q Q Q Q X.o...&.m.S.[.^.J 2 .               . 5 } 0X4Xu               ",
"                        a z y.+X'.S.C.#.+..... .O. . ...+.%.m.V.B.A.F f d                       5 n :.3.7               ",
"                              a a 3 3 4 D.N.M.M.M.V.N.S.S.i 4 3 3 3                             @ x b c %               ",
"                                        & & & & & = = = =                                         o o o                 "
};
