/* XPM */
static char *b311f698322d40feca3782ddbdb5d033f14jfS7cl0b4Sd98_4[] = {
/* columns rows colors chars-per-pixel */
"60 60 256 2 ",
"   c None",
".  c #010101",
"X  c #0C0B01",
"o  c #030C04",
"O  c #0C1A02",
"+  c #081303",
"@  c #121806",
"#  c #111914",
"$  c #241E00",
"%  c #0A2100",
"&  c #192D05",
"*  c #083507",
"=  c #163200",
"-  c #193200",
";  c #1B2A14",
":  c #153516",
">  c #252301",
",  c #352500",
"<  c #373700",
"1  c #262D1D",
"2  c #243C0C",
"3  c #272927",
"4  c #2F3723",
"5  c #4B3C01",
"6  c #174600",
"7  c #184A18",
"8  c #124F0F",
"9  c #275201",
"0  c #355915",
"q  c #285219",
"w  c #2F6D00",
"e  c #2B7202",
"r  c #377400",
"t  c #306C0F",
"y  c #3A4529",
"u  c #374535",
"i  c #215122",
"p  c #307322",
"a  c #287127",
"s  c #147813",
"d  c #4A4E00",
"f  c #497E17",
"g  c #407A09",
"h  c #6C6700",
"j  c #4A5837",
"k  c #4B7026",
"l  c #3A6045",
"z  c #576443",
"x  c #6C7D4C",
"c  c #6B7B53",
"v  c #60605F",
"b  c #4C5357",
"n  c #947300",
"m  c #189C18",
"M  c #399800",
"N  c #19AA19",
"B  c #0FBF12",
"V  c #1BB31B",
"C  c #19BA17",
"Z  c #0AB201",
"A  c #26B813",
"S  c #1F9A20",
"D  c #259925",
"F  c #378437",
"G  c #339233",
"H  c #329D32",
"J  c #3B9C3B",
"K  c #3D973D",
"L  c #2F8528",
"P  c #27A827",
"I  c #21B221",
"U  c #2BBC28",
"Y  c #34A334",
"T  c #38A939",
"R  c #3DBC3D",
"E  c #37B437",
"W  c #34B22F",
"Q  c #4A960C",
"!  c #44A500",
"~  c #56B105",
"^  c #58892B",
"/  c #509A2A",
"(  c #66913B",
")  c #62932C",
"_  c #48B836",
"`  c #6DAB27",
"'  c #1AC60C",
"]  c #13C213",
"[  c #1EC31E",
"{  c #1BC613",
"}  c #28CB0D",
"|  c #2DD506",
" . c #3ADA07",
".. c #26C717",
"X. c #31C717",
"o. c #35CE10",
"O. c #25C525",
"+. c #2AC826",
"@. c #38C929",
"#. c #27D224",
"$. c #3CD727",
"%. c #33CA33",
"&. c #3DC83D",
"*. c #39D736",
"=. c #46D914",
"-. c #4DD30B",
";. c #6AD213",
":. c #4BE403",
">. c #58E803",
",. c #58E416",
"<. c #53E90B",
"1. c #62EB01",
"2. c #68E902",
"3. c #64F201",
"4. c #63EB15",
"5. c #76F314",
"6. c #6FF10F",
"7. c #57C137",
"8. c #48DC35",
"9. c #48D130",
"0. c #6FC831",
"q. c #4EE333",
"w. c #48E236",
"e. c #56E53B",
"r. c #58E535",
"t. c #57E723",
"y. c #6BE924",
"u. c #7AF426",
"i. c #6AEB37",
"p. c #7AF234",
"a. c #79E72A",
"s. c #449B44",
"d. c #429442",
"f. c #73934D",
"g. c #44A244",
"h. c #44AA44",
"j. c #44B344",
"k. c #43BA43",
"l. c #7DB842",
"z. c #44C544",
"x. c #44CC44",
"c. c #46DC44",
"v. c #48D744",
"b. c #4CE145",
"n. c #5CE543",
"m. c #59E744",
"M. c #69EC43",
"N. c #64EA43",
"B. c #6AF344",
"V. c #66F044",
"C. c #75F344",
"Z. c #7AF343",
"A. c #78E642",
"S. c #8D8B00",
"D. c #B18500",
"F. c #B7B700",
"G. c #A9A900",
"H. c #C1BE00",
"J. c #E3AE00",
"K. c #82D435",
"L. c #88F72A",
"P. c #89F737",
"I. c #92FC35",
"U. c #97FD3B",
"Y. c #8AEC31",
"T. c #80F414",
"R. c #E6E600",
"E. c #F8F800",
"W. c #CDCD00",
"Q. c #83985F",
"!. c #97B36D",
"~. c #96CA5A",
"^. c #91DE45",
"/. c #A1DE5B",
"(. c #83F443",
"). c #8DFA44",
"_. c #87FC44",
"`. c #95FC44",
"'. c #9CFE48",
"]. c #8FF15A",
"[. c #A3FE4B",
"{. c #A8FF4F",
"}. c #ACFF54",
"|. c #A8FE56",
" X c #B2FE5E",
".X c #A0E851",
"XX c #9AC765",
"oX c #9CD263",
"OX c #A7CD76",
"+X c #B4FF64",
"@X c #B5FF68",
"#X c #BBFF6C",
"$X c #B9FF65",
"%X c #BCFD78",
"&X c #AEF767",
"*X c #C1FF74",
"=X c #C7FF7D",
"-X c #848183",
";X c #B2CD83",
":X c #B9D88E",
">X c #B8F78B",
",X c #C4FF83",
"<X c #CAFF84",
"1X c #CDFF8C",
"2X c #C7FF88",
"3X c #C9FD94",
"4X c #D4FF93",
"5X c #D8FF91",
"6X c #D5FE9A",
"7X c #DBFF9E",
"8X c #D9FF8E",
"9X c #DEFFA6",
"0X c #D9FBA9",
"qX c #D5F0AB",
"wX c #E1FFAB",
"eX c #E5FFB3",
"rX c #ECFFBD",
"tX c #C2DB91",
"yX c #B6CBD8",
"uX c #EAFFC6",
"iX c #F4FFCD",
"pX c #F2FFC7",
"aX c #F9FFDC",
"sX c #FDFFEA",
"dX c #F9FFE4",
"fX c #FFFFFE",
"gX c #FBFFF3",
"hX c black",
"jX c black",
"kX c black",
"lX c black",
"zX c black",
"xX c black",
"cX c black",
"vX c black",
"bX c black",
"nX c black",
"mX c black",
"MX c black",
"NX c black",
"BX c black",
"VX c black",
"CX c black",
"ZX c black",
"AX c black",
"SX c black",
"DX c black",
"FX c black",
"GX c black",
"HX c black",
"JX c black",
"KX c black",
"LX c black",
"PX c black",
"IX c black",
"UX c black",
/* pixels */
"                                                                                .                                       ",
"                                                                            . .                                         ",
"                                                                    . . . .                                             ",
"                                                            . . .                                                       ",
"                                                        . .                                                             ",
"                                                                                                                        ",
"                                                                                                                        ",
"                                                                                                                        ",
"                                                  .                                                                     ",
"                                                .                                                                       ",
"                                                .                                                                       ",
"                                                .                                                                       ",
"                                            6 e r                                                                       ",
"                                          * Z :.2.Q                                                                     ",
"                                        % Z | :.3.L.)                                                                   ",
"                                        6 Z | 1.2.T.}.(                                                                 ",
"                                      o o.Z ' <.,.6.[.,Xf.                                                              ",
"                                      e -.C C o.,.4.L.#X1Xf.                                                            ",
"                                  . f ;.A m V #.$.t.u.`.%X3XQ.o                                                         ",
"                                0 0.a.,.N D P +.*.q.y.u.{.,X6X;Xc                                                       ",
"                            & 0 Y.u.,...D L H W %.8.r.p.I.}.,X0X0Xc 1                                                   ",
"                          q K.L.y.=.X.P D G H E x.v.e.i.p.I.}.%X6X0XqXz y                                               ",
"                      2 f 0.u.,.=.+.P D G G s.j.x.v.n.M.p.p.I.{.@X1X9XeX:Xj                                             ",
"                  @ ) 0.L.4.,.$.+.P H G K d.s.j.x.c.n.M.Z.p.P.U.[.@X<X9XeX:Xy                                           ",
"                O ~ 5.6.,.=.@.W Y H K s.s.d.g.k.x.c.m.M.(.).`.}.#X<X9XpXaXiXtXy                                         ",
"              O ! -.-.=.$.U Y H J s.s.s.s.s.h.z.v.c.m.Z.).{.@X=X7XrXsXfXfXfXaX:X+                                       ",
"            % M M d O s P Y H J s.s.s.s.s.g.k.x.c.m.M.).[.+X*X4XrXdXfXfXfXfXfXqXj                                       ",
"          % ! ! + F.X o a Y J s.s.s.s.s.g.j.x.c.b.M._.`.}.@X=X9XpXgXfXfXfXfXfXiX;X.                                     ",
"          = 3.e h R.F.h 7 T g.s.s.s.g.h.k.x.c.T i q 0 ^ .X#X1XwXiXsXfXfXfXfXfXuXqXc                                     ",
"        + ~ 3.e > W.d > i g.d.g.h.j.k.x.v.b._ : X H.S.. k &X1X9XpXaXfXfXfXfXsX6X7X!..                                   ",
"        6 6.>.A * S.X ; F g.: F J z.E v.n.n.p $ d E.F.< @ oX<X6XrXiXaXsXsXdXuX+X,X!.;                                   ",
"      . K.I.>.{ m 7 : F h.h.7 # l L : 7.N.N.p h F.E.R.G.< XX,X4XeXrXpXiXpXrX2XI.+X7Xc                                   ",
"      . ~.U.:.{ I H H T j.j.R u yX-X3 _ n.B./ o X E.G.. ; /.*X=X4X9XeXeXwX4X'.u.'.5Xc                                   ",
"      . ~.I.=.C P G Y j.k.z.R # b v 3 _ B.C.A.L O d < ; l. X$X#X*X=X<X<X=X+XP.y.P.4Xc                                   ",
"      . ~.I.=.V D H Y k.z.x.R o . , $ 7.C.C.Z.A.0.7.0.^.+X@X X+X@X#X*X*X#X X>X>X].1Xx                                   ",
"      . XXU.=.N D H Y k.x.x.R + , D.5 7.Z.C.Z.(.(.(.).'.}.+X@X@X@X#X#X$X|.1XgXgX0X1Xx                                   ",
"      . OX|.=.V D H Y z.x.x.R > D.J.5 7.C.C.C.Z.(.(.(.(.'.[.|.}. X X}.'.P.3XfXfXuX5Xx                                   ",
"      . OX#X,.A S H Y &.x.x.z.p n J.5 7.B.C.C.C.Z.(.(.(.(.).).`.`.`.).(.i.].>X3X,X8Xx                                   ",
"        j %XL.X.N D Y E x.x.x.Y 5 J.5 7.B.V.C.C.C.Z.Z.Z.Z.Z.Z.Z.Z.Z.Z.i.8.@.@.y. XXX4                                   ",
"        @ OX|.=.C m D E &.x.x.x.L , @ 7.B.N.n.N.M.B.B.C.C.C.C.C.B.M.r.q.@.I ..p.#Xf.                                    ",
"          y %Xu.} V D W %.&.x.x.x.i p b.n.n.n.n.n.n.N.M.M.V.V.N.r.q.w.@.I N =.[.oX@                                     ",
"          1 OX}.4.{ N P U %.%.&.k.a Y c.b.m.n.n.n.n.n.e.e.e.q.q.8.$.+.I N } p. Xf.                                      ",
"            4 XX'.=.{ V I U +.%.W T *.*.*.*.8.8.e.e.e.q.q.q.q.9.$.#.C V } 4.[.(                                         ",
"              4 XXI.-...C V O.O.+.%.%.%.*.*.*.*.*.8.8.9.$.$.$.#...{ ] | 4.U.^                                           ",
"                1 XXI.<.} ] ] [ O.O.O.O.O.O.O.O.#.#.#.#.O...] ] ] '  .6.Y.)                                             ",
"                  1 !.K.6. .' ] B ] [ [ [ [ [ [ [ [ ] ] ] ] ] }  .>.5.` @                                               ",
"                    . y ` a.4. .' ' ] ] ] ] ] ] ] ] ' ' ' |  .>.6.;./ @                                                 ",
"                          k f Q 1.:.:. .| | o. . . .:.:.:.3.>.r g 2 .                                                   ",
"                                9 9 9 ;.2.>.1.1.1.1.1.3.2.w 6                                                           ",
"                                      & - = = = = = w 1.w                                                               ",
"                                                      +                                                                 ",
"                                                                                                                        ",
"                                                                                                                        ",
"                                                                                                                        ",
"                                                                                                                        ",
"                                                                                                                        ",
"                                                                                                                        ",
"                                                                                                                        ",
"                                                                                                                        ",
"                                                                                                                        "
};
