/* XPM */
static char *b311f698322d40feca3782ddbdb5d033f14jfS7cl0b4Sd98_2[] = {
/* columns rows colors chars-per-pixel */
"60 60 256 2 ",
"   c None",
".  c #010201",
"X  c #0A0C05",
"o  c #080905",
"O  c #0C1304",
"+  c #071605",
"@  c #161805",
"#  c #191918",
"$  c #1A0E00",
"%  c #241A00",
"&  c #092808",
"*  c #172908",
"=  c #193700",
"-  c #192712",
";  c #163717",
":  c #2C2B01",
">  c #223213",
",  c #313B04",
"<  c gray17",
"1  c gray22",
"2  c #1C3220",
"3  c #4D3E01",
"4  c #035400",
"5  c #164F09",
"6  c #28480A",
"7  c #39541B",
"8  c #2E520B",
"9  c #0C7200",
"0  c #116907",
"q  c #36670F",
"w  c #214E23",
"e  c #334D2B",
"r  c #1E6623",
"t  c #277727",
"y  c #3A7723",
"u  c #266B24",
"i  c #595600",
"p  c #484600",
"a  c #654900",
"s  c #6E5100",
"d  c #7A5A00",
"f  c #47751B",
"g  c #47780D",
"h  c #676400",
"j  c #414A36",
"k  c #48622C",
"l  c #4B7326",
"z  c #577437",
"x  c #484A48",
"c  c #545356",
"v  c #5B6349",
"b  c #63764B",
"n  c #6A7A52",
"m  c #727273",
"M  c #957101",
"N  c #1C900B",
"B  c #3C9400",
"V  c #1AB516",
"C  c #09B201",
"Z  c #25B30F",
"A  c #2D962C",
"S  c #38952D",
"D  c #368B36",
"F  c #388838",
"G  c #349534",
"H  c #339B33",
"J  c #399139",
"K  c #2E8B2E",
"L  c #1EB621",
"P  c #27A827",
"I  c #23BC23",
"U  c #2BBA2B",
"Y  c #32A532",
"T  c #38A936",
"R  c #35B635",
"E  c #56BC02",
"W  c #51B30D",
"Q  c #68BA15",
"!  c #548E2C",
"~  c #638A3A",
"^  c #40A031",
"/  c #66AA26",
"(  c #65B72C",
")  c #4B8910",
"_  c #16C407",
"`  c #1AC51A",
"'  c #1AC616",
"]  c #39D509",
"[  c #23CB1A",
"{  c #27CB16",
"}  c #26D111",
"|  c #2CD113",
" . c #34D212",
".. c #3BD813",
"X. c #2FC911",
"o. c #23C422",
"O. c #23CB22",
"+. c #29C529",
"@. c #2ACA2A",
"#. c #2CD42B",
"$. c #36D626",
"%. c #33C933",
"&. c #37C737",
"*. c #3BD633",
"=. c #3CD23B",
"-. c #42D705",
";. c #45DA14",
":. c #4ED40D",
">. c #6BD113",
",. c #4AE30C",
"<. c #59E505",
"1. c #4DE212",
"2. c #5BE914",
"3. c #58E417",
"4. c #67ED05",
"5. c #65EA16",
"6. c #72ED17",
"7. c #6BF01D",
"8. c #78F41A",
"9. c #6BF208",
"0. c #45D926",
"q. c #47D93C",
"w. c #63D020",
"e. c #58E634",
"r. c #54E52D",
"t. c #6BEE24",
"y. c #76F128",
"u. c #75F133",
"i. c #7AF137",
"p. c #70EC30",
"a. c #3CBE40",
"s. c #438D43",
"d. c #448344",
"f. c #449344",
"g. c #449D44",
"h. c #708C4F",
"j. c #44A344",
"k. c #44AB44",
"l. c #43BB43",
"z. c #44B444",
"x. c #77A946",
"c. c #43C543",
"v. c #43CB43",
"b. c #45DB44",
"n. c #47D744",
"m. c #56D541",
"M. c #67DC41",
"N. c #4CE345",
"B. c #52E644",
"V. c #5DEB45",
"C. c #5CE544",
"Z. c #64EA44",
"A. c #6AEC45",
"S. c #63E441",
"D. c #6BF244",
"F. c #7BF344",
"G. c #74F343",
"H. c #858200",
"J. c #959400",
"K. c #A09E00",
"L. c #A0A000",
"P. c #D8A500",
"I. c #E3AF00",
"U. c #E5B000",
"Y. c #80F916",
"T. c #84D136",
"R. c #87F727",
"E. c #90F32E",
"W. c #9BFD3E",
"Q. c #96FC37",
"!. c #8DEE36",
"~. c #C4C400",
"^. c #DADA00",
"/. c #F3F300",
"(. c #87B652",
"). c #8EA96B",
"_. c #92C65E",
"`. c #82F344",
"'. c #85FB45",
"]. c #8EFE44",
"[. c #9BFA46",
"{. c #8DE94A",
"}. c #A3FE4C",
"|. c #A5FF47",
" X c #AAFF56",
".X c #B1FF58",
"XX c #A2EA59",
"oX c #B5FE64",
"OX c #BCFF6E",
"+X c #B4FA68",
"@X c #BCFF74",
"#X c #B9FF76",
"$X c #AFF46D",
"%X c #97D26F",
"&X c #C1FF75",
"*X c #C4FF79",
"=X c #C0FF6E",
"-X c #8C9496",
";X c #ABACAA",
":X c #98AFBB",
">X c #B0C990",
",X c #BEFF86",
"<X c #B9C6A8",
"1X c #C6FF83",
"2X c #CBFF8D",
"3X c #C6FD86",
"4X c #CCFD95",
"5X c #D2FD99",
"6X c #D4FF95",
"7X c #C8EC8F",
"8X c #C6CBB1",
"9X c #D9FBA7",
"0X c #CEECB2",
"qX c #E1FFAD",
"wX c #E4FFB9",
"eX c #DADAD7",
"rX c #CBCDC4",
"tX c #EBFFC9",
"yX c #F0FFCA",
"uX c #F2FED5",
"iX c #F6FFDA",
"pX c #E7F3D6",
"aX c #ECECE9",
"sX c #FAFFE5",
"dX c #F8FFEC",
"fX c #FFFFFE",
"gX c #FBFFF1",
"hX c #EFFFE0",
"jX c #DDFCCC",
"kX c black",
"lX c black",
"zX c black",
"xX c black",
"cX c black",
"vX c black",
"bX c black",
"nX c black",
"mX c black",
"MX c black",
"NX c black",
"BX c black",
"VX c black",
"CX c black",
"ZX c black",
"AX c black",
"SX c black",
"DX c black",
"FX c black",
"GX c black",
"HX c black",
"JX c black",
"KX c black",
"LX c black",
"PX c black",
"IX c black",
"UX c black",
/* pixels */
"                                                                                                                        ",
"                                                    . . . . .                                                           ",
"                                                .             . .                                                       ",
"                                                                  .                                                     ",
"                                            .                       .                                                   ",
"                                            & *                     .                                                   ",
"                                          9 ] <.f                     .                                                 ",
"                                        9 _ -.4.[.b                                                                     ",
"                                      + C _ ] <.E.4Xn                   .                                               ",
"                                    . N C _ ] ,.6.1X9Xn                 .                                               ",
"                                    * Z V ' | ..1.!.5X9Xb                                                               ",
"                                  > W | V V o.$.$.5.}.2X9Xb               .                                             ",
"                              * f ( 3.V P P U @.$.0.t.Q.@X5Xh.v           .                                             ",
"                            O / R.2.X.P A Y T %.*.0.r.7.y. X2X7Xv .       .                                             ",
"                          ! w.3...X.P K D G T l.=.q.e.t.7.8.W.=X7X<Xj     .                                             ",
"                      - ) 6.1.{ I P A D F f.j.l.v.b.r.p.y.t.8.Q.@XwXeXx   .                                             ",
"                    l E.5...{ I P H D F s.f.j.l.v.b.B.e.u.y.7.8.Q.*XuXeXx                                               ",
"                k ! E.5...o.P P G D s.d.d.f.j.l.v.b.B.Z.u.u.y.8.Y.|.2XdXeXc .                                           ",
"              k {.R.1. .o.P A G D s.d.d.s.g.k.l.v.b.C.A.F.!.W.}.}..X3XwXfXeX1 .                                         ",
"            6 Q q = N I P G D s.s.s.s.s.g.j.k.c.b.b.Z.`.]. XoX@X1XqXiXgXfXfXm .                                         ",
"            8 5 J.: + t H D s.s.s.f.g.g.k.z.l.v.N.V.'.].}.OX&X1XwXgXfXfXfXfXaX< .                                       ",
"          = B : ~.H.p ; D s.s.f.f.g.j.z.l.v.c.H K S ( [.oX@X*X6XuXfXfXfXfXfXfXm o .                                     ",
"          B B , ^.L.h - F f.f.j.j.z.l.c.v.v.t X h h O ! $X&X*X9XsXfXfXfXfXfXfXaX# .                                     ",
"        + <.-.& K.: . e f.w J l.c.c.v.n.N.T X o ^.^.o O (.*X*X9XsXfXfXfXfXfXfXaX#   .                                   ",
"        * <.,.N 6 @ w f.j.; + w R u H N.V.S i ~././.~.i x.*X&X5XiXfXfXfXfXfXgXuX;Xo                                     ",
"      . W 4.,.' L A J g.k.T 2 :Xx # A V.Z.^ O @ ^.^.@ O (.*X&X2XtXsXgXfXfXgXwXqX8Xo   .                                 ",
"      . E 4...` o.Y G j.z.c.; -X;Xc S V.C.m.u . H.H.o l XX&X&X*X6XqXtXyXtX5XoX1X8Xo                                     ",
"      . E 4. .` o.Y G k.l.v.& . X $ S V.C.Z.M.! y y ! {..XOX&X&X*X1X3X2X5X,X[.&X>Xo     .                               ",
"      o T.9. .` o.Y H k.c.v.& o d a S Z.Z.D.F.'.'.'.'.].}..X=X&X@X@X@X4XuXhX4X#X>Xo       .                             ",
"      o >X8...[ o.R Y z.c.v.* s P.s S A.A.F.`.`.`.`.`.'.].[. XoXoXoX X4XfXfXhX3X%Xo       .                             ",
"      o 8X[.-.{ o.U Y z.c.v.* M I.s S A.D.F.`.`.`.`.`.`.`.`.].[.}.[.[. XjXdX9X#X%Xo       .                             ",
"        -X,X3.} ` I T R c.v.u M I.s S A.D.F.`.`.`.`.`.`.`.`.`.`.`.i.u.u.{.%Xi.}._.o       .                             ",
"        # 0X`.] ' o.U R l.v.R : I.s S Z.A.F.F.`.`.`.`.`.`.`.`.`.F.i.u.t.;.X.<.[.z       q b k                           ",
"        # pX3X5. .[ I R R c.c.y 3 % S V.Z.D.D.F.F.F.F.F.`.`.`.`.i.u.t.;.Z X.4.!.O     5 w.tX7X8                         ",
"          c uX[.,.| o.U R R v.v.r w n.B.B.V.Z.A.D.D.D.D.F.F.F.u.p.r.0.' V -.Y.7     . 9 :.$X Xq                         ",
"          < eXqXR.1.| o.U U %.&.t t b.N.B.B.N.B.C.C.C.S.S.S.e.r.$.$.[ ' ] 4.T.-       4 C ] -.0                         ",
"            x rX1X8.1.| o.I @.P t &.=.=.q.N.b.b.b.q.q.q.*.*.#.#.O.` ' ] <.>.8           4 9 4                           ",
"              m sX+X6.3...[ o.+.@.%.%.%.%.=.=.q.*.*.*.*.#.#.O.` ` { ] <.8.g               .                             ",
"              1 rXyX+X8.<.;.| O.o.+.+.+.%.%.%.%.@.@.@.@.O.O.` ' } ,.<.4.Q ,                                             ",
"                < j 0X#XR.4.3.;.| [ O.o.o.o.o.o.o.o.o.` ' ' } ] <.4.>.= *                                               ",
"                    e >X$X}.8.5.,.,.;. . .| } } }  .......3.9.8.6.y.6                                                   ",
"                      . v ).x.[.R.8.7.5.5.2.2.2.2.7.R.R.Q.W./ / q f *                                                   ",
"                          . o b z f T.|.W.Q.Q.Q.W..XOX&Xx.l o .     .                                                   ",
"                                    e k 7 ~ x.7 7 z 9X).-                                                               ",
"                                            -       n b                                                                 ",
"                                                      X         >                                                       ",
"                                                                k e                                                     ",
"                                                                                                                        ",
"                                                          o                                                             ",
"                                                        h._.@                                                           ",
"                                                        h._.@                                                           ",
"                                                          o                                                             ",
"                                                                                                                        ",
"                                                                                                                        ",
"                                                                                                                        ",
"                                                                                                                        ",
"                                                                                                                        ",
"                                                                                                                        ",
"                                                                                                                        ",
"                                                                                                                        "
};
