/* XPM */
static char *b311f698322d40feca3782ddbdb5d033f14jfS7cl0b4Sd98_0[] = {
/* columns rows colors chars-per-pixel */
"60 60 256 2 ",
"   c None",
".  c #010100",
"X  c #030C01",
"o  c #070909",
"O  c #041103",
"+  c #0C1305",
"@  c #0D1607",
"#  c #131511",
"$  c #1A1900",
"%  c #042905",
"&  c #162B07",
"*  c #063800",
"=  c #1D330A",
"-  c #1C3405",
";  c #183714",
":  c #1C2118",
">  c #2D2B00",
",  c #28341A",
"<  c #2C3C05",
"1  c #2F332B",
"2  c #185618",
"3  c #134907",
"4  c #254A07",
"5  c #285A08",
"6  c #31580D",
"7  c #1E6000",
"8  c #3E750C",
"9  c #215920",
"0  c #2E4A2A",
"q  c #1F6320",
"w  c #276425",
"e  c #34702A",
"r  c #595600",
"t  c #484600",
"y  c #43651B",
"u  c #666400",
"i  c #454B37",
"p  c #485B32",
"a  c #4B7526",
"s  c #517929",
"d  c #446621",
"f  c #5A5B59",
"g  c #4C5343",
"h  c #6B7B5B",
"j  c #697756",
"k  c #747C68",
"l  c #7B7B77",
"z  c #58644B",
"x  c #1C9C1C",
"c  c #1F951F",
"v  c #12860B",
"b  c #18A202",
"n  c #14B608",
"m  c #18A718",
"M  c #16B614",
"N  c #2EB506",
"B  c #2A8C2A",
"V  c #258E25",
"C  c #259525",
"Z  c #338C33",
"A  c #3A8A3A",
"S  c #338633",
"D  c #359635",
"F  c #39802B",
"G  c #21A421",
"H  c #2ABB2B",
"J  c #26BA26",
"K  c #35AA35",
"L  c #34B734",
"P  c #4A8C13",
"I  c #64B414",
"U  c #4C992D",
"Y  c #4C922B",
"T  c #629333",
"R  c #5BB334",
"E  c #4AAB32",
"W  c #71AF34",
"Q  c #13C511",
"!  c #1ACB14",
"~  c #1AC801",
"^  c #26CD08",
"/  c #34CC0B",
"(  c #29D405",
")  c #36D509",
"_  c #26C716",
"`  c #38CB11",
"'  c #38D415",
"]  c #2BD512",
"[  c #22C421",
"{  c #29CB25",
"}  c #32CE25",
"|  c #34D725",
" . c #33C933",
".. c #3CCC3C",
"X. c #36C036",
"o. c #37D534",
"O. c #2CD320",
"+. c #46DA08",
"@. c #49DB15",
"#. c #55DA15",
"$. c #5ACE17",
"%. c #6ADC1A",
"&. c #64CC0D",
"*. c #4DE707",
"=. c #56E706",
"-. c #4BE115",
";. c #40E111",
":. c #59E616",
">. c #67ED07",
",. c #6CF001",
"<. c #64E414",
"1. c #67E719",
"2. c #76EB1C",
"3. c #68F118",
"4. c #75ED0E",
"5. c #46D933",
"6. c #42DE20",
"7. c #7CD923",
"8. c #57E424",
"9. c #50E635",
"0. c #69EB25",
"q. c #6EF024",
"w. c #71F02A",
"e. c #78F424",
"r. c #64E839",
"t. c #75F133",
"y. c #79F133",
"u. c #7DF23C",
"i. c #72EC32",
"p. c #428E42",
"a. c #449244",
"s. c #449A44",
"d. c #43A343",
"f. c #44AB44",
"g. c #44B544",
"h. c #44BC44",
"j. c #798C62",
"k. c #44C444",
"l. c #44CC44",
"z. c #44D444",
"x. c #4BD944",
"c. c #51DB43",
"v. c #65DE41",
"b. c #55E344",
"n. c #4CE044",
"m. c #63EC44",
"M. c #6BEF44",
"N. c #79E643",
"B. c #74F344",
"V. c #7BF444",
"C. c #77F946",
"Z. c #6DF144",
"A. c #858200",
"S. c #969500",
"D. c #A09E00",
"F. c #A0A000",
"G. c #87F928",
"H. c #8AF538",
"J. c #94FC36",
"K. c #8AEE2D",
"L. c #C4C400",
"P. c #DADA00",
"I. c #F3F300",
"U. c #8EA476",
"Y. c #889C73",
"T. c #92D154",
"R. c #96EA4A",
"E. c #82F444",
"W. c #84F945",
"Q. c #88FF46",
"!. c #93FE45",
"~. c #9FFF45",
"^. c #9DFF4A",
"/. c #98F349",
"(. c #9EF054",
"). c #A6FF4C",
"_. c #A6FD48",
"`. c #A5FB52",
"'. c #ABFF53",
"]. c #ACFF5A",
"[. c #A6F55C",
"{. c #B2FF5C",
"}. c #A5EA58",
"|. c #AAF961",
" X c #B2FF64",
".X c #BAFF6D",
"XX c #B5FC69",
"oX c #BCFF73",
"OX c #B4FD7C",
"+X c #C3FF7D",
"@X c #C1FF77",
"#X c #C0FF6C",
"$X c #A6B391",
"%X c #ACAEA3",
"&X c #B2CD97",
"*X c #BFDBA0",
"=X c #C4FF84",
"-X c #C4FF8B",
";X c #CAFF8C",
":X c #C5FA84",
">X c #C8FE92",
",X c #D1FF95",
"<X c #D3FF9B",
"1X c #C2EF92",
"2X c #C7D4AE",
"3X c #D3FDA2",
"4X c #DAFFAB",
"5X c #D8FFA6",
"6X c #DCFFB1",
"7X c #DDFEBB",
"8X c #D5F5B3",
"9X c #CBF1A5",
"0X c #E0FFB5",
"qX c #E4FFBD",
"wX c #E8FFBC",
"eX c #D0D1CF",
"rX c #DAF7C4",
"tX c #E6FFC3",
"yX c #EAFFC4",
"uX c #EBFFCC",
"iX c #E6F9CB",
"pX c #EAFFD2",
"aX c #F2FFD6",
"sX c #F6FFDD",
"dX c #E4E5D1",
"fX c #EDEFE5",
"gX c #FAFFE5",
"hX c #FCFFEC",
"jX c #F6FFE7",
"kX c #FDFFF5",
"lX c #FFFFFE",
"zX c black",
"xX c black",
"cX c black",
"vX c black",
"bX c black",
"nX c black",
"mX c black",
"MX c black",
"NX c black",
"BX c black",
"VX c black",
"CX c black",
"ZX c black",
"AX c black",
"SX c black",
"DX c black",
"FX c black",
"GX c black",
"HX c black",
"JX c black",
"KX c black",
"LX c black",
"PX c black",
"IX c black",
"UX c black",
/* pixels */
"                                                                                                                        ",
"                                                                                                                        ",
"                                                                                                                        ",
"                                                                                                                        ",
"                                                                                                                        ",
"                                                                                                                        ",
"                                                                                                                        ",
"                                                                                                                        ",
"                                                                                                                        ",
"                                                                                                                        ",
"                                                                                                                        ",
"                                                                                                                        ",
"                                                                                                                        ",
"                                                                                                                        ",
"                                                                                                                        ",
"                                                                                                                        ",
"                                                                                                                        ",
"                                              . . . . . .                                                               ",
"                                            .             . .                                                           ",
"                                          .                   .                                                         ",
"                                          .                                                                             ",
"                                          .                                                                             ",
"                                          .                                                                             ",
"                                                                                                                        ",
"                                            .                                                                           ",
"                                            .                             .                                             ",
"                                            * 3 4                                                                       ",
"                                          % b *.>.8 .                                                                   ",
"                                          3 ( =.,.4.W y                         .                                       ",
"                                        % n ( =.>.,.J.}.p                         .                                     ",
"                                        3 ~ ( +.<.4.K.=X1Xp                                                     & =     ",
"                                      5 / n Q ] -.1.e.'.<X9Xz 0                       .                       5 K.XXT   ",
"                                    6 #._ M M _ | 8.q.G.'.;X0X*Xh h :                     . . .             O N /.7XXX= ",
"                              . 4 P $.` m x G H } 5.0.e.G._. X-X4XqX$Xj.o                       . . . . . . X b <./.K.- ",
"                          @ & I $.:._ x C B D K  .5.9.t.G.G.J._. X=X4X7X2Xk #                                 * b N 7   ",
"                    & & P %.#.@._ m x V B S D K k.x.r.t.y.t.y.G.J.{..X<XuXiXdXf 1                               X O     ",
"                  6 %.1.@.^ M m x C B Z S A D g.l.c.m.V.u.u.H.~.]..X;XwXgXgXhXlXdXg                                     ",
"              4 8 %.#./ M m x C V B S S A a.d.g.z.b.M.V.E.^.]..XoX,XtXgXkXkXkXlXlX2Xi                                   ",
"            4 &.3.' _ M m C V B Z S A A p.a.f.k.b.M.B.V.!.'..X+X<XwXsXlXlXlXlXlXlXgX2Xi                                 ",
"          - &.=.n M M G C B Z S A p.a.a.s.f.h.c.m.C.E.W.^.{..X,X0XuXhXlXlXlXlXlXlXhXyX*X,                               ",
"        < &.=.b 4 @ 2 B Z Z A p.a.s.d.f.f.h.z.m.B.E.W.!.).{.+X5XyXaXhXlXlXlXlXlXlXkXtX7Xg                               ",
"      . I ,.N % D.> . 2 Z p.a.s.d.f.g.h.l.c.m.C.W.Q.!.~.'.XX=X6XyXaXhXlXlXlXlXlXlXkXtX7X9X#                             ",
"      d 7.=.v < P.F.u ; s.s.d.f.g.h.k.z.b.Z.v.Y e e U R.{..X=X4XtXuXsXkXlXlXlXlXlXhX4X4X8Xh                             ",
"    . W G.;.v > L.A.t ; d.d.f.h.k.l.z.b.B.v.w X A.A.X a (.#X@X<XqXuXaXjXlXlXlXlXkXyX-X=X6X&X.                           ",
"    j XX2.' m % S.> o e f.9 D g.k.g.c.B.W.E + $ P.P.$ + W XX@X;X6XtXuXaXsXgXgXaXqX,X.X X3X&X#                           ",
"    h oX3.' [ C ; & e d.g.2 w ; h.w U C.W.U r L.I.I.L.r W {.oX+X<X0XtXtXyXtXqX4X<X+X^.J.OX7XY.                          ",
"    k oX1.' { H D s.g.g.l.k.9 2 e 9 R E.W.R O X P.P.X + W '. XoX+X,X5X4X5X<X<X;X>XoXJ.G.].6XU..                         ",
"    k +X1.@.{ H K d.g.k.l.l.l.L q E C.E.E.N.F O u u + Y /.'.'. X.X.X.X.XXXXXoXoX<X7X>X^._.,XU.                          ",
"    l 3Xq.-.| { L f.g.k.l.l.l.l.z.b.B.E.E.E.N.R U U R N.!.^._.'.'.'.].{.{.{._.).5XlXjXXX).=XU.                          ",
"    l pXH.:.6.} L K g.k.l.l.l.l.l.x.M.E.E.E.E.W.W.W.W.E.E.Q.!.~._.)._._._.~.J.H.OXrX3X^.`.T.,                           ",
"    o %X-X1.-.| { L K g.k.l.l.l.l.z.b.M.V.E.E.E.E.E.E.E.E.E.E.W.!.!.!.J.J.H.y.w.r.v.i.G.).T..                           ",
"      l iX(.<.@.{ H L L X.....l.l.l.z.b.M.B.V.E.E.E.E.E.E.E.E.u.u.u.y.y.t.w.w.:.@.' <.J.`.T                             ",
"      . eX0XH.:.@.{ H H L L  .......z.z.n.m.Z.V.V.V.u.u.u.u.u.t.t.t.w.w.w.q.:.' / +.2.).(.@                             ",
"        f fX5XH.<.@.} [ H J H  . . . .....o.5.9.r.r.i.i.t.t.t.w.w.q.q.3.1.-.` ` +.>.J.`.a                               ",
"          f fX0X(.2.#.' _ [ [ J J J {  . . .o.o.5.5.9.8.8.8.8.8.8.:.-.-.+.` / +.>.J.`.a                                 ",
"            f eXrX;X/.2.#.' ` _ _ _ [ [ [ [ [ [ [ { O.' ' ' ` ` ' ' ) ) ^ ( +.2.~.`.s                                   ",
"              . l $XtX-X`.H.0.@.' ] ] ! Q ! ! Q Q Q ! ! _ _ ^ ^ / ( ( ) +.:.H.`.W s                                     ",
"                  o l k &XqX-X|.R.y.1.:.+.) ) ( ( ( ^ ( ) ) ) ) +.-.:.3.G.W s s X                                       ",
"                        1 f g i j.3X:XXX[./.K.q.q.1.%.1.1.<.1.2.2.P 4 6 6 <                                             ",
"                                  1 1 1 , , , = = = = = = = = = =                                                       "
};
