/* XPM */
static char *result[] = {
/* columns rows colors chars-per-pixel */
"60 60 232 2 ",
"   c #1E1B0C",
".  c #1F1E13",
"X  c #231E0E",
"o  c #221F11",
"O  c #25210E",
"+  c #2A250D",
"@  c #2E2C0D",
"#  c #32270C",
"$  c #332C0B",
"%  c #35310D",
"&  c #39320E",
"*  c #252313",
"=  c #292514",
"-  c #2D2A15",
";  c #262619",
":  c #2A261A",
">  c #272818",
",  c #2D2B1B",
"<  c #322D14",
"1  c #382F12",
"2  c #322D1C",
"3  c #2F301D",
"4  c #343215",
"5  c #3A3415",
"6  c #373B16",
"7  c #3D3915",
"8  c #35311C",
"9  c #3A351C",
"0  c #3D3A1C",
"q  c #2F2D20",
"w  c #322E21",
"e  c #353222",
"r  c #3A3523",
"t  c #3D3A24",
"y  c #3C3628",
"u  c #3E3A29",
"i  c #433817",
"p  c #423C15",
"a  c #433D1B",
"s  c #403725",
"d  c #423D23",
"f  c #423E2A",
"g  c #443E31",
"h  c #3B4415",
"j  c #3D421B",
"k  c #424216",
"l  c #45421C",
"z  c #49441C",
"x  c #444B1D",
"c  c #4B4A1D",
"v  c #544B1A",
"b  c #49531E",
"n  c #5A521E",
"m  c #454224",
"M  c #4A4523",
"N  c #454A23",
"B  c #4C4B24",
"V  c #45422C",
"C  c #49452C",
"Z  c #4D492C",
"A  c #524C25",
"S  c #584F26",
"D  c #524D2B",
"F  c #4C5423",
"G  c #4A5724",
"H  c #4D5229",
"J  c #535224",
"K  c #5B5425",
"L  c #545A25",
"P  c #5B5926",
"I  c #54532C",
"U  c #5A542D",
"Y  c #535B2B",
"T  c #5C5B2C",
"R  c #464331",
"E  c #494531",
"W  c #4D4933",
"Q  c #4D4739",
"!  c #534D32",
"~  c #524E3A",
"^  c #4F5230",
"/  c #555234",
"(  c #5B5433",
")  c #565C32",
"_  c #5C5B33",
"`  c #56523A",
"'  c #5A553A",
"]  c #5D593D",
"[  c #625925",
"{  c #625B2C",
"}  c #625C33",
"|  c #655B38",
" . c #625C3C",
".. c #4E6026",
"X. c #5A642D",
"o. c #58662C",
"O. c #576530",
"+. c #5B6333",
"@. c #5D6B34",
"#. c #5D6339",
"$. c #5F6939",
"%. c #67622D",
"&. c #646334",
"*. c #6A6434",
"=. c #626B35",
"-. c #6C6935",
";. c #64653C",
":. c #6B653B",
">. c #636B3B",
",. c #6D6B3B",
"<. c #736B37",
"1. c #736C3B",
"2. c #697B36",
"3. c #65723C",
"4. c #69743D",
"5. c #6B7C3E",
"6. c #75713E",
"7. c #7B743D",
"8. c #5C5741",
"9. c #5D5942",
"0. c #635E43",
"q. c #625E48",
"w. c #656343",
"e. c #6B6545",
"r. c #676B41",
"t. c #6B6D44",
"y. c #66624B",
"u. c #6A654B",
"i. c #6D6A4A",
"p. c #746E41",
"a. c #736D4C",
"s. c #786F4B",
"d. c #677340",
"f. c #6C7444",
"g. c #6E7A43",
"h. c #6F7449",
"j. c #6F794B",
"k. c #737343",
"l. c #7B7542",
"z. c #707B44",
"x. c #7D7946",
"c. c #73734B",
"v. c #7C744D",
"b. c #747C4B",
"n. c #7B7D4D",
"m. c #6E6A53",
"M. c #736E52",
"N. c #757154",
"B. c #7B7453",
"V. c #7C7B53",
"C. c #777159",
"Z. c #7A765C",
"A. c #7E7B5B",
"S. c #7D7A60",
"D. c #827A45",
"F. c #857B46",
"G. c #827C4A",
"H. c #827B56",
"J. c #887F55",
"K. c #837C5B",
"L. c #877D58",
"P. c #837E62",
"I. c #6E843D",
"U. c #758745",
"Y. c #76824C",
"T. c #79854C",
"R. c #768A48",
"E. c #7C8C4D",
"W. c #768151",
"Q. c #7C8452",
"!. c #7D8A53",
"~. c #7F9353",
"^. c #86814C",
"/. c #8C844C",
"(. c #948A4B",
"). c #818256",
"_. c #8B8355",
"`. c #858A55",
"'. c #85835B",
"]. c #8C845C",
"[. c #838C5B",
"{. c #8C8B5E",
"}. c #928A57",
"|. c #938A5C",
" X c #849656",
".X c #85935A",
"XX c #89965C",
"oX c #8B9D5A",
"OX c #9B935A",
"+X c #858064",
"@X c #8C8562",
"#X c #8D8B64",
"$X c #8C866A",
"%X c #8E8B6B",
"&X c #918662",
"*X c #948C65",
"=X c #998E66",
"-X c #938C6B",
";X c #998F6A",
":X c #8B9463",
">X c #8C9962",
",X c #8F9668",
"<X c #949165",
"1X c #9C9363",
"2X c #95976A",
"3X c #9C936C",
"4X c #918C71",
"5X c #999573",
"6X c #9B9472",
"7X c #9E9A73",
"8X c #A1966C",
"9X c #A59B6D",
"0X c #A89C6B",
"qX c #A39B74",
"wX c #A99D74",
"eX c #A49D79",
"rX c #A89F7A",
"tX c #92A366",
"yX c #98A66A",
"uX c #9DA475",
"iX c #9FB171",
"pX c #A1AE6F",
"aX c #A1A775",
"sX c #ACA173",
"dX c #ACA47B",
"fX c #B3A87C",
"gX c #A5B678",
"hX c #ACA682",
"jX c #B5AA81",
"kX c #BCB38A",
"lX c #C8BE96",
"zX c #B1C684",
/* pixels */
"G.7.1.G.7.6.,.T z 6 0 m B D Z 4 $ < # # # i v v v [ [ %.<.{ S A l U ( A a i 7 a M l z { (.(.OX(.7.7.K A i 9 0 a d d 0 8 ",
"G.D.D._.G.G.6.T j % 7 M Z / / 7 9 4 1 2 # i S *.7.7.D.F.F.*.K z p A ' ( D d a B a a i K (.(.(.(.F.D.{ S i i a 0 M 9 a 8 ",
"1.1.G.G._.G.k.{ l % a A I I I a 9 i r 9 9 i p.}.OXOX(.D.6.*.{ S z A I _ U A D U z i a { (.(.D./.J.D.p.U z l m a a 5 a 0 ",
"{ &.k.1.n.x.k.*.c % l D I J A B 5 d f i i M G.=X8XOX_.<.*.*.1.&.A J c I _ _ I U I z p U  X/.<.6.D.l.p.} I B l 0 0 5 d d ",
"c J U T ,.1.1.,.S 4 i D I B c B 7 d C s 5 M s.l.D.G.x.%.*.7.x.,.P J l c _ &.T U U B z U _.7.&.%.&.-.&.,._ I M l 7 5 7 a ",
"k 7 k J U _ :.:.D 1 5 a A J z z i d Z d 1 D { K T -.-.P -.k.k.-.P K c k J &.;.} U A A | n.4._ J J I P ;.&.&._ J a & $ 0 ",
"7 & 7 B M S | :.| i 1 a A I A l p M M a 9 ( A z v P T J %.-.-.X.L L J k c T 1._ K A U | p.k.;.P x z T &.,.1.k.;.A 5 @ 4 ",
"c x j l B M D ( ! i # & a A A z l M d < i U a z J T P J X.,.=.P L n X.c k J &.T D U A M I ,.k.Y h 7 L L T &.,.:.T z 4 0 ",
"I N j j G Z m m d 0 + - t N H Y J L b c k F x x L o.o.n L %.o.P b F &.L L L L o.Y O.L F ..I.I.O.b h b b Y Y Y Y ^ j 6 4 ",
"#.Y N x N Z B V t 8 + - 6 m Z +.+.o.%.X.L L G x ..2.2.=.o.o.X.Y F Y 4.4.2.U.U.I.U.g.4.@.I.~.R.I.o...@.@.3.$.) H N j 4 4 ",
";.;.Y Z j N ! D t 4 @ 4 0 m H G >.z.4.=.3.3.O.G o.I. XR.g.4.=.+.O.O.4.U.XXyXiXyXtX>X.X!.~.oX XR.I.3.2.3.3.d.$.) N h 4 @ ",
"#.d.r.) 0 j Y ) N 6 3 6 N N H j X.5.5.6.5.5.g.O.=.I. XoX.X!.b.b.f.$.$.g. XyXgXgXgXgXiXoX~.oXoXE.U.3.o.G N H Y ) H j 6 @ ",
"H _ t.$./ F I +.) j 6 m H H Y x k X.U. X!.g.Y.Y.R. XiXgXtX:X[.`.W.h.j.d.g.R. X>XyX2X.X!.!.~.E.~.R.W.T.@.G x h 6 6 N N 6 ",
"N N Y ) ) Y O.>.r.G x H #.>.$.@.3.E.yXpXoX:XoX>XtXgXzXiX!.f.f.j.W.!.:XY.d.@.@.4.g.Y.Y.b.4.3.@.3.g.T.:X!.r.Y N N 6 j V N ",
"N B Z H H Y O.>.d.#.Y +.j.!.!.[.yXpXpXyX~.~.~.>XyXgXiX~.O.G Y $.r.j.W.j.g.@.L @.3.b.Q.b.3.$.>.@.$.j.Q.Q.f.#.;.;.) ) ^ E ",
"B Y Y ' / ) X.>.f.>.$.3.W.>X>XyXgXyX X^.Y.d.d.~.tXtX~.@.N N G O.) O.$.f.j.g.O.3.f.Q.).b.r.>.f.d.>.3.>.k.;.;.d.t.q.m.y.~ ",
"N H _ w.r.$.>.g.b.f.g.g.W..X>X>XXXT.4.X.Y G o.Q.>X!.@.b x G #.c.j.] O.$.h.f.$.d.Q.{.{.Q.r.r.V.n.h.>.T >.#.;.t.r.#.m.y.` ",
"6 0 ^ ;.i.f.j.W.Q.g.b.f.d.g.Y.j.k.>.Y b G O.g..X[.d.F x Y ;.V.2XuX%Xh.r.i.r.;.h.{.*X2X@Xh.r.b.'.V.h.:.;._ ;.h.i.9.' W V ",
"M m B m ) t.b.W.Y.d.g.d.>.+.O.$.+.) Y Y $.:X2X,XY.+.G #.).H.).<X7XkX7X-X%X:Xi.;.H.}.3XqX@XB.J.$X[.B.c.;.r.a.a.w./ V r e ",
"N l m 9 j H $.h.f.f.f.>.+.+.>.#.) O.#.f.[.,X:X[.n.h.b.#X2X:X#X3X7XhX7X6X5X%Xh.w.*X3XqXfXqX#X-X7X;X'.B.e.r.i.e.! C 8 r , ",
"d 0 0 < @ 6 F O.#.h.f.$.+.+.#.) +.r.j.+XuX:X[.'.Q.).#X7XaX3X7XrXeXqX5X6X6XP.a.e.6XqXwXjXjX6XqXqX6X#XV.i.0.w. .W 0 3 , e ",
"0 0 7 < O @ j Z #.h.r.r.;.+.) _ i.A.'.%XuX'.`.[.#X#X3X6XqXqXqXwX;X6X4X4XP.M.| p.3XwXwXfXhX8XqXqX;X'.N.e. .' ' E 8 r : , ",
"9 9 8 8 + @ 6 ^ r.t.r.r.r.&._ c.#X4X%X#X7X#X{.<X<X*X6X*X8X8XqX3XL.&X;XK.i.0.! 0.=XqXwXwX3X=X=X=X@XH.w. .~ ! W g e e , , ",
"9 0 8 0 - 3 V y.A.;.r.c.t.;.t.#XuX5X%X*X7X7X<X1X<X;XqX*X8X=X=X*XH.L.P.M.0. . .e.;XrX9X1X=X|.=X].K.s.' ( W f f r r ; 3 , ",
"1 9 2 s 9 9 ] P.A.I c.H.c.t.).5XhX6X-XqXsXsX8X1X*X*XqX&X;X=X=X=Xv.L.B.i.9.]  .| *XwXwX8X8X8X3X|.L.p.( ! g s w : : . q q ",
"2 1 1 s s C m.$XB.( V.#X).H.*X6XeX6X6XeX8X8X8X1X|.@X;X@X&X*X=X;Xv.H.N.u.( V V D @X9XwXwX0X0X8X|.L.e.( g s 1 w : ; ; ; q ",
"< 8 8 s r ` S.$XC.a.H.H.].<XqXqXhX6X6X=X].}.OX}.].*X;X*X].].].J.s.B.a.0.` ! ] A.7XqX9XwX0X0X=X}.G.| ! s w : o : . ; ; ; ",
"< < 8 # s ' Z.$XB.H.H.H.].1XqXqXrXqX3X*X_.J.|._._.@X*X;X&X].].L.a.C.i.q.` Z q.qXdXwX0X0X0X0X*X].s.' f i < o o o ; ; ; q ",
"< 2 1 = f ' H.L.K.H.L.H.L.;X8XqX8X8X;X&X].].|.].L.&X&X;X;X-X-X*XC.C.i.q.! s ( eXhXdXwX0XfX8X=X].c.' m 6 : = o * ; ; , 3 ",
"1 1 2 2 f ( H.;X@XL.L.H.H.*XqX7X3X;X&X*XL.&X&XL.L.&X&X6XqXqX6X$XM.u. .' V i ( rXlXkXfXfXjXwX8X=XK.0.C 8 o = * * ; ; ; , ",
"0 8 1 r f ! u.&X-X*X].B.H.].;X3X;X&X;X=X&X;X&XL.L.L.&X;XqX6X+XC. .` W Z d i ~ eXlXlXlXfXfXwXqXqX@X0.C t - = > ; : ; ; : ",
"5 1 1 s s ! e.P.@X-X$XK.K.K.@X-X@XH.H.B.B.s.B.e.e.H.@X;X6XK.e. .! ! V f d f ` ;XkXkXsX0X0XqXwXqX@Xe.m 6 3 > > : q q : : ",
"5 + 1 8 8 M  .B.K.P.+XK.H.K.K.$XB.i. .( ( D ( / ( 0.L.-X%Xa.! C W W V m V C ! K.6X3X=X=X1X8XqX8X@Xe.V 8 1 = > , 3 q , ; ",
"5 < 9 2 2 d ! 0.i.M.a.a.u.a.a.M.w.( M M d M M C Z | C.&XK.] M m C W V f m V C e.K.K.].{.}.|.=X*XL.M.' d 8 - : , , 3 , : ",
"i < 0 1 1 r M ~ ( ' ' ~ ~ ' ` ! C d d m d C M M Z ' N.*XA.] m m f V V u u m t ^ i.B.@X|.J._.].].@XK.a.! r : , , , w , ; ",
"5 1 8 < < 4 t d V V M d M C V 8 9 9 d C m C C M Z ] C.4X+X] V m t V V u u u 8 Z e.K.#X@XL._.L.L.-X-XP.q.u 4 - 8 q w w , ",
"a a 0 1 1 8 9 0 t m C E Z E g d r f m C W m C C C ` u.4XP.' 0 8 8 R R R R f r W u.'.$X].].|.&X*X5X6X$Xq.f - = 2 , e w , ",
"A M M m 5 < < 8 r C E E E W f f V V E V W E m d f W q.M.y.W t 8 t u R f u e u ^ u.N.A.'.].*X@X-X;X6X4Xq.f , = , w e e , ",
"{ U D A 0 < < < 8 d d f E Q E f V f f d f d t t d Z ] y.] C t r t r f u e 3 e V ' r.u.a.L.@X$X;X4X4XP.8.r # - 2 w w e 2 ",
":.:.} U a 5 < - < 2 8 y f E E E u y t y t t d r s f ~ q.8.C t t t e f u u u f E 8.u.i.u.c.B.].$X$XP.C.! 8 : - 2 w e e 2 ",
"1.:.*.} A 0 < - - + = < r t f R s y e r s C E r 8 u Q 8.9.W d r r r f y y f Q 9.M.S.N.w.w.e.N.A.Z.m.0.s w , - : q e e q ",
"*.*.:.} S m 4 + + O O = = , r y y s w r f 0.0.f 8 r V 8.8.W f r y r g s r r g q.Z.Z.r./ ` W 9.y.q.' g 1 2 - = , q y e 3 ",
"*.<.k.1.{ Z 0 = - @ + + X X : 2 : # 2 2 f q.q.~ t 8 t W ` W C s r 2 f g y w y q.C.m.9.W C f W W E f r - 2 : * : 3 e e 3 ",
"[ -.1.*.K I m < - < = O X X = : o X o # 2 C ' ' R r 8 t V W W E s 2 , r r e g y.m.y.^ C f f f t 8 e w w = o : 2 q q q q ",
"[ -.<.*.P ( Z 0 1 2 # = X o = < o o X X X < t W W u r 4 r V ! W s - = 2 r r g y.m.9.W C u R y 8 , 2 , w * * : : q 3 , q ",
"n %.<.*.{ U ! m 8 1 2 = < - o o = o = + X O < t V V r 8 e t f C d = o - 2 e f 0.y.9./ E R V e , w w o r : * : > , , > 3 ",
"v [ *.%.{ ( D M 0 5 < : 2 2 = = : = * * O X = 2 t f r 2 < 4 r t i = o = * = 8 R ` ' ` ! Q g q , w w ; w , : > > q 3 3 3 ",
"M A | { { U U S z 4 1 1 < 1 2 = , q , : ; o ; * : e 2 , = * : e w - o o O * - 2 t f g g Q g w : q w w q q 3 q q e , e 3 ",
"a A | | *.| | { B 5 $ $ 4 2 2 , 2 2 , , : o ; . . = - - * O * * : * * * * O * = e r r u Q y r o : y : e w : : w e e e 3 ",
"a M S { { | *.*.S & @ < 8 8 < 2 2 : 2 2 q : : o X O * * * * X O * : * * o X * = 8 e r f ~ f r 2 , e : r w , : w 3 e 3 3 ",
"a a S S K K } U v 4 # 5 a r 2 2 2 < 2 2 2 2 2 = O * X X O * * * = : 2 - = * * - e t u V E d 8 , : : = = w w w w , e : = ",
"A A S { [ U K A l & $ a m M a 9 8 2 2 2 9 8 2 - = * X   X * * = , e w 2 , = = 2 8 r u f C s 8 - - = = = , , 2 2 : : * o ",
"Z ( | 1.<.{ K z & $ $ p Z ! C d a 8 8 9 t 8 4 < = * X   * * * - q g u e 2 , * 3 , e r u V m 6 4 - - * * , , , , * * X   ",
"I } 1.l.D.*.U p i $ $ p D ( ( C d 8 8 a m d 0 9 - * O * = * * , u 8.E y e , * , > 3 e e j u 3 , - O -   o = = * * o   . ",
"D } 1.7.D.*.K a & $ $ a U | ( Z l 5 9 m D D B a 4 > = > = O O - u 8.Q V r , , , , 3 e r t V 8 r 4 * 8 O - : * * o o o + ",
"! _ *.<.7.&.S p & $ $ a ( | | ( M i 7 C ( / D a 6 - > O O X O - u E ` Q u 8 e = 3 3 3 e e t e q - > : * * * o o X   X X ",
"B ( } -.%.n z p & p $ i U } ' ( d i a B | U D l 9 8 , O - - O - e t R E V t 8 : , , 3 e e e e q > ; * * o o o X = X X X ",
"m D K *.n v p i p p i p A U U U l i i M _ _ A a 7 , 3 * - = O - 3 4 d u s u e 8 8 e 3 e e y e q > * * ; o o o = = = # = ",
"d A A [ v p p i A D z z A D ( U M 7 7 l ( | D p 4 3 4 - - @ - < 5 2 8 9 r 9 9 2 8 3 , e e e e e , o o : o = : - = , , # ",
"d M A [ v p & a ( } S A M A ( ( D a i M  .p.U a 6 8 8 6 4 8 0 0 8 0 7 4 1 1 8 = , = * - w w w 8 : o o , , , = : X 2 1 2 "
};
