/* XPM */
static char *be67015041604a3ae13cc211d985a088kbSWmZL7y6gzwXSx[] = {
/* columns rows colors chars-per-pixel */
"50 50 137 2 ",
"   c #666665",
".  c #666867",
"X  c #676868",
"o  c #6B6B6C",
"O  c #6F6E70",
"+  c #716F72",
"@  c #6F7072",
"#  c #747175",
"$  c #767479",
"%  c #79767B",
"&  c #76797C",
"*  c #7B787E",
"=  c #7E7B82",
"-  c #827D85",
";  c #847F88",
":  c #7B8286",
">  c #7F8489",
",  c #818087",
"<  c #85838B",
"1  c #88858F",
"2  c #828A8F",
"3  c #898790",
"4  c #878B93",
"5  c #868A92",
"6  c #878891",
"7  c #868A92",
"8  c #898891",
"9  c #898992",
"0  c #8A8993",
"q  c #898A93",
"w  c #898B94",
"e  c #8A8A94",
"r  c #8A8D95",
"t  c #8B8C96",
"y  c #8B8D96",
"u  c #888E96",
"i  c #888F96",
"p  c #8A8E97",
"a  c #8C8D97",
"s  c #8A8B94",
"d  c #8C8F98",
"f  c #869297",
"g  c #879197",
"h  c #869298",
"j  c #879298",
"k  c #8B919A",
"l  c #8C9099",
"z  c #8D9099",
"x  c #8D909A",
"c  c #8D919A",
"v  c #8E909A",
"b  c #8E909B",
"n  c #8E919B",
"m  c #8C929B",
"M  c #8E929C",
"N  c #8F929C",
"B  c #8F949D",
"V  c #8F949E",
"C  c #8E959E",
"Z  c #8F959E",
"A  c #8C979E",
"S  c #8F969F",
"D  c #8E939C",
"F  c #90949E",
"G  c #90969F",
"H  c #90959F",
"J  c #8D98A0",
"K  c #8E99A1",
"L  c #8E9BA3",
"P  c #8E9BA3",
"I  c #9096A0",
"U  c #9097A0",
"Y  c #9097A1",
"T  c #9097A1",
"R  c #9098A1",
"E  c #9198A2",
"W  c #9199A3",
"Q  c #9299A3",
"!  c #929AA4",
"~  c #929BA4",
"^  c #929BA5",
"/  c #939BA5",
"(  c #929CA5",
")  c #939DA6",
"_  c #909FA7",
"`  c #949DA7",
"'  c #929BA5",
"]  c #939FA8",
"[  c #949EA8",
"{  c #949FA9",
"}  c #959FA9",
"|  c #949EA8",
" . c #95A0AA",
".. c #95A1AB",
"X. c #96A1AB",
"o. c #95A2AB",
"O. c #95A2AC",
"+. c #96A2AC",
"@. c #96A3AC",
"#. c #96A3AD",
"$. c #96A4AD",
"%. c #96A4AE",
"&. c #97A4AE",
"*. c #96A5AE",
"=. c #97A5AF",
"-. c #96A3AD",
";. c #98A5AF",
":. c #97A6B0",
">. c #97A7B0",
",. c #97A7B1",
"<. c #97A6B0",
"1. c #98A6B0",
"2. c #98A7B1",
"3. c #98A7B1",
"4. c #98A8B2",
"5. c #99A8B2",
"6. c #98A9B2",
"7. c #99A9B3",
"8. c #98AAB4",
"9. c #99AAB4",
"0. c #9AAAB4",
"q. c #9AAAB5",
"w. c #9AABB5",
"e. c #9BABB6",
"r. c #9AACB6",
"t. c #9BADB7",
"y. c #9AABB5",
"u. c #9BADB8",
"i. c #9BAEB8",
"p. c #9BAEB9",
"a. c #9CAEB9",
"s. c #9CAFB9",
"d. c #9BAEB8",
"f. c #9CB0BA",
"g. c #9DB1BB",
"h. c #9EB1BC",
"j. c #9DB1BB",
/* pixels */
"t./ ; + o * N 2.N = o # - / t.t.i.6.: $ ] s.0.: o = k 0.i.t.t.t.a.0.a.a.h o $ 3 &./ ; - = o + - ` t.",
"C 1 $ o o # , l > # # - C *.t.t.i.8.: @ 7 [ ,.: @ p  .t.t.t.i.i.a.a.7.R < o $ 3 #.2.U 8 = + o % 1 F ",
"- % X o O O # % O O < / t.i.t.t.0.] = o * F ,.: # J 0.t.i.0.*. .{ &.` < $ o % 8 ;.a.t.l * o X X % - ",
"- % o % - - * o X $ L 0.t.t.t.r./ 2 @ o = l ,.: o = N 8.i. .7 < < ; ; - $ o $ 1 #.a.e.l - o X o % - ",
"# # * p  .[ p * o # 1 / t.f.7.N > # o o O = w & X o * p l 3 $ + + + + + + X o & 3 d d 1 = o   X O + ",
"  # < / f.f./ < + o # 2 / [ T 1 $ X X X X O $ # # + # % % $ o o + + + + + + + + % % % % % # + + o X ",
"X # = R 7.7.R - # X o # - - - - % o X o X X O * < < * o X o X # - ; < ; ; < ; = o X o o # - < < # o ",
"X X # , w p = + o X X X O o + o # = = % O O = d  . .d - * $ o # - F &.#.&.[ w = o + = d _  .*. .7 * ",
"# # X + $ $ + + $ # # # # o X + - v 3 = o + < / f.a.*.F C p * # % T i.i.f.i.[ 4 O + - d Q Q Q I 8 - ",
"; % o X o o % < < 3 3 ; - # O , U 7.F , # # - C 2.t.t.t.t.*.1 # O h i.i.t.t.0.K $ + - - = - = - - = ",
", % o $ = = w #.2.2.1.I , + $ K 0.t.7._ < # # * a *.a.t.a.&.8 $ O h a.u.i.8.T - O X o o o O o O O o ",
", % o % 1 N #.t.a.a.a.1.C & @ 8  .0. .d 1 % X + % p [ t.f.;.3 $ o > N d N m 3 = O X o X o + $ $ # $ ",
"* $ o $ 1 *.f.t.e.e.t.a.0.2 + % 7 _ 8 * = $ X X o % 8 / ;.R , $ O $ = = = % = = O o   X O = ; 0 0 0 ",
"o o o % 1 *.i.t.t.t.t.a.7.p * + $ - $ o o X X X X o $ < < - + # = $ o o o o o O = = o X o = d 2.e.5.",
"C : o # 8 ;.f.f.a.i.i.a.0.N = o o o # % % # X   X X o + + + $ 1 [ L u = O o O = T t % O O = N 0.a.a.",
"f._ : * = K [ / / [ _ [ / w = o X # < l a < # # + o X X . o - a [ { Q 3 $ o = I 8.:.t = # $ 4 0.a.a.",
"7.7.#.= o = ; - - - - - - - * O $ < _ t.t./ < ; - O X o X o = - - - - - $ + h t.0.0.,.d % O = :.0.5.",
"s s 3 $ X O O O O O O O O O + % 1  .7.t.i.7.#.#.K < # X X o o O O o O o # - R 7.l 8 8 1 - + $ 6 0 w ",
"$ $ # + X X O + + + $ O X O * p #.0.[ / 7.a.f.f.*.3 % o + $ # + # + + # # % 4 l = # # $ + o o # $ $ ",
"o o O o X X + - < 1 ; $ o $ 1 [ 0.0.C 8 [ ,.,.t.*.3 $ o $ ; < 3 1 1 1 1 = O % * + o o O + o o X o o ",
"- - * + X X # ; I } 1 % o % ; < C 0.0. .w < 3 [ #.7 $ o $ 3 [ 2.*.;.,.,.C - # + % - - - = - $ o $ - ",
"F I U < # o # ; } 1.3 $ o $ < F  .0.i.8._ 8 ; 8 p & = 4 N ` 0.a.t.a.i.a._ - + + = w U 0 - $ $ = w Q ",
"t.a.e.F = o + - F ` 1 % o $ 3 / 6.i.t.t.a./ < = % + <  .0.i.t.0.t.t.t.t.R ; + o = a ` d % o + ; ` u.",
"t.t.7.d = O + - ; ; - % o % - ; N 6.t.t.0./ - # O % - < _ 0.t.i.t.t.t.t./ ; + O = - ; ; = o + - / 0.",
"f.&.a = O X o # + + + # % # # = < a &.0.D 1 - # X # + + , U 7.a.a.i.a.a./ < # X o O O O + X + ; / a.",
"/ p % # @ # o X o + + = w = # $ = - F I < - - # X o O + # = F [ ` _ ` / p * # # = : = : = # # = d [ ",
"- % o * < - % o $ - < N 2.N = O + - - ; - - = # # - < < # # = - - - - - % o % < _ 8.,.2.] 1 $ o & - ",
"O # = C _ 3 % o $ 1 R ,.t.2.R < $ + * - ; * # # , R *.[ 1 % # o O + O + X o % < 3 p w w 3 < % o o o ",
"X + - v l = # % 2 T ,.i.t.i.0.R < % # % % # # < R 7.f.7.l * o X X X X X X X + $ # $ # $ $ $ + X + + ",
"X + - - * o # - / t.t.t.t.a.0.2.F - # X X % 1  .t.t.d.7.G , # o X X o o o o o o o O O X o o o O = 3 ",
"X o o o o X # - / t.t.a.t.i.*.p < - # o % s  .t.t.t.t.t.w./ < # o X o * - - - - = - = + o % = - N 2.",
"$ $ $ $ $ $ # $ 1 R 0.*.F C p % # # o o = C t.f.t.t.t.t.f.;.1 % o + = N Q I U U U d - + o - 3 / 2.i.",
"; < 3 0 s s - # # , ~ k * % % # o + o + % 8  .0.t.t.t.t.i.,.l = # # < K 7.a.a.t.i. .8 * @ % 7  .0.i.",
"; a 2.e.7.7.R - # O - * O o # * ; - < * # # < R t.t.t.t.t.t.0.U - # @ = l 7.t.t.t.t.*.p * O # < / 0.",
"/ &.e.a.a.t.2._ < $ # # % $ = C / [ _ C = # # : F 7.i.t.a.a.f./ ; + X O = p #.f.a.*.d = # $ # # ; d ",
"[ &.t.t.t.t.a.t._ 1 O O - 1 C 6.f.t.t.7.F < # # - C [ _ / [ [ p * # + + # % p [ / p * + $ 1 < # $ $ ",
"- a 2.t.t.7.7.7.t.L # @ < _ 0.t.t.t.t.t.t.A - # o = - - - - - % O * < ; * o % - - % O % 7 *._ < # o ",
"o * 8  .2.l 8 8 p > @ =  .t.t.t.t.t.t.t.f.A # X X o O o o + + # = l #.#.l = + O O + = k *.t.7.] 3 = ",
"X # - a l = # $ # # X = R 7.t.t.t.f.f.7._ < o o $ # + # # + X + ; / i.a.2.N & o O = N *.i.t.i.0.b - ",
"X # - - * O o o o o o # - C *.,.;.;.;._ < # o % ; 1 3 1 < - + + 1 ] i.t.a.7.: o - U 0.i.t.i.i.0.d - ",
"X # - # + * = - = - = $ + = 1 1 1 1 1 , #   o % 1 [ 7.X.a * o : #.0.t.t.a.0.: # K t.0.i.0.i.i.0.d - ",
"f > $ # * l R R R N 1 % X o # # # # # # o   X O * a F F : # o & N F R 0.2.l % + 7 #.i.i.i.i.j.0.d - ",
"i.h @ * N 2.a.i.a.2.l = # X X o o O o o o o # o # % * % # O o # % % > R N = + o $ 6 [ #.] #.#.] 6 * ",
"i.h @ 5 7.t.t.t.i.t.0.C - + + = - = # o = , - - * O o O % - - * O o # = * o X . o $ ; < < < ; < $ o ",
"i.h @ = C 2.a.t.t.,.N < # # , F F , # # D  ./  .A @ O & p  ./ ~ A J u $ O X . O $ $ + + + + + + $ % ",
"i.h o # 1 #.i.t.i.#.1 $ X % 8 7./ , + $  .h.f.f. .# @ < / f.f.f.s.h.*.# . X X + - * X X X X   o % ; ",
"i.h @ $ w #.i.t.i.#.w % o $ 1  .R , @ # L w.7.t.L # O - G 7.7.2.>.,.L & . X X O * % o o o o o o & - ",
"i.f @ 5 ,.0.t.t.i.0.*.l - # # 2 3 , # O < s 8 p < @ X O - s s < & & & & $ X X o + + % = * % = * # O ",
"i.h @ > [ 7.t.t.t.7._ 8 % o o # % $ + o # % # # % # # # $ $ $ + @ @ % d 6 $ o o O > N C N T T N = # ",
"f.h o # 8 *.i.t.i.#.3 $ o X X X X X X X X X X X o - < - + . o # = ; 6 ,./ ; O o = N 0.i.i.e.i.0.d ; "
};
